<svg width="309" height="298" viewBox="0 0 309 298" fill="none" xmlns="http://www.w3.org/2000/svg">
<g clip-path="url(#clip0_1_1478)">
<path d="M95.5232 207.771L256.944 207.771C260.39 207.771 263.184 204.954 263.184 201.479V9.83891C263.184 6.36414 260.39 3.54727 256.944 3.54727L95.5232 3.54727C92.0771 3.54727 89.2836 6.36414 89.2836 9.83891L89.2836 201.479C89.2836 204.954 92.0771 207.771 95.5232 207.771Z" fill="white"/>
<path d="M88.8994 201.48V9.83883C88.9014 8.06823 89.5999 6.37074 90.8416 5.11877C92.0833 3.8668 93.7668 3.16259 95.5228 3.16064H256.944C258.7 3.16259 260.383 3.8668 261.625 5.11877C262.866 6.37074 263.565 8.06823 263.567 9.83883V201.48C263.565 203.25 262.866 204.948 261.625 206.2C260.383 207.452 258.7 208.156 256.944 208.158H95.5228C93.7668 208.156 92.0833 207.452 90.8416 206.2C89.5999 204.948 88.9014 203.25 88.8994 201.48ZM95.5228 3.93491C93.9703 3.93665 92.4819 4.55926 91.3841 5.66614C90.2863 6.77303 89.6687 8.2738 89.6669 9.83922V201.48C89.6687 203.045 90.2863 204.546 91.3841 205.653C92.4819 206.76 93.9703 207.382 95.5228 207.384H256.944C258.496 207.382 259.984 206.76 261.082 205.653C262.18 204.546 262.798 203.045 262.799 201.48V9.83883C262.798 8.27341 262.18 6.77264 261.082 5.66576C259.984 4.55887 258.496 3.93626 256.944 3.93452L95.5228 3.93491Z" fill="#292A2E"/>
<path d="M128.553 297.844C128.498 297.844 128.443 297.832 128.393 297.809C128.343 297.786 128.299 297.752 128.263 297.71C128.227 297.668 128.2 297.619 128.184 297.566C128.169 297.512 128.165 297.456 128.173 297.401L141.006 208.102C141.012 208.051 141.029 208.002 141.054 207.957C141.08 207.913 141.114 207.874 141.154 207.843C141.195 207.812 141.241 207.789 141.291 207.776C141.34 207.763 141.391 207.761 141.442 207.768C141.492 207.775 141.541 207.793 141.584 207.819C141.628 207.846 141.666 207.881 141.696 207.922C141.726 207.963 141.748 208.011 141.76 208.06C141.772 208.11 141.774 208.162 141.765 208.213L128.93 297.512C128.917 297.604 128.872 297.688 128.803 297.749C128.733 297.809 128.645 297.843 128.553 297.844Z" fill="#292A2E"/>
<path d="M223.915 297.844C223.823 297.844 223.734 297.81 223.664 297.749C223.595 297.689 223.549 297.605 223.536 297.513L210.702 208.212C210.69 208.112 210.717 208.01 210.777 207.929C210.838 207.849 210.928 207.795 211.028 207.781C211.127 207.766 211.229 207.792 211.31 207.852C211.391 207.912 211.446 208.001 211.462 208.101L224.297 297.402C224.305 297.457 224.301 297.513 224.285 297.566C224.27 297.619 224.243 297.669 224.207 297.711C224.171 297.753 224.126 297.786 224.076 297.809C224.026 297.832 223.972 297.844 223.917 297.844L223.915 297.844Z" fill="#292A2E"/>
<g opacity="0.1">
<path d="M106.841 101.983L245.626 101.983C248.066 101.983 250.044 99.9888 250.044 97.5287V22.76C250.044 20.2999 248.066 18.3055 245.626 18.3055L106.841 18.3055C104.401 18.3055 102.423 20.2999 102.423 22.76V97.5287C102.423 99.9888 104.401 101.983 106.841 101.983Z" fill="#367CFF"/>
</g>
<g opacity="0.1">
<path d="M102.267 188.443V116.419C102.268 115.183 102.756 113.998 103.622 113.124C104.489 112.25 105.664 111.758 106.89 111.757H245.193C246.418 111.759 247.593 112.25 248.46 113.124C249.326 113.998 249.814 115.183 249.815 116.419V188.443C249.814 189.679 249.326 190.864 248.46 191.738C247.593 192.612 246.418 193.104 245.192 193.105H106.89C105.664 193.104 104.489 192.612 103.622 191.738C102.755 190.864 102.268 189.679 102.267 188.443Z" fill="#367CFF"/>
</g>
<path d="M232.132 182.475H234.877C235.29 182.475 235.625 182.137 235.625 181.72V128.849C235.625 128.432 235.29 128.095 234.877 128.095H232.132C231.719 128.095 231.384 128.432 231.384 128.849V181.72C231.384 182.137 231.719 182.475 232.132 182.475Z" fill="white"/>
<path opacity="0.3" d="M236.372 182.475H239.117C239.53 182.475 239.865 182.137 239.865 181.72V145.928C239.865 145.512 239.53 145.174 239.117 145.174H236.372C235.959 145.174 235.624 145.512 235.624 145.928V181.72C235.624 182.137 235.959 182.475 236.372 182.475Z" fill="#367CFF"/>
<path d="M198.194 182.475H200.939C201.352 182.475 201.687 182.137 201.687 181.72V176.348C201.687 175.931 201.352 175.594 200.939 175.594H198.194C197.781 175.594 197.446 175.931 197.446 176.348V181.72C197.446 182.137 197.781 182.475 198.194 182.475Z" fill="white"/>
<path opacity="0.3" d="M202.435 182.475H205.18C205.593 182.475 205.928 182.137 205.928 181.72V142.857C205.928 142.441 205.593 142.103 205.18 142.103H202.435C202.022 142.103 201.687 142.441 201.687 142.857V181.72C201.687 182.137 202.022 182.475 202.435 182.475Z" fill="#367CFF"/>
<path d="M215.163 182.474H217.908C218.321 182.474 218.656 182.137 218.656 181.72V150.678C218.656 150.262 218.321 149.924 217.908 149.924H215.163C214.75 149.924 214.416 150.262 214.416 150.678V181.72C214.416 182.137 214.75 182.474 215.163 182.474Z" fill="white"/>
<path opacity="0.3" d="M219.404 182.474H222.149C222.562 182.474 222.896 182.137 222.896 181.72V161.925C222.896 161.509 222.562 161.171 222.149 161.171H219.404C218.991 161.171 218.656 161.509 218.656 161.925V181.72C218.656 182.137 218.991 182.474 219.404 182.474Z" fill="#367CFF"/>
<path d="M147.286 182.474H150.031C150.444 182.474 150.779 182.137 150.779 181.72V139.365C150.779 138.949 150.444 138.611 150.031 138.611H147.286C146.873 138.611 146.539 138.949 146.539 139.365V181.72C146.539 182.137 146.873 182.474 147.286 182.474Z" fill="white"/>
<path opacity="0.3" d="M151.527 182.475H154.272C154.685 182.475 155.02 182.137 155.02 181.721V155.515C155.02 155.098 154.685 154.761 154.272 154.761H151.527C151.114 154.761 150.779 155.098 150.779 155.515V181.721C150.779 182.137 151.114 182.475 151.527 182.475Z" fill="#367CFF"/>
<path d="M181.225 182.474H183.97C184.383 182.474 184.718 182.137 184.718 181.72V146.208C184.718 145.791 184.383 145.454 183.97 145.454H181.225C180.812 145.454 180.477 145.791 180.477 146.208V181.72C180.477 182.137 180.812 182.474 181.225 182.474Z" fill="white"/>
<path opacity="0.3" d="M185.465 182.474H188.21C188.623 182.474 188.958 182.137 188.958 181.72V150.399C188.958 149.982 188.623 149.645 188.21 149.645H185.465C185.052 149.645 184.717 149.982 184.717 150.399V181.72C184.717 182.137 185.052 182.474 185.465 182.474Z" fill="#367CFF"/>
<path d="M164.255 182.475H167C167.413 182.475 167.748 182.137 167.748 181.72V128.849C167.748 128.432 167.413 128.095 167 128.095H164.255C163.842 128.095 163.507 128.432 163.507 128.849V181.72C163.507 182.137 163.842 182.475 164.255 182.475Z" fill="white"/>
<path opacity="0.3" d="M168.496 182.475H171.241C171.654 182.475 171.989 182.137 171.989 181.72V131.468C171.989 131.052 171.654 130.714 171.241 130.714H168.496C168.083 130.714 167.749 131.052 167.749 131.468V181.72C167.749 182.137 168.083 182.475 168.496 182.475Z" fill="#367CFF"/>
<path d="M130.318 182.475H133.063C133.476 182.475 133.811 182.137 133.811 181.72V128.849C133.811 128.432 133.476 128.095 133.063 128.095H130.318C129.905 128.095 129.57 128.432 129.57 128.849V181.72C129.57 182.137 129.905 182.475 130.318 182.475Z" fill="white"/>
<path opacity="0.3" d="M134.558 182.475H137.303C137.716 182.475 138.051 182.137 138.051 181.72V145.928C138.051 145.512 137.716 145.174 137.303 145.174H134.558C134.145 145.174 133.81 145.512 133.81 145.928V181.72C133.81 182.137 134.145 182.475 134.558 182.475Z" fill="#367CFF"/>
<path d="M113.349 182.474H116.094C116.507 182.474 116.842 182.137 116.842 181.72V150.678C116.842 150.262 116.507 149.924 116.094 149.924H113.349C112.936 149.924 112.601 150.262 112.601 150.678V181.72C112.601 182.137 112.936 182.474 113.349 182.474Z" fill="white"/>
<path opacity="0.3" d="M117.589 182.474H120.334C120.747 182.474 121.082 182.137 121.082 181.72V161.925C121.082 161.509 120.747 161.171 120.334 161.171H117.589C117.176 161.171 116.841 161.509 116.841 161.925V181.72C116.841 182.137 117.176 182.474 117.589 182.474Z" fill="#367CFF"/>
<path opacity="0.2" d="M239.904 45.1594V91.4483C239.904 91.6451 239.826 91.8339 239.688 91.9732C239.55 92.1124 239.363 92.1907 239.168 92.1908H113.299C113.103 92.1907 112.916 92.1124 112.778 91.9732C112.64 91.8339 112.563 91.6451 112.563 91.4483V66.8745C112.562 66.7441 112.596 66.6161 112.661 66.5032C112.726 66.3903 112.819 66.2966 112.931 66.2314L135.216 53.2573C135.33 53.1912 135.459 53.1569 135.59 53.1579C135.721 53.1589 135.849 53.1952 135.962 53.2631L145.994 59.3087C146.119 59.3844 146.264 59.4207 146.41 59.413C146.556 59.4053 146.697 59.3539 146.814 59.2653L157.348 51.292C157.455 51.2106 157.583 51.1603 157.716 51.1467C157.85 51.133 157.985 51.1565 158.106 51.2147L171.106 57.449C171.245 57.5157 171.401 57.5369 171.552 57.5095C171.704 57.4822 171.843 57.4077 171.95 57.2966L186.383 42.3541C186.507 42.2248 186.674 42.1456 186.853 42.1314C187.031 42.1171 187.208 42.1688 187.351 42.2767L196.723 49.3527C196.859 49.4553 197.026 49.5075 197.195 49.5005C197.365 49.4934 197.526 49.4276 197.653 49.314L203.785 43.8195C203.909 43.7085 204.066 43.6428 204.231 43.6331C204.396 43.6233 204.56 43.67 204.696 43.7657L213.398 49.8909C213.523 49.9788 213.672 50.0255 213.825 50.0244C213.977 50.0232 214.126 49.9745 214.25 49.8847L229.297 38.9649C229.413 38.8808 229.55 38.8324 229.693 38.8256C229.835 38.8187 229.977 38.8537 230.1 38.9262L239.54 44.5171C239.651 44.5827 239.743 44.6765 239.807 44.7892C239.871 44.9019 239.904 45.0296 239.904 45.1594Z" fill="#367CFF"/>
<path opacity="0.61" d="M112.986 66.2365C113.051 66.2366 113.114 66.2194 113.17 66.1866L135.524 53.1723L146.167 59.5858C146.23 59.6235 146.302 59.6416 146.375 59.6378C146.448 59.6339 146.518 59.6083 146.577 59.5641L157.684 51.1567L171.361 57.7157C171.43 57.7488 171.508 57.7592 171.584 57.7453C171.66 57.7314 171.729 57.694 171.783 57.6383L186.808 42.081L196.919 49.7154C196.987 49.7667 197.07 49.7928 197.155 49.7893C197.24 49.7857 197.321 49.7528 197.384 49.696L204.183 43.6025L213.552 50.199C213.615 50.243 213.689 50.2663 213.765 50.2657C213.841 50.2652 213.916 50.2408 213.978 50.1959L229.644 38.8292L239.295 44.5443C239.337 44.569 239.383 44.5852 239.431 44.592C239.478 44.5987 239.527 44.5959 239.574 44.5837C239.621 44.5715 239.665 44.55 239.703 44.5207C239.742 44.4913 239.774 44.4546 239.799 44.4125C239.823 44.3705 239.84 44.324 239.846 44.2758C239.853 44.2275 239.85 44.1783 239.838 44.1311C239.826 44.0839 239.805 44.0396 239.775 44.0007C239.746 43.9618 239.71 43.929 239.668 43.9043L229.81 38.0662C229.748 38.0298 229.678 38.0122 229.606 38.0155C229.535 38.0189 229.466 38.0431 229.408 38.0851L213.759 49.4395L204.366 42.8278C204.298 42.7799 204.216 42.7565 204.133 42.7614C204.051 42.7662 203.972 42.799 203.91 42.8545L197.118 48.9411L186.987 41.2928C186.916 41.2388 186.827 41.2129 186.738 41.22C186.649 41.2272 186.565 41.2668 186.503 41.3315L171.437 56.9322L157.797 50.3906C157.736 50.3615 157.669 50.3497 157.602 50.3565C157.535 50.3633 157.471 50.3885 157.418 50.4293L146.33 58.822L135.714 52.4243C135.658 52.3905 135.593 52.3724 135.528 52.3719C135.462 52.3714 135.398 52.3886 135.341 52.4216L112.799 65.5447C112.729 65.5856 112.674 65.6488 112.643 65.7243C112.612 65.7999 112.607 65.8836 112.628 65.9626C112.649 66.0415 112.695 66.1113 112.76 66.161C112.824 66.2108 112.903 66.2377 112.984 66.2377L112.986 66.2365Z" fill="#367CFF"/>
<path d="M31.1445 280.637C31.1445 280.637 32.8771 289.691 41.286 290.197C49.695 290.703 47.8714 297.457 47.8714 297.457H15.7373V281.268L31.1445 280.637Z" fill="#A9F8FD"/>
<path d="M13.5586 115.441C13.5586 115.441 15.9616 112.718 15.9405 118.893C15.861 141.927 14.3196 286.416 14.3196 286.416L35.4353 286.237L48.2266 114.505L13.5586 115.441Z" fill="#262626"/>
<path d="M67.2012 280.637C67.2012 280.637 68.9338 289.691 77.3427 290.197C85.7516 290.703 83.9281 297.457 83.9281 297.457H51.7939V281.268L67.2012 280.637Z" fill="#A9F8FD"/>
<path d="M71.2857 117.229C71.2857 117.229 73.9236 195.954 73.6496 199.802L71.1691 285.819L50.4025 286.206L47.0536 196.69C47.0536 196.69 44.8586 171.997 38.9417 149.068C35.9145 137.3 34.0927 125.25 33.5049 113.107L71.2857 117.229Z" fill="#262626"/>
<path d="M43.8896 173.045L45.6211 146.343C45.6211 146.343 47.3997 157.444 47.3997 167.012C47.3997 171.689 46.4446 190.206 46.4446 190.206L43.8896 173.045Z" fill="#0A0A0A"/>
<path d="M13.3288 115.438L13.2598 115.442C13.2598 115.442 13.3097 114.099 13.3288 115.438Z" fill="#333333"/>
<path d="M13.4158 115.438L13.3467 115.442C13.3467 115.442 13.3966 114.099 13.4158 115.438Z" fill="#333333"/>
<path d="M129.123 51.5403C128.996 51.2863 128.794 51.0784 128.544 50.9453C128.295 50.8122 128.011 50.7605 127.731 50.7974C127.733 50.7804 127.732 50.763 127.726 50.7468C127.72 50.7306 127.711 50.7161 127.698 50.7044C127.686 50.6927 127.671 50.6843 127.654 50.6799C127.638 50.6755 127.621 50.6751 127.604 50.679L128.548 49.9968C128.831 49.8018 129.034 49.5102 129.12 49.1758C129.206 48.8415 129.169 48.4871 129.015 48.1782C128.854 47.8779 128.589 47.6486 128.27 47.5348C127.95 47.4211 127.601 47.431 127.288 47.5626C127.291 47.5494 127.282 47.5363 127.28 47.5239L127.668 47.2433C127.933 47.0585 128.127 46.7869 128.217 46.4745C128.306 46.162 128.286 45.828 128.16 45.5288C128.076 45.3429 127.953 45.1778 127.799 45.0456C127.645 44.9135 127.464 44.8174 127.269 44.7644C127.073 44.7114 126.869 44.7028 126.669 44.7391C126.47 44.7755 126.282 44.856 126.117 44.9747L125.222 45.6221C125.219 45.6167 125.222 45.6105 125.219 45.6054C125.215 45.6004 125.205 45.5985 125.2 45.5931C125.406 45.3599 125.527 45.0632 125.543 44.7517C125.559 44.4401 125.47 44.1322 125.29 43.8785C124.868 43.1929 123.892 43.3329 123.313 43.7512L118.043 47.4217L118.985 45.8225C119.175 45.5149 119.242 45.1461 119.172 44.7906C119.103 44.4352 118.902 44.1197 118.61 43.9079C118.456 43.8038 118.282 43.7325 118.1 43.6983C117.918 43.6641 117.73 43.6678 117.549 43.7091C117.368 43.7503 117.197 43.8284 117.047 43.9384C116.897 44.0484 116.771 44.1882 116.676 44.349L111.534 53.0796C110.931 54.1037 110.747 55.3248 111.022 56.4832C111.298 57.6416 112.01 58.6462 113.008 59.2834C114.166 60.0225 115.516 60.3962 116.886 60.3566C118.255 60.317 119.582 59.8658 120.695 59.0609L128.653 53.3094C128.918 53.111 129.108 52.8284 129.194 52.5073C129.279 52.1862 129.254 51.8454 129.123 51.5403Z" fill="#E98862"/>
<g opacity="0.25">
<path d="M120.008 49.2485C120.027 49.2752 120.056 49.2933 120.088 49.2988C120.121 49.3043 120.154 49.2968 120.181 49.2779L125.188 45.7811C125.202 45.7716 125.213 45.7595 125.222 45.7455C125.231 45.7314 125.237 45.7158 125.24 45.6994C125.243 45.6829 125.243 45.6661 125.24 45.6498C125.236 45.6335 125.229 45.618 125.22 45.6043C125.211 45.5906 125.199 45.5789 125.185 45.5698C125.171 45.5608 125.155 45.5546 125.139 45.5516C125.123 45.5486 125.106 45.5489 125.09 45.5524C125.074 45.556 125.058 45.5627 125.045 45.5722L120.038 49.0689C120.01 49.0882 119.991 49.1176 119.985 49.1507C119.979 49.1839 119.987 49.218 120.006 49.2458L120.008 49.2485Z" fill="#0C0C0C"/>
</g>
<g opacity="0.25">
<path d="M121.476 51.5176C121.496 51.5445 121.525 51.5627 121.557 51.5683C121.59 51.5738 121.623 51.5663 121.65 51.5474L127.238 47.6447C127.265 47.6254 127.284 47.596 127.29 47.5628C127.296 47.5297 127.288 47.4956 127.269 47.4679C127.25 47.4411 127.221 47.4229 127.188 47.4169C127.155 47.411 127.122 47.4177 127.094 47.4358L121.506 51.3384C121.479 51.3577 121.46 51.3871 121.454 51.4202C121.448 51.4534 121.456 51.4875 121.474 51.5153L121.476 51.5176Z" fill="#0C0C0C"/>
</g>
<g opacity="0.25">
<path d="M123.053 53.9845C123.072 54.0113 123.101 54.0294 123.134 54.0349C123.166 54.0404 123.199 54.0328 123.226 54.0139L127.684 50.901C127.711 50.8818 127.73 50.8524 127.736 50.8192C127.742 50.7861 127.734 50.7519 127.715 50.7242C127.696 50.6965 127.667 50.6775 127.634 50.6715C127.601 50.6655 127.568 50.6729 127.54 50.692L123.083 53.805C123.055 53.8242 123.036 53.8536 123.03 53.8868C123.024 53.9199 123.032 53.9541 123.051 53.9818L123.053 53.9845Z" fill="#0C0C0C"/>
</g>
<path d="M108.5 51.0898L93.396 77.0272L74.9669 52.6531L59.6621 66.5663L85.7991 100.699L85.9703 100.942C87.0165 102.386 88.4103 103.539 90.0204 104.29C91.6304 105.042 93.4036 105.367 95.1731 105.237C96.9425 105.106 98.6498 104.524 100.134 103.544C101.619 102.564 102.831 101.219 103.658 99.6365L125.135 60.4182L108.5 51.0898Z" fill="#A9F8FD"/>
<path d="M91.9158 80.1465C91.8854 80.1464 91.8554 80.1391 91.8283 80.1252C91.8059 80.1136 91.7859 80.0977 91.7695 80.0784C91.7532 80.059 91.7407 80.0366 91.733 80.0125C91.7252 79.9883 91.7222 79.9628 91.7242 79.9374C91.7262 79.9121 91.7332 79.8874 91.7447 79.8648L93.2255 76.9395C93.237 76.9169 93.2528 76.8967 93.2719 76.8802C93.2911 76.8638 93.3133 76.8512 93.3373 76.8434C93.3613 76.8356 93.3866 76.8326 93.4117 76.8346C93.4368 76.8366 93.4613 76.8436 93.4838 76.8552C93.5062 76.8667 93.5262 76.8826 93.5426 76.902C93.5589 76.9213 93.5713 76.9437 93.5791 76.9679C93.5869 76.9921 93.5898 77.0176 93.5878 77.0429C93.5858 77.0682 93.5789 77.0929 93.5674 77.1156L92.0866 80.0408C92.0705 80.0726 92.0461 80.0993 92.016 80.1179C91.9858 80.1365 91.9512 80.1464 91.9158 80.1465Z" fill="#0C0C0C"/>
<path d="M73.9044 76.8798L73.4434 85.072L73.8265 85.0939L74.2875 76.9017L73.9044 76.8798Z" fill="#0C0C0C"/>
<path d="M25.2368 17.5911C25.2368 17.5911 24.5291 26.7097 22.455 29.9968C16.484 39.4602 14.6624 50.1629 20.4684 55.8335C26.2744 61.5041 63.716 62.0187 66.6985 49.1669C69.2108 38.3469 64.0998 37.1207 62.9555 28.1561C62.4378 24.1006 60.9834 15.5918 60.9834 15.5918" fill="#0A0A0A"/>
<path d="M57.1673 47.1122C57.1029 47.1037 56.3856 59.1042 42.5598 58.0579C32.9886 57.3347 29.5759 47.0951 29.3564 47.0951C30.3883 46.8742 32.1263 46.5534 32.5845 46.3058C34.0914 45.4893 35.9564 44.6396 36.4422 41.6884C36.7224 39.9859 36.2473 31.2852 36.3935 29.5645L51.0854 32.8709C50.8801 36.5058 49.4434 44.9321 54.4792 46.4234C55.3173 46.6699 56.2199 46.897 57.1673 47.1122Z" fill="#E98862"/>
<path opacity="0.52" d="M51.2916 42.9798C51.0615 42.2319 50.9132 41.4609 50.8495 40.6806C50.6879 38.8998 50.72 37.1064 50.9454 35.3327C47.9593 34.9264 45.146 33.6835 42.8255 31.7454C42.5526 32.7615 41.0522 37.2012 41.4678 38.1662C42.2529 39.991 45.943 42.9798 51.2916 42.9798Z" fill="#0C0C0C"/>
<path d="M49.3439 39.2028C43.5455 39.7004 36.0779 37.2766 34.6151 29.481L33.2947 22.4468C31.8314 14.6511 34.7061 7.55657 41.9856 6.16745C49.2648 4.77834 55.892 10.0597 57.3552 17.8554L57.9397 20.9694C58.5011 23.9609 59.6899 38.3152 49.3439 39.2028Z" fill="#E98862"/>
<path d="M55.8647 21.309C56.3687 21.309 56.7772 20.8971 56.7772 20.3889C56.7772 19.8807 56.3687 19.4688 55.8647 19.4688C55.3607 19.4688 54.9521 19.8807 54.9521 20.3889C54.9521 20.8971 55.3607 21.309 55.8647 21.309Z" fill="#0C0C0C"/>
<path d="M46.5161 22.5683C47.02 22.5683 47.4286 22.1563 47.4286 21.6482C47.4286 21.14 47.02 20.728 46.5161 20.728C46.0121 20.728 45.6035 21.14 45.6035 21.6482C45.6035 22.1563 46.0121 22.5683 46.5161 22.5683Z" fill="#0C0C0C"/>
<path d="M51.6461 28.3936H51.6603C51.9552 28.3351 52.2466 28.2602 52.5333 28.1692C52.9612 28.0303 53.5222 27.8008 53.4489 27.4108C53.3657 26.9666 51.2597 22.4045 51.0195 21.8857C50.9985 21.8404 50.9605 21.8053 50.9139 21.7882C50.8673 21.7711 50.8159 21.7734 50.771 21.7945C50.7261 21.8157 50.6913 21.8539 50.6743 21.9009C50.6574 21.9479 50.6597 21.9998 50.6806 22.0451C51.579 23.9879 53.0257 27.1821 53.0813 27.4812C53.0333 27.6197 52.3226 27.8832 51.5909 28.0229C51.5428 28.0314 51.5 28.0584 51.4714 28.0983C51.4429 28.1382 51.431 28.1878 51.4382 28.2364C51.4454 28.285 51.4712 28.3289 51.51 28.3586C51.5489 28.3884 51.5977 28.4016 51.6461 28.3955V28.3936Z" fill="#0C0C0C"/>
<path d="M50.5684 31.7596C51.7557 31.6041 52.8902 31.1695 53.8804 30.4909C53.922 30.4636 53.9512 30.4208 53.9614 30.3719C53.9717 30.323 53.9623 30.272 53.9353 30.2301C53.9083 30.1882 53.8659 30.1588 53.8174 30.1484C53.7689 30.138 53.7182 30.1475 53.6767 30.1747C51.5335 31.5828 49.4041 31.8103 47.5188 30.8325C47.4807 30.8117 47.4415 30.793 47.4013 30.7764C47.3548 30.7599 47.3037 30.7626 47.2592 30.7839C47.2146 30.8052 47.1802 30.8434 47.1635 30.8901C47.1467 30.9369 47.149 30.9884 47.1697 31.0335C47.1905 31.0786 47.2281 31.1136 47.2743 31.1309C47.2893 31.1371 47.3127 31.1502 47.348 31.1696C48.3393 31.6851 49.4606 31.8906 50.5684 31.7596Z" fill="#0C0C0C"/>
<path d="M27.4708 24.8984L33.9944 23.6919C38.9362 21.6756 40.4309 13.0488 40.4309 13.0488C40.4309 13.0488 46.4357 18.9484 60.9829 15.5937C60.9829 15.5937 58.0665 -4.86267 36.5747 1.08343C29.6447 3.00149 24.671 10.043 25.2927 19.4538C25.7248 26.0499 27.4708 24.8984 27.4708 24.8984Z" fill="#0A0A0A"/>
<path d="M35.5122 31.7696C33.3004 32.1918 31.0589 30.1476 30.6387 27.9169C30.2185 25.6862 31.7827 24.114 33.9949 23.6919L35.4148 24.9688L37.4141 31.4067L35.5122 31.7696Z" fill="#E98862"/>
<path d="M52.353 18.1555C52.9983 17.7356 53.7437 17.4982 54.5112 17.4683C54.889 17.4515 55.2672 17.4918 55.6332 17.5879C55.9956 17.6818 56.3449 17.8213 56.6728 18.0031C56.719 18.026 56.7544 18.0664 56.7712 18.1155C56.788 18.1647 56.7848 18.2185 56.7625 18.2653C56.7401 18.3121 56.7003 18.3481 56.6517 18.3654C56.6031 18.3828 56.5498 18.3801 56.5032 18.3579L56.4893 18.3513C56.1863 18.2012 55.8658 18.0901 55.5354 18.0205C55.2086 17.95 54.8731 17.9297 54.5403 17.9605C53.8803 18.0162 53.2466 18.247 52.7037 18.6295L52.6861 18.6423C52.6549 18.6652 52.6195 18.6816 52.582 18.6907C52.5445 18.6998 52.5056 18.7013 52.4675 18.6953C52.4294 18.6892 52.3929 18.6756 52.36 18.6553C52.3271 18.635 52.2985 18.6083 52.2759 18.5769C52.2532 18.5454 52.2369 18.5098 52.2279 18.472C52.2188 18.4342 52.2173 18.3949 52.2233 18.3565C52.2294 18.3181 52.2428 18.2813 52.263 18.2481C52.2831 18.215 52.3095 18.1861 52.3407 18.1633L52.353 18.1555Z" fill="#0C0C0C"/>
<path d="M46.533 19.5371C45.8897 19.3786 45.2163 19.3942 44.5809 19.5824C44.2596 19.6751 43.954 19.8163 43.6745 20.001C43.3911 20.1868 43.1321 20.4078 42.9036 20.6588L42.8932 20.6693C42.8574 20.7055 42.8091 20.7262 42.7584 20.7271C42.7078 20.728 42.6587 20.7091 42.6217 20.6742C42.5846 20.6394 42.5624 20.5914 42.5598 20.5403C42.5572 20.4893 42.5744 20.4392 42.6077 20.4007C42.8483 20.1117 43.1241 19.8544 43.4285 19.635C43.735 19.4116 44.0732 19.2362 44.4316 19.1145C45.1581 18.8628 45.9384 18.8125 46.6907 18.9691C46.767 18.9856 46.8337 19.032 46.8761 19.0981C46.9185 19.1642 46.9331 19.2446 46.9167 19.3216C46.9003 19.3985 46.8543 19.4658 46.7888 19.5085C46.7232 19.5513 46.6435 19.566 46.5671 19.5495L46.5552 19.5468L46.533 19.5371Z" fill="#0C0C0C"/>
<path d="M50.8214 33.5296C51.0364 33.5048 51.249 33.4617 51.4568 33.4007C51.4807 33.3942 51.5031 33.3829 51.5227 33.3676C51.5423 33.3522 51.5586 33.3331 51.5708 33.3113C51.5829 33.2896 51.5907 33.2656 51.5936 33.2408C51.5964 33.216 51.5944 33.1908 51.5876 33.1668C51.5807 33.1428 51.5692 33.1204 51.5537 33.1009C51.5382 33.0814 51.519 33.0652 51.4972 33.0533C51.4754 33.0413 51.4515 33.0339 51.4269 33.0314C51.4022 33.0288 51.3773 33.0313 51.3536 33.0385C50.1022 33.4015 49.3908 32.9205 49.3612 32.8996C49.3205 32.8709 49.2701 32.8596 49.2212 32.8684C49.1723 32.8771 49.1288 32.905 49.1003 32.9461C49.0718 32.9871 49.0606 33.0379 49.0693 33.0872C49.0779 33.1366 49.1056 33.1804 49.1463 33.2092C49.6513 33.5077 50.2431 33.6208 50.8214 33.5296Z" fill="#0C0C0C"/>
<path d="M34.0111 23.6088L33.9463 23.4266C42.214 20.4336 40.1921 12.2525 40.171 12.1701L40.3563 12.1213C40.3782 12.2049 42.4462 20.5551 34.0111 23.6088Z" fill="#0C0C0C"/>
<path opacity="0.1" d="M45.7795 28.968C46.7341 28.8644 47.4468 28.2081 47.3715 27.502C47.2961 26.796 46.4612 26.3076 45.5067 26.4111C44.5521 26.5147 43.8394 27.171 43.9147 27.8771C43.9901 28.5831 44.825 29.0715 45.7795 28.968Z" fill="#0C0C0C"/>
<path opacity="0.1" d="M55.8833 26.2671C55.96 26.9721 56.795 27.4596 57.7498 27.3575C57.9147 27.3394 58.0774 27.3043 58.2352 27.2526C58.2889 26.4137 58.3008 25.6062 58.2851 24.8582C58.0212 24.7886 57.7468 24.7692 57.4758 24.8009C56.5211 24.9031 55.8088 25.5594 55.8833 26.2671Z" fill="#0C0C0C"/>
<path d="M74.3445 73.5318C73.9089 78.6905 71.7907 110.875 71.372 117.229H15.9705C15.6443 111.498 11.8783 86.4382 10.6423 75.2312C9.46226 64.537 7.14715 59.1829 8.84406 56.0212C11.617 50.854 19.1943 47.8684 24.361 47.163C27.5161 46.7324 32.2611 46.4236 32.2611 46.4236C32.2611 46.4236 32.6629 54.619 42.2434 55.0752C55.2848 55.6943 54.4141 46.4236 54.4786 46.4236C56.5914 46.4236 68.6609 47.7721 71.6138 49.5369C79.6601 54.3415 75.2689 62.5996 74.3445 73.5318Z" fill="#A9F8FD"/>
<path d="M110.306 77.1353L104.966 103.308C104.857 103.839 104.571 104.317 104.156 104.662C103.74 105.006 103.22 105.197 102.682 105.202L65.9093 105.517C65.5585 105.52 65.2115 105.444 64.8937 105.294C64.5759 105.145 64.2953 104.925 64.0725 104.652C63.8497 104.379 63.6903 104.059 63.606 103.715C63.5217 103.372 63.5147 103.014 63.5854 102.668L68.9255 76.4949C69.0341 75.9635 69.3201 75.4857 69.7357 75.1411C70.1513 74.7965 70.6715 74.606 71.2095 74.6012L107.982 74.2855C108.333 74.2825 108.68 74.3587 108.998 74.5084C109.315 74.6581 109.596 74.8776 109.819 75.1509C110.042 75.4241 110.201 75.7441 110.285 76.0874C110.369 76.4308 110.377 76.7888 110.306 77.1353Z" fill="#292A2E"/>
<path d="M76.017 95.7257C76.0367 96.0704 75.9322 96.4106 75.7227 96.6837C75.5133 96.9568 75.213 97.1444 74.8773 97.212L73.7452 97.4635C73.7655 97.4702 73.7837 97.4818 73.7985 97.4974C73.8132 97.5129 73.8239 97.5318 73.8297 97.5525C73.8324 97.5768 73.827 97.6013 73.8143 97.6221C74.0865 97.6992 74.3281 97.8599 74.5055 98.0818C74.6829 98.3037 74.7874 98.5758 74.8044 98.8603C74.806 99.1919 74.6966 99.5144 74.494 99.7756C74.2914 100.037 74.0073 100.221 73.6877 100.3L64.1287 102.44C63.64 102.55 63.1406 102.606 62.6398 102.606C61.5241 102.606 60.4252 102.332 59.4378 101.808C58.4504 101.284 57.6041 100.526 56.9719 99.5994C56.3016 98.6187 56.0371 97.4129 56.2349 96.2386C56.4327 95.0643 57.0771 94.0142 58.031 93.3116L66.1625 87.3179C66.3415 87.1859 66.5495 87.0996 66.7688 87.0664L66.0205 90.7307L66.2201 90.6843L66.2623 90.6766L72.4981 89.3958C73.1927 89.241 74.1443 89.4964 74.2671 90.2935C74.3329 90.5986 74.2945 90.9173 74.1579 91.1976C74.0213 91.4779 73.7948 91.7034 73.515 91.8374C73.5188 91.8412 73.5265 91.8451 73.5265 91.8528C73.5265 91.8606 73.5227 91.8645 73.5227 91.8722L74.601 91.6323C74.7983 91.5882 75.0028 91.5887 75.1999 91.6339C75.3969 91.6791 75.5815 91.7679 75.7405 91.8937C75.8994 92.0195 76.0287 92.1794 76.119 92.3617C76.2092 92.544 76.2583 92.7442 76.2626 92.9479C76.2625 93.2731 76.1509 93.5884 75.9467 93.8401C75.7425 94.0919 75.4582 94.2647 75.1421 94.3293L74.6777 94.4337C74.6739 94.4492 74.6777 94.4647 74.6701 94.4763C75.0083 94.4788 75.3336 94.6081 75.5825 94.8391C75.8315 95.07 75.9863 95.386 76.017 95.7257Z" fill="#E98862"/>
<g opacity="0.25">
<path d="M67.3148 93.1421C67.3223 93.1744 67.3419 93.2025 67.3696 93.2204C67.3972 93.2383 67.4307 93.2446 67.463 93.238L73.4294 92.0045C73.4462 92.0017 73.4623 91.9956 73.4767 91.9865C73.4911 91.9773 73.5035 91.9653 73.5132 91.9512C73.5229 91.937 73.5297 91.9211 73.5331 91.9042C73.5365 91.8874 73.5365 91.87 73.5331 91.8532C73.5296 91.8364 73.5229 91.8204 73.5132 91.8063C73.5035 91.7922 73.491 91.7802 73.4766 91.771C73.4622 91.7619 73.4461 91.7558 73.4293 91.7531C73.4124 91.7503 73.3952 91.7511 73.3787 91.7553L67.4123 92.9892C67.3796 92.996 67.3508 93.0157 67.3324 93.0438C67.314 93.0719 67.3074 93.1063 67.3141 93.1394L67.3148 93.1421Z" fill="#0C0C0C"/>
</g>
<g opacity="0.25">
<path d="M67.7816 95.8104C67.789 95.8427 67.8086 95.8709 67.8363 95.8888C67.864 95.9067 67.8975 95.913 67.9298 95.9063L74.5884 94.5296C74.6211 94.5227 74.6498 94.503 74.6682 94.4749C74.6866 94.4468 74.6933 94.4125 74.6867 94.3794C74.6789 94.347 74.6592 94.3188 74.6316 94.3004C74.6039 94.282 74.5704 94.2749 74.5378 94.2804L67.8791 95.6575C67.8463 95.6643 67.8176 95.6839 67.7992 95.7121C67.7808 95.7402 67.7742 95.7746 67.7809 95.8076L67.7816 95.8104Z" fill="#0C0C0C"/>
</g>
<g opacity="0.25">
<path d="M68.2709 98.7037C68.2783 98.736 68.298 98.764 68.3256 98.782C68.3533 98.7999 68.3868 98.8062 68.419 98.7996L73.7304 97.7015C73.7472 97.6988 73.7633 97.6926 73.7777 97.6835C73.7921 97.6743 73.8046 97.6623 73.8142 97.6482C73.8239 97.634 73.8307 97.6181 73.8341 97.6012C73.8375 97.5844 73.8375 97.5671 73.8341 97.5502C73.8306 97.5334 73.8239 97.5174 73.8142 97.5033C73.8045 97.4892 73.792 97.4772 73.7776 97.468C73.7632 97.4589 73.7471 97.4528 73.7303 97.4501C73.7134 97.4474 73.6962 97.4481 73.6797 97.4523L68.3684 98.5508C68.3522 98.5541 68.3368 98.5606 68.3231 98.57C68.3093 98.5793 68.2976 98.5913 68.2885 98.6052C68.2793 98.6191 68.273 98.6347 68.2699 98.651C68.2667 98.6674 68.2668 98.6842 68.2701 98.7006L68.2709 98.7037Z" fill="#0C0C0C"/>
</g>
<path d="M63.5363 106.254L11.6756 115.703C10.0573 115.881 8.42015 115.678 6.89266 115.11C5.36517 114.543 3.98889 113.626 2.87183 112.432C1.75476 111.238 0.927299 109.799 0.454376 108.229C-0.0185472 106.658 -0.124066 104.998 0.146101 103.379L7.4061 59.8653C7.86969 57.0868 9.40892 54.6078 11.6852 52.9736C13.9615 51.3394 16.7883 50.684 19.5438 51.1514C22.2994 51.6189 24.7579 53.1709 26.3786 55.4662C27.9992 57.7614 28.6493 60.6118 28.1857 63.3903L23.2354 93.3453L61.2561 88.5317L63.5363 106.254Z" fill="#A9F8FD"/>
<path d="M11.6749 115.896C11.627 115.896 11.5809 115.878 11.5456 115.846C11.5103 115.813 11.4884 115.768 11.4841 115.72C11.4799 115.672 11.4937 115.624 11.5227 115.586C11.5517 115.547 11.594 115.521 11.6411 115.513L63.3222 106.095L61.0911 88.7464L23.2585 93.5371C23.2288 93.5412 23.1986 93.538 23.1704 93.528C23.1422 93.518 23.1167 93.5014 23.0961 93.4795C23.0754 93.4577 23.06 93.4314 23.0511 93.4026C23.0422 93.3737 23.0402 93.3432 23.0451 93.3135L26.1918 74.1689C26.1959 74.1438 26.2048 74.1197 26.2182 74.0982C26.2315 74.0766 26.2489 74.0578 26.2694 74.043C26.2898 74.0282 26.313 74.0176 26.3376 74.0119C26.3621 74.0061 26.3876 74.0053 26.4124 74.0094C26.4374 74.0136 26.4612 74.0226 26.4826 74.0361C26.5041 74.0495 26.5227 74.0671 26.5374 74.0878C26.5521 74.1085 26.5625 74.1319 26.5682 74.1567C26.5739 74.1815 26.5747 74.2072 26.5705 74.2323L23.4657 93.1208L61.232 88.3382C61.2823 88.3318 61.333 88.3458 61.3732 88.377C61.4133 88.4083 61.4395 88.4543 61.4461 88.505L63.7263 106.227C63.7327 106.276 63.7201 106.326 63.691 106.366C63.6619 106.406 63.6186 106.434 63.5701 106.442L11.7094 115.894C11.698 115.895 11.6864 115.896 11.6749 115.896Z" fill="#0C0C0C"/>
<path d="M23.2051 93.1549L19.8691 93.6934L19.9299 94.0758L23.2658 93.5373L23.2051 93.1549Z" fill="#0C0C0C"/>
<path d="M295.401 298H3.59674C3.5255 298 3.45718 297.971 3.4068 297.921C3.35643 297.87 3.32812 297.801 3.32812 297.729C3.32812 297.657 3.35643 297.588 3.4068 297.538C3.45718 297.487 3.5255 297.458 3.59674 297.458H295.401C295.436 297.458 295.471 297.465 295.504 297.479C295.536 297.492 295.566 297.512 295.591 297.538C295.616 297.563 295.636 297.593 295.649 297.625C295.663 297.658 295.67 297.694 295.67 297.729C295.67 297.765 295.663 297.8 295.649 297.833C295.636 297.866 295.616 297.895 295.591 297.921C295.566 297.946 295.536 297.966 295.504 297.979C295.471 297.993 295.436 298 295.401 298Z" fill="#292A2E"/>
<path d="M281.537 256.287C281.496 256.287 281.455 256.279 281.416 256.263C281.378 256.247 281.343 256.224 281.314 256.194C280.87 255.746 280.145 247.524 278.194 223.043C277.395 213.026 276.641 203.565 276.091 197.815C276.052 197.404 275.894 197.356 275.842 197.34C275.088 197.111 272.797 198.933 271.518 200.528C271.465 200.594 271.389 200.636 271.306 200.645C271.223 200.654 271.139 200.629 271.074 200.576C271.009 200.523 270.968 200.446 270.959 200.362C270.95 200.278 270.975 200.194 271.027 200.128C271.871 199.074 274.63 196.308 276.023 196.731C276.233 196.804 276.413 196.942 276.539 197.126C276.664 197.311 276.727 197.531 276.719 197.754C277.27 203.509 278.024 212.972 278.823 222.992C280.009 237.868 281.352 254.721 281.793 255.783C281.827 255.831 281.847 255.887 281.851 255.945C281.855 256.003 281.843 256.061 281.817 256.113C281.791 256.165 281.75 256.209 281.701 256.239C281.652 256.27 281.595 256.286 281.537 256.286V256.287Z" fill="#494949"/>
<path d="M275.28 208.366C280.515 204.135 282.25 197.55 279.155 193.657C276.061 189.765 269.309 190.039 264.075 194.27C258.84 198.501 257.105 205.086 260.199 208.978C263.294 212.871 270.046 212.597 275.28 208.366Z" fill="#0CBC8B"/>
<path opacity="0.2" d="M275.28 208.366C280.515 204.135 282.25 197.55 279.155 193.657C276.061 189.765 269.309 190.039 264.075 194.27C258.84 198.501 257.105 205.086 260.199 208.978C263.294 212.871 270.046 212.597 275.28 208.366Z" fill="white"/>
<path d="M261.667 209.969C261.637 209.969 261.607 209.96 261.582 209.944C261.557 209.928 261.536 209.905 261.524 209.877C261.511 209.85 261.506 209.819 261.51 209.79C261.514 209.76 261.526 209.731 261.545 209.708L276.463 191.569C276.49 191.536 276.528 191.516 276.57 191.512C276.612 191.508 276.653 191.521 276.686 191.548C276.718 191.575 276.738 191.614 276.742 191.656C276.746 191.698 276.733 191.739 276.706 191.772L261.788 209.911C261.773 209.929 261.754 209.944 261.733 209.953C261.713 209.963 261.69 209.969 261.667 209.969Z" fill="white"/>
<path d="M284.791 252.398C284.756 252.399 284.721 252.393 284.687 252.381C284.648 252.367 284.612 252.346 284.581 252.318C284.55 252.29 284.525 252.257 284.507 252.219C284.489 252.181 284.478 252.14 284.476 252.099C284.474 252.057 284.48 252.015 284.493 251.976L290.096 235.726C290.261 235.249 290.542 234.82 290.913 234.481C291.285 234.141 291.735 233.901 292.222 233.782C292.71 233.664 293.219 233.67 293.704 233.802C294.188 233.933 294.632 234.185 294.994 234.534L297.957 237.388C298.017 237.446 298.052 237.526 298.054 237.611C298.056 237.695 298.025 237.777 297.967 237.838C297.909 237.899 297.83 237.934 297.746 237.936C297.662 237.938 297.581 237.906 297.521 237.848L294.558 234.994C294.272 234.719 293.922 234.52 293.539 234.416C293.157 234.312 292.755 234.307 292.37 234.401C291.985 234.494 291.63 234.684 291.337 234.952C291.043 235.22 290.822 235.558 290.691 235.935L285.089 252.187C285.067 252.249 285.027 252.302 284.973 252.34C284.92 252.378 284.856 252.399 284.791 252.398Z" fill="#494949"/>
<path d="M306.235 246.385C310.114 243.289 309.883 236.479 305.72 231.175C301.556 225.871 295.036 224.081 291.157 227.178C287.278 230.274 287.508 237.083 291.672 242.387C295.835 247.691 302.355 249.481 306.235 246.385Z" fill="#0CBC8B"/>
<path d="M278.991 255.251C278.92 255.251 278.851 255.227 278.796 255.182C278.74 255.138 278.701 255.076 278.684 255.007L269.283 215.36C269.219 215.09 269.082 214.843 268.887 214.646C268.693 214.449 268.448 214.31 268.18 214.244C267.913 214.178 267.632 214.188 267.369 214.272C267.107 214.357 266.872 214.513 266.692 214.723L263.793 218.101C263.738 218.165 263.661 218.204 263.577 218.21C263.494 218.216 263.411 218.188 263.348 218.133C263.285 218.078 263.246 218 263.24 217.915C263.234 217.831 263.261 217.748 263.316 217.684L266.215 214.307C266.471 214.008 266.804 213.787 267.178 213.666C267.551 213.546 267.949 213.532 268.33 213.626C268.711 213.72 269.058 213.917 269.334 214.197C269.611 214.477 269.805 214.829 269.896 215.213L279.298 254.859C279.308 254.9 279.309 254.942 279.303 254.983C279.296 255.024 279.282 255.064 279.26 255.099C279.238 255.135 279.21 255.166 279.176 255.191C279.143 255.215 279.105 255.233 279.065 255.242C279.041 255.248 279.016 255.251 278.991 255.251Z" fill="#494949"/>
<path d="M275.523 226.91C276.666 220.244 273.641 214.152 268.766 213.302C263.89 212.452 259.012 217.166 257.869 223.831C256.726 230.497 259.751 236.59 264.626 237.44C269.501 238.29 274.38 233.575 275.523 226.91Z" fill="#0CBC8B"/>
<path d="M281.537 256.287C281.524 256.287 281.511 256.286 281.499 256.285C281.416 256.274 281.34 256.231 281.289 256.165C281.237 256.098 281.214 256.014 281.224 255.93L287.23 206.769C287.295 206.234 287.512 205.729 287.856 205.315C288.199 204.901 288.653 204.596 289.165 204.436C289.676 204.276 290.222 204.269 290.737 204.415C291.252 204.56 291.715 204.853 292.069 205.258L298.933 213.096C298.961 213.127 298.983 213.164 298.997 213.204C299.011 213.243 299.018 213.286 299.015 213.328C299.013 213.37 299.003 213.412 298.985 213.45C298.966 213.488 298.941 213.522 298.909 213.55C298.878 213.578 298.841 213.599 298.801 213.613C298.762 213.627 298.72 213.632 298.678 213.629C298.636 213.626 298.595 213.614 298.558 213.595C298.52 213.576 298.487 213.549 298.46 213.517L291.596 205.679C291.322 205.367 290.965 205.142 290.567 205.03C290.169 204.917 289.747 204.923 289.352 205.047C288.958 205.17 288.606 205.405 288.341 205.725C288.076 206.044 287.907 206.434 287.856 206.847L281.851 256.008C281.842 256.085 281.805 256.156 281.747 256.208C281.689 256.259 281.614 256.287 281.537 256.287Z" fill="#494949"/>
<path d="M305.971 217.452C308.366 213.087 305.548 206.894 299.678 203.62C293.808 200.345 287.108 201.23 284.713 205.595C282.318 209.96 285.136 216.154 291.006 219.428C296.876 222.702 303.577 221.817 305.971 217.452Z" fill="#0CBC8B"/>
<path opacity="0.2" d="M306.235 246.385C310.114 243.289 309.883 236.479 305.72 231.175C301.556 225.871 295.036 224.081 291.157 227.178C287.278 230.274 287.508 237.083 291.672 242.387C295.835 247.691 302.355 249.481 306.235 246.385Z" fill="white"/>
<path opacity="0.5" d="M275.523 226.91C276.666 220.244 273.641 214.152 268.766 213.302C263.89 212.452 259.012 217.166 257.869 223.831C256.726 230.497 259.751 236.59 264.626 237.44C269.501 238.29 274.38 233.575 275.523 226.91Z" fill="white"/>
<path opacity="0.5" d="M305.971 217.452C308.366 213.087 305.548 206.894 299.678 203.62C293.808 200.345 287.108 201.23 284.713 205.595C282.318 209.96 285.136 216.154 291.006 219.428C296.876 222.702 303.577 221.817 305.971 217.452Z" fill="white"/>
<path d="M289.218 298H273.857L271.312 248.443H291.763L289.218 298Z" fill="#292A2E"/>
<path opacity="0.3" d="M289.218 298H273.857L271.312 248.443H291.763L289.218 298Z" fill="white"/>
<path d="M306.235 246.542C306.211 246.542 306.187 246.536 306.165 246.526C306.144 246.515 306.125 246.5 306.11 246.481L291.032 227.273C291.006 227.24 290.994 227.198 290.999 227.156C291.004 227.114 291.025 227.076 291.058 227.049C291.091 227.023 291.133 227.011 291.174 227.016C291.216 227.021 291.254 227.042 291.28 227.076L306.358 246.283C306.376 246.306 306.388 246.334 306.391 246.364C306.394 246.394 306.389 246.424 306.376 246.451C306.363 246.478 306.343 246.501 306.318 246.516C306.293 246.532 306.264 246.541 306.234 246.541L306.235 246.542Z" fill="white"/>
<path d="M304.969 218.991C304.935 218.991 304.903 218.98 304.876 218.96L285.58 204.754C285.562 204.742 285.547 204.727 285.536 204.709C285.524 204.691 285.517 204.671 285.513 204.65C285.509 204.629 285.51 204.607 285.515 204.586C285.52 204.565 285.529 204.546 285.541 204.529C285.554 204.511 285.57 204.497 285.588 204.486C285.606 204.475 285.626 204.468 285.647 204.465C285.668 204.462 285.689 204.463 285.71 204.469C285.73 204.475 285.749 204.484 285.766 204.498L305.061 218.703C305.088 218.723 305.108 218.751 305.118 218.783C305.128 218.815 305.128 218.849 305.118 218.881C305.107 218.913 305.087 218.941 305.06 218.961C305.033 218.98 305.001 218.991 304.967 218.991H304.969Z" fill="white"/>
<path d="M263.842 237.233C263.828 237.233 263.815 237.231 263.801 237.227C263.761 237.216 263.727 237.19 263.706 237.154C263.685 237.117 263.679 237.074 263.69 237.034L269.832 213.829C269.844 213.789 269.87 213.756 269.906 213.735C269.942 213.715 269.984 213.709 270.024 213.72C270.064 213.731 270.098 213.757 270.119 213.793C270.14 213.828 270.147 213.871 270.137 213.911L263.994 237.114C263.986 237.148 263.966 237.178 263.938 237.199C263.911 237.221 263.877 237.233 263.842 237.233Z" fill="white"/>
</g>
<defs>
<clipPath id="clip0_1_1478">
<rect width="309" height="298" fill="white"/>
</clipPath>
</defs>
</svg>
