<svg width="18" height="21" viewBox="0 0 18 21" fill="none" xmlns="http://www.w3.org/2000/svg">
<path d="M12.75 13.1642C12.75 13.3631 12.671 13.5539 12.5303 13.6946C12.3897 13.8352 12.1989 13.9142 12 13.9142H6C5.80109 13.9142 5.61032 13.8352 5.46967 13.6946C5.32902 13.5539 5.25 13.3631 5.25 13.1642C5.25 12.9653 5.32902 12.7746 5.46967 12.6339C5.61032 12.4932 5.80109 12.4142 6 12.4142H12C12.1989 12.4142 12.3897 12.4932 12.5303 12.6339C12.671 12.7746 12.75 12.9653 12.75 13.1642ZM12 9.41423H6C5.80109 9.41423 5.61032 9.49325 5.46967 9.6339C5.32902 9.77455 5.25 9.96532 5.25 10.1642C5.25 10.3631 5.32902 10.5539 5.46967 10.6946C5.61032 10.8352 5.80109 10.9142 6 10.9142H12C12.1989 10.9142 12.3897 10.8352 12.5303 10.6946C12.671 10.5539 12.75 10.3631 12.75 10.1642C12.75 9.96532 12.671 9.77455 12.5303 9.6339C12.3897 9.49325 12.1989 9.41423 12 9.41423ZM17.25 3.41423V19.1642C17.25 19.5621 17.092 19.9436 16.8107 20.2249C16.5294 20.5062 16.1478 20.6642 15.75 20.6642H2.25C1.85218 20.6642 1.47064 20.5062 1.18934 20.2249C0.908035 19.9436 0.75 19.5621 0.75 19.1642V3.41423C0.75 3.01641 0.908035 2.63488 1.18934 2.35357C1.47064 2.07227 1.85218 1.91423 2.25 1.91423H5.64937C6.07079 1.44241 6.58709 1.06491 7.1645 0.806443C7.7419 0.547975 8.36738 0.414368 9 0.414368C9.63262 0.414368 10.2581 0.547975 10.8355 0.806443C11.4129 1.06491 11.9292 1.44241 12.3506 1.91423H15.75C16.1478 1.91423 16.5294 2.07227 16.8107 2.35357C17.092 2.63488 17.25 3.01641 17.25 3.41423ZM6 4.91423H12C12 4.11858 11.6839 3.35552 11.1213 2.79291C10.5587 2.2303 9.79565 1.91423 9 1.91423C8.20435 1.91423 7.44129 2.2303 6.87868 2.79291C6.31607 3.35552 6 4.11858 6 4.91423ZM15.75 3.41423H13.2422C13.4128 3.89593 13.5 4.40321 13.5 4.91423V5.66423C13.5 5.86314 13.421 6.05391 13.2803 6.19456C13.1397 6.33521 12.9489 6.41423 12.75 6.41423H5.25C5.05109 6.41423 4.86032 6.33521 4.71967 6.19456C4.57902 6.05391 4.5 5.86314 4.5 5.66423V4.91423C4.50002 4.40321 4.58721 3.89593 4.75781 3.41423H2.25V19.1642H15.75V3.41423Z" fill="#405859" fill-opacity="0.7"/>
</svg>
