<svg width="23" height="19" viewBox="0 0 23 19" fill="none" xmlns="http://www.w3.org/2000/svg">
<path d="M21.5934 11.1386C21.3482 10.9496 21.067 10.8125 20.7671 10.7356C20.4671 10.6588 20.1547 10.6437 19.8488 10.6915C21.6094 8.91396 22.5 7.14677 22.5 5.41427C22.5 2.93271 20.5041 0.914273 18.0506 0.914273C17.3996 0.910184 16.7556 1.04864 16.1638 1.31992C15.5721 1.5912 15.0468 1.98872 14.625 2.48458C14.2032 1.98872 13.6779 1.5912 13.0862 1.31992C12.4944 1.04864 11.8504 0.910184 11.1994 0.914273C8.74594 0.914273 6.75 2.93271 6.75 5.41427C6.75 6.44552 7.05375 7.44771 7.69312 8.50802C7.16947 8.64069 6.69158 8.91284 6.31031 9.29552L4.18969 11.4143H1.5C1.10218 11.4143 0.720644 11.5723 0.43934 11.8536C0.158035 12.1349 0 12.5164 0 12.9143L0 16.6643C0 17.0621 0.158035 17.4436 0.43934 17.7249C0.720644 18.0062 1.10218 18.1643 1.5 18.1643H11.25C11.3113 18.1643 11.3724 18.1567 11.4319 18.1418L17.4319 16.6418C17.4701 16.6327 17.5075 16.6201 17.5434 16.6043L21.1875 15.0536L21.2288 15.0349C21.579 14.8599 21.8789 14.5986 22.1002 14.2757C22.3215 13.9527 22.457 13.5788 22.4939 13.189C22.5307 12.7992 22.4678 12.4065 22.3109 12.0478C22.154 11.6891 21.9084 11.3762 21.5972 11.1386H21.5934ZM11.1994 2.41427C11.7803 2.40577 12.3505 2.57072 12.8371 2.88802C13.3238 3.20532 13.7047 3.66056 13.9313 4.19552C13.9878 4.33308 14.0839 4.45074 14.2074 4.53354C14.3309 4.61634 14.4763 4.66055 14.625 4.66055C14.7737 4.66055 14.9191 4.61634 15.0426 4.53354C15.1661 4.45074 15.2622 4.33308 15.3187 4.19552C15.5453 3.66056 15.9262 3.20532 16.4129 2.88802C16.8995 2.57072 17.4697 2.40577 18.0506 2.41427C19.6491 2.41427 21 3.78771 21 5.41427C21 7.24333 19.5197 9.3124 16.7194 11.4049L15.6797 11.644C15.7709 11.2585 15.7738 10.8573 15.6879 10.4705C15.6021 10.0838 15.4298 9.72148 15.1841 9.41077C14.9383 9.10006 14.6254 8.84901 14.2688 8.67643C13.9122 8.50386 13.5212 8.41423 13.125 8.41427H9.43875C8.62969 7.32302 8.25 6.36302 8.25 5.41427C8.25 3.78771 9.60094 2.41427 11.1994 2.41427ZM1.5 12.9143H3.75V16.6643H1.5V12.9143ZM20.5716 13.684L17.0091 15.2008L11.1562 16.6643H5.25V12.4746L7.37156 10.354C7.51035 10.2141 7.67555 10.1032 7.85758 10.0277C8.03961 9.95219 8.23482 9.91364 8.43188 9.91427H13.125C13.4234 9.91427 13.7095 10.0328 13.9205 10.2438C14.1315 10.4548 14.25 10.7409 14.25 11.0393C14.25 11.3376 14.1315 11.6238 13.9205 11.8348C13.7095 12.0457 13.4234 12.1643 13.125 12.1643H10.5C10.3011 12.1643 10.1103 12.2433 9.96967 12.3839C9.82902 12.5246 9.75 12.7154 9.75 12.9143C9.75 13.1132 9.82902 13.3039 9.96967 13.4446C10.1103 13.5853 10.3011 13.6643 10.5 13.6643H13.5C13.5565 13.6641 13.6127 13.6578 13.6678 13.6455L19.9491 12.2008L19.9781 12.1933C20.1699 12.1401 20.3745 12.1597 20.5527 12.2483C20.7309 12.3368 20.87 12.4882 20.9433 12.6732C21.0167 12.8582 21.0189 13.0638 20.9498 13.2504C20.8806 13.437 20.7449 13.5914 20.5687 13.684H20.5716Z" fill="#405859" fill-opacity="0.7"/>
</svg>
