<svg width="22" height="16" viewBox="0 0 22 16" fill="none" xmlns="http://www.w3.org/2000/svg">
<path d="M1.25 2.125C1.25 1.50368 1.75368 1 2.375 1H8.375C8.99632 1 9.5 1.50368 9.5 2.125V5.875C9.5 6.49632 8.99632 7 8.375 7H2.375C1.75368 7 1.25 6.49632 1.25 5.875V2.125Z" stroke="#202020" stroke-width="1.5" stroke-linecap="round" stroke-linejoin="round"/>
<path d="M13.25 3.625C13.25 3.00368 13.7537 2.5 14.375 2.5H19.625C20.2463 2.5 20.75 3.00368 20.75 3.625V11.875C20.75 12.4963 20.2463 13 19.625 13H14.375C13.7537 13 13.25 12.4963 13.25 11.875V3.625Z" stroke="#202020" stroke-width="1.5" stroke-linecap="round" stroke-linejoin="round"/>
<path d="M2.75 11.125C2.75 10.5037 3.25368 10 3.875 10H9.125C9.74632 10 10.25 10.5037 10.25 11.125V13.375C10.25 13.9963 9.74632 14.5 9.125 14.5H3.875C3.25368 14.5 2.75 13.9963 2.75 13.375V11.125Z" stroke="#202020" stroke-width="1.5" stroke-linecap="round" stroke-linejoin="round"/>
</svg>
