<svg width="22" height="14" viewBox="0 0 22 14" fill="none" xmlns="http://www.w3.org/2000/svg">
<path d="M21.4999 1.16425V7.16425C21.4999 7.36316 21.4209 7.55392 21.2803 7.69458C21.1396 7.83523 20.9488 7.91425 20.7499 7.91425C20.551 7.91425 20.3603 7.83523 20.2196 7.69458C20.0789 7.55392 19.9999 7.36316 19.9999 7.16425V2.97456L12.2806 10.6949C12.2109 10.7646 12.1282 10.8199 12.0371 10.8577C11.9461 10.8954 11.8485 10.9148 11.7499 10.9148C11.6514 10.9148 11.5538 10.8954 11.4627 10.8577C11.3717 10.8199 11.289 10.7646 11.2193 10.6949L7.99993 7.47456L1.78055 13.6949C1.63982 13.8356 1.44895 13.9147 1.24993 13.9147C1.05091 13.9147 0.860034 13.8356 0.719304 13.6949C0.578573 13.5541 0.499512 13.3633 0.499512 13.1642C0.499512 12.9652 0.578573 12.7744 0.719304 12.6336L7.4693 5.88362C7.53896 5.81389 7.62168 5.75857 7.71272 5.72083C7.80377 5.68308 7.90137 5.66366 7.99993 5.66366C8.09849 5.66366 8.19609 5.68308 8.28713 5.72083C8.37818 5.75857 8.4609 5.81389 8.53055 5.88362L11.7499 9.10393L18.9396 1.91425H14.7499C14.551 1.91425 14.3603 1.83523 14.2196 1.69458C14.0789 1.55392 13.9999 1.36316 13.9999 1.16425C13.9999 0.965333 14.0789 0.774568 14.2196 0.633916C14.3603 0.493263 14.551 0.414246 14.7499 0.414246H20.7499C20.9488 0.414246 21.1396 0.493263 21.2803 0.633916C21.4209 0.774568 21.4999 0.965333 21.4999 1.16425Z" fill="#405859" fill-opacity="0.7"/>
</svg>
