<svg width="297" height="309" viewBox="0 0 297 309" fill="none" xmlns="http://www.w3.org/2000/svg">
<path d="M216.115 215.323L232.636 173.975L257.786 161.359L297 180.718L272.124 242.97L216.115 215.323Z" fill="#F4F4F4"/>
<path opacity="0.05" d="M276.853 208.267L236.759 188.35C236.368 188.156 235.91 188.35 235.735 188.784L235.735 188.785C235.56 189.219 235.736 189.728 236.126 189.922L276.221 209.84C276.611 210.034 277.07 209.839 277.244 209.405L277.244 209.405C277.419 208.971 277.244 208.461 276.853 208.267Z" fill="#292A2E"/>
<path opacity="0.05" d="M273.483 217.207L233.388 197.289C232.998 197.095 232.54 197.29 232.365 197.724L232.365 197.724C232.19 198.159 232.365 198.668 232.756 198.862L272.851 218.78C273.241 218.974 273.7 218.779 273.874 218.345L273.874 218.344C274.049 217.91 273.874 217.401 273.483 217.207Z" fill="#292A2E"/>
<path opacity="0.05" d="M253.317 217.961L229.948 206.433C229.76 206.34 229.547 206.334 229.355 206.415C229.163 206.497 229.008 206.66 228.924 206.868C228.882 206.971 228.86 207.083 228.857 207.196C228.854 207.309 228.871 207.421 228.908 207.527C228.944 207.633 228.999 207.729 229.069 207.811C229.139 207.894 229.222 207.96 229.315 208.006L252.684 219.533C252.872 219.626 253.085 219.633 253.277 219.551C253.469 219.47 253.624 219.307 253.708 219.098C253.792 218.89 253.798 218.653 253.724 218.439C253.651 218.226 253.504 218.054 253.317 217.961Z" fill="#292A2E"/>
<path opacity="0.4" d="M257.787 161.359L249.662 182.357L232.636 173.975L257.787 161.359Z" fill="white"/>
<path d="M16.2783 113.884L7.10938 69.8044L20.3801 42.9139L62.1847 32.1714L75.9868 98.5388L16.2783 113.884Z" fill="#F4F4F4"/>
<path opacity="0.05" d="M60.991 67.6495L18.18 78.5341C17.7629 78.6401 17.5021 79.1019 17.5975 79.5655L17.5976 79.5658C17.693 80.0294 18.1084 80.3192 18.5255 80.2132L61.3366 69.3286C61.7537 69.2226 62.0144 68.7608 61.919 68.2972L61.9189 68.2969C61.8235 67.8333 61.4081 67.5435 60.991 67.6495Z" fill="#292A2E"/>
<path opacity="0.05" d="M63.1336 77.0443L20.3225 87.9289C19.9055 88.0349 19.6447 88.4966 19.7401 88.9602L19.7402 88.9606C19.8356 89.4242 20.251 89.714 20.6681 89.608L63.4792 78.7234C63.8962 78.6174 64.157 78.1556 64.0616 77.692L64.0615 77.6917C63.9661 77.2281 63.5507 76.9383 63.1336 77.0443Z" fill="#292A2E"/>
<path opacity="0.05" d="M47.4302 91.1256L22.522 97.5358C22.3216 97.5866 22.1476 97.7239 22.0383 97.9173C21.9289 98.1107 21.8931 98.3445 21.9388 98.5672C21.9614 98.6776 22.0034 98.7819 22.0623 98.8742C22.1212 98.9665 22.1959 99.045 22.2821 99.1052C22.3683 99.1654 22.4643 99.2061 22.5647 99.225C22.6651 99.244 22.7678 99.2407 22.8671 99.2154L47.7752 92.8052C47.9756 92.7543 48.1497 92.617 48.259 92.4236C48.3684 92.2301 48.4041 91.9962 48.3584 91.7735C48.3126 91.5508 48.189 91.3574 48.015 91.236C47.8409 91.1145 47.6306 91.0748 47.4302 91.1256Z" fill="#292A2E"/>
<path opacity="0.4" d="M20.3801 42.9138L25.2474 65.1223L7.10938 69.8043L20.3801 42.9138Z" fill="white"/>
<path d="M215.33 249.008H47.8217C45.5608 249.008 43.3925 248.01 41.7938 246.233C40.1951 244.456 39.297 242.046 39.2969 239.533L45.1287 29.3518H229.363L223.856 239.533C223.856 240.777 223.635 242.009 223.207 243.159C222.778 244.309 222.15 245.353 221.358 246.233C220.567 247.113 219.627 247.811 218.593 248.287C217.558 248.763 216.45 249.009 215.33 249.008Z" fill="#292A2E"/>
<path opacity="0.9" d="M215.33 249.008H47.8217C45.5608 249.008 43.3925 248.01 41.7938 246.233C40.1951 244.456 39.297 242.046 39.2969 239.533L45.1287 29.3518H229.363L223.856 239.533C223.856 240.777 223.635 242.009 223.207 243.159C222.778 244.309 222.15 245.353 221.358 246.233C220.567 247.113 219.627 247.811 218.593 248.287C217.558 248.763 216.45 249.009 215.33 249.008Z" fill="white"/>
<path d="M215.328 249.368H47.8199C45.4738 249.365 43.2245 248.328 41.5655 246.484C39.9065 244.64 38.9734 242.14 38.9707 239.532L44.8026 28.9917H229.685L224.177 239.532C224.175 242.14 223.241 244.64 221.582 246.484C219.924 248.328 217.674 249.365 215.328 249.368ZM45.4502 29.7119L39.6184 239.532C39.6208 241.949 40.4858 244.266 42.0233 245.975C43.5609 247.684 45.6455 248.645 47.8199 248.648H215.328C217.502 248.645 219.587 247.684 221.124 245.975C222.662 244.266 223.527 241.949 223.529 239.532L229.037 29.7119H45.4502Z" fill="#292A2E"/>
<path d="M221.485 8.51147H53.9764C51.6302 8.51433 49.3809 9.55155 47.7219 11.3956C46.0629 13.2396 45.1298 15.7397 45.1272 18.3476L44.8032 29.712H229.686L230.334 18.3476C230.331 15.7397 229.398 13.2396 227.739 11.3956C226.08 9.55155 223.831 8.51433 221.485 8.51147Z" fill="#0C0C0C"/>
<path d="M224.726 8.51147H55.274C52.9278 8.51433 50.6785 9.55155 49.0195 11.3956C47.3605 13.2396 46.4274 15.7397 46.4248 18.3476V29.712H233.575V18.3476C233.573 15.7397 232.64 13.2396 230.981 11.3956C229.322 9.55155 227.072 8.51433 224.726 8.51147Z" fill="#292A2E"/>
<path d="M46.749 29.3501H233.252V243.134C233.252 245.647 232.353 248.057 230.755 249.834C229.156 251.611 226.988 252.61 224.727 252.61H55.2745C53.0136 252.61 50.8453 251.611 49.2465 249.834C47.6478 248.057 46.7497 245.647 46.7497 243.134V29.3501H46.749Z" fill="white"/>
<path d="M224.727 252.969H55.2745C52.9284 252.967 50.6791 251.929 49.0201 250.086C47.3611 248.242 46.428 245.742 46.4253 243.134V28.9917H233.576V243.134C233.573 245.742 232.64 248.242 230.981 250.086C229.322 251.929 227.073 252.967 224.727 252.969ZM47.073 29.7119V243.134C47.0754 245.551 47.9403 247.868 49.4779 249.577C51.0155 251.285 53.1001 252.247 55.2745 252.249H224.727C226.901 252.246 228.985 251.285 230.523 249.576C232.06 247.867 232.925 245.55 232.928 243.134V29.7119H47.073Z" fill="#292A2E"/>
<path d="M79.7854 73.7476H61.1692C60.1316 73.7464 59.1368 73.2877 58.4031 72.4722C57.6693 71.6567 57.2566 70.551 57.2554 69.3977V48.7049C57.2566 47.5516 57.6693 46.4459 58.4031 45.6304C59.1368 44.8149 60.1316 44.3562 61.1692 44.355H79.7854C80.823 44.3563 81.8177 44.815 82.5514 45.6305C83.285 46.446 83.6977 47.5517 83.6989 48.7049V69.3977C83.6977 70.551 83.285 71.6566 82.5514 72.4721C81.8177 73.2876 80.823 73.7463 79.7854 73.7476ZM61.1692 45.0752C60.3034 45.0763 59.4733 45.459 58.8611 46.1395C58.2488 46.8199 57.9044 47.7426 57.9034 48.7049V69.3977C57.9044 70.3601 58.2488 71.2827 58.8611 71.9631C59.4733 72.6436 60.3034 73.0263 61.1692 73.0274H79.7854C80.6512 73.0262 81.4812 72.6435 82.0934 71.963C82.7055 71.2826 83.0499 70.36 83.0509 69.3977V48.7049C83.0499 47.7426 82.7055 46.8201 82.0934 46.1396C81.4812 45.4592 80.6512 45.0764 79.7854 45.0752H61.1692Z" fill="#292A2E"/>
<path d="M79.7854 114.744H61.1692C60.1316 114.742 59.1368 114.284 58.4031 113.468C57.6693 112.653 57.2566 111.547 57.2554 110.394V89.7014C57.2562 88.5477 57.6688 87.4416 58.4026 86.6258C59.1363 85.8099 60.1313 85.3509 61.1692 85.3496H79.7854C80.823 85.3509 81.8178 85.8097 82.5515 86.6253C83.2852 87.4408 83.6978 88.5466 83.6989 89.6999V110.392C83.6981 111.546 83.2855 112.652 82.5518 113.468C81.8181 114.283 80.8232 114.742 79.7854 114.744ZM61.1692 86.0699C60.3034 86.071 59.4733 86.4538 58.861 87.1343C58.2488 87.8149 57.9044 88.7375 57.9034 89.6999V110.392C57.9044 111.355 58.2488 112.277 58.8611 112.958C59.4733 113.638 60.3034 114.021 61.1692 114.022H79.7854C80.6512 114.021 81.4813 113.638 82.0935 112.958C82.7057 112.277 83.05 111.355 83.0509 110.392V89.7014C83.0503 88.7387 82.7062 87.8157 82.0939 87.1349C81.4817 86.454 80.6515 86.071 79.7854 86.0699H61.1692Z" fill="#292A2E"/>
<path d="M79.7854 155.739H61.1692C60.1316 155.738 59.1368 155.28 58.4031 154.464C57.6693 153.649 57.2566 152.543 57.2554 151.39V130.697C57.2566 129.544 57.6693 128.438 58.4031 127.623C59.1368 126.807 60.1316 126.348 61.1692 126.347H79.7854C80.823 126.349 81.8177 126.807 82.5514 127.623C83.285 128.438 83.6977 129.544 83.6989 130.697V151.39C83.6977 152.543 83.285 153.648 82.5514 154.464C81.8177 155.279 80.823 155.738 79.7854 155.739ZM61.1692 127.067C60.3034 127.068 59.4733 127.451 58.8611 128.132C58.2488 128.812 57.9044 129.735 57.9034 130.697V151.39C57.9044 152.352 58.2488 153.275 58.8611 153.955C59.4733 154.635 60.3034 155.018 61.1692 155.019H79.7854C80.6512 155.018 81.4813 154.635 82.0935 153.955C82.7057 153.274 83.05 152.352 83.0509 151.39V130.697C83.05 129.735 82.7057 128.812 82.0935 128.132C81.4813 127.451 80.6512 127.068 79.7854 127.067H61.1692Z" fill="#292A2E"/>
<path d="M79.7854 196.172H61.1692C60.1316 196.171 59.1368 195.712 58.4031 194.897C57.6693 194.081 57.2566 192.975 57.2554 191.822V171.131C57.2566 169.978 57.6693 168.872 58.403 168.056C59.1368 167.241 60.1316 166.782 61.1692 166.781H79.7854C80.823 166.782 81.8178 167.241 82.5515 168.056C83.2852 168.872 83.6978 169.978 83.6989 171.131V191.823C83.6974 192.976 83.2845 194.082 82.5509 194.897C81.8173 195.712 80.8228 196.171 79.7854 196.172ZM61.1692 167.5C60.3033 167.501 59.4732 167.883 58.8609 168.564C58.2487 169.244 57.9043 170.167 57.9034 171.13V191.822C57.9044 192.784 58.2488 193.707 58.8611 194.387C59.4733 195.068 60.3034 195.451 61.1692 195.452H79.7854C80.6512 195.451 81.4812 195.068 82.0934 194.387C82.7055 193.707 83.0499 192.784 83.0509 191.822V171.131C83.0501 170.169 82.7058 169.246 82.0936 168.565C81.4814 167.885 80.6513 167.502 79.7854 167.501L61.1692 167.5Z" fill="#292A2E"/>
<path d="M79.7854 236.605H61.1692C60.1316 236.603 59.1368 236.145 58.403 235.329C57.6693 234.513 57.2566 233.408 57.2554 232.254V211.562C57.2566 210.409 57.6693 209.303 58.403 208.487C59.1368 207.672 60.1316 207.213 61.1692 207.212H79.7854C80.823 207.213 81.8178 207.672 82.5515 208.487C83.2852 209.303 83.6978 210.409 83.6989 211.562V232.254C83.6978 233.408 83.2852 234.513 82.5515 235.329C81.8178 236.145 80.823 236.603 79.7854 236.605ZM61.1692 207.932C60.3034 207.933 59.4733 208.316 58.861 208.996C58.2488 209.677 57.9044 210.6 57.9034 211.562V232.254C57.9044 233.217 58.2488 234.139 58.861 234.82C59.4733 235.5 60.3034 235.883 61.1692 235.884H79.7854C80.6512 235.883 81.4813 235.5 82.0935 234.82C82.7057 234.139 83.05 233.217 83.0509 232.254V211.562C83.05 210.6 82.7057 209.677 82.0935 208.996C81.4813 208.316 80.6512 207.933 79.7854 207.932H61.1692Z" fill="#292A2E"/>
<path d="M67.1629 67.3298C66.828 67.3303 66.5061 67.186 66.2651 66.9276L60.8389 61.1296C60.7143 60.999 60.6143 60.8423 60.5445 60.6684C60.4748 60.4946 60.4367 60.3072 60.4325 60.1169C60.4283 59.9266 60.4581 59.7373 60.5201 59.5599C60.5821 59.3825 60.6752 59.2206 60.7938 59.0834C60.9125 58.9462 61.0544 58.8365 61.2115 58.7606C61.3685 58.6847 61.5375 58.6442 61.7087 58.6413C61.8799 58.6385 62.0499 58.6734 62.2089 58.744C62.3679 58.8146 62.5128 58.9195 62.6351 59.0527L67.1408 63.8665L78.4378 51.1995C78.5571 51.0629 78.6996 50.9539 78.8571 50.8789C79.0145 50.8039 79.1838 50.7644 79.3551 50.7625C79.5264 50.7607 79.6963 50.7966 79.855 50.8682C80.0138 50.9399 80.1581 51.0457 80.2798 51.1798C80.4015 51.3138 80.4981 51.4733 80.5639 51.6491C80.6298 51.8249 80.6636 52.0134 80.6635 52.2038C80.6634 52.3942 80.6294 52.5827 80.5633 52.7584C80.4973 52.9341 80.4005 53.0935 80.2787 53.2274L68.0856 66.9031C67.965 67.0387 67.8212 67.1463 67.6628 67.2196C67.5044 67.2929 67.3344 67.3303 67.1629 67.3298Z" fill="#A9F8FD"/>
<path d="M67.1628 108.325C66.828 108.326 66.5061 108.181 66.2651 107.923L60.8388 102.125C60.591 101.86 60.448 101.497 60.4412 101.115C60.4344 100.733 60.5644 100.364 60.8026 100.088C61.0407 99.8128 61.3676 99.6538 61.7113 99.6462C62.0549 99.6387 62.3872 99.7831 62.6351 100.048L67.1408 104.862L78.4377 92.1954C78.6805 91.9286 79.0082 91.7791 79.3497 91.7793C79.6911 91.7795 80.0186 91.9295 80.2611 92.1966C80.5036 92.4638 80.6415 92.8265 80.6448 93.2059C80.6481 93.5854 80.5165 93.951 80.2787 94.2232L68.0856 107.899C67.9649 108.035 67.8212 108.142 67.6628 108.215C67.5043 108.288 67.3344 108.326 67.1628 108.325Z" fill="#A9F8FD"/>
<path d="M67.1628 149.322C66.828 149.322 66.5061 149.178 66.2651 148.92L60.8388 143.122C60.591 142.857 60.448 142.494 60.4412 142.112C60.4344 141.73 60.5644 141.36 60.8026 141.085C61.0407 140.809 61.3676 140.65 61.7113 140.643C62.0549 140.635 62.3872 140.78 62.6351 141.044L67.1408 145.858L78.4377 133.191C78.6805 132.924 79.0082 132.775 79.3497 132.775C79.6911 132.775 80.0186 132.925 80.2611 133.192C80.5036 133.46 80.6415 133.822 80.6448 134.202C80.6481 134.581 80.5165 134.947 80.2787 135.219L68.0856 148.895C67.9649 149.03 67.8212 149.138 67.6628 149.211C67.5044 149.285 67.3344 149.322 67.1628 149.322Z" fill="#A9F8FD"/>
<path opacity="0.5" d="M219.253 52.6445H93.8725C93.3731 52.6445 92.9683 53.0945 92.9683 53.6496C92.9683 54.2047 93.3731 54.6547 93.8725 54.6547H219.253C219.753 54.6547 220.158 54.2047 220.158 53.6496C220.158 53.0945 219.753 52.6445 219.253 52.6445Z" fill="#262626"/>
<path opacity="0.5" d="M167.415 63.4482H93.8725C93.3731 63.4482 92.9683 63.8982 92.9683 64.4534C92.9683 65.0085 93.3731 65.4585 93.8725 65.4585H167.415C167.914 65.4585 168.319 65.0085 168.319 64.4534C168.319 63.8982 167.914 63.4482 167.415 63.4482Z" fill="#262626"/>
<path opacity="0.5" d="M219.253 93.6404H93.8725C93.3731 93.6404 92.9683 94.0904 92.9683 94.6455C92.9683 95.2006 93.3731 95.6506 93.8725 95.6506H219.253C219.753 95.6506 220.158 95.2006 220.158 94.6455C220.158 94.0904 219.753 93.6404 219.253 93.6404Z" fill="#262626"/>
<path opacity="0.5" d="M167.415 104.444H93.8725C93.3731 104.444 92.9683 104.894 92.9683 105.449C92.9683 106.004 93.3731 106.454 93.8725 106.454H167.415C167.914 106.454 168.319 106.004 168.319 105.449C168.319 104.894 167.914 104.444 167.415 104.444Z" fill="#262626"/>
<path opacity="0.5" d="M219.253 134.636H93.8725C93.3731 134.636 92.9683 135.086 92.9683 135.641C92.9683 136.196 93.3731 136.646 93.8725 136.646H219.253C219.753 136.646 220.158 136.196 220.158 135.641C220.158 135.086 219.753 134.636 219.253 134.636Z" fill="#262626"/>
<path opacity="0.5" d="M167.415 145.44H93.8725C93.3731 145.44 92.9683 145.89 92.9683 146.445C92.9683 147 93.3731 147.45 93.8725 147.45H167.415C167.914 147.45 168.319 147 168.319 146.445C168.319 145.89 167.914 145.44 167.415 145.44Z" fill="#262626"/>
<path opacity="0.5" d="M219.253 175.069H93.8725C93.3731 175.069 92.9683 175.519 92.9683 176.074C92.9683 176.629 93.3731 177.079 93.8725 177.079H219.253C219.753 177.079 220.158 176.629 220.158 176.074C220.158 175.519 219.753 175.069 219.253 175.069Z" fill="#262626"/>
<path opacity="0.5" d="M167.415 185.873H93.8725C93.3731 185.873 92.9683 186.323 92.9683 186.878C92.9683 187.433 93.3731 187.883 93.8725 187.883H167.415C167.914 187.883 168.319 187.433 168.319 186.878C168.319 186.323 167.914 185.873 167.415 185.873Z" fill="#262626"/>
<path opacity="0.5" d="M219.253 215.501H93.8725C93.3731 215.501 92.9683 215.951 92.9683 216.506C92.9683 217.061 93.3731 217.511 93.8725 217.511H219.253C219.753 217.511 220.158 217.061 220.158 216.506C220.158 215.951 219.753 215.501 219.253 215.501Z" fill="#262626"/>
<path opacity="0.5" d="M167.415 226.305H93.8725C93.3731 226.305 92.9683 226.755 92.9683 227.31C92.9683 227.865 93.3731 228.315 93.8725 228.315H167.415C167.914 228.315 168.319 227.865 168.319 227.31C168.319 226.755 167.914 226.305 167.415 226.305Z" fill="#262626"/>
<path d="M69.1566 2.14753e-07C67.1264 0.0025737 65.18 0.90015 63.7444 2.49582C62.3089 4.09148 61.5013 6.25493 61.499 8.51155H62.147C62.1469 7.01638 62.5337 5.55274 63.2615 4.29531C63.9893 3.03787 65.0272 2.03975 66.2514 1.42005C67.4755 0.800361 68.8343 0.585274 70.1654 0.800463C71.4966 1.01565 72.7439 1.65203 73.7585 2.63364C74.7732 3.61526 75.5123 4.90065 75.8877 6.33642C76.263 7.77219 76.2588 9.29769 75.8755 10.7309C75.4922 12.164 74.746 13.4443 73.7259 14.419C72.7059 15.3937 71.455 16.0215 70.1227 16.2276C70.0105 15.9704 69.8192 15.7664 69.5833 15.6524C69.3475 15.5384 69.0828 15.5221 68.8371 15.6062C68.5913 15.6904 68.3808 15.8695 68.2435 16.1112C68.1063 16.3529 68.0514 16.6413 68.0889 16.924C68.1263 17.2068 68.2536 17.4654 68.4476 17.6529C68.6416 17.8405 68.8897 17.9446 69.1468 17.9465C69.404 17.9484 69.6532 17.848 69.8495 17.6634C70.0458 17.4787 70.1762 17.2221 70.217 16.9399C72.1374 16.6419 73.8846 15.5451 75.1058 13.871C76.327 12.1969 76.9313 10.0701 76.7967 7.92007C76.6621 5.76999 75.7987 3.75674 74.3806 2.28675C72.9626 0.81676 71.0956 -0.000483666 69.1566 2.14753e-07Z" fill="#F4F4F4"/>
<path d="M218.497 8.51155C218.497 6.25414 217.69 4.0892 216.254 2.49297C214.818 0.89675 212.871 0 210.84 0C208.809 0 206.861 0.89675 205.425 2.49297C203.989 4.0892 203.182 6.25414 203.182 8.51155H203.83C203.83 7.01638 204.217 5.55274 204.945 4.29531C205.672 3.03787 206.71 2.03975 207.934 1.42005C209.159 0.80036 210.517 0.585274 211.849 0.800463C213.18 1.01565 214.427 1.65203 215.442 2.63364C216.456 3.61526 217.195 4.90065 217.571 6.33642C217.946 7.77219 217.942 9.29769 217.559 10.7309C217.175 12.164 216.429 13.4443 215.409 14.419C214.389 15.3937 213.138 16.0215 211.806 16.2276C211.694 15.9704 211.502 15.7664 211.266 15.6524C211.031 15.5384 210.766 15.5221 210.52 15.6062C210.274 15.6904 210.064 15.8695 209.927 16.1112C209.789 16.3529 209.735 16.6413 209.772 16.924C209.809 17.2068 209.937 17.4654 210.131 17.6529C210.325 17.8405 210.573 17.9446 210.83 17.9465C211.087 17.9484 211.336 17.848 211.533 17.6634C211.729 17.4787 211.859 17.2221 211.9 16.9399C213.728 16.6532 215.402 15.6429 216.614 14.0946C217.826 12.5463 218.495 10.5639 218.497 8.51155Z" fill="#F4F4F4"/>
<path d="M198.255 8.51147C198.242 6.26362 197.43 4.1128 195.995 2.52847C194.56 0.944137 192.62 0.0549316 190.598 0.0549316C188.575 0.0549316 186.635 0.944137 185.2 2.52847C183.766 4.1128 182.953 6.26362 182.94 8.51147H183.588C183.588 7.01621 183.975 5.55244 184.702 4.29489C185.43 3.03733 186.468 2.0391 187.692 1.41932C188.917 0.799552 190.275 0.58442 191.607 0.799605C192.938 1.01479 194.185 1.6512 195.2 2.63288C196.215 3.61457 196.954 4.90006 197.329 6.33593C197.705 7.7718 197.7 9.29741 197.317 10.7307C196.934 12.1639 196.187 13.4443 195.167 14.419C194.147 15.3937 192.896 16.0215 191.564 16.2275C191.451 15.9703 191.26 15.7663 191.024 15.6523C190.788 15.5384 190.524 15.522 190.278 15.6061C190.032 15.6903 189.822 15.8694 189.684 16.1111C189.547 16.3529 189.492 16.6412 189.53 16.924C189.567 17.2067 189.694 17.4653 189.889 17.6528C190.083 17.8404 190.331 17.9445 190.588 17.9465C190.845 17.9484 191.094 17.8479 191.29 17.6633C191.487 17.4787 191.617 17.222 191.658 16.9398C193.486 16.6532 195.16 15.643 196.372 14.0946C197.584 12.5463 198.253 10.5638 198.255 8.51147Z" fill="#F4F4F4"/>
<path d="M178.016 8.51147C178.002 6.26362 177.19 4.1128 175.755 2.52847C174.321 0.944137 172.38 0.0549316 170.358 0.0549316C168.336 0.0549316 166.395 0.944137 164.961 2.52847C163.526 4.1128 162.713 6.26362 162.7 8.51147H163.348C163.348 7.01629 163.735 5.55263 164.463 4.29514C165.19 3.03766 166.228 2.03947 167.452 1.41968C168.676 0.799903 170.035 0.584708 171.366 0.79978C172.698 1.01485 173.945 1.65111 174.96 2.63262C175.974 3.61413 176.714 4.89945 177.089 6.33518C177.465 7.77091 177.461 9.29643 177.078 10.7297C176.694 12.1629 175.948 13.4434 174.928 14.4182C173.909 15.3931 172.658 16.0212 171.326 16.2275C171.213 15.9703 171.022 15.7663 170.786 15.6523C170.55 15.5384 170.286 15.522 170.04 15.6061C169.794 15.6903 169.584 15.8694 169.446 16.1111C169.309 16.3529 169.254 16.6412 169.292 16.924C169.329 17.2067 169.456 17.4653 169.65 17.6528C169.844 17.8404 170.092 17.9445 170.35 17.9465C170.607 17.9484 170.856 17.8479 171.052 17.6633C171.249 17.4787 171.379 17.222 171.42 16.9398C173.248 16.6528 174.921 15.6424 176.133 14.0941C177.345 12.5458 178.013 10.5636 178.016 8.51147Z" fill="#F4F4F4"/>
<path d="M157.776 8.51155C157.776 6.25415 156.969 4.0892 155.533 2.49297C154.097 0.89675 152.149 0 150.118 0C148.087 0 146.139 0.89675 144.703 2.49297C143.267 4.0892 142.46 6.25415 142.46 8.51155H143.108C143.108 7.01638 143.495 5.55274 144.223 4.29531C144.951 3.03787 145.989 2.03975 147.213 1.42005C148.437 0.80036 149.796 0.585274 151.127 0.800463C152.458 1.01565 153.705 1.65203 154.72 2.63364C155.735 3.61526 156.474 4.90065 156.849 6.33642C157.224 7.77219 157.22 9.29769 156.837 10.7309C156.454 12.164 155.707 13.4444 154.687 14.419C153.667 15.3937 152.416 16.0215 151.084 16.2276C150.972 15.9703 150.781 15.766 150.545 15.6519C150.309 15.5377 150.044 15.5211 149.798 15.6052C149.553 15.6892 149.342 15.8683 149.204 16.11C149.067 16.3517 149.012 16.6401 149.049 16.923C149.087 17.2059 149.214 17.4646 149.408 17.6523C149.602 17.84 149.85 17.9443 150.107 17.9464C150.364 17.9484 150.614 17.8481 150.81 17.6635C151.007 17.4788 151.137 17.2222 151.178 16.9399C153.006 16.6533 154.68 15.6431 155.892 14.0947C157.104 12.5464 157.773 10.5639 157.776 8.51155Z" fill="#F4F4F4"/>
<path d="M137.536 8.51147C137.523 6.26362 136.71 4.1128 135.276 2.52847C133.841 0.944137 131.901 0.0549316 129.878 0.0549316C127.856 0.0549316 125.916 0.944137 124.481 2.52847C123.046 4.1128 122.234 6.26362 122.221 8.51147H122.869C122.868 7.01621 123.255 5.55244 123.983 4.29489C124.711 3.03733 125.749 2.0391 126.973 1.41932C128.197 0.799552 129.556 0.58442 130.887 0.799605C132.219 1.01479 133.466 1.6512 134.481 2.63288C135.495 3.61457 136.235 4.90006 136.61 6.33593C136.985 7.7718 136.981 9.29741 136.598 10.7307C136.214 12.1639 135.468 13.4443 134.448 14.419C133.428 15.3937 132.177 16.0215 130.844 16.2275C130.732 15.9703 130.541 15.7663 130.305 15.6523C130.069 15.5384 129.804 15.522 129.559 15.6061C129.313 15.6903 129.102 15.8694 128.965 16.1111C128.828 16.3529 128.773 16.6412 128.811 16.924C128.848 17.2067 128.975 17.4653 129.169 17.6528C129.363 17.8404 129.611 17.9445 129.868 17.9465C130.126 17.9484 130.375 17.8479 130.571 17.6633C130.767 17.4787 130.898 17.222 130.939 16.9398C132.767 16.6532 134.441 15.643 135.653 14.0946C136.865 12.5463 137.534 10.5638 137.536 8.51147Z" fill="#F4F4F4"/>
<path d="M117.294 8.51155C117.294 6.25414 116.487 4.0892 115.051 2.49297C113.615 0.89675 111.667 0 109.636 0C107.605 0 105.657 0.89675 104.221 2.49297C102.785 4.0892 101.979 6.25414 101.979 8.51155H102.626C102.626 7.01638 103.013 5.55274 103.741 4.29531C104.469 3.03787 105.507 2.03974 106.731 1.42005C107.955 0.80036 109.314 0.585274 110.645 0.800463C111.976 1.01565 113.223 1.65203 114.238 2.63364C115.253 3.61526 115.992 4.90065 116.367 6.33642C116.743 7.77219 116.738 9.29769 116.355 10.7309C115.972 12.164 115.225 13.4444 114.205 14.419C113.185 15.3937 111.935 16.0215 110.602 16.2276C110.49 15.9703 110.299 15.766 110.063 15.6519C109.827 15.5377 109.562 15.5211 109.316 15.6052C109.071 15.6892 108.86 15.8683 108.722 16.11C108.585 16.3517 108.53 16.6401 108.567 16.923C108.605 17.2059 108.732 17.4646 108.926 17.6523C109.12 17.84 109.368 17.9443 109.625 17.9464C109.882 17.9484 110.132 17.8481 110.328 17.6635C110.525 17.4788 110.655 17.2222 110.696 16.9399C112.525 16.6533 114.198 15.6431 115.41 14.0947C116.622 12.5464 117.291 10.5639 117.294 8.51155Z" fill="#F4F4F4"/>
<path d="M97.0542 8.51147C97.041 6.26362 96.2284 4.1128 94.7938 2.52847C93.3591 0.944137 91.4188 0.0549316 89.3965 0.0549316C87.3741 0.0549316 85.4339 0.944137 83.9992 2.52847C82.5645 4.1128 81.7519 6.26362 81.7388 8.51147H82.3868C82.3865 7.01621 82.7734 5.55244 83.5012 4.29489C84.2289 3.03733 85.2669 2.0391 86.4911 1.41932C87.7154 0.799552 89.0742 0.58442 90.4054 0.799605C91.7367 1.01479 92.9841 1.6512 93.9988 2.63288C95.0135 3.61457 95.7527 4.90006 96.1281 6.33593C96.5035 7.7718 96.4992 9.29741 96.1158 10.7307C95.7325 12.1639 94.9862 13.4443 93.966 14.419C92.9458 15.3937 91.6949 16.0215 90.3625 16.2275C90.2502 15.9703 90.0589 15.7663 89.8231 15.6523C89.5873 15.5384 89.3225 15.522 89.0768 15.6061C88.8311 15.6903 88.6205 15.8694 88.4833 16.1111C88.3461 16.3529 88.2912 16.6412 88.3286 16.924C88.366 17.2067 88.4933 17.4653 88.6873 17.6528C88.8814 17.8404 89.1294 17.9445 89.3866 17.9465C89.6437 17.9484 89.893 17.8479 90.0893 17.6633C90.2855 17.4787 90.4159 17.222 90.4567 16.9398C92.2851 16.6532 93.959 15.643 95.171 14.0946C96.383 12.5463 97.0517 10.5638 97.0542 8.51147Z" fill="#F4F4F4"/>
<g opacity="0.6">
<path d="M69.1566 2.14753e-07C67.1264 0.0025737 65.18 0.90015 63.7444 2.49582C62.3089 4.09148 61.5013 6.25493 61.499 8.51155H62.147C62.1469 7.01638 62.5337 5.55274 63.2615 4.29531C63.9893 3.03787 65.0272 2.03975 66.2514 1.42005C67.4755 0.800361 68.8343 0.585274 70.1654 0.800463C71.4966 1.01565 72.7439 1.65203 73.7585 2.63364C74.7732 3.61526 75.5123 4.90065 75.8877 6.33642C76.263 7.77219 76.2588 9.29769 75.8755 10.7309C75.4922 12.164 74.746 13.4443 73.7259 14.419C72.7059 15.3937 71.455 16.0215 70.1227 16.2276C70.0105 15.9704 69.8192 15.7664 69.5833 15.6524C69.3475 15.5384 69.0828 15.5221 68.8371 15.6062C68.5913 15.6904 68.3808 15.8695 68.2435 16.1112C68.1063 16.3529 68.0514 16.6413 68.0889 16.924C68.1263 17.2068 68.2536 17.4654 68.4476 17.6529C68.6416 17.8405 68.8897 17.9446 69.1468 17.9465C69.404 17.9484 69.6532 17.848 69.8495 17.6634C70.0458 17.4787 70.1762 17.2221 70.217 16.9399C72.1374 16.6419 73.8846 15.5451 75.1058 13.871C76.327 12.1969 76.9313 10.0701 76.7967 7.92007C76.6621 5.76999 75.7987 3.75674 74.3806 2.28675C72.9626 0.81676 71.0956 -0.000483666 69.1566 2.14753e-07Z" fill="#292A2E"/>
<path d="M218.497 8.51155C218.497 6.25414 217.69 4.0892 216.254 2.49297C214.818 0.89675 212.871 0 210.84 0C208.809 0 206.861 0.89675 205.425 2.49297C203.989 4.0892 203.182 6.25414 203.182 8.51155H203.83C203.83 7.01638 204.217 5.55274 204.945 4.29531C205.672 3.03787 206.71 2.03975 207.934 1.42005C209.159 0.80036 210.517 0.585274 211.849 0.800463C213.18 1.01565 214.427 1.65203 215.442 2.63364C216.456 3.61526 217.195 4.90065 217.571 6.33642C217.946 7.77219 217.942 9.29769 217.559 10.7309C217.175 12.164 216.429 13.4443 215.409 14.419C214.389 15.3937 213.138 16.0215 211.806 16.2276C211.694 15.9704 211.502 15.7664 211.266 15.6524C211.031 15.5384 210.766 15.5221 210.52 15.6062C210.274 15.6904 210.064 15.8695 209.927 16.1112C209.789 16.3529 209.735 16.6413 209.772 16.924C209.809 17.2068 209.937 17.4654 210.131 17.6529C210.325 17.8405 210.573 17.9446 210.83 17.9465C211.087 17.9484 211.336 17.848 211.533 17.6634C211.729 17.4787 211.859 17.2221 211.9 16.9399C213.728 16.6532 215.402 15.6429 216.614 14.0946C217.826 12.5463 218.495 10.5639 218.497 8.51155Z" fill="#292A2E"/>
<path d="M198.255 8.51147C198.242 6.26362 197.43 4.1128 195.995 2.52847C194.56 0.944137 192.62 0.0549316 190.598 0.0549316C188.575 0.0549316 186.635 0.944137 185.2 2.52847C183.766 4.1128 182.953 6.26362 182.94 8.51147H183.588C183.588 7.01621 183.975 5.55244 184.702 4.29489C185.43 3.03733 186.468 2.0391 187.692 1.41932C188.917 0.799552 190.275 0.58442 191.607 0.799605C192.938 1.01479 194.185 1.6512 195.2 2.63288C196.215 3.61457 196.954 4.90006 197.329 6.33593C197.705 7.7718 197.7 9.29741 197.317 10.7307C196.934 12.1639 196.187 13.4443 195.167 14.419C194.147 15.3937 192.896 16.0215 191.564 16.2275C191.451 15.9703 191.26 15.7663 191.024 15.6523C190.788 15.5384 190.524 15.522 190.278 15.6061C190.032 15.6903 189.822 15.8694 189.684 16.1111C189.547 16.3529 189.492 16.6412 189.53 16.924C189.567 17.2067 189.694 17.4653 189.889 17.6528C190.083 17.8404 190.331 17.9445 190.588 17.9465C190.845 17.9484 191.094 17.8479 191.29 17.6633C191.487 17.4787 191.617 17.222 191.658 16.9398C193.486 16.6532 195.16 15.643 196.372 14.0946C197.584 12.5463 198.253 10.5638 198.255 8.51147Z" fill="#292A2E"/>
<path d="M178.016 8.51147C178.002 6.26362 177.19 4.1128 175.755 2.52847C174.321 0.944137 172.38 0.0549316 170.358 0.0549316C168.336 0.0549316 166.395 0.944137 164.961 2.52847C163.526 4.1128 162.713 6.26362 162.7 8.51147H163.348C163.348 7.01629 163.735 5.55263 164.463 4.29514C165.19 3.03766 166.228 2.03947 167.452 1.41968C168.676 0.799903 170.035 0.584708 171.366 0.79978C172.698 1.01485 173.945 1.65111 174.96 2.63262C175.974 3.61413 176.714 4.89945 177.089 6.33518C177.465 7.77091 177.461 9.29643 177.078 10.7297C176.694 12.1629 175.948 13.4434 174.928 14.4182C173.909 15.3931 172.658 16.0212 171.326 16.2275C171.213 15.9703 171.022 15.7663 170.786 15.6523C170.55 15.5384 170.286 15.522 170.04 15.6061C169.794 15.6903 169.584 15.8694 169.446 16.1111C169.309 16.3529 169.254 16.6412 169.292 16.924C169.329 17.2067 169.456 17.4653 169.65 17.6528C169.844 17.8404 170.092 17.9445 170.35 17.9465C170.607 17.9484 170.856 17.8479 171.052 17.6633C171.249 17.4787 171.379 17.222 171.42 16.9398C173.248 16.6528 174.921 15.6424 176.133 14.0941C177.345 12.5458 178.013 10.5636 178.016 8.51147Z" fill="#292A2E"/>
<path d="M157.776 8.51155C157.776 6.25415 156.969 4.0892 155.533 2.49297C154.097 0.89675 152.149 0 150.118 0C148.087 0 146.139 0.89675 144.703 2.49297C143.267 4.0892 142.46 6.25415 142.46 8.51155H143.108C143.108 7.01638 143.495 5.55274 144.223 4.29531C144.951 3.03787 145.989 2.03975 147.213 1.42005C148.437 0.80036 149.796 0.585274 151.127 0.800463C152.458 1.01565 153.705 1.65203 154.72 2.63364C155.735 3.61526 156.474 4.90065 156.849 6.33642C157.224 7.77219 157.22 9.29769 156.837 10.7309C156.454 12.164 155.707 13.4444 154.687 14.419C153.667 15.3937 152.416 16.0215 151.084 16.2276C150.972 15.9703 150.781 15.766 150.545 15.6519C150.309 15.5377 150.044 15.5211 149.798 15.6052C149.553 15.6892 149.342 15.8683 149.204 16.11C149.067 16.3517 149.012 16.6401 149.049 16.923C149.087 17.2059 149.214 17.4646 149.408 17.6523C149.602 17.84 149.85 17.9443 150.107 17.9464C150.364 17.9484 150.614 17.8481 150.81 17.6635C151.007 17.4788 151.137 17.2222 151.178 16.9399C153.006 16.6533 154.68 15.6431 155.892 14.0947C157.104 12.5464 157.773 10.5639 157.776 8.51155Z" fill="#292A2E"/>
<path d="M137.536 8.51147C137.523 6.26362 136.71 4.1128 135.276 2.52847C133.841 0.944137 131.901 0.0549316 129.878 0.0549316C127.856 0.0549316 125.916 0.944137 124.481 2.52847C123.046 4.1128 122.234 6.26362 122.221 8.51147H122.869C122.868 7.01621 123.255 5.55244 123.983 4.29489C124.711 3.03733 125.749 2.0391 126.973 1.41932C128.197 0.799552 129.556 0.58442 130.887 0.799605C132.219 1.01479 133.466 1.6512 134.481 2.63288C135.495 3.61457 136.235 4.90006 136.61 6.33593C136.985 7.7718 136.981 9.29741 136.598 10.7307C136.214 12.1639 135.468 13.4443 134.448 14.419C133.428 15.3937 132.177 16.0215 130.844 16.2275C130.732 15.9703 130.541 15.7663 130.305 15.6523C130.069 15.5384 129.804 15.522 129.559 15.6061C129.313 15.6903 129.102 15.8694 128.965 16.1111C128.828 16.3529 128.773 16.6412 128.811 16.924C128.848 17.2067 128.975 17.4653 129.169 17.6528C129.363 17.8404 129.611 17.9445 129.868 17.9465C130.126 17.9484 130.375 17.8479 130.571 17.6633C130.767 17.4787 130.898 17.222 130.939 16.9398C132.767 16.6532 134.441 15.643 135.653 14.0946C136.865 12.5463 137.534 10.5638 137.536 8.51147Z" fill="#292A2E"/>
<path d="M117.294 8.51155C117.294 6.25414 116.487 4.0892 115.051 2.49297C113.615 0.89675 111.667 0 109.636 0C107.605 0 105.657 0.89675 104.221 2.49297C102.785 4.0892 101.979 6.25414 101.979 8.51155H102.626C102.626 7.01638 103.013 5.55274 103.741 4.29531C104.469 3.03787 105.507 2.03974 106.731 1.42005C107.955 0.80036 109.314 0.585274 110.645 0.800463C111.976 1.01565 113.223 1.65203 114.238 2.63364C115.253 3.61526 115.992 4.90065 116.367 6.33642C116.743 7.77219 116.738 9.29769 116.355 10.7309C115.972 12.164 115.225 13.4444 114.205 14.419C113.185 15.3937 111.935 16.0215 110.602 16.2276C110.49 15.9703 110.299 15.766 110.063 15.6519C109.827 15.5377 109.562 15.5211 109.316 15.6052C109.071 15.6892 108.86 15.8683 108.722 16.11C108.585 16.3517 108.53 16.6401 108.567 16.923C108.605 17.2059 108.732 17.4646 108.926 17.6523C109.12 17.84 109.368 17.9443 109.625 17.9464C109.882 17.9484 110.132 17.8481 110.328 17.6635C110.525 17.4788 110.655 17.2222 110.696 16.9399C112.525 16.6533 114.198 15.6431 115.41 14.0947C116.622 12.5464 117.291 10.5639 117.294 8.51155Z" fill="#292A2E"/>
<path d="M97.0542 8.51147C97.041 6.26362 96.2284 4.1128 94.7938 2.52847C93.3591 0.944137 91.4188 0.0549316 89.3965 0.0549316C87.3741 0.0549316 85.4339 0.944137 83.9992 2.52847C82.5645 4.1128 81.7519 6.26362 81.7388 8.51147H82.3868C82.3865 7.01621 82.7734 5.55244 83.5012 4.29489C84.2289 3.03733 85.2669 2.0391 86.4911 1.41932C87.7154 0.799552 89.0742 0.58442 90.4054 0.799605C91.7367 1.01479 92.9841 1.6512 93.9988 2.63288C95.0135 3.61457 95.7527 4.90006 96.1281 6.33593C96.5035 7.7718 96.4992 9.29741 96.1158 10.7307C95.7325 12.1639 94.9862 13.4443 93.966 14.419C92.9458 15.3937 91.6949 16.0215 90.3625 16.2275C90.2502 15.9703 90.0589 15.7663 89.8231 15.6523C89.5873 15.5384 89.3225 15.522 89.0768 15.6061C88.8311 15.6903 88.6205 15.8694 88.4833 16.1111C88.3461 16.3529 88.2912 16.6412 88.3286 16.924C88.366 17.2067 88.4933 17.4653 88.6873 17.6528C88.8814 17.8404 89.1294 17.9445 89.3866 17.9465C89.6437 17.9484 89.893 17.8479 90.0893 17.6633C90.2855 17.4787 90.4159 17.222 90.4567 16.9398C92.2851 16.6532 93.959 15.643 95.171 14.0946C96.383 12.5463 97.0517 10.5638 97.0542 8.51147Z" fill="#292A2E"/>
</g>
<path d="M27.671 261.018C27.6285 261.018 27.5863 261.009 27.547 260.991C27.5077 260.973 27.472 260.946 27.442 260.913C26.9855 260.406 26.2413 251.097 24.237 223.38C23.417 212.038 22.6424 201.326 22.077 194.816C22.0368 194.351 21.8745 194.297 21.8214 194.28C21.0473 194.02 18.6942 196.082 17.3804 197.889C17.3536 197.926 17.3206 197.956 17.2832 197.979C17.2458 198.001 17.2048 198.016 17.1625 198.021C17.1201 198.026 17.0773 198.021 17.0365 198.008C16.9957 197.994 16.9577 197.972 16.9245 197.942C16.8914 197.913 16.8639 197.876 16.8436 197.834C16.8233 197.793 16.8105 197.747 16.806 197.7C16.8015 197.653 16.8054 197.606 16.8175 197.56C16.8295 197.515 16.8495 197.473 16.8763 197.436C17.7452 196.242 20.5769 193.111 22.0077 193.59C22.296 193.686 22.654 193.965 22.7204 194.747C23.2861 201.263 24.0611 211.978 24.8815 223.322C26.0993 240.165 27.4789 259.247 27.9325 260.448C27.9671 260.502 27.9878 260.565 27.9923 260.631C27.9968 260.697 27.9849 260.763 27.9579 260.822C27.9309 260.881 27.8899 260.93 27.8393 260.965C27.7887 260.999 27.7305 261.018 27.671 261.018Z" fill="#494949"/>
<path d="M21.2437 206.761C26.6199 201.971 28.4019 194.515 25.2237 190.108C22.0455 185.701 15.1108 186.011 9.73457 190.802C4.35831 195.592 2.57641 203.047 5.75456 207.455C8.93272 211.862 15.8674 211.551 21.2437 206.761Z" fill="#0CBC8B"/>
<path opacity="0.2" d="M21.2437 206.761C26.6199 201.971 28.4019 194.515 25.2237 190.108C22.0455 185.701 15.1108 186.011 9.73457 190.802C4.35831 195.592 2.57641 203.047 5.75456 207.455C8.93272 211.862 15.8674 211.551 21.2437 206.761Z" fill="white"/>
<path d="M7.2595 208.575C7.22173 208.575 7.18511 208.56 7.15615 208.533C7.12345 208.503 7.10286 208.459 7.09886 208.412C7.09486 208.365 7.10776 208.318 7.13476 208.281L22.4567 187.744C22.4702 187.726 22.4869 187.711 22.5058 187.7C22.5246 187.688 22.5452 187.682 22.5664 187.679C22.5876 187.677 22.609 187.68 22.6293 187.687C22.6496 187.694 22.6685 187.705 22.6849 187.72C22.7013 187.735 22.7148 187.754 22.7248 187.775C22.7347 187.796 22.7408 187.819 22.7428 187.842C22.7448 187.866 22.7425 187.89 22.7362 187.912C22.73 187.935 22.7197 187.956 22.7061 187.974L7.38586 208.51C7.37045 208.531 7.35112 208.547 7.32926 208.558C7.3074 208.57 7.28357 208.575 7.2595 208.575Z" fill="white"/>
<path d="M31.0119 256.614C30.9602 256.614 30.9092 256.6 30.8633 256.574C30.8174 256.548 30.7778 256.509 30.7478 256.462C30.7179 256.416 30.6985 256.361 30.6912 256.305C30.6839 256.248 30.689 256.19 30.706 256.135L36.4614 237.738C36.6309 237.197 36.9196 236.713 37.3013 236.328C37.6829 235.944 38.1451 235.672 38.6457 235.538C39.1463 235.404 39.6692 235.411 40.1665 235.56C40.6639 235.708 41.1197 235.993 41.4924 236.388L44.5353 239.619C44.5975 239.685 44.6335 239.775 44.6355 239.871C44.6374 239.966 44.6052 240.059 44.5458 240.128C44.4864 240.197 44.4048 240.237 44.3189 240.239C44.2329 240.242 44.1497 240.206 44.0875 240.14L41.0449 236.909C40.7507 236.597 40.3909 236.372 39.9982 236.255C39.6056 236.137 39.1928 236.132 38.7976 236.238C38.4024 236.344 38.0374 236.558 37.7361 236.862C37.4349 237.165 37.2069 237.548 37.0731 237.974L31.318 256.373C31.2959 256.443 31.2545 256.504 31.1996 256.548C31.1447 256.591 31.0791 256.614 31.0119 256.614Z" fill="#494949"/>
<path d="M53.0354 249.804C57.0197 246.298 56.7829 238.589 52.5065 232.583C48.2301 226.578 41.5335 224.552 37.5492 228.057C33.5649 231.563 33.8017 239.273 38.0781 245.278C42.3545 251.283 49.0511 253.309 53.0354 249.804Z" fill="#0CBC8B"/>
<path d="M25.0546 259.844C24.9818 259.844 24.9111 259.816 24.854 259.766C24.7968 259.716 24.7566 259.646 24.7397 259.567L15.0812 214.679C15.0151 214.373 14.8744 214.094 14.6746 213.871C14.4748 213.648 14.2236 213.491 13.9487 213.416C13.6737 213.342 13.3856 213.353 13.116 213.449C12.8464 213.545 12.6058 213.721 12.4205 213.959L9.44305 217.784C9.41535 217.82 9.38145 217.85 9.34331 217.871C9.30518 217.893 9.26357 217.906 9.22088 217.91C9.17819 217.913 9.13528 217.907 9.09462 217.893C9.05397 217.878 9.01637 217.854 8.984 217.823C8.95163 217.792 8.92514 217.754 8.90605 217.711C8.88697 217.668 8.87566 217.622 8.8728 217.575C8.86993 217.527 8.87556 217.48 8.88936 217.434C8.90315 217.389 8.92484 217.348 8.95318 217.312L11.9303 213.488C12.1936 213.15 12.5357 212.899 12.919 212.763C13.3023 212.627 13.712 212.611 14.1028 212.717C14.4937 212.823 14.8507 213.047 15.1346 213.364C15.4184 213.681 15.6181 214.079 15.7116 214.514L25.3689 259.4C25.3888 259.492 25.3748 259.59 25.3298 259.672C25.2849 259.753 25.2127 259.811 25.1291 259.834C25.1047 259.84 25.0797 259.844 25.0546 259.844Z" fill="#494949"/>
<path d="M21.4901 227.755C22.6642 220.208 19.557 213.31 14.5499 212.348C9.54276 211.386 4.53191 216.723 3.35782 224.27C2.18372 231.817 5.29099 238.715 10.2981 239.677C15.3052 240.639 20.316 235.302 21.4901 227.755Z" fill="#0CBC8B"/>
<path d="M27.6692 261.018C27.6559 261.018 27.6426 261.018 27.6294 261.016C27.5871 261.01 27.5463 260.995 27.5092 260.972C27.4722 260.949 27.4396 260.917 27.4134 260.88C27.3872 260.843 27.3678 260.8 27.3565 260.755C27.3451 260.709 27.342 260.661 27.3472 260.614L33.515 204.953C33.5822 204.346 33.8055 203.775 34.1581 203.306C34.5107 202.837 34.9776 202.492 35.5026 202.311C36.0276 202.13 36.5884 202.122 37.1176 202.287C37.6468 202.452 38.1218 202.783 38.4857 203.241L45.5351 212.116C45.5632 212.151 45.5849 212.192 45.5987 212.237C45.6125 212.282 45.6182 212.329 45.6156 212.376C45.6129 212.424 45.6019 212.47 45.5832 212.512C45.5645 212.555 45.5385 212.593 45.5066 212.624C45.4747 212.655 45.4375 212.679 45.3973 212.695C45.357 212.71 45.3144 212.717 45.2719 212.714C45.2294 212.711 45.1879 212.698 45.1497 212.678C45.1114 212.657 45.0773 212.628 45.0491 212.592L37.9997 203.718C37.7185 203.364 37.3514 203.108 36.9424 202.98C36.5334 202.853 36.1 202.859 35.6942 202.999C35.2884 203.139 34.9276 203.406 34.6551 203.768C34.3826 204.13 34.21 204.572 34.1581 205.041L27.9906 260.7C27.9813 260.788 27.9435 260.869 27.8843 260.927C27.825 260.986 27.7485 261.018 27.6692 261.018Z" fill="#494949"/>
<path d="M52.7666 217.047C55.2262 212.105 52.3323 205.093 46.3029 201.386C40.2736 197.679 33.392 198.68 30.9324 203.623C28.4729 208.565 31.3667 215.577 37.3961 219.284C43.4254 222.991 50.307 221.99 52.7666 217.047Z" fill="#0CBC8B"/>
<path opacity="0.2" d="M53.0354 249.804C57.0197 246.298 56.7829 238.589 52.5065 232.583C48.2301 226.578 41.5335 224.552 37.5492 228.057C33.5649 231.563 33.8017 239.273 38.0781 245.278C42.3545 251.283 49.0511 253.309 53.0354 249.804Z" fill="white"/>
<path opacity="0.5" d="M21.4901 227.755C22.6642 220.208 19.557 213.31 14.5499 212.348C9.54276 211.386 4.53191 216.723 3.35782 224.27C2.18372 231.817 5.29099 238.715 10.2981 239.677C15.3052 240.639 20.316 235.302 21.4901 227.755Z" fill="white"/>
<path opacity="0.5" d="M52.7666 217.047C55.2262 212.105 52.3323 205.093 46.3029 201.386C40.2736 197.679 33.392 198.68 30.9324 203.623C28.4729 208.565 31.3667 215.577 37.3961 219.284C43.4254 222.991 50.307 221.99 52.7666 217.047Z" fill="white"/>
<path d="M35.5582 308.244H19.7808L17.1665 252.135H38.1725L35.5582 308.244Z" fill="#292A2E"/>
<path opacity="0.3" d="M35.5582 308.244H19.7808L17.1665 252.135H38.1725L35.5582 308.244Z" fill="white"/>
<path d="M53.037 249.983C53.0126 249.983 52.9884 249.977 52.9664 249.965C52.9445 249.953 52.9252 249.936 52.91 249.915L37.4232 228.168C37.41 228.15 37.4002 228.128 37.3944 228.106C37.3885 228.083 37.3868 228.059 37.3893 228.036C37.3917 228.012 37.3983 227.989 37.4087 227.969C37.419 227.948 37.4329 227.93 37.4496 227.915C37.4663 227.9 37.4854 227.89 37.5059 227.883C37.5263 227.877 37.5477 227.875 37.5689 227.877C37.59 227.88 37.6105 227.887 37.629 227.899C37.6476 227.91 37.664 227.926 37.6772 227.945L53.164 249.691C53.183 249.718 53.1948 249.749 53.1982 249.783C53.2015 249.817 53.1963 249.851 53.183 249.881C53.1698 249.912 53.149 249.938 53.1232 249.956C53.0974 249.974 53.0675 249.983 53.037 249.983Z" fill="white"/>
<path d="M51.7352 218.79C51.7002 218.79 51.6661 218.777 51.638 218.754L31.8224 202.671C31.8052 202.657 31.7906 202.64 31.7795 202.62C31.7685 202.599 31.7611 202.577 31.7578 202.554C31.7545 202.53 31.7554 202.506 31.7604 202.483C31.7654 202.46 31.7745 202.439 31.787 202.42C31.7996 202.4 31.8154 202.384 31.8336 202.372C31.8518 202.36 31.8719 202.352 31.893 202.348C31.914 202.344 31.9355 202.345 31.9561 202.351C31.9768 202.356 31.9963 202.366 32.0135 202.38L51.8308 218.465C51.8579 218.487 51.8779 218.519 51.8881 218.555C51.8983 218.59 51.8981 218.629 51.8875 218.665C51.877 218.701 51.8566 218.732 51.8293 218.754C51.802 218.776 51.7691 218.788 51.7352 218.789V218.79Z" fill="white"/>
<path d="M9.49498 239.443C9.48087 239.442 9.46683 239.44 9.45318 239.436C9.41168 239.424 9.37629 239.394 9.35478 239.353C9.33327 239.311 9.32741 239.262 9.33849 239.216L15.6469 212.944C15.6589 212.899 15.6862 212.861 15.723 212.838C15.7598 212.815 15.8031 212.809 15.8439 212.821C15.8847 212.833 15.9196 212.862 15.9412 212.903C15.9629 212.943 15.9696 212.991 15.9599 213.036L9.65308 239.309C9.64381 239.348 9.62324 239.382 9.59461 239.406C9.56599 239.43 9.53093 239.443 9.49498 239.443Z" fill="white"/>
<path d="M276.019 106.889L276.93 106.055C277.217 105.782 277.399 105.398 277.441 104.981C277.482 104.564 277.38 104.145 277.154 103.808C277.032 103.639 276.881 103.5 276.709 103.398C276.537 103.296 276.348 103.234 276.153 103.216C275.959 103.198 275.764 103.224 275.579 103.293C275.394 103.362 275.224 103.472 275.078 103.616L264.267 114.284L267.255 118.222C268.184 119.445 269.419 120.332 270.804 120.77C272.189 121.207 273.66 121.175 275.028 120.677L281.221 118.41C281.545 118.299 281.825 118.067 282.012 117.753C282.2 117.44 282.285 117.064 282.252 116.689C282.167 115.95 276.019 106.889 276.019 106.889Z" fill="#E98862"/>
<path d="M269.56 106.972L239.735 117.244L221.547 82.9985L206.009 93.0975L228.937 134.284L229.083 134.49C230.285 136.147 231.922 137.347 233.766 137.921C235.61 138.496 237.57 138.417 239.372 137.695L274.923 123.381L269.56 106.972Z" fill="#A9F8FD"/>
<path d="M287.764 287.185L262.897 288.484L253.307 107.012L278.173 105.714L287.764 287.185Z" fill="#A9F8FD"/>
<path opacity="0.5" d="M287.764 287.185L262.897 288.484L253.307 107.012L278.173 105.714L287.764 287.185Z" fill="white"/>
<path d="M277.328 85.7175L252.461 87.0166L253.307 107.01L278.173 105.711L277.328 85.7175Z" fill="#262626"/>
<path d="M287.764 287.184C287.764 287.184 284.352 293.769 281.277 299.658C278.838 304.328 276.612 308.56 276.468 308.718C276.32 308.882 273.541 304.774 270.536 300.219C266.883 294.684 262.896 288.484 262.896 288.484L287.764 287.184Z" fill="#A9F8FD"/>
<path opacity="0.9" d="M287.764 287.184C287.764 287.184 284.352 293.769 281.277 299.658C278.838 304.328 276.612 308.56 276.468 308.718C276.32 308.882 273.541 304.774 270.536 300.219C266.883 294.684 262.896 288.484 262.896 288.484L287.764 287.184Z" fill="white"/>
<path d="M281.277 299.66C278.839 304.33 276.612 308.562 276.468 308.72C276.321 308.884 273.541 304.776 270.536 300.221L281.277 299.66Z" fill="#262626"/>
<path d="M280.019 287.536L269.99 106.177L271.124 106.114L281.153 287.473L280.019 287.536Z" fill="white"/>
<path d="M270.29 288.049L260.261 106.69L261.396 106.626L271.425 287.985L270.29 288.049Z" fill="white"/>
<path d="M274.431 115.351C274.43 115.003 274.532 114.664 274.721 114.386C274.91 114.108 275.175 113.906 275.477 113.811C275.466 113.785 275.424 113.732 275.465 113.714L274.284 113.481C273.934 113.421 273.616 113.222 273.388 112.922C273.161 112.621 273.038 112.239 273.044 111.846C273.062 111.459 273.208 111.092 273.454 110.817C273.701 110.542 274.031 110.379 274.379 110.359C274.371 110.346 274.374 110.328 274.369 110.313L273.883 110.218C273.554 110.159 273.254 109.977 273.032 109.7C272.81 109.424 272.681 109.071 272.667 108.701C272.662 108.469 272.704 108.239 272.789 108.026C272.874 107.814 273 107.626 273.159 107.475C273.317 107.323 273.504 107.213 273.706 107.152C273.907 107.091 274.118 107.08 274.324 107.12L275.444 107.341C275.444 107.334 275.44 107.329 275.441 107.322C275.442 107.315 275.45 107.308 275.452 107.3C275.158 107.163 274.914 106.918 274.761 106.606C274.608 106.294 274.554 105.934 274.61 105.584C274.7 104.671 275.671 104.331 276.395 104.473L278.645 105.121C278.993 105.221 279.312 105.415 279.576 105.685C279.839 105.955 280.039 106.293 280.157 106.67C281.175 109.929 283.652 118.511 281.34 118.056L275.649 116.935C275.317 116.859 275.016 116.662 274.796 116.375C274.575 116.089 274.447 115.728 274.431 115.351Z" fill="#E98862"/>
<path d="M179.86 49.3709C179.86 49.3709 176.506 46.1449 176.042 39.2589C175.683 33.9291 179.86 37.6744 179.86 37.6744C179.86 37.6744 179.635 33.8326 182.107 34.3972C184.579 34.9619 185.735 39.0652 185.735 39.0652" fill="#0C0C0C"/>
<path d="M194.981 35.804C194.981 35.804 207.276 38.202 201.675 56.5216H198.34" fill="#0C0C0C"/>
<path d="M203.761 286.42C203.761 286.42 207.696 293.806 202.663 299.392C197.63 304.978 202.533 308.547 202.533 308.547L222.838 288.545L213.847 277.269L203.761 286.42Z" fill="#A9F8FD"/>
<path d="M169.214 140.825C169.214 140.825 166.928 214.1 167.218 217.676C168.318 231.203 204.133 292.5 204.133 292.5L217.47 279.843L200.44 241.5L189.673 214.778C189.673 214.778 191.526 191.797 196.522 170.457C199.078 159.504 200.616 148.289 201.112 136.988L169.214 140.825Z" fill="#262626"/>
<path d="M203.103 292.908C203.103 292.908 201.64 301.335 194.54 301.807C187.441 302.278 188.981 308.563 188.981 308.563H216.112V293.496L203.103 292.908Z" fill="#A9F8FD"/>
<path d="M217.953 139.16C217.953 139.16 217.867 136.627 217.886 142.374C217.953 163.812 217.31 298.287 217.31 298.287L199.482 298.121L188.683 138.288L217.953 139.16Z" fill="#262626"/>
<path d="M192.344 192.773L190.882 167.921C190.882 167.921 189.38 178.253 189.38 187.158C189.38 191.511 190.187 208.745 190.187 208.745L192.344 192.773Z" fill="#0A0A0A"/>
<path d="M194.724 227.31L198.432 282.553L194.961 276.346L191.413 219.093L194.724 227.31Z" fill="#0A0A0A"/>
<path d="M181.136 75.5671C181.19 75.5592 181.796 86.7277 193.469 85.7543C201.55 85.0813 204.431 75.5513 204.616 75.5513C203.745 75.3456 202.668 75.0331 202.24 74.9261C201.308 74.6855 200.463 74.1349 199.819 73.3477C199.175 72.5605 198.761 71.5739 198.634 70.5193C198.397 68.9347 198.798 60.8369 198.675 59.2351L186.271 62.3127C186.444 65.6954 187.657 73.5378 183.405 74.9261C182.698 75.1555 181.936 75.3665 181.136 75.5671Z" fill="#E98862"/>
<path opacity="0.52" d="M186.098 71.721C186.292 71.025 186.417 70.3074 186.471 69.5811C186.607 67.9237 186.58 66.2547 186.39 64.6039C188.911 64.2255 191.286 63.0688 193.246 61.2651C193.476 62.2108 194.742 66.3429 194.392 67.2407C193.729 68.9394 190.613 71.721 186.098 71.721Z" fill="#0C0C0C"/>
<path d="M188.298 69.0225C193.21 68.8994 199.26 65.9057 199.789 58.5447L200.266 51.9029C200.794 44.542 197.745 38.2664 191.509 37.714C185.274 37.1609 180.185 42.7147 179.657 50.0757L179.445 53.0161C179.389 54.027 179.394 55.0411 179.462 56.0512C179.624 58.7226 179.876 62.7855 181.328 65.628C182.699 68.3116 185.159 69.101 188.298 69.0225Z" fill="#E98862"/>
<path opacity="0.52" d="M186.438 62.1215C185.427 62.0971 184.436 61.8091 183.544 61.2806C183.525 61.2705 183.508 61.2564 183.494 61.2389C183.48 61.2214 183.469 61.201 183.462 61.1788C183.455 61.1566 183.453 61.1331 183.454 61.1097C183.455 61.0863 183.461 61.0635 183.471 61.0426C183.48 61.0217 183.494 61.0031 183.51 60.988C183.526 60.9728 183.544 60.9615 183.565 60.9545C183.585 60.9476 183.606 60.9452 183.627 60.9475C183.648 60.9498 183.668 60.9568 183.687 60.968C185.612 62.0548 187.42 62.0516 188.915 60.9579C188.945 60.9347 188.976 60.9133 189.008 60.8938C189.046 60.8734 189.089 60.8704 189.129 60.8855C189.169 60.9006 189.201 60.9326 189.22 60.9745C189.238 61.0163 189.241 61.0645 189.227 61.1086C189.214 61.1526 189.185 61.1888 189.147 61.2093C189.135 61.2165 189.115 61.2312 189.088 61.251C188.303 61.8278 187.38 62.1309 186.438 62.1215Z" fill="#0C0C0C"/>
<path opacity="0.52" d="M186.385 63.7826C186.203 63.7815 186.021 63.763 185.842 63.7275C185.8 63.7195 185.764 63.6937 185.74 63.6556C185.716 63.6176 185.706 63.5704 185.713 63.5246C185.72 63.4787 185.744 63.4379 185.778 63.4111C185.812 63.3844 185.855 63.3738 185.896 63.3818C186.979 63.5921 187.533 63.0753 187.556 63.053C187.587 63.0223 187.629 63.0068 187.67 63.0099C187.712 63.013 187.751 63.0344 187.779 63.0694C187.806 63.1044 187.82 63.1501 187.817 63.1966C187.815 63.243 187.795 63.2863 187.764 63.317C187.367 63.6448 186.879 63.8094 186.385 63.7826Z" fill="#0C0C0C"/>
<path d="M181.506 53.5094C181.931 53.5094 182.276 53.126 182.276 52.653C182.276 52.18 181.931 51.7966 181.506 51.7966C181.08 51.7966 180.735 52.18 180.735 52.653C180.735 53.126 181.08 53.5094 181.506 53.5094Z" fill="#0C0C0C"/>
<path d="M188.646 53.5633C189.072 53.5633 189.417 53.1799 189.417 52.707C189.417 52.234 189.072 51.8506 188.646 51.8506C188.221 51.8506 187.876 52.234 187.876 52.707C187.876 53.1799 188.221 53.5633 188.646 53.5633Z" fill="#0C0C0C"/>
<path d="M199.24 60.7529C201.135 60.9207 202.833 58.8039 202.984 56.6976C203.136 54.5912 201.683 53.2937 199.788 53.1255L198.71 54.4507L197.611 60.6089L199.24 60.7529Z" fill="#E98862"/>
<path d="M166.632 100.155C167 104.956 168.789 134.911 169.142 140.825H217.862C218.137 135.491 219.373 112.168 220.416 101.737C221.413 91.7842 223.367 86.441 221.934 83.4984C219.593 78.6893 213.196 76.2704 208.834 75.6139C206.17 75.2134 202.163 74.926 202.163 74.926C202.163 74.926 201.824 82.5535 193.736 82.9781C182.724 83.5543 183.46 74.926 183.405 74.926C179.408 74.926 171.842 75.9891 168.938 78.1837C162.409 83.1185 165.852 89.9807 166.632 100.155Z" fill="#A9F8FD"/>
<path d="M197.56 57.2238C197.56 57.2238 197.548 46.7517 194.742 45.896C192.874 45.3263 188.1 47.9704 183.901 46.7517C182.063 46.2184 180.265 46.599 180.027 47.5627C179.932 47.9444 179.108 42.2977 182.277 38.2949C184.8 35.1081 192.45 34.725 195.84 36.0841C205.223 39.847 200.152 53.6128 200.152 53.6128L199.509 57.1751L197.56 57.2238Z" fill="#0C0C0C"/>
<g opacity="0.52">
<path d="M185.442 59.5743H185.43C184.819 59.5221 183.8 59.3582 183.834 58.8504C183.864 58.4298 185.216 53.9765 185.37 53.4702C185.376 53.4486 185.387 53.4287 185.4 53.4115C185.414 53.3944 185.43 53.3804 185.448 53.3703C185.467 53.3602 185.487 53.3542 185.507 53.3527C185.527 53.3512 185.548 53.3541 185.567 53.3614C185.587 53.3687 185.605 53.3802 185.62 53.3951C185.636 53.4101 185.648 53.4283 185.657 53.4487C185.666 53.4691 185.672 53.4913 185.673 53.514C185.674 53.5367 185.672 53.5595 185.665 53.5811C185.065 55.5535 184.166 58.5915 184.146 58.8771C184.197 59.0024 184.821 59.1742 185.453 59.2286C185.493 59.2325 185.53 59.2534 185.557 59.2868C185.583 59.3201 185.597 59.3635 185.595 59.4079C185.594 59.4524 185.577 59.4945 185.549 59.5255C185.52 59.5566 185.482 59.5743 185.442 59.575V59.5743Z" fill="#0C0C0C"/>
</g>
<path d="M183.673 50.0241C183.433 49.9119 183.18 49.8362 182.922 49.799C182.654 49.7578 182.382 49.7578 182.114 49.799C181.845 49.8364 181.582 49.9191 181.335 50.0442C181.083 50.1703 180.846 50.331 180.63 50.5225L180.613 50.5369C180.557 50.5827 180.487 50.6029 180.418 50.5931C180.35 50.5834 180.287 50.5445 180.243 50.4846C180.199 50.4247 180.178 50.3484 180.183 50.2715C180.189 50.1945 180.221 50.123 180.273 50.0716C180.512 49.8243 180.779 49.6116 181.066 49.4385C181.358 49.2612 181.672 49.1337 181.998 49.06C182.662 48.9045 183.353 48.9522 183.995 49.198C184.045 49.2176 184.091 49.2481 184.131 49.2877C184.171 49.3272 184.203 49.3751 184.226 49.4285C184.249 49.4819 184.262 49.5398 184.265 49.5989C184.268 49.658 184.26 49.7172 184.243 49.7731C184.225 49.8289 184.198 49.8804 184.162 49.9244C184.126 49.9685 184.083 50.0044 184.035 50.0299C183.987 50.0555 183.935 50.0703 183.882 50.0735C183.829 50.0767 183.776 50.0682 183.725 50.0486C183.716 50.0446 183.706 50.0406 183.697 50.036L183.673 50.0241Z" fill="#0C0C0C"/>
<path d="M188.196 49.2693C188.519 49.143 188.858 49.0688 189.2 49.0489C189.533 49.0258 189.867 49.0536 190.193 49.1313C190.519 49.2051 190.832 49.3326 191.124 49.5098C191.411 49.6832 191.678 49.8961 191.917 50.1436C191.97 50.1945 192.003 50.2663 192.01 50.3437C192.016 50.4212 191.995 50.4983 191.951 50.5588C191.907 50.6192 191.843 50.6583 191.774 50.6678C191.704 50.6772 191.634 50.6562 191.578 50.6093L191.56 50.5942C191.344 50.4026 191.107 50.242 190.855 50.1159C190.609 49.9908 190.347 49.908 190.078 49.8703C189.81 49.8291 189.538 49.8291 189.271 49.8703C189.012 49.9075 188.759 49.9832 188.519 50.0954L188.496 50.1066C188.447 50.1305 188.395 50.1436 188.342 50.145C188.288 50.1464 188.235 50.1361 188.186 50.1148C188.136 50.0934 188.091 50.0614 188.052 50.0205C188.013 49.9797 187.982 49.9308 187.961 49.8766C187.939 49.8225 187.928 49.7641 187.926 49.7049C187.925 49.6457 187.934 49.5868 187.954 49.5316C187.973 49.4764 188.002 49.4259 188.038 49.3831C188.075 49.3402 188.119 49.3058 188.168 49.2819C188.177 49.2775 188.186 49.2729 188.196 49.2693Z" fill="#0C0C0C"/>
<path d="M188.852 38.8342C189.423 36.5697 188.763 34.3849 187.379 33.9544C185.995 33.5238 184.411 35.0106 183.84 37.275C183.27 39.5395 183.93 41.7243 185.314 42.1548C186.698 42.5853 188.282 41.0986 188.852 38.8342Z" fill="#0C0C0C"/>
<path d="M164.735 148.65C164.936 148.573 165.12 148.448 165.272 148.283C165.424 148.118 165.542 147.918 165.616 147.697C165.69 147.475 165.719 147.238 165.701 147.003C165.682 146.768 165.617 146.54 165.51 146.335L166.45 148.122C166.634 148.489 166.936 148.764 167.295 148.892C167.654 149.021 168.044 148.993 168.386 148.815C168.559 148.716 168.713 148.578 168.837 148.411C168.961 148.244 169.053 148.05 169.107 147.842C169.162 147.634 169.178 147.416 169.154 147.201C169.13 146.986 169.067 146.779 168.969 146.592L169.394 147.4C169.56 147.729 169.822 147.983 170.138 148.121C170.453 148.259 170.801 148.272 171.124 148.157C171.325 148.08 171.509 147.955 171.661 147.79C171.813 147.625 171.93 147.425 172.005 147.203C172.079 146.982 172.108 146.745 172.089 146.509C172.071 146.274 172.006 146.046 171.899 145.842L171.154 144.425C171.346 144.791 171.661 145.056 172.029 145.164C172.397 145.271 172.788 145.212 173.117 144.998C173.87 144.581 173.82 143.432 173.443 142.713L172.042 139.814L172.967 140.628C173.268 140.882 173.644 140.999 174.02 140.957C174.395 140.914 174.742 140.715 174.991 140.399C175.114 140.231 175.205 140.037 175.258 139.829C175.311 139.62 175.326 139.402 175.301 139.187C175.276 138.972 175.212 138.765 175.112 138.579C175.013 138.392 174.88 138.23 174.723 138.103L166.304 132.202L160.23 132.677C159.35 133.943 158.83 135.472 158.737 137.069C158.644 138.666 158.982 140.257 159.707 141.639L163.005 147.892C163.171 148.221 163.433 148.476 163.749 148.614C164.064 148.752 164.413 148.765 164.735 148.65Z" fill="#E98862"/>
<path d="M170.205 142.654C170.201 142.619 170.209 142.584 170.226 142.555C170.244 142.526 170.269 142.504 170.299 142.494C170.33 142.484 170.362 142.486 170.391 142.499C170.42 142.513 170.444 142.537 170.458 142.568L171.386 144.532C171.394 144.549 171.399 144.568 171.401 144.588C171.402 144.607 171.401 144.627 171.395 144.646C171.39 144.665 171.381 144.682 171.37 144.697C171.359 144.712 171.345 144.725 171.329 144.734C171.313 144.743 171.296 144.749 171.279 144.751C171.261 144.752 171.243 144.75 171.226 144.744C171.209 144.739 171.194 144.729 171.18 144.716C171.167 144.704 171.155 144.688 171.147 144.671L170.22 142.707C170.212 142.691 170.207 142.673 170.205 142.654Z" fill="#E98862"/>
<path d="M167.707 144.116C167.704 144.082 167.711 144.047 167.728 144.018C167.746 143.989 167.771 143.968 167.801 143.957C167.831 143.947 167.863 143.949 167.892 143.962C167.921 143.975 167.945 143.999 167.96 144.029L169.251 146.712C169.26 146.73 169.265 146.749 169.267 146.768C169.268 146.788 169.267 146.808 169.261 146.826C169.256 146.845 169.248 146.863 169.237 146.878C169.225 146.893 169.212 146.906 169.196 146.915C169.18 146.925 169.163 146.93 169.146 146.932C169.128 146.934 169.11 146.932 169.093 146.927C169.076 146.921 169.061 146.911 169.047 146.899C169.033 146.887 169.022 146.871 169.013 146.854L167.722 144.171C167.714 144.154 167.709 144.135 167.707 144.116Z" fill="#E98862"/>
<path d="M164.995 145.683C164.992 145.648 165 145.613 165.017 145.583C165.035 145.554 165.061 145.533 165.091 145.523C165.121 145.513 165.154 145.515 165.183 145.529C165.212 145.543 165.236 145.567 165.25 145.599L165.833 146.882C165.849 146.917 165.852 146.959 165.841 146.996C165.83 147.034 165.805 147.065 165.774 147.083C165.742 147.101 165.705 147.104 165.671 147.092C165.637 147.08 165.608 147.053 165.592 147.017L165.009 145.734C165.002 145.718 164.997 145.701 164.995 145.683Z" fill="#E98862"/>
<path opacity="0.2" d="M170.205 142.654C170.201 142.619 170.209 142.584 170.226 142.555C170.244 142.526 170.269 142.504 170.299 142.494C170.33 142.484 170.362 142.486 170.391 142.499C170.42 142.513 170.444 142.537 170.458 142.568L171.386 144.532C171.394 144.549 171.399 144.568 171.401 144.588C171.402 144.607 171.401 144.627 171.395 144.646C171.39 144.665 171.381 144.682 171.37 144.697C171.359 144.712 171.345 144.725 171.329 144.734C171.313 144.743 171.296 144.749 171.279 144.751C171.261 144.752 171.243 144.75 171.226 144.744C171.209 144.739 171.194 144.729 171.18 144.716C171.167 144.704 171.155 144.688 171.147 144.671L170.22 142.707C170.212 142.691 170.207 142.673 170.205 142.654Z" fill="#0C0C0C"/>
<path opacity="0.2" d="M167.707 144.116C167.704 144.082 167.711 144.047 167.728 144.018C167.746 143.989 167.771 143.968 167.801 143.957C167.831 143.947 167.863 143.949 167.892 143.962C167.921 143.975 167.945 143.999 167.96 144.029L169.251 146.712C169.26 146.73 169.265 146.749 169.267 146.768C169.268 146.788 169.267 146.808 169.261 146.826C169.256 146.845 169.248 146.863 169.237 146.878C169.225 146.893 169.212 146.906 169.196 146.915C169.18 146.925 169.163 146.93 169.146 146.932C169.128 146.934 169.11 146.932 169.093 146.927C169.076 146.921 169.061 146.911 169.047 146.899C169.033 146.887 169.022 146.871 169.013 146.854L167.722 144.171C167.714 144.154 167.709 144.135 167.707 144.116Z" fill="#0C0C0C"/>
<path opacity="0.2" d="M164.995 145.683C164.992 145.648 165 145.613 165.017 145.583C165.035 145.554 165.061 145.533 165.091 145.523C165.121 145.513 165.154 145.515 165.183 145.529C165.212 145.543 165.236 145.567 165.25 145.599L165.833 146.882C165.849 146.917 165.852 146.959 165.841 146.996C165.83 147.034 165.805 147.065 165.774 147.083C165.742 147.101 165.705 147.104 165.671 147.092C165.637 147.08 165.608 147.053 165.592 147.017L165.009 145.734C165.002 145.718 164.997 145.701 164.995 145.683Z" fill="#0C0C0C"/>
<path d="M177.559 96.6737C177.559 96.6737 173.649 76.2968 169.213 77.9937C165.693 79.3398 139.248 103.563 138.445 104.441C136.677 106.375 135.673 109.01 135.654 111.767C135.634 114.524 136.6 117.177 138.34 119.142L158.923 145.32L170.803 132.943L155.182 114.18L177.559 96.6737Z" fill="#A9F8FD"/>
<path d="M166.901 105.499C166.87 105.499 166.84 105.486 166.816 105.462C166.793 105.438 166.779 105.405 166.777 105.37L166.254 97.314C166.253 97.2958 166.255 97.2775 166.26 97.2601C166.265 97.2428 166.273 97.2267 166.284 97.2129C166.294 97.199 166.307 97.1877 166.322 97.1794C166.337 97.1712 166.353 97.1662 166.369 97.1649C166.386 97.1632 166.402 97.1652 166.418 97.1708C166.434 97.1764 166.448 97.1854 166.461 97.1974C166.473 97.2093 166.484 97.2239 166.491 97.2404C166.498 97.2568 166.503 97.2747 166.504 97.2931L167.026 105.349C167.028 105.368 167.026 105.386 167.021 105.403C167.016 105.421 167.007 105.437 166.997 105.451C166.986 105.464 166.973 105.476 166.958 105.484C166.944 105.492 166.928 105.497 166.911 105.499L166.901 105.499Z" fill="#0C0C0C"/>
<path d="M219.313 117.784H219.304C219.271 117.782 219.24 117.766 219.217 117.739C219.195 117.712 219.183 117.676 219.185 117.64L220.049 98.345C220.052 98.3085 220.067 98.2747 220.092 98.2502C220.116 98.2257 220.148 98.2125 220.181 98.2132C220.197 98.214 220.213 98.2185 220.228 98.2263C220.243 98.2341 220.257 98.2451 220.268 98.2587C220.279 98.2722 220.287 98.288 220.293 98.3053C220.298 98.3225 220.301 98.3407 220.3 98.359L219.435 117.653C219.433 117.688 219.42 117.721 219.397 117.745C219.374 117.769 219.344 117.783 219.313 117.784Z" fill="#0C0C0C"/>
<path d="M289.275 309H10.166C10.0996 309 10.0358 308.971 9.98888 308.918C9.94191 308.866 9.91553 308.795 9.91553 308.722C9.91553 308.648 9.94191 308.577 9.98888 308.525C10.0358 308.473 10.0996 308.443 10.166 308.443H289.275C289.341 308.443 289.405 308.473 289.452 308.525C289.499 308.577 289.525 308.648 289.525 308.722C289.525 308.795 289.499 308.866 289.452 308.918C289.405 308.971 289.341 309 289.275 309Z" fill="#3F3F3F"/>
</svg>
