<svg width="482" height="420" viewBox="0 0 482 420" fill="none" xmlns="http://www.w3.org/2000/svg">
<path d="M146.978 292.831L395.35 292.831C400.653 292.831 404.951 288.861 404.951 283.963L404.951 13.8673C404.951 8.96997 400.653 4.99991 395.35 4.99991L146.978 4.99991C141.676 4.99991 137.378 8.96997 137.378 13.8673L137.378 283.963C137.378 288.861 141.676 292.831 146.978 292.831Z" fill="white"/>
<path d="M136.787 283.965V13.8674C136.79 11.3719 137.865 8.97949 139.776 7.21497C141.686 5.45045 144.276 4.45794 146.978 4.4552H395.351C398.052 4.45794 400.643 5.45045 402.553 7.21497C404.464 8.97949 405.539 11.3719 405.542 13.8674V283.965C405.539 286.46 404.464 288.853 402.553 290.617C400.643 292.382 398.052 293.374 395.351 293.377H146.978C144.276 293.374 141.686 292.382 139.775 290.617C137.865 288.853 136.79 286.46 136.787 283.965ZM146.978 5.54645C144.59 5.5489 142.299 6.4264 140.61 7.98643C138.921 9.54647 137.971 11.6616 137.968 13.8679V283.965C137.971 286.171 138.921 288.286 140.61 289.846C142.299 291.406 144.589 292.284 146.978 292.287H395.351C397.739 292.284 400.03 291.406 401.719 289.846C403.408 288.286 404.358 286.171 404.361 283.965V13.8674C404.358 11.6611 403.408 9.54592 401.719 7.98589C400.029 6.42585 397.739 5.54835 395.351 5.5459L146.978 5.54645Z" fill="#292A2E"/>
<path d="M197.801 419.78C197.716 419.78 197.632 419.763 197.555 419.73C197.478 419.698 197.41 419.65 197.354 419.591C197.299 419.532 197.258 419.463 197.234 419.388C197.21 419.313 197.204 419.234 197.216 419.156L216.962 293.298C216.972 293.226 216.997 293.157 217.036 293.094C217.075 293.032 217.128 292.977 217.19 292.933C217.253 292.889 217.324 292.857 217.4 292.839C217.476 292.821 217.555 292.817 217.632 292.827C217.71 292.838 217.784 292.862 217.852 292.9C217.919 292.937 217.977 292.986 218.024 293.045C218.07 293.103 218.103 293.169 218.122 293.24C218.14 293.31 218.143 293.383 218.13 293.455L198.382 419.313C198.361 419.442 198.291 419.56 198.185 419.646C198.078 419.731 197.942 419.779 197.801 419.78Z" fill="#292A2E"/>
<path d="M344.53 419.779C344.388 419.779 344.251 419.732 344.144 419.646C344.037 419.561 343.967 419.442 343.946 419.313L324.2 293.453C324.18 293.312 324.222 293.168 324.316 293.054C324.409 292.941 324.548 292.865 324.701 292.845C324.854 292.824 325.01 292.86 325.135 292.945C325.26 293.029 325.344 293.156 325.369 293.297L345.117 419.157C345.129 419.234 345.123 419.313 345.1 419.388C345.076 419.463 345.035 419.533 344.979 419.592C344.924 419.651 344.855 419.698 344.778 419.731C344.701 419.763 344.617 419.78 344.533 419.78L344.53 419.779Z" fill="#292A2E"/>
<g opacity="0.1">
<path d="M164.391 143.735L377.936 143.735C381.69 143.735 384.733 140.924 384.733 137.457V32.0782C384.733 28.6109 381.69 25.8002 377.936 25.8002L164.391 25.8002C160.637 25.8002 157.594 28.6109 157.594 32.0782L157.594 137.457C157.594 140.924 160.637 143.735 164.391 143.735Z" fill="#367CFF"/>
</g>
<g opacity="0.1">
<path d="M157.354 265.592V164.08C157.357 162.338 158.107 160.668 159.441 159.437C160.774 158.205 162.582 157.512 164.468 157.51H377.27C379.155 157.513 380.963 158.205 382.296 159.437C383.63 160.669 384.38 162.338 384.382 164.08V265.592C384.38 267.334 383.63 269.004 382.296 270.236C380.963 271.467 379.154 272.16 377.268 272.162H164.468C162.582 272.16 160.774 271.467 159.44 270.236C158.107 269.004 157.357 267.334 157.354 265.592Z" fill="#367CFF"/>
</g>
<path d="M357.174 257.179H361.397C362.033 257.179 362.548 256.703 362.548 256.116V181.599C362.548 181.012 362.033 180.536 361.397 180.536H357.174C356.538 180.536 356.023 181.012 356.023 181.599V256.116C356.023 256.703 356.538 257.179 357.174 257.179Z" fill="white"/>
<path opacity="0.3" d="M363.699 257.179H367.922C368.558 257.179 369.073 256.703 369.073 256.116V205.671C369.073 205.084 368.558 204.608 367.922 204.608H363.699C363.063 204.608 362.548 205.084 362.548 205.671V256.116C362.548 256.703 363.063 257.179 363.699 257.179Z" fill="#367CFF"/>
<path d="M304.955 257.179H309.178C309.814 257.179 310.329 256.703 310.329 256.116V248.544C310.329 247.957 309.814 247.481 309.178 247.481H304.955C304.319 247.481 303.804 247.957 303.804 248.544V256.116C303.804 256.703 304.319 257.179 304.955 257.179Z" fill="white"/>
<path opacity="0.3" d="M311.479 257.179H315.703C316.338 257.179 316.854 256.703 316.854 256.116V201.343C316.854 200.756 316.338 200.28 315.703 200.28H311.479C310.844 200.28 310.328 200.756 310.328 201.343V256.116C310.328 256.703 310.844 257.179 311.479 257.179Z" fill="#367CFF"/>
<path d="M331.064 257.179H335.288C335.923 257.179 336.438 256.703 336.438 256.116V212.366C336.438 211.779 335.923 211.303 335.288 211.303H331.064C330.429 211.303 329.913 211.779 329.913 212.366V256.116C329.913 256.703 330.429 257.179 331.064 257.179Z" fill="white"/>
<path opacity="0.3" d="M337.59 257.179H341.813C342.449 257.179 342.964 256.703 342.964 256.116V228.217C342.964 227.63 342.449 227.154 341.813 227.154H337.59C336.954 227.154 336.439 227.63 336.439 228.217V256.116C336.439 256.703 336.954 257.179 337.59 257.179Z" fill="#367CFF"/>
<path d="M226.625 257.179H230.848C231.484 257.179 231.999 256.703 231.999 256.116V196.422C231.999 195.835 231.484 195.359 230.848 195.359H226.625C225.989 195.359 225.474 195.835 225.474 196.422V256.116C225.474 256.703 225.989 257.179 226.625 257.179Z" fill="white"/>
<path opacity="0.3" d="M233.15 257.18H237.374C238.009 257.18 238.524 256.704 238.524 256.117V219.182C238.524 218.595 238.009 218.12 237.374 218.12H233.15C232.515 218.12 231.999 218.595 231.999 219.182V256.117C231.999 256.704 232.515 257.18 233.15 257.18Z" fill="#367CFF"/>
<path d="M278.845 257.179H283.069C283.704 257.179 284.22 256.703 284.22 256.116V206.065C284.22 205.478 283.704 205.002 283.069 205.002H278.845C278.21 205.002 277.695 205.478 277.695 206.065V256.116C277.695 256.703 278.21 257.179 278.845 257.179Z" fill="white"/>
<path opacity="0.3" d="M285.37 257.179H289.593C290.229 257.179 290.744 256.703 290.744 256.116V211.972C290.744 211.385 290.229 210.909 289.593 210.909H285.37C284.734 210.909 284.219 211.385 284.219 211.972V256.116C284.219 256.703 284.734 257.179 285.37 257.179Z" fill="#367CFF"/>
<path d="M252.735 257.179H256.959C257.594 257.179 258.109 256.703 258.109 256.116V181.599C258.109 181.012 257.594 180.536 256.959 180.536H252.735C252.1 180.536 251.584 181.012 251.584 181.599V256.116C251.584 256.703 252.1 257.179 252.735 257.179Z" fill="white"/>
<path opacity="0.3" d="M259.26 257.179H263.483C264.119 257.179 264.634 256.703 264.634 256.116V185.291C264.634 184.704 264.119 184.228 263.483 184.228H259.26C258.624 184.228 258.109 184.704 258.109 185.291V256.116C258.109 256.703 258.624 257.179 259.26 257.179Z" fill="#367CFF"/>
<path d="M200.516 257.179H204.74C205.375 257.179 205.891 256.703 205.891 256.116V181.599C205.891 181.012 205.375 180.536 204.74 180.536H200.516C199.881 180.536 199.366 181.012 199.366 181.599V256.116C199.366 256.703 199.881 257.179 200.516 257.179Z" fill="white"/>
<path opacity="0.3" d="M207.041 257.179H211.264C211.9 257.179 212.415 256.703 212.415 256.116V205.671C212.415 205.084 211.9 204.608 211.264 204.608H207.041C206.405 204.608 205.89 205.084 205.89 205.671V256.116C205.89 256.703 206.405 257.179 207.041 257.179Z" fill="#367CFF"/>
<path d="M174.406 257.179H178.629C179.265 257.179 179.78 256.703 179.78 256.116V212.366C179.78 211.779 179.265 211.303 178.629 211.303H174.406C173.77 211.303 173.255 211.779 173.255 212.366V256.116C173.255 256.703 173.77 257.179 174.406 257.179Z" fill="white"/>
<path opacity="0.3" d="M180.93 257.179H185.154C185.789 257.179 186.305 256.703 186.305 256.116V228.217C186.305 227.63 185.789 227.154 185.154 227.154H180.93C180.295 227.154 179.78 227.63 179.78 228.217V256.116C179.78 256.703 180.295 257.179 180.93 257.179Z" fill="#367CFF"/>
<path opacity="0.2" d="M369.132 63.648V128.887C369.132 129.165 369.013 129.431 368.8 129.627C368.588 129.823 368.3 129.934 368 129.934H174.329C174.028 129.934 173.74 129.823 173.528 129.627C173.316 129.431 173.196 129.165 173.196 128.887V94.253C173.196 94.0693 173.248 93.8889 173.348 93.7297C173.447 93.5706 173.59 93.4385 173.763 93.3467L208.052 75.0611C208.227 74.9679 208.426 74.9195 208.627 74.921C208.829 74.9224 209.027 74.9736 209.2 75.0692L224.636 83.5898C224.829 83.6965 225.052 83.7477 225.277 83.7368C225.502 83.7259 225.718 83.6535 225.897 83.5287L242.106 72.2912C242.271 72.1764 242.467 72.1056 242.673 72.0863C242.878 72.0671 243.086 72.1003 243.273 72.1822L263.275 80.9688C263.488 81.0628 263.728 81.0926 263.961 81.0541C264.194 81.0156 264.408 80.9106 264.574 80.754L286.781 59.6942C286.973 59.5119 287.23 59.4003 287.504 59.3803C287.778 59.3602 288.051 59.433 288.271 59.5851L302.691 69.5579C302.9 69.7026 303.156 69.7762 303.417 69.7662C303.678 69.7563 303.927 69.6634 304.122 69.5034L313.557 61.7594C313.747 61.603 313.989 61.5105 314.244 61.4967C314.498 61.483 314.75 61.5488 314.958 61.6836L328.349 70.3165C328.541 70.4404 328.77 70.5061 329.005 70.5046C329.24 70.503 329.468 70.4343 329.659 70.3078L352.811 54.9175C352.99 54.799 353.201 54.7307 353.42 54.721C353.64 54.7114 353.857 54.7607 354.047 54.8629L368.572 62.7427C368.743 62.8351 368.884 62.9673 368.983 63.1262C369.081 63.2851 369.133 63.465 369.132 63.648Z" fill="#367CFF"/>
<path opacity="0.61" d="M173.848 93.3538C173.947 93.3539 174.045 93.3297 174.131 93.2834L208.526 74.9411L224.902 83.9803C224.999 84.0335 225.11 84.059 225.223 84.0535C225.335 84.0481 225.443 84.012 225.533 83.9498L242.623 72.1004L263.667 81.3446C263.774 81.3913 263.894 81.4059 264.011 81.3863C264.127 81.3667 264.234 81.314 264.316 81.2355L287.435 59.3092L302.993 70.069C303.097 70.1413 303.225 70.1781 303.356 70.1731C303.486 70.1681 303.611 70.1217 303.708 70.0417L314.169 61.4535L328.585 70.7506C328.681 70.8126 328.796 70.8454 328.913 70.8446C329.031 70.8438 329.145 70.8095 329.24 70.7463L353.345 54.7261L368.195 62.7809C368.259 62.8157 368.33 62.8386 368.403 62.8481C368.477 62.8576 368.552 62.8536 368.624 62.8364C368.696 62.8192 368.764 62.789 368.823 62.7476C368.883 62.7062 368.933 62.6544 368.97 62.5952C369.008 62.536 369.033 62.4705 369.043 62.4024C369.053 62.3344 369.049 62.2651 369.03 62.1986C369.012 62.1321 368.979 62.0696 368.934 62.0147C368.889 61.9599 368.833 61.9137 368.769 61.8789L353.601 53.6506C353.506 53.5993 353.397 53.5746 353.287 53.5793C353.177 53.5841 353.072 53.6181 352.982 53.6774L328.904 69.6801L314.45 60.3617C314.346 60.2942 314.22 60.2612 314.093 60.268C313.966 60.2749 313.845 60.3211 313.75 60.3994L303.299 68.9777L287.711 58.1983C287.601 58.1222 287.465 58.0857 287.328 58.0957C287.19 58.1057 287.062 58.1616 286.966 58.2529L263.784 80.2403L242.796 71.0206C242.703 70.9796 242.599 70.963 242.496 70.9726C242.394 70.9822 242.296 71.0177 242.213 71.0751L225.153 82.9038L208.818 73.8869C208.732 73.8392 208.633 73.8138 208.532 73.8131C208.431 73.8124 208.332 73.8366 208.245 73.8831L173.56 92.3787C173.452 92.4364 173.368 92.5254 173.32 92.6319C173.273 92.7383 173.264 92.8564 173.297 92.9677C173.329 93.0789 173.4 93.1773 173.499 93.2474C173.598 93.3175 173.72 93.3554 173.844 93.3554L173.848 93.3538Z" fill="#367CFF"/>
<path d="M47.9214 395.528C47.9214 395.528 50.5872 408.29 63.5257 409.003C76.4643 409.716 73.6584 419.234 73.6584 419.234H24.2148V396.418L47.9214 395.528Z" fill="#A9F8FD"/>
<path d="M20.8613 162.702C20.8613 162.702 24.5587 158.865 24.5262 167.568C24.404 200.032 22.0322 403.674 22.0322 403.674L54.5222 403.422L74.2037 161.383L20.8613 162.702Z" fill="#262626"/>
<path d="M103.401 395.528C103.401 395.528 106.067 408.29 119.005 409.003C131.944 409.716 129.138 419.234 129.138 419.234H79.6943V396.418L103.401 395.528Z" fill="#A9F8FD"/>
<path d="M109.685 165.223C109.685 165.223 113.744 276.177 113.322 281.6L109.505 402.832L77.5526 403.377L72.3997 277.214C72.3997 277.214 69.0223 242.412 59.9182 210.096C55.2604 193.51 52.4572 176.527 51.5527 159.412L109.685 165.223Z" fill="#262626"/>
<path d="M67.5312 243.889L70.1954 206.255C70.1954 206.255 72.9321 221.901 72.9321 235.386C72.9321 241.978 71.4625 268.076 71.4625 268.076L67.5312 243.889Z" fill="#0A0A0A"/>
<path d="M20.5095 162.698L20.4023 162.704C20.4023 162.704 20.4797 160.811 20.5095 162.698Z" fill="#333333"/>
<path d="M20.6433 162.698L20.5361 162.704C20.5361 162.704 20.6135 160.811 20.6433 162.698Z" fill="#333333"/>
<path d="M198.678 72.6413C198.482 72.2834 198.171 71.9903 197.787 71.8028C197.404 71.6152 196.966 71.5423 196.536 71.5943C196.54 71.5703 196.537 71.5458 196.528 71.523C196.52 71.5002 196.505 71.4796 196.486 71.4632C196.467 71.4468 196.443 71.4349 196.418 71.4287C196.393 71.4224 196.366 71.422 196.34 71.4274L197.793 70.4659C198.228 70.1911 198.54 69.7801 198.673 69.3089C198.805 68.8377 198.748 68.3382 198.512 67.9028C198.265 67.4796 197.856 67.1564 197.365 66.9961C196.874 66.8357 196.336 66.8497 195.855 67.0351C195.859 67.0166 195.844 66.9981 195.841 66.9806L196.438 66.5852C196.847 66.3247 197.145 65.9419 197.283 65.5016C197.421 65.0613 197.39 64.5904 197.195 64.1688C197.067 63.9067 196.878 63.6741 196.641 63.4878C196.404 63.3015 196.125 63.1661 195.824 63.0914C195.524 63.0167 195.209 63.0045 194.903 63.0558C194.596 63.1071 194.306 63.2205 194.053 63.3878L192.675 64.3002C192.671 64.2926 192.675 64.2839 192.67 64.2768C192.665 64.2697 192.65 64.2669 192.642 64.2593C192.958 63.9307 193.144 63.5126 193.169 63.0734C193.194 62.6343 193.057 62.2004 192.78 61.8429C192.131 60.8765 190.629 61.0739 189.738 61.6634L181.63 66.8366L183.079 64.5827C183.371 64.1492 183.474 63.6293 183.367 63.1284C183.26 62.6274 182.951 62.1827 182.502 61.8843C182.265 61.7376 181.998 61.6371 181.717 61.5889C181.436 61.5407 181.148 61.5459 180.869 61.604C180.591 61.6622 180.328 61.7722 180.097 61.9273C179.866 62.0824 179.672 62.2793 179.526 62.506L171.614 74.8107C170.686 76.2542 170.403 77.9751 170.827 79.6078C171.251 81.2405 172.347 82.6563 173.883 83.5543C175.664 84.5961 177.741 85.1228 179.848 85.067C181.956 85.0111 183.997 84.3752 185.711 83.2408L197.955 75.1347C198.362 74.8551 198.655 74.4567 198.786 74.0042C198.918 73.5516 198.879 73.0714 198.678 72.6413Z" fill="#E98862"/>
<g opacity="0.25">
<path d="M184.653 69.4112C184.682 69.449 184.727 69.4744 184.777 69.4822C184.827 69.4899 184.878 69.4793 184.919 69.4527L192.624 64.5244C192.645 64.511 192.662 64.4939 192.676 64.4741C192.69 64.4543 192.699 64.4323 192.704 64.4091C192.709 64.386 192.708 64.3622 192.703 64.3392C192.697 64.3163 192.687 64.2945 192.673 64.2751C192.658 64.2558 192.64 64.2393 192.618 64.2265C192.597 64.2138 192.573 64.2051 192.548 64.2009C192.523 64.1967 192.497 64.1971 192.472 64.202C192.447 64.207 192.424 64.2165 192.403 64.2299L184.699 69.1582C184.656 69.1853 184.628 69.2267 184.618 69.2735C184.609 69.3202 184.62 69.3683 184.65 69.4074L184.653 69.4112Z" fill="#0C0C0C"/>
</g>
<g opacity="0.25">
<path d="M186.912 72.6091C186.942 72.647 186.987 72.6727 187.036 72.6805C187.086 72.6884 187.138 72.6778 187.179 72.6511L195.777 67.1507C195.819 67.1235 195.848 67.082 195.857 67.0353C195.866 66.9886 195.855 66.9405 195.826 66.9015C195.795 66.8637 195.751 66.838 195.7 66.8296C195.65 66.8212 195.599 66.8307 195.556 66.8562L186.958 72.3566C186.916 72.3837 186.887 72.4252 186.878 72.4719C186.869 72.5186 186.88 72.5667 186.909 72.6058L186.912 72.6091Z" fill="#0C0C0C"/>
</g>
<g opacity="0.25">
<path d="M189.338 76.0863C189.368 76.1241 189.413 76.1495 189.463 76.1573C189.513 76.165 189.564 76.1544 189.606 76.1278L196.464 71.7404C196.506 71.7134 196.535 71.6719 196.544 71.6252C196.553 71.5784 196.542 71.5302 196.513 71.4912C196.483 71.4521 196.438 71.4254 196.388 71.4169C196.337 71.4085 196.285 71.4189 196.243 71.4459L189.384 75.8333C189.342 75.8604 189.313 75.9018 189.304 75.9485C189.295 75.9953 189.306 76.0434 189.335 76.0825L189.338 76.0863Z" fill="#0C0C0C"/>
</g>
<path d="M166.945 72.0065L143.706 108.562L115.35 74.2097L91.8008 93.8188L132.017 141.925L132.28 142.267C133.89 144.303 136.035 145.928 138.512 146.987C140.989 148.046 143.718 148.505 146.44 148.321C149.163 148.137 151.79 147.316 154.074 145.935C156.358 144.554 158.223 142.659 159.495 140.428L192.541 85.1538L166.945 72.0065Z" fill="#A9F8FD"/>
<path d="M141.428 112.959C141.381 112.958 141.335 112.948 141.293 112.929C141.258 112.912 141.228 112.89 141.202 112.863C141.177 112.835 141.158 112.804 141.146 112.77C141.134 112.736 141.13 112.7 141.133 112.664C141.136 112.628 141.147 112.593 141.164 112.561L143.443 108.439C143.46 108.407 143.485 108.378 143.514 108.355C143.544 108.332 143.578 108.314 143.615 108.303C143.652 108.292 143.691 108.288 143.729 108.291C143.768 108.294 143.806 108.303 143.84 108.32C143.875 108.336 143.905 108.358 143.931 108.386C143.956 108.413 143.975 108.445 143.987 108.479C143.999 108.513 144.003 108.549 144 108.584C143.997 108.62 143.986 108.655 143.969 108.687L141.69 112.81C141.666 112.854 141.628 112.892 141.582 112.918C141.535 112.945 141.482 112.958 141.428 112.959Z" fill="#0C0C0C"/>
<path d="M113.713 108.354L113.004 119.901L113.593 119.931L114.303 108.385L113.713 108.354Z" fill="#0C0C0C"/>
<path d="M38.8315 24.7934C38.8315 24.7934 37.7427 37.6451 34.5513 42.2779C25.364 55.6155 22.5611 70.6999 31.4946 78.692C40.4281 86.6841 98.0382 87.4094 102.627 69.2962C106.493 54.0465 98.6286 52.3183 96.8679 39.6837C96.0714 33.9678 93.8336 21.9756 93.8336 21.9756" fill="#0A0A0A"/>
<path d="M87.9615 66.4003C87.8623 66.3883 86.7588 83.3018 65.4855 81.8272C50.7585 80.8079 45.5077 66.3763 45.1699 66.3763C46.7576 66.0649 49.4318 65.6128 50.1368 65.2638C52.4555 64.1131 55.3251 62.9155 56.0726 58.7562C56.5036 56.3566 55.7726 44.0939 55.9976 41.6687L78.6035 46.3287C78.2876 51.4517 76.077 63.3278 83.8254 65.4296C85.115 65.777 86.5037 66.0971 87.9615 66.4003Z" fill="#E98862"/>
<path opacity="0.52" d="M78.921 60.576C78.567 59.522 78.3389 58.4354 78.2408 57.3355C77.9922 54.8257 78.0417 52.2982 78.3884 49.7983C73.7937 49.2256 69.4651 47.4739 65.8945 44.7423C65.4747 46.1744 63.1661 52.4317 63.8055 53.7919C65.0136 56.3637 70.6914 60.576 78.921 60.576Z" fill="#0C0C0C"/>
<path d="M75.9245 55.2528C67.0029 55.9541 55.5127 52.5381 53.2619 41.5509L51.2302 31.637C48.9788 20.6498 53.4019 10.6508 64.6027 8.69299C75.8029 6.73518 86 14.1787 88.2513 25.1658L89.1506 29.5548C90.0144 33.7709 91.8436 54.0018 75.9245 55.2528Z" fill="#E98862"/>
<path d="M85.9578 30.0336C86.7333 30.0336 87.3619 29.453 87.3619 28.7368C87.3619 28.0206 86.7333 27.4399 85.9578 27.4399C85.1823 27.4399 84.5537 28.0206 84.5537 28.7368C84.5537 29.453 85.1823 30.0336 85.9578 30.0336Z" fill="#0C0C0C"/>
<path d="M71.574 31.8082C72.3495 31.8082 72.9781 31.2275 72.9781 30.5113C72.9781 29.7951 72.3495 29.2145 71.574 29.2145C70.7986 29.2145 70.1699 29.7951 70.1699 30.5113C70.1699 31.2275 70.7986 31.8082 71.574 31.8082Z" fill="#0C0C0C"/>
<path d="M79.4676 40.0185H79.4895C79.9432 39.936 80.3916 39.8304 80.8327 39.7022C81.4911 39.5064 82.3543 39.183 82.2416 38.6333C82.1134 38.0072 78.873 31.5775 78.5034 30.8462C78.4712 30.7824 78.4128 30.733 78.3411 30.7089C78.2694 30.6848 78.1902 30.688 78.1211 30.7178C78.052 30.7476 77.9985 30.8015 77.9724 30.8677C77.9463 30.934 77.9498 31.007 77.9821 31.0709C79.3643 33.8091 81.5903 38.311 81.6759 38.7325C81.6021 38.9278 80.5086 39.2991 79.3826 39.496C79.3087 39.5079 79.2427 39.5461 79.1989 39.6023C79.155 39.6585 79.1366 39.7284 79.1477 39.7969C79.1588 39.8655 79.1985 39.9273 79.2582 39.9692C79.318 40.0111 79.3932 40.0298 79.4676 40.0212V40.0185Z" fill="#0C0C0C"/>
<path d="M77.8088 44.7625C79.6358 44.5433 81.3814 43.9308 82.905 42.9743C82.969 42.9359 83.0138 42.8756 83.0296 42.8067C83.0455 42.7377 83.031 42.6658 82.9894 42.6067C82.9479 42.5477 82.8826 42.5063 82.808 42.4916C82.7333 42.477 82.6554 42.4904 82.5915 42.5288C79.2938 44.5133 76.0174 44.834 73.1165 43.4559C73.0579 43.4265 72.9976 43.4002 72.9359 43.3768C72.8643 43.3535 72.7857 43.3573 72.7171 43.3873C72.6486 43.4173 72.5956 43.4711 72.5698 43.537C72.5441 43.6029 72.5475 43.6756 72.5795 43.7391C72.6114 43.8027 72.6693 43.852 72.7404 43.8763C72.7635 43.885 72.7995 43.9036 72.8538 43.9309C74.379 44.6574 76.1044 44.947 77.8088 44.7625Z" fill="#0C0C0C"/>
<path d="M42.27 35.0923L52.3076 33.3919C59.9114 30.5501 62.2112 18.3915 62.2112 18.3915C62.2112 18.3915 71.4505 26.7065 93.8339 21.9783C93.8339 21.9783 89.3465 -6.85273 56.2778 1.52766C45.6149 4.23096 37.9621 14.1552 38.9186 27.4187C39.5834 36.7153 42.27 35.0923 42.27 35.0923Z" fill="#0A0A0A"/>
<path d="M54.642 44.7767C51.2387 45.3717 47.7899 42.4906 47.1433 39.3466C46.4968 36.2027 48.9035 33.9869 52.3074 33.392L54.4921 35.1916L57.5683 44.2652L54.642 44.7767Z" fill="#E98862"/>
<path d="M80.5547 25.589C81.5476 24.9971 82.6945 24.6626 83.8753 24.6205C84.4567 24.5968 85.0387 24.6536 85.6018 24.789C86.1594 24.9214 86.6968 25.118 87.2013 25.3741C87.2725 25.4065 87.3269 25.4635 87.3527 25.5327C87.3786 25.6019 87.3738 25.6777 87.3393 25.7437C87.3049 25.8097 87.2437 25.8604 87.1689 25.8848C87.0942 25.9093 87.0121 25.9055 86.9404 25.8742L86.9191 25.865C86.4529 25.6534 85.9597 25.4968 85.4513 25.3987C84.9485 25.2993 84.4323 25.2708 83.9202 25.3141C82.9047 25.3926 81.9297 25.7179 81.0943 26.2571L81.0672 26.2751C81.0192 26.3073 80.9648 26.3305 80.9071 26.3433C80.8494 26.3561 80.7895 26.3583 80.7309 26.3497C80.6723 26.3412 80.6161 26.322 80.5655 26.2934C80.5149 26.2648 80.4709 26.2272 80.436 26.1829C80.4011 26.1386 80.376 26.0883 80.3621 26.035C80.3483 25.9817 80.3459 25.9264 80.3552 25.8723C80.3644 25.8182 80.3851 25.7663 80.4161 25.7195C80.4471 25.6728 80.4878 25.6321 80.5358 25.5999L80.5547 25.589Z" fill="#0C0C0C"/>
<path d="M71.6001 27.5359C70.6103 27.3125 69.5741 27.3345 68.5965 27.5997C68.1021 27.7304 67.6319 27.9294 67.2018 28.1898C66.7658 28.4515 66.3673 28.763 66.0156 29.1168L65.9997 29.1316C65.9446 29.1826 65.8703 29.2118 65.7923 29.2131C65.7143 29.2144 65.6389 29.1877 65.5819 29.1386C65.5248 29.0894 65.4907 29.0218 65.4867 28.9498C65.4827 28.8779 65.5091 28.8074 65.5604 28.7531C65.9306 28.3457 66.3549 27.9831 66.8234 27.6739C67.295 27.3591 67.8153 27.1118 68.3668 26.9404C69.4846 26.5855 70.6852 26.5147 71.8428 26.7353C71.9602 26.7586 72.0628 26.824 72.128 26.9172C72.1933 27.0104 72.2157 27.1236 72.1905 27.2321C72.1653 27.3406 72.0945 27.4354 71.9936 27.4956C71.8927 27.5559 71.7701 27.5766 71.6526 27.5533L71.6343 27.5495L71.6001 27.5359Z" fill="#0C0C0C"/>
<path d="M78.1973 47.2569C78.5282 47.222 78.8553 47.1612 79.1751 47.0753C79.2119 47.0661 79.2464 47.0502 79.2765 47.0286C79.3066 47.0069 79.3317 46.98 79.3504 46.9493C79.3691 46.9186 79.3811 46.8848 79.3855 46.8499C79.3899 46.8149 79.3868 46.7794 79.3763 46.7456C79.3657 46.7117 79.348 46.6802 79.3242 46.6527C79.3003 46.6252 79.2708 46.6024 79.2373 46.5856C79.2038 46.5688 79.167 46.5583 79.129 46.5547C79.0911 46.5512 79.0528 46.5546 79.0163 46.5648C77.0908 47.0764 75.9962 46.3985 75.9507 46.3691C75.8881 46.3286 75.8106 46.3127 75.7353 46.325C75.66 46.3372 75.593 46.3766 75.5492 46.4345C75.5053 46.4924 75.4882 46.5639 75.5015 46.6335C75.5147 46.703 75.5574 46.7648 75.62 46.8053C76.397 47.226 77.3076 47.3855 78.1973 47.2569Z" fill="#0C0C0C"/>
<path d="M52.3322 33.2747L52.2324 33.0178C64.9536 28.7996 61.8426 17.2692 61.8101 17.1531L62.0953 17.0844C62.1289 17.2021 65.3109 28.9708 52.3322 33.2747Z" fill="#0C0C0C"/>
<path opacity="0.1" d="M70.4405 40.8279C71.9092 40.6819 73.0059 39.7569 72.89 38.7618C72.7741 37.7667 71.4894 37.0783 70.0207 37.2242C68.552 37.3702 67.4553 38.2952 67.5712 39.2903C67.6871 40.2854 68.9718 40.9738 70.4405 40.8279Z" fill="#0C0C0C"/>
<path opacity="0.1" d="M85.9867 37.0212C86.1048 38.0148 87.3896 38.7019 88.8587 38.558C89.1125 38.5326 89.3628 38.483 89.6056 38.4102C89.6883 37.2279 89.7066 36.0897 89.6824 35.0356C89.2763 34.9374 88.854 34.9101 88.4371 34.9548C86.9681 35.0988 85.8722 36.0237 85.9867 37.0212Z" fill="#0C0C0C"/>
<path d="M114.391 103.636C113.721 110.906 110.462 156.267 109.818 165.223H24.5734C24.0715 157.145 18.2768 121.826 16.375 106.031C14.5594 90.9585 10.9972 83.4125 13.6082 78.9564C17.8747 71.6738 29.5338 67.4659 37.4836 66.4717C42.3382 65.8648 49.6391 65.4296 49.6391 65.4296C49.6391 65.4296 50.2573 76.9801 64.9985 77.6231C85.0649 78.4956 83.7251 65.4296 83.8243 65.4296C87.0753 65.4296 105.646 67.3301 110.19 69.8175C122.57 76.5891 115.814 88.2279 114.391 103.636Z" fill="#A9F8FD"/>
<path d="M169.724 108.715L161.507 145.602C161.34 146.351 160.9 147.025 160.261 147.51C159.621 147.996 158.821 148.264 157.993 148.271L101.413 148.716C100.873 148.72 100.339 148.613 99.85 148.402C99.361 148.191 98.9293 147.881 98.5865 147.496C98.2436 147.111 97.9984 146.66 97.8687 146.176C97.739 145.692 97.7282 145.188 97.8369 144.7L106.054 107.812C106.221 107.063 106.661 106.39 107.3 105.904C107.94 105.418 108.74 105.15 109.568 105.143L166.148 104.698C166.688 104.694 167.222 104.801 167.711 105.012C168.2 105.223 168.632 105.533 168.975 105.918C169.317 106.303 169.563 106.754 169.692 107.238C169.822 107.722 169.833 108.226 169.724 108.715Z" fill="#292A2E"/>
<path d="M116.964 134.916C116.994 135.402 116.834 135.881 116.511 136.266C116.189 136.651 115.727 136.915 115.211 137.011L113.469 137.365C113.5 137.375 113.528 137.391 113.551 137.413C113.573 137.435 113.59 137.461 113.599 137.491C113.603 137.525 113.595 137.559 113.575 137.589C113.994 137.697 114.366 137.924 114.639 138.237C114.912 138.549 115.072 138.933 115.098 139.334C115.101 139.801 114.933 140.256 114.621 140.624C114.309 140.992 113.872 141.252 113.38 141.363L98.6721 144.378C97.9202 144.534 97.1518 144.613 96.3812 144.613C94.6645 144.612 92.9736 144.227 91.4544 143.488C89.9351 142.75 88.633 141.682 87.6602 140.375C86.6288 138.993 86.2219 137.294 86.5263 135.639C86.8306 133.984 87.8221 132.504 89.2899 131.513L101.801 123.066C102.077 122.88 102.397 122.758 102.734 122.712L101.583 127.876L101.89 127.811L101.955 127.8L111.55 125.995C112.618 125.776 114.083 126.136 114.272 127.26C114.373 127.69 114.314 128.139 114.104 128.534C113.894 128.929 113.545 129.247 113.114 129.436C113.12 129.441 113.132 129.447 113.132 129.458C113.132 129.468 113.126 129.474 113.126 129.485L114.785 129.147C115.089 129.085 115.404 129.085 115.707 129.149C116.01 129.213 116.294 129.338 116.539 129.515C116.783 129.692 116.982 129.918 117.121 130.175C117.26 130.432 117.335 130.714 117.342 131.001C117.342 131.459 117.17 131.904 116.856 132.258C116.542 132.613 116.104 132.857 115.618 132.948L114.904 133.095C114.898 133.117 114.904 133.139 114.892 133.155C115.412 133.159 115.913 133.341 116.296 133.666C116.679 133.992 116.917 134.437 116.964 134.916Z" fill="#E98862"/>
<g opacity="0.25">
<path d="M103.574 131.275C103.586 131.32 103.616 131.36 103.659 131.385C103.701 131.41 103.753 131.419 103.802 131.41L112.983 129.671C113.009 129.667 113.033 129.659 113.055 129.646C113.078 129.633 113.097 129.616 113.112 129.596C113.127 129.576 113.137 129.554 113.142 129.53C113.147 129.506 113.147 129.482 113.142 129.458C113.137 129.434 113.127 129.412 113.112 129.392C113.097 129.372 113.078 129.355 113.055 129.342C113.033 129.329 113.008 129.321 112.982 129.317C112.957 129.313 112.93 129.314 112.905 129.32L103.724 131.059C103.674 131.069 103.63 131.096 103.601 131.136C103.573 131.176 103.563 131.224 103.573 131.271L103.574 131.275Z" fill="#0C0C0C"/>
</g>
<g opacity="0.25">
<path d="M104.293 135.035C104.304 135.081 104.335 135.121 104.377 135.146C104.42 135.171 104.472 135.18 104.521 135.171L114.767 133.23C114.817 133.221 114.861 133.193 114.889 133.153C114.918 133.114 114.928 133.065 114.918 133.019C114.906 132.973 114.875 132.933 114.833 132.907C114.79 132.881 114.739 132.871 114.689 132.879L104.443 134.82C104.393 134.83 104.349 134.857 104.32 134.897C104.292 134.937 104.282 134.985 104.292 135.032L104.293 135.035Z" fill="#0C0C0C"/>
</g>
<g opacity="0.25">
<path d="M105.046 139.113C105.058 139.159 105.088 139.198 105.13 139.223C105.173 139.249 105.224 139.258 105.274 139.248L113.446 137.701C113.472 137.697 113.497 137.688 113.519 137.675C113.541 137.662 113.561 137.645 113.575 137.625C113.59 137.606 113.601 137.583 113.606 137.559C113.611 137.536 113.611 137.511 113.606 137.487C113.601 137.464 113.59 137.441 113.575 137.421C113.56 137.401 113.541 137.384 113.519 137.372C113.497 137.359 113.472 137.35 113.446 137.346C113.42 137.342 113.394 137.343 113.368 137.349L105.196 138.898C105.171 138.902 105.147 138.911 105.126 138.925C105.105 138.938 105.087 138.955 105.073 138.974C105.059 138.994 105.049 139.016 105.045 139.039C105.04 139.062 105.04 139.086 105.045 139.109L105.046 139.113Z" fill="#0C0C0C"/>
</g>
<path d="M97.761 149.754L17.9648 163.072C15.4748 163.322 12.9558 163.036 10.6055 162.236C8.25519 161.436 6.13756 160.144 4.41877 158.462C2.69999 156.779 1.4268 154.751 0.699132 152.537C-0.0285379 150.324 -0.190895 147.984 0.224801 145.703L11.3955 84.3745C12.1088 80.4584 14.4772 76.9645 17.9796 74.6613C21.482 72.3582 25.8315 71.4344 30.0714 72.0932C34.3113 72.752 38.0941 74.9395 40.5877 78.1744C43.0814 81.4093 44.0816 85.4266 43.3683 89.3426L35.7515 131.561L94.2526 124.777L97.761 149.754Z" fill="#A9F8FD"/>
<path d="M17.9645 163.344C17.8908 163.344 17.8199 163.319 17.7656 163.273C17.7113 163.227 17.6776 163.164 17.6711 163.096C17.6646 163.028 17.6857 162.961 17.7304 162.906C17.7751 162.852 17.8401 162.816 17.9126 162.803L97.4324 149.531L93.9996 125.079L35.7878 131.831C35.7422 131.837 35.6957 131.833 35.6523 131.819C35.6089 131.804 35.5697 131.781 35.538 131.75C35.5061 131.719 35.4824 131.682 35.4687 131.642C35.4551 131.601 35.4519 131.558 35.4595 131.516L40.3012 104.534C40.3075 104.499 40.3213 104.465 40.3418 104.434C40.3622 104.404 40.389 104.377 40.4205 104.357C40.4521 104.336 40.4877 104.321 40.5255 104.313C40.5633 104.305 40.6024 104.303 40.6407 104.309C40.679 104.315 40.7157 104.328 40.7487 104.347C40.7817 104.366 40.8103 104.39 40.8329 104.42C40.8555 104.449 40.8717 104.482 40.8804 104.517C40.8892 104.552 40.8904 104.588 40.884 104.623L36.1066 131.245L94.2163 124.504C94.2937 124.495 94.3718 124.515 94.4335 124.559C94.4952 124.603 94.5356 124.668 94.5457 124.739L98.0542 149.716C98.064 149.786 98.0446 149.856 97.9998 149.912C97.9551 149.969 97.8885 150.007 97.8139 150.02L18.0177 163.341C18 163.343 17.9823 163.344 17.9645 163.344Z" fill="#0C0C0C"/>
<path d="M35.7042 131.293L30.5713 132.052L30.6647 132.591L35.7977 131.832L35.7042 131.293Z" fill="#0C0C0C"/>
<path d="M454.522 420H5.53343C5.42381 420 5.31869 419.96 5.24117 419.888C5.16366 419.817 5.12012 419.72 5.12012 419.618C5.12012 419.517 5.16366 419.42 5.24117 419.348C5.31869 419.277 5.42381 419.237 5.53343 419.237H454.522C454.576 419.237 454.63 419.246 454.68 419.266C454.73 419.285 454.776 419.313 454.814 419.348C454.853 419.384 454.883 419.426 454.904 419.472C454.925 419.519 454.935 419.568 454.935 419.618C454.935 419.668 454.925 419.718 454.904 419.764C454.883 419.811 454.853 419.853 454.814 419.888C454.776 419.924 454.73 419.952 454.68 419.971C454.63 419.99 454.576 420 454.522 420Z" fill="#292A2E"/>
<path d="M433.191 361.21C433.128 361.21 433.064 361.198 433.006 361.176C432.947 361.153 432.893 361.12 432.848 361.079C432.164 360.447 431.05 348.859 428.047 314.356C426.819 300.238 425.658 286.904 424.811 278.799C424.752 278.22 424.508 278.153 424.428 278.131C423.269 277.808 419.743 280.375 417.775 282.624C417.694 282.716 417.577 282.775 417.449 282.788C417.321 282.801 417.193 282.766 417.092 282.691C416.992 282.616 416.928 282.508 416.915 282.389C416.901 282.271 416.939 282.153 417.02 282.06C418.319 280.573 422.564 276.676 424.707 277.272C425.03 277.374 425.308 277.57 425.501 277.829C425.693 278.089 425.791 278.399 425.778 278.713C426.625 286.824 427.785 300.162 429.015 314.284C430.84 335.251 432.906 359.002 433.586 360.499C433.637 360.566 433.668 360.645 433.674 360.727C433.681 360.809 433.663 360.892 433.622 360.965C433.581 361.038 433.52 361.099 433.444 361.142C433.368 361.185 433.28 361.208 433.191 361.208V361.21Z" fill="#494949"/>
<path d="M423.564 293.67C431.618 287.707 434.288 278.426 429.527 272.94C424.765 267.454 414.377 267.84 406.322 273.803C398.268 279.766 395.599 289.047 400.36 294.533C405.121 300.019 415.51 299.633 423.564 293.67Z" fill="#0CBC8B"/>
<path opacity="0.2" d="M423.564 293.67C431.618 287.707 434.288 278.426 429.527 272.94C424.765 267.454 414.377 267.84 406.322 273.803C398.268 279.766 395.599 289.047 400.36 294.533C405.121 300.019 415.51 299.633 423.564 293.67Z" fill="white"/>
<path d="M402.618 295.929C402.572 295.929 402.527 295.917 402.488 295.894C402.449 295.872 402.418 295.839 402.398 295.8C402.378 295.762 402.371 295.719 402.377 295.677C402.383 295.634 402.402 295.595 402.431 295.562L425.385 269.996C425.426 269.951 425.485 269.922 425.549 269.916C425.613 269.911 425.677 269.929 425.727 269.967C425.777 270.005 425.808 270.06 425.814 270.119C425.82 270.178 425.8 270.237 425.759 270.283L402.804 295.848C402.781 295.874 402.753 295.894 402.721 295.908C402.689 295.922 402.653 295.929 402.618 295.929Z" fill="white"/>
<path d="M438.197 355.729C438.143 355.729 438.089 355.721 438.038 355.704C437.978 355.685 437.922 355.655 437.874 355.616C437.827 355.577 437.788 355.529 437.76 355.476C437.732 355.423 437.716 355.366 437.713 355.307C437.709 355.248 437.718 355.189 437.739 355.134L446.36 332.232C446.613 331.559 447.046 330.955 447.617 330.476C448.189 329.998 448.882 329.659 449.632 329.492C450.382 329.325 451.165 329.334 451.911 329.519C452.656 329.704 453.339 330.059 453.897 330.551L458.455 334.573C458.548 334.656 458.602 334.769 458.605 334.887C458.608 335.006 458.56 335.121 458.471 335.207C458.382 335.293 458.259 335.343 458.131 335.346C458.002 335.349 457.877 335.304 457.784 335.222L453.226 331.2C452.785 330.811 452.246 330.531 451.658 330.385C451.07 330.239 450.451 330.232 449.859 330.363C449.267 330.495 448.72 330.763 448.269 331.141C447.818 331.518 447.476 331.995 447.276 332.526L438.655 355.431C438.622 355.518 438.56 355.594 438.478 355.647C438.396 355.701 438.298 355.729 438.197 355.729Z" fill="#494949"/>
<path d="M471.193 347.254C477.162 342.89 476.807 333.293 470.4 325.818C463.994 318.342 453.962 315.82 447.993 320.183C442.024 324.547 442.379 334.144 448.785 341.62C455.192 349.095 465.224 351.618 471.193 347.254Z" fill="#0CBC8B"/>
<path d="M429.274 359.75C429.165 359.75 429.059 359.716 428.973 359.653C428.888 359.591 428.827 359.504 428.802 359.406L414.336 303.528C414.237 303.147 414.027 302.799 413.728 302.521C413.428 302.243 413.052 302.047 412.64 301.954C412.228 301.862 411.796 301.875 411.392 301.995C410.988 302.114 410.627 302.334 410.35 302.63L405.889 307.391C405.805 307.481 405.686 307.536 405.557 307.544C405.429 307.553 405.302 307.514 405.205 307.436C405.107 307.358 405.048 307.248 405.038 307.129C405.029 307.011 405.071 306.894 405.155 306.804L409.616 302.044C410.01 301.623 410.523 301.31 411.097 301.141C411.671 300.972 412.285 300.952 412.87 301.084C413.456 301.216 413.99 301.494 414.416 301.889C414.841 302.284 415.14 302.779 415.28 303.32L429.746 359.197C429.761 359.255 429.763 359.314 429.753 359.372C429.743 359.43 429.721 359.486 429.688 359.536C429.654 359.587 429.611 359.63 429.559 359.665C429.507 359.699 429.449 359.724 429.387 359.738C429.35 359.746 429.312 359.75 429.274 359.75Z" fill="#494949"/>
<path d="M423.938 319.806C425.697 310.411 421.042 301.825 413.541 300.626C406.04 299.428 398.534 306.073 396.775 315.467C395.016 324.862 399.671 333.449 407.172 334.647C414.673 335.845 422.179 329.2 423.938 319.806Z" fill="#0CBC8B"/>
<path d="M433.192 361.21C433.173 361.21 433.153 361.209 433.133 361.207C433.006 361.192 432.889 361.132 432.81 361.038C432.731 360.944 432.695 360.825 432.711 360.707L441.951 291.42C442.052 290.665 442.386 289.953 442.914 289.37C443.443 288.787 444.142 288.357 444.928 288.132C445.715 287.906 446.555 287.896 447.348 288.101C448.141 288.307 448.852 288.719 449.397 289.289L459.958 300.337C460.002 300.381 460.036 300.433 460.058 300.489C460.079 300.545 460.089 300.604 460.086 300.664C460.082 300.723 460.066 300.782 460.038 300.836C460.01 300.889 459.971 300.937 459.922 300.977C459.874 301.016 459.817 301.046 459.756 301.065C459.695 301.085 459.63 301.092 459.566 301.088C459.501 301.084 459.439 301.067 459.381 301.04C459.323 301.013 459.272 300.976 459.231 300.93L448.67 289.883C448.248 289.444 447.698 289.126 447.086 288.968C446.473 288.81 445.825 288.818 445.217 288.992C444.61 289.166 444.07 289.498 443.661 289.948C443.253 290.398 442.994 290.947 442.915 291.53L433.675 360.816C433.661 360.925 433.604 361.025 433.515 361.098C433.426 361.171 433.311 361.21 433.192 361.21Z" fill="#494949"/>
<path d="M470.787 306.476C474.472 300.324 470.137 291.595 461.104 286.981C452.072 282.366 441.762 283.613 438.078 289.765C434.393 295.918 438.729 304.646 447.761 309.261C456.793 313.875 467.103 312.629 470.787 306.476Z" fill="#0CBC8B"/>
<path opacity="0.2" d="M471.193 347.254C477.162 342.89 476.807 333.293 470.4 325.818C463.994 318.342 453.962 315.82 447.993 320.183C442.024 324.547 442.379 334.144 448.785 341.62C455.192 349.095 465.224 351.618 471.193 347.254Z" fill="white"/>
<path opacity="0.5" d="M423.938 319.806C425.697 310.411 421.042 301.825 413.541 300.626C406.04 299.428 398.534 306.073 396.775 315.467C395.016 324.862 399.671 333.449 407.172 334.647C414.673 335.845 422.179 329.2 423.938 319.806Z" fill="white"/>
<path opacity="0.5" d="M470.787 306.476C474.472 300.324 470.137 291.595 461.104 286.981C452.072 282.366 441.762 283.613 438.078 289.765C434.393 295.918 438.729 304.646 447.761 309.261C456.793 313.875 467.103 312.629 470.787 306.476Z" fill="white"/>
<path d="M445.009 420H421.373L417.457 350.154H448.926L445.009 420Z" fill="#292A2E"/>
<path opacity="0.3" d="M445.009 420H421.373L417.457 350.154H448.926L445.009 420Z" fill="white"/>
<path d="M471.192 347.475C471.155 347.475 471.119 347.467 471.085 347.452C471.052 347.437 471.023 347.416 471 347.389L447.8 320.317C447.76 320.271 447.742 320.211 447.75 320.152C447.757 320.093 447.79 320.039 447.84 320.003C447.891 319.966 447.955 319.949 448.019 319.956C448.083 319.963 448.141 319.993 448.181 320.039L471.381 347.11C471.41 347.143 471.428 347.183 471.433 347.225C471.438 347.267 471.43 347.309 471.41 347.347C471.39 347.385 471.359 347.417 471.32 347.439C471.282 347.462 471.237 347.473 471.191 347.473L471.192 347.475Z" fill="white"/>
<path d="M469.244 308.645C469.192 308.645 469.142 308.63 469.101 308.602L439.411 288.58C439.384 288.563 439.361 288.541 439.344 288.516C439.326 288.491 439.314 288.462 439.308 288.433C439.303 288.403 439.304 288.373 439.311 288.343C439.319 288.314 439.332 288.286 439.352 288.262C439.371 288.238 439.395 288.217 439.423 288.202C439.451 288.186 439.482 288.176 439.515 288.172C439.547 288.168 439.58 288.17 439.611 288.178C439.643 288.186 439.672 288.2 439.698 288.218L469.385 308.24C469.427 308.268 469.458 308.307 469.473 308.352C469.489 308.397 469.489 308.446 469.473 308.49C469.457 308.535 469.426 308.575 469.385 308.602C469.343 308.63 469.293 308.645 469.242 308.645H469.244Z" fill="white"/>
<path d="M405.965 334.355C405.944 334.355 405.923 334.352 405.902 334.347C405.84 334.332 405.788 334.295 405.756 334.244C405.723 334.193 405.714 334.132 405.73 334.075L415.182 301.37C415.199 301.314 415.24 301.267 415.296 301.238C415.351 301.209 415.416 301.201 415.477 301.216C415.539 301.231 415.591 301.268 415.624 301.319C415.656 301.369 415.666 301.429 415.651 301.486L406.199 334.187C406.186 334.235 406.156 334.278 406.113 334.308C406.071 334.338 406.019 334.355 405.965 334.355Z" fill="white"/>
</svg>
