<svg width="28" height="18" viewBox="0 0 28 18" fill="none" xmlns="http://www.w3.org/2000/svg">
<path d="M27.9996 1V9C27.9996 9.26522 27.8942 9.51957 27.7067 9.70711C27.5192 9.89464 27.2648 10 26.9996 10C26.7344 10 26.48 9.89464 26.2925 9.70711C26.1049 9.51957 25.9996 9.26522 25.9996 9V3.41375L15.7071 13.7075C15.6142 13.8005 15.5039 13.8742 15.3825 13.9246C15.2611 13.9749 15.131 14.0008 14.9996 14.0008C14.8682 14.0008 14.738 13.9749 14.6166 13.9246C14.4952 13.8742 14.385 13.8005 14.2921 13.7075L9.99958 9.41375L1.70708 17.7075C1.51944 17.8951 1.26494 18.0006 0.99958 18.0006C0.734216 18.0006 0.47972 17.8951 0.29208 17.7075C0.104439 17.5199 -0.000976562 17.2654 -0.000976562 17C-0.000976563 16.7346 0.104439 16.4801 0.29208 16.2925L9.29208 7.2925C9.38495 7.19952 9.49524 7.12576 9.61664 7.07544C9.73804 7.02512 9.86816 6.99921 9.99958 6.99921C10.131 6.99921 10.2611 7.02512 10.3825 7.07544C10.5039 7.12576 10.6142 7.19952 10.7071 7.2925L14.9996 11.5863L24.5858 2H18.9996C18.7344 2 18.48 1.89464 18.2925 1.70711C18.1049 1.51957 17.9996 1.26522 17.9996 1C17.9996 0.734784 18.1049 0.48043 18.2925 0.292893C18.48 0.105357 18.7344 0 18.9996 0H26.9996C27.2648 0 27.5192 0.105357 27.7067 0.292893C27.8942 0.48043 27.9996 0.734784 27.9996 1Z" fill="white"/>
</svg>
