<svg width="126" height="16" viewBox="0 0 126 16" fill="none" xmlns="http://www.w3.org/2000/svg">
<g clip-path="url(#clip0_53_619)">
<path d="M123.75 0.25H104.25C103.145 0.25 102.25 1.14543 102.25 2.25V13.75C102.25 14.8546 103.145 15.75 104.25 15.75H123.75C124.855 15.75 125.75 14.8546 125.75 13.75V2.25C125.75 1.14543 124.855 0.25 123.75 0.25Z" fill="white" stroke="black" stroke-opacity="0.2" stroke-width="0.5"/>
<path d="M104.788 5.91444C104.265 5.62751 103.668 5.39674 103 5.23659L103.028 5.11188H105.765C106.136 5.12489 106.437 5.23651 106.535 5.63071L107.13 8.46659L107.312 9.32073L108.978 5.11188H110.777L108.103 11.2775H106.304L104.788 5.91444ZM112.1 11.2841H110.399L111.463 5.11188H113.164L112.1 11.2841ZM118.267 5.26277L118.035 6.59559L117.882 6.53004C117.574 6.40525 117.167 6.28054 116.614 6.29371C115.943 6.29371 115.642 6.56277 115.635 6.82546C115.635 7.11441 115.999 7.30484 116.594 7.58725C117.574 8.02719 118.029 8.56557 118.022 9.26819C118.008 10.5486 116.846 11.3761 115.061 11.3761C114.298 11.3694 113.563 11.2181 113.164 11.0476L113.402 9.66205L113.626 9.76066C114.179 9.99071 114.543 10.089 115.222 10.089C115.712 10.089 116.237 9.89838 116.244 9.48488C116.244 9.21565 116.02 9.01851 115.362 8.71646C114.718 8.42087 113.857 7.92848 113.871 7.04198C113.878 5.84042 115.061 5 116.741 5C117.399 5 117.931 5.13789 118.267 5.26277ZM120.528 9.09749H121.942C121.872 8.78889 121.55 7.31147 121.55 7.31147L121.431 6.77964C121.347 7.00943 121.2 7.38373 121.207 7.37056C121.207 7.37056 120.668 8.7429 120.528 9.09749ZM122.628 5.11188L124 11.284H122.425C122.425 11.284 122.271 10.5748 122.222 10.3581H120.038C119.975 10.5222 119.681 11.284 119.681 11.284H117.896L120.423 5.62399C120.598 5.22342 120.906 5.11188 121.312 5.11188H122.628Z" fill="#171E6C"/>
</g>
<g clip-path="url(#clip1_53_619)">
<path d="M56 0H36C34.8954 0 34 0.89543 34 2V14C34 15.1046 34.8954 16 36 16H56C57.1046 16 58 15.1046 58 14V2C58 0.89543 57.1046 0 56 0Z" fill="#016FD0"/>
<path fill-rule="evenodd" clip-rule="evenodd" d="M47.7642 13.3938V7.69238L57.9117 7.70149V9.27638L56.7388 10.5298L57.9117 11.7947V13.403H56.0391L55.0439 12.3048L54.0558 13.4071L47.7642 13.3938Z" fill="#FFFFFE"/>
<path fill-rule="evenodd" clip-rule="evenodd" d="M48.4419 12.7687V8.31982H52.2142V9.34471H49.6633V10.0404H52.1534V11.0482H49.6633V11.7315H52.2142V12.7687H48.4419Z" fill="#016FD0"/>
<path fill-rule="evenodd" clip-rule="evenodd" d="M52.1954 12.7689L54.2827 10.5419L52.1953 8.32007H53.811L55.0865 9.7301L56.3656 8.32007H57.9117V8.35507L55.8689 10.5419L57.9117 12.7057V12.7689H56.35L55.0519 11.3447L53.7671 12.7689H52.1954Z" fill="#016FD0"/>
<path fill-rule="evenodd" clip-rule="evenodd" d="M48.2374 2.63184H50.6834L51.5426 4.58269V2.63184H54.5624L55.0832 4.09341L55.6057 2.63184H57.9116V8.33323H45.7251L48.2374 2.63184Z" fill="#FFFFFE"/>
<path fill-rule="evenodd" clip-rule="evenodd" d="M48.7006 3.25146L46.7266 7.69664H48.0805L48.4529 6.80647H50.4708L50.843 7.69664H52.2306L50.2648 3.25146H48.7006ZM48.8702 5.8089L49.4622 4.39383L50.0538 5.8089H48.8702Z" fill="#016FD0"/>
<path fill-rule="evenodd" clip-rule="evenodd" d="M52.2119 7.69582V3.25073L54.115 3.25727L55.0943 5.99L56.0799 3.25073H57.9115V7.69582L56.7329 7.70625V4.6529L55.6204 7.69582H54.5446L53.4089 4.64247V7.69582H52.2119Z" fill="#016FD0"/>
</g>
<g clip-path="url(#clip2_53_619)">
<path d="M90 0H70C68.8954 0 68 0.89543 68 2V14C68 15.1046 68.8954 16 70 16H90C91.1046 16 92 15.1046 92 14V2C92 0.89543 91.1046 0 90 0Z" fill="#252525"/>
<path d="M77 13C79.7614 13 82 10.7614 82 8C82 5.23858 79.7614 3 77 3C74.2386 3 72 5.23858 72 8C72 10.7614 74.2386 13 77 13Z" fill="#EB001B"/>
<path d="M83 13C85.7614 13 88 10.7614 88 8C88 5.23858 85.7614 3 83 3C80.2386 3 78 5.23858 78 8C78 10.7614 80.2386 13 83 13Z" fill="#F79E1B"/>
<path fill-rule="evenodd" clip-rule="evenodd" d="M80 3.99951C81.2144 4.91172 82 6.36406 82 7.99988C82 9.6357 81.2144 11.088 80 12.0002C78.7856 11.088 78 9.6357 78 7.99988C78 6.36406 78.7856 4.91172 80 3.99951Z" fill="#FF5F00"/>
</g>
<path opacity="0.2" d="M19.935 15.4763H1.815C1.57862 15.4783 1.34416 15.433 1.12502 15.3429C0.905875 15.2529 0.706336 15.1199 0.537796 14.9515C0.369256 14.7831 0.235016 14.5826 0.14274 14.3615C0.050465 14.1404 0.00196164 13.9031 0 13.6629L0 2.8134C0.00196164 2.57326 0.050465 2.33587 0.14274 2.11478C0.235016 1.89369 0.369256 1.69323 0.537796 1.52485C0.706336 1.35646 0.905875 1.22345 1.12502 1.13341C1.34416 1.04336 1.57862 0.998055 1.815 1.00006H19.935C20.1714 0.998055 20.4058 1.04336 20.625 1.13341C20.8441 1.22345 21.0437 1.35646 21.2122 1.52485C21.3807 1.69323 21.515 1.89369 21.6073 2.11478C21.6995 2.33587 21.748 2.57326 21.75 2.8134V13.6705C21.7441 14.1542 21.5497 14.6157 21.2096 14.9542C20.8694 15.2926 20.4111 15.4803 19.935 15.4763ZM7.5 5.44197C7.5 5.09149 7.2375 4.80959 6.915 4.80959H2.835C2.5125 4.80959 2.25 5.09149 2.25 5.44197V7.98673C2.25 8.33721 2.5125 8.61911 2.835 8.61911H6.915C7.2375 8.61911 7.5 8.33721 7.5 7.98673V5.44197Z" fill="black"/>
<path opacity="0.3" d="M18.75 12.4286H16.5C16.0125 12.4286 15.75 12.2 15.75 11.6667C15.75 11.1334 16.0125 10.9048 16.5 10.9048H18.75C19.2375 10.9048 19.5 11.1334 19.5 11.6667C19.5 12.2 19.2375 12.4286 18.75 12.4286ZM14.25 12.4286H12C11.5125 12.4286 11.25 12.2 11.25 11.6667C11.25 11.1334 11.5125 10.9048 12 10.9048H14.25C14.7375 10.9048 15 11.1334 15 11.6667C15 12.2 14.7375 12.4286 14.25 12.4286ZM9.75 12.4286H7.5C7.0125 12.4286 6.75 12.2 6.75 11.6667C6.75 11.1334 7.0125 10.9048 7.5 10.9048H9.75C10.2375 10.9048 10.5 11.1334 10.5 11.6667C10.5 12.2 10.2375 12.4286 9.75 12.4286ZM5.25 12.4286H3C2.5125 12.4286 2.25 12.2 2.25 11.6667C2.25 11.1334 2.5125 10.9048 3 10.9048H5.25C5.7375 10.9048 6 11.1334 6 11.6667C6 12.2 5.7375 12.4286 5.25 12.4286Z" fill="black"/>
<defs>
<clipPath id="clip0_53_619">
<rect width="24" height="16" fill="white" transform="translate(102)"/>
</clipPath>
<clipPath id="clip1_53_619">
<rect width="24" height="16" fill="white" transform="translate(34)"/>
</clipPath>
<clipPath id="clip2_53_619">
<rect width="24" height="16" fill="white" transform="translate(68)"/>
</clipPath>
</defs>
</svg>
