<svg width="149" height="41" viewBox="0 0 149 41" fill="none" xmlns="http://www.w3.org/2000/svg">
<g clip-path="url(#clip0_53_525)">
<rect width="149" height="41" rx="6" fill="#8BEEF4"/>
<path d="M6 0.5H143C146.038 0.5 148.5 2.96214 148.5 6V35C148.5 38.0379 146.038 40.5 143 40.5H6C2.96214 40.5 0.5 38.0379 0.5 35V6C0.5 2.96214 2.96214 0.5 6 0.5Z" stroke="#32364E"/>
<path fill-rule="evenodd" clip-rule="evenodd" d="M71.403 26.625H69.941L71.073 23.829L68.82 18.144H70.365L71.781 22.013L73.208 18.144H74.753L71.403 26.625ZM65.788 24.183C65.281 24.183 64.762 23.995 64.29 23.629V24.042H62.781V15.561H64.29V18.546C64.762 18.192 65.281 18.003 65.788 18.003C67.369 18.003 68.454 19.277 68.454 21.093C68.454 22.909 67.369 24.183 65.788 24.183ZM65.47 19.3C65.057 19.3 64.644 19.477 64.29 19.831V22.355C64.644 22.709 65.057 22.886 65.47 22.886C66.319 22.886 66.909 22.155 66.909 21.093C66.909 20.032 66.319 19.3 65.47 19.3ZM56.67 23.629C56.21 23.995 55.691 24.183 55.172 24.183C53.603 24.183 52.507 22.909 52.507 21.093C52.507 19.277 53.603 18.003 55.172 18.003C55.691 18.003 56.21 18.192 56.67 18.546V15.561H58.192V24.042H56.67V23.629ZM56.67 19.831C56.328 19.477 55.915 19.3 55.502 19.3C54.641 19.3 54.052 20.032 54.052 21.093C54.052 22.155 54.641 22.886 55.502 22.886C55.915 22.886 56.328 22.709 56.67 22.355V19.831ZM47.682 21.506C47.776 22.402 48.484 23.016 49.475 23.016C50.017 23.016 50.619 22.815 51.232 22.461V23.723C50.56 24.03 49.888 24.183 49.227 24.183C47.446 24.183 46.196 22.886 46.196 21.046C46.196 19.265 47.423 18.003 49.109 18.003C50.654 18.003 51.704 19.218 51.704 20.952C51.704 21.117 51.704 21.305 51.68 21.506H47.682ZM49.05 19.171C48.319 19.171 47.753 19.713 47.682 20.527H50.253C50.206 19.725 49.722 19.171 49.05 19.171ZM43.707 20.102V24.042H42.197V18.144H43.707V18.734C44.131 18.262 44.65 18.003 45.157 18.003C45.323 18.003 45.488 18.015 45.653 18.062V19.407C45.488 19.359 45.299 19.336 45.122 19.336C44.627 19.336 44.096 19.607 43.707 20.102ZM36.971 21.506C37.066 22.402 37.773 23.016 38.764 23.016C39.307 23.016 39.908 22.815 40.522 22.461V23.723C39.849 24.03 39.177 24.183 38.516 24.183C36.735 24.183 35.485 22.886 35.485 21.046C35.485 19.265 36.712 18.003 38.398 18.003C39.944 18.003 40.993 19.218 40.993 20.952C40.993 21.117 40.993 21.305 40.97 21.506H36.971ZM38.339 19.171C37.608 19.171 37.042 19.713 36.971 20.527H39.543C39.495 19.725 39.012 19.171 38.339 19.171ZM31.698 24.042L30.495 20.032L29.304 24.042H27.947L25.919 18.144H27.428L28.62 22.155L29.811 18.144H31.179L32.37 22.155L33.562 18.144H35.071L33.054 24.042H31.698ZM22.474 24.183C20.693 24.183 19.431 22.898 19.431 21.093C19.431 19.277 20.693 18.003 22.474 18.003C24.255 18.003 25.505 19.277 25.505 21.093C25.505 22.898 24.255 24.183 22.474 24.183ZM22.474 19.265C21.589 19.265 20.976 20.008 20.976 21.093C20.976 22.178 21.589 22.921 22.474 22.921C23.347 22.921 23.96 22.178 23.96 21.093C23.96 20.008 23.347 19.265 22.474 19.265ZM15.845 21.129H14.488V24.042H12.979V15.927H15.845C17.496 15.927 18.675 17 18.675 18.534C18.675 20.067 17.496 21.129 15.845 21.129ZM15.632 17.154H14.488V19.902H15.632C16.505 19.902 17.118 19.348 17.118 18.534C17.118 17.708 16.505 17.154 15.632 17.154Z" fill="#32364E"/>
<path fill-rule="evenodd" clip-rule="evenodd" d="M136.827 21.8679H129.577C129.742 23.6039 131.014 24.1149 132.457 24.1149C133.928 24.1149 135.086 23.8059 136.096 23.2959V26.2799C135.089 26.8369 133.761 27.2399 131.99 27.2399C128.383 27.2399 125.855 24.9809 125.855 20.5139C125.855 16.7419 127.999 13.7459 131.523 13.7459C135.041 13.7459 136.877 16.7409 136.877 20.5339C136.877 20.8919 136.844 21.6679 136.827 21.8679ZM131.499 16.7659C130.573 16.7659 129.544 17.4649 129.544 19.1339H133.373C133.373 17.4669 132.409 16.7659 131.499 16.7659ZM119.981 27.2399C118.685 27.2399 117.893 26.6929 117.361 26.3029L117.353 30.4939L113.65 31.2819L113.648 13.9929H116.91L117.102 14.9079C117.615 14.4289 118.552 13.7459 120.004 13.7459C122.605 13.7459 125.055 16.0889 125.055 20.4009C125.055 25.1079 122.631 27.2399 119.981 27.2399ZM119.119 17.0269C118.268 17.0269 117.736 17.3379 117.35 17.7609L117.372 23.2649C117.731 23.6539 118.25 23.9679 119.119 23.9679C120.488 23.9679 121.406 22.4769 121.406 20.4829C121.406 18.5449 120.474 17.0269 119.119 17.0269ZM108.417 13.9929H112.135V26.9749H108.417V13.9929ZM108.417 9.84788L112.135 9.05688V12.0739L108.417 12.8639V9.84788ZM104.576 18.1739V26.9749H100.874V13.9929H104.076L104.309 15.0879C105.175 13.4939 106.907 13.8169 107.4 13.9939V17.3979C106.929 17.2459 105.451 17.0239 104.576 18.1739ZM96.7589 22.4199C96.7589 24.6029 99.0959 23.9239 99.5709 23.7339V26.7489C99.0769 27.0199 98.1819 27.2399 96.9709 27.2399C94.7729 27.2399 93.1239 25.6209 93.1239 23.4279L93.1399 11.5449L96.7559 10.7769L96.7589 13.9929H99.5719V17.1509H96.7589V22.4199ZM92.2649 23.0519C92.2649 25.7179 90.1429 27.2399 87.0629 27.2399C85.7859 27.2399 84.3899 26.9919 83.0129 26.3989V22.8629C84.2559 23.5389 85.8399 24.0459 87.0669 24.0459C87.8929 24.0459 88.4879 23.8239 88.4879 23.1399C88.4879 21.3719 82.8569 22.0379 82.8569 17.9369C82.8569 15.3149 84.8599 13.7459 87.8639 13.7459C89.0909 13.7459 90.3179 13.9349 91.5449 14.4239V17.9119C90.4179 17.3039 88.9879 16.9589 87.8609 16.9589C87.0849 16.9589 86.6029 17.1829 86.6029 17.7619C86.6029 19.4279 92.2649 18.6359 92.2649 23.0519Z" fill="#32364E"/>
</g>
<defs>
<clipPath id="clip0_53_525">
<rect width="149" height="41" rx="6" fill="white"/>
</clipPath>
</defs>
</svg>
