<svg width="200" height="200" viewBox="0 0 200 200" fill="none" xmlns="http://www.w3.org/2000/svg">
<path d="M100 200C155.228 200 200 155.228 200 100C200 44.7715 155.228 0 100 0C44.7715 0 0 44.7715 0 100C0 155.228 44.7715 200 100 200Z" fill="#C1D8ED"/>
<path d="M99.9998 180.22C144.304 180.22 180.22 144.304 180.22 99.9999C180.22 55.6954 144.304 19.7795 99.9998 19.7795C55.6952 19.7795 19.7793 55.6954 19.7793 99.9999C19.7793 144.304 55.6952 180.22 99.9998 180.22Z" fill="white"/>
<path d="M100 160.039C133.159 160.039 160.039 133.159 160.039 99.9999C160.039 66.8413 133.159 39.9609 100 39.9609C66.8413 39.9609 39.9609 66.8413 39.9609 99.9999C39.9609 133.159 66.8413 160.039 100 160.039Z" fill="#C1D8ED"/>
<path d="M99.9989 139.919C122.046 139.919 139.918 122.047 139.918 100C139.918 77.9534 122.046 60.0811 99.9989 60.0811C77.9524 60.0811 60.0801 77.9534 60.0801 100C60.0801 122.047 77.9524 139.919 99.9989 139.919Z" fill="white"/>
<path d="M99.9987 120.423C111.278 120.423 120.421 111.279 120.421 100C120.421 88.721 111.278 79.5775 99.9987 79.5775C88.7197 79.5775 79.5762 88.721 79.5762 100C79.5762 111.279 88.7197 120.423 99.9987 120.423Z" fill="#C1D8ED"/>
<path d="M171.757 29.8626L180.226 30.8527L168.948 42.1299L160.479 41.1411L171.757 29.8626Z" fill="#0CBC8B"/>
<path d="M170.961 21.5886L171.951 30.0577L160.674 41.335L159.684 32.8659L170.961 21.5886Z" fill="#0CBC8B"/>
<path d="M104.938 97.9879C104.563 97.6125 104.352 97.1034 104.352 96.5725C104.352 96.0415 104.563 95.5324 104.938 95.157L170.993 29.1023L173.824 31.9333L107.769 97.9879C107.394 98.3634 106.884 98.5743 106.354 98.5743C105.823 98.5743 105.313 98.3634 104.938 97.9879Z" fill="#0CBC8B"/>
</svg>
