<svg width="333" height="244" viewBox="0 0 333 244" fill="none" xmlns="http://www.w3.org/2000/svg">
<g clip-path="url(#clip0_1_892)">
<path d="M27.3367 244C17.4318 244.011 8.58665 236.774 5.22869 225.912C-1.97461 202.528 -5.9142 161.626 22.281 114.773C53.4571 62.9664 86.7309 16.5187 164.1 10.4954C232.353 6.70265 251.585 101.485 300.173 134.058C347.16 165.559 341.687 241.036 296.619 243.997L27.3367 244Z" fill="#F3F5FD"/>
<path d="M296.397 244H279.031C276.013 240.01 270.72 231.961 274.141 228.523C275.697 226.964 277.407 228.446 278.999 231.109C278.453 225.895 278.999 220.912 282.61 219.457C285.898 218.135 287.367 222.128 287.936 227.487C289.553 224.44 291.683 222.295 294.461 222.464C298.435 222.703 297.476 228.029 295.151 233.926C296.915 232.578 298.759 231.914 300.553 232.506C304.316 233.745 300.802 239.049 296.397 244Z" fill="#8DDBE0"/>
<path d="M241.923 242.74H273.133V209.196H241.923V242.74Z" fill="#D7E8F4"/>
<path d="M232.255 242.74H263.464V209.196H232.255V242.74Z" fill="white"/>
<path d="M241.348 217.192V223.739V244H275.507V223.739V217.192H241.348Z" fill="#C1D8ED"/>
<path d="M265.144 217.192H230.984V244H265.144V217.192Z" fill="#DEE8F5"/>
<path d="M265.144 217.192H230.984V219.202H265.144V217.192Z" fill="#C1D8ED"/>
<path d="M251.772 222.577H244.356C243.878 222.577 243.491 222.966 243.491 223.446V225.733C243.491 226.213 243.878 226.602 244.356 226.602H251.772C252.25 226.602 252.637 226.213 252.637 225.733V223.446C252.637 222.966 252.25 222.577 251.772 222.577Z" fill="white"/>
<path d="M241.279 211.412L275.212 215.362L275.961 208.859L242.028 204.91L241.279 211.412Z" fill="#C1D8ED"/>
<path d="M230.985 210.214L264.917 214.163L265.667 207.66L231.734 203.711L230.985 210.214Z" fill="#DEE8F5"/>
<path d="M243.462 214.277H232.255C231.655 214.78 231.213 215.448 230.984 216.199C230.984 216.199 234.852 215.014 243.462 214.277Z" fill="#DEE8F5"/>
<path d="M251.306 0H106.693V188.525H251.306V0Z" fill="#DEE8F5"/>
<path d="M235.556 106.268H146.306V108.968H235.556V106.268Z" fill="#C1D8ED"/>
<path d="M235.556 134.845H146.306V137.545H235.556V134.845Z" fill="#C1D8ED"/>
<path d="M235.556 163.422H146.306V166.122H235.556V163.422Z" fill="#C1D8ED"/>
<path d="M127.825 115.553C127.451 115.553 127.092 115.41 126.819 115.152L121.792 110.384C121.65 110.252 121.536 110.093 121.455 109.916C121.375 109.739 121.33 109.548 121.324 109.354C121.318 109.159 121.35 108.966 121.418 108.784C121.486 108.602 121.59 108.436 121.723 108.294C121.856 108.153 122.015 108.039 122.192 107.96C122.368 107.881 122.559 107.838 122.752 107.833C122.946 107.828 123.138 107.862 123.318 107.932C123.499 108.002 123.663 108.108 123.803 108.243L127.744 111.98L136.308 102.497C136.436 102.35 136.592 102.231 136.767 102.146C136.941 102.061 137.131 102.011 137.325 102C137.519 101.989 137.713 102.017 137.896 102.083C138.079 102.148 138.247 102.249 138.391 102.38C138.535 102.511 138.651 102.67 138.734 102.846C138.816 103.023 138.863 103.214 138.871 103.409C138.879 103.604 138.848 103.799 138.781 103.982C138.713 104.165 138.61 104.333 138.478 104.475L128.91 115.07C128.779 115.215 128.621 115.333 128.444 115.415C128.268 115.498 128.077 115.544 127.882 115.552L127.825 115.553Z" fill="white"/>
<path d="M127.825 143.753C127.451 143.753 127.092 143.61 126.819 143.352L121.792 138.584C121.65 138.452 121.536 138.293 121.455 138.116C121.375 137.939 121.33 137.748 121.324 137.554C121.318 137.36 121.35 137.166 121.418 136.984C121.486 136.802 121.59 136.636 121.723 136.495C121.856 136.353 122.015 136.24 122.192 136.16C122.368 136.081 122.559 136.038 122.752 136.033C122.946 136.028 123.138 136.062 123.318 136.132C123.499 136.203 123.663 136.308 123.803 136.443L127.744 140.18L136.308 130.697C136.436 130.551 136.592 130.431 136.767 130.346C136.941 130.261 137.131 130.211 137.325 130.201C137.519 130.19 137.713 130.218 137.896 130.283C138.079 130.348 138.247 130.449 138.391 130.58C138.535 130.711 138.651 130.87 138.734 131.046C138.816 131.223 138.863 131.415 138.871 131.61C138.879 131.805 138.848 131.999 138.781 132.182C138.713 132.365 138.61 132.533 138.478 132.675L128.91 143.27C128.779 143.416 128.621 143.533 128.444 143.616C128.268 143.698 128.077 143.745 127.882 143.752L127.825 143.753Z" fill="white"/>
<path d="M127.825 172.331C127.451 172.331 127.092 172.187 126.819 171.93L121.792 167.162C121.509 166.894 121.344 166.524 121.333 166.133C121.321 165.743 121.465 165.364 121.732 165.08C121.998 164.796 122.366 164.63 122.755 164.619C123.143 164.607 123.52 164.751 123.803 165.02L127.744 168.758L136.308 159.274C136.436 159.129 136.593 159.012 136.767 158.928C136.941 158.845 137.13 158.797 137.323 158.787C137.516 158.777 137.709 158.805 137.89 158.871C138.072 158.936 138.239 159.036 138.382 159.167C138.525 159.297 138.641 159.455 138.724 159.63C138.806 159.806 138.853 159.996 138.862 160.19C138.87 160.384 138.841 160.577 138.775 160.76C138.709 160.942 138.608 161.11 138.478 161.253L128.91 171.847C128.779 171.992 128.621 172.109 128.444 172.192C128.268 172.275 128.077 172.321 127.882 172.329L127.825 172.331Z" fill="white"/>
<path d="M240.356 10.3867H117.644V90.1253H240.356V10.3867Z" fill="#F3F5FD"/>
<path d="M231.616 81.4092H126.034C125.916 81.4092 125.802 81.3619 125.718 81.2778C125.634 81.1936 125.587 81.0794 125.587 80.9603V19.9123C125.587 19.7933 125.634 19.6791 125.718 19.5949C125.802 19.5107 125.916 19.4634 126.034 19.4634C126.153 19.4634 126.266 19.5107 126.35 19.5949C126.434 19.6791 126.481 19.7933 126.481 19.9123V80.5136H231.616C231.676 80.5119 231.736 80.5222 231.791 80.5439C231.847 80.5657 231.898 80.5985 231.941 80.6403C231.984 80.6822 232.018 80.7322 232.041 80.7876C232.064 80.8429 232.076 80.9023 232.076 80.9624C232.076 81.0225 232.064 81.0819 232.041 81.1372C232.018 81.1926 231.984 81.2426 231.941 81.2845C231.898 81.3263 231.847 81.3591 231.791 81.3809C231.736 81.4026 231.676 81.4129 231.616 81.4112V81.4092Z" fill="#C1D8ED"/>
<path d="M129.53 76.9218C129.439 76.922 129.351 76.8942 129.276 76.8422C129.201 76.7901 129.144 76.7164 129.112 76.6307C129.08 76.5451 129.074 76.4517 129.097 76.363C129.119 76.2743 129.168 76.1945 129.236 76.1344L157.554 51.2988C157.635 51.2285 157.737 51.1892 157.844 51.1882C157.95 51.1871 158.054 51.2243 158.135 51.293L166.608 58.4253L190.449 41.0703C190.525 41.0151 190.616 40.9851 190.71 40.9847C190.803 40.9843 190.895 41.0134 190.971 41.068L204.933 51.0739L227.838 32.4826C227.884 32.4455 227.936 32.4179 227.993 32.4012C228.049 32.3845 228.108 32.3791 228.166 32.3853C228.225 32.3915 228.281 32.4092 228.333 32.4374C228.384 32.4656 228.43 32.5037 228.467 32.5496C228.504 32.5955 228.531 32.6482 228.548 32.7047C228.564 32.7613 228.57 32.8206 228.563 32.8792C228.557 32.9379 228.54 32.9947 228.512 33.0465C228.484 33.0983 228.446 33.144 228.4 33.1811L205.23 51.9865C205.154 52.0481 205.06 52.083 204.963 52.0859C204.865 52.0889 204.769 52.0596 204.69 52.0026L190.713 41.9852L166.85 59.3567C166.77 59.4153 166.672 59.4452 166.573 59.4416C166.473 59.4381 166.378 59.4013 166.301 59.3371L157.854 52.2267L129.824 76.8098C129.743 76.8817 129.639 76.9215 129.53 76.9218Z" fill="#C1D8ED"/>
<path d="M227.245 35.5739C228.396 35.5739 229.33 34.6359 229.33 33.4788C229.33 32.3218 228.396 31.3838 227.245 31.3838C226.094 31.3838 225.16 32.3218 225.16 33.4788C225.16 34.6359 226.094 35.5739 227.245 35.5739Z" fill="#C1D8ED"/>
<g opacity="0.77">
<path d="M231.615 24.9604H125.735V25.2596H231.615V24.9604Z" fill="#C1D8ED"/>
<path d="M231.615 34.189H125.735V34.4881H231.615V34.189Z" fill="#C1D8ED"/>
<path d="M231.615 43.417H125.735V43.7162H231.615V43.417Z" fill="#C1D8ED"/>
<path d="M231.615 52.6455H125.735V52.9447H231.615V52.6455Z" fill="#C1D8ED"/>
<path d="M231.615 61.874H125.735V62.1732H231.615V61.874Z" fill="#C1D8ED"/>
<path d="M231.615 71.1021H125.735V71.4012H231.615V71.1021Z" fill="#C1D8ED"/>
</g>
<path d="M68.4566 239.834L60.4663 238.879C60.8261 235.84 61.2326 232.189 61.2602 231.591C61.2583 231.63 61.2602 231.661 61.2602 231.685H69.3064C69.3049 231.928 69.3049 232.665 68.4566 239.834Z" fill="#E98862"/>
<path d="M36.3958 240.801L28.3496 240.775C28.3496 240.775 28.3764 232.425 28.3764 231.686H36.4227C36.4227 232.427 36.3958 240.801 36.3958 240.801Z" fill="#E98862"/>
<path d="M57.25 237.281L71.4267 237.038C70.8374 222.036 70.737 204.876 70.5787 189.348C70.5348 185.499 70.2456 181.657 69.7128 177.846C67.4323 161.395 65.9445 145.04 62.8743 128.683L62.772 128.714L62.4723 126.662L33.3231 124.852L31.8058 143.991C31.8058 143.991 28.0088 210.201 26.2754 236.822L40.4019 238.021C42.9472 211.921 46.886 173.889 49.3087 146.47C52.0908 159.819 53.9832 173.642 56.4024 186.877C56.8867 203.444 57.2952 220.763 57.25 237.281Z" fill="#262626"/>
<path d="M46.1769 243.929C46.3933 243.928 46.6072 243.882 46.8052 243.794C47.0031 243.706 47.181 243.578 47.3276 243.418C47.4742 243.258 47.5864 243.07 47.6572 242.864C47.728 242.659 47.7558 242.441 47.739 242.224C47.7156 241.923 47.6073 241.636 47.4268 241.395C47.2463 241.154 47.0012 240.971 46.7202 240.865L37.3548 237.713C37.1734 237.652 36.9811 237.632 36.7912 237.653C36.6012 237.675 36.4181 237.737 36.2544 237.836C34.9668 238.733 33.4267 239.192 31.8603 239.145C30.6405 239.058 29.4695 238.628 28.4809 237.904C28.3941 237.833 28.2887 237.787 28.1772 237.774C28.0656 237.76 27.9525 237.778 27.851 237.827C27.7494 237.875 27.6637 237.952 27.6038 238.047C27.5439 238.143 27.5123 238.254 27.5127 238.366V242.969C27.5127 243.104 27.5394 243.239 27.5912 243.364C27.643 243.489 27.7189 243.603 27.8146 243.699C27.9103 243.795 28.0238 243.871 28.1488 243.922C28.2737 243.974 28.4075 244 28.5426 244L46.1769 243.929Z" fill="#C1D8ED"/>
<path d="M78.2598 243.929C78.4762 243.928 78.6901 243.882 78.888 243.794C79.086 243.706 79.2638 243.578 79.4104 243.418C79.5569 243.258 79.6691 243.07 79.7398 242.864C79.8106 242.659 79.8384 242.441 79.8215 242.224C79.7982 241.923 79.69 241.636 79.5096 241.395C79.3292 241.154 79.0841 240.971 78.8031 240.865L69.4377 237.713C69.2563 237.652 69.064 237.632 68.8741 237.653C68.6841 237.675 68.501 237.737 68.3373 237.836C67.0497 238.733 65.5096 239.192 63.9433 239.145C62.7233 239.058 61.5522 238.628 60.5635 237.904C60.4766 237.833 60.3712 237.787 60.2597 237.774C60.1481 237.76 60.035 237.778 59.9335 237.827C59.832 237.875 59.7462 237.952 59.6863 238.047C59.6265 238.143 59.5948 238.254 59.5952 238.366V242.969C59.5952 243.104 59.6219 243.239 59.6737 243.364C59.7256 243.49 59.8015 243.603 59.8972 243.699C59.993 243.795 60.1066 243.871 60.2316 243.922C60.3565 243.974 60.4904 244 60.6255 244L78.2598 243.929Z" fill="#C1D8ED"/>
<path d="M42.5889 84.9803C42.5889 84.9803 45.5514 83.4016 44.8901 75.294L51.0114 74.1531C51.0114 74.1531 50.3236 81.4224 53.4203 83.7304L42.5889 84.9803Z" fill="#E98862"/>
<g opacity="0.15">
<path d="M52.1662 82.2099L47.0806 78.3001L51.0749 78.2585C51.1905 79.6325 51.5606 80.9726 52.1662 82.2099Z" fill="black"/>
</g>
<path d="M41.4167 72.1493C41.8405 74.609 43.1761 76.9385 45.3352 77.7325C47.8985 78.6755 49.7971 78.7394 52.7523 78.7394C56.785 78.7394 56.6517 74.5127 56.7651 70.2537C56.88 65.9773 56.5402 61.3902 54.9463 59.9001C51.7661 56.926 42.4275 58.8096 41.2918 63.7845C40.7044 66.3581 41.0132 69.8093 41.4167 72.1493Z" fill="#E98862"/>
<path d="M58.9264 62.3733C58.9264 62.3733 60.5778 62.0025 60.1256 60.3476C59.826 59.2498 58.4267 59.4935 58.4267 59.4935C58.4267 59.4935 59.7517 59.2498 59.7517 58.0873C59.7517 57.3557 59.1915 56.1144 57.5022 56.8236C55.5197 57.6557 53.2588 57.5487 51.5399 57.2583C50.5673 57.0443 49.5801 56.9043 48.5866 56.8394H48.5816C47.4396 56.8193 46.3011 56.9724 45.2045 57.2934C42.1316 58.2175 37.4812 60.986 38.4698 67.2634C39.5733 74.269 42.8446 76.9482 44.2837 77.8076C44.3689 77.8592 44.4646 77.8906 44.5636 77.8995C44.6626 77.9085 44.7624 77.8947 44.8553 77.8592C44.9483 77.8237 45.0319 77.7674 45.1001 77.6947C45.1682 77.6219 45.219 77.5345 45.2485 77.4391C45.6566 76.1261 46.3597 72.8224 46.1631 66.0101C55.6086 65.5446 58.3263 65.4033 58.3263 65.4033C58.3263 65.4033 60.5486 65.4872 60.5486 63.8546C60.5486 62.222 58.9264 62.3733 58.9264 62.3733Z" fill="#0F1011"/>
<path d="M51.0025 70.2545C51.3091 70.2545 51.5576 70.0047 51.5576 69.6966C51.5576 69.3885 51.3091 69.1387 51.0025 69.1387C50.6958 69.1387 50.4473 69.3885 50.4473 69.6966C50.4473 70.0047 50.6958 70.2545 51.0025 70.2545Z" fill="#0F1011"/>
<path d="M55.3828 69.8937C55.6895 69.8937 55.938 69.6439 55.938 69.3358C55.938 69.0276 55.6895 68.7778 55.3828 68.7778C55.0762 68.7778 54.8276 69.0276 54.8276 69.3358C54.8276 69.6439 55.0762 69.8937 55.3828 69.8937Z" fill="#0F1011"/>
<path d="M56.3443 68.1467H56.3412L54.8703 68.1278C54.8012 68.1269 54.7352 68.0984 54.6869 68.0487C54.6386 67.999 54.612 67.932 54.6128 67.8625C54.6147 67.7933 54.6434 67.7275 54.6928 67.6792C54.7421 67.6309 54.8083 67.6038 54.8772 67.6038L56.3477 67.6222C56.4169 67.6227 56.4831 67.6508 56.5317 67.7003C56.5803 67.7498 56.6074 67.8166 56.6069 67.8862C56.6065 67.9557 56.5786 68.0222 56.5293 68.0711C56.48 68.1199 56.4135 68.1471 56.3443 68.1467Z" fill="#0F1011"/>
<path d="M49.8044 68.6858C49.7407 68.6854 49.6794 68.6616 49.632 68.6189C49.5845 68.5762 49.5542 68.5176 49.5467 68.4541C49.5393 68.3906 49.5551 68.3265 49.5913 68.2738C49.6276 68.2212 49.6816 68.1837 49.7434 68.1683L51.1937 67.8179C51.2603 67.8035 51.33 67.8157 51.3877 67.8522C51.4454 67.8886 51.4867 67.9464 51.5026 68.013C51.5185 68.0796 51.5079 68.1499 51.4729 68.2087C51.4379 68.2675 51.3814 68.3102 51.3155 68.3277L49.8657 68.6785C49.8456 68.6832 49.825 68.6857 49.8044 68.6858Z" fill="#0F1011"/>
<path d="M48.1146 71.0619C48.1614 71.6849 47.961 72.3012 47.5571 72.7763C47.1533 73.2513 46.5788 73.5465 45.9592 73.5973C45.3395 73.6482 44.725 73.4506 44.2498 73.0477C43.7746 72.6448 43.4773 72.0693 43.4229 71.4469C43.3923 71.1363 43.4242 70.8227 43.5167 70.5247C43.6092 70.2267 43.7604 69.9505 43.9614 69.7124C44.1623 69.4744 44.4089 69.2795 44.6864 69.1392C44.9639 68.9989 45.2666 68.9162 45.5766 68.896C47.2541 68.8429 48.0096 69.7597 48.1146 71.0619Z" fill="#E98862"/>
<g opacity="0.15">
<path d="M53.4666 72.7912C53.4207 72.7913 53.3763 72.7747 53.3415 72.7446C53.3067 72.7146 53.2839 72.6729 53.277 72.6273C53.2702 72.5817 53.2799 72.5352 53.3044 72.4961C53.3288 72.4571 53.3664 72.4282 53.4103 72.4146L54.5398 72.0662L53.7498 70.2988C53.7297 70.2524 53.7286 70.1998 53.7468 70.1526C53.765 70.1054 53.8009 70.0672 53.8469 70.0465C53.8929 70.0257 53.9451 70.024 53.9923 70.0417C54.0396 70.0593 54.078 70.095 54.0992 70.1409L54.9781 72.1074C54.9893 72.1323 54.995 72.1593 54.995 72.1866C54.995 72.2139 54.9892 72.2408 54.978 72.2657C54.9668 72.2906 54.9504 72.3128 54.9301 72.3308C54.9097 72.3489 54.8857 72.3623 54.8598 72.3704L53.5229 72.7828C53.5047 72.7884 53.4857 72.7912 53.4666 72.7912Z" fill="black"/>
</g>
<path d="M51.2593 74.0907C51.2593 74.0907 53.3084 74.3079 54.746 73.8035C54.746 73.8035 54.7349 75.1596 53.113 75.2932C51.4911 75.4268 51.2593 74.0907 51.2593 74.0907Z" fill="white"/>
<path d="M108.9 106.469C108.9 106.469 112.045 104.933 114.408 105.523C116.77 106.112 115.663 107.134 113.944 107.497C112.225 107.861 108.449 108.452 108.449 108.452" fill="#E98862"/>
<path d="M110.737 106.397C110.737 106.397 116.568 105.781 116.629 107.191C116.629 107.191 116.884 111.542 116.093 112.213C114.897 113.228 108.974 112.433 108.974 112.433L110.737 106.397Z" fill="#E98862"/>
<path d="M95.323 113.584H72.5337C71.859 113.584 71.1951 113.413 70.6031 113.088C70.0112 112.762 69.5102 112.293 69.1463 111.722L54.7466 89.1315L61.5215 84.77L74.7346 105.498H95.323V113.584Z" fill="#A9F8FD"/>
<path d="M64.5507 127.364C62.9456 131.072 31.4006 132.612 30.9787 126.089C30.7105 121.938 34.3505 118.315 34.3505 110.225C34.3505 102.135 26.9441 91.8045 32.9788 85.74C34.7298 83.9803 37.7533 82.8444 41.4388 82.8406C41.7147 85.0007 54.7653 85.0084 54.8645 82.8906C55.3626 82.8983 55.7496 82.906 55.991 82.9176C68.7041 83.4682 63.1177 98.0076 62.9951 108.689C62.8456 121.188 66.2059 123.544 64.5507 127.364Z" fill="#A9F8FD"/>
<path d="M54.8647 82.8906C54.7654 85.0084 53.6194 88.1234 50.0829 88.3583C45.3701 88.6702 41.7148 85.0007 41.439 82.8406H41.4508C46.0905 82.8406 52.1596 82.8483 54.8647 82.8906Z" fill="#E98862"/>
<path d="M84.7764 138.135C101.362 138.135 114.808 124.623 114.808 107.955C114.808 91.2876 101.362 77.7756 84.7764 77.7756C68.1906 77.7756 54.7451 91.2876 54.7451 107.955C54.7451 124.623 68.1906 138.135 84.7764 138.135Z" fill="#C1D8ED"/>
<path d="M84.7763 132.166C98.0815 132.166 108.867 121.326 108.867 107.955C108.867 94.5845 98.0815 83.7451 84.7763 83.7451C71.4711 83.7451 60.6851 94.5845 60.6851 107.955C60.6851 121.326 71.4711 132.166 84.7763 132.166Z" fill="white"/>
<path d="M84.7766 126.075C94.7345 126.075 102.807 117.963 102.807 107.955C102.807 97.9481 94.7345 89.8357 84.7766 89.8357C74.8186 89.8357 66.7461 97.9481 66.7461 107.955C66.7461 117.963 74.8186 126.075 84.7766 126.075Z" fill="#C1D8ED"/>
<path d="M84.7762 120.003C91.3971 120.003 96.7643 114.609 96.7643 107.955C96.7643 101.302 91.3971 95.908 84.7762 95.908C78.1554 95.908 72.7881 101.302 72.7881 107.955C72.7881 114.609 78.1554 120.003 84.7762 120.003Z" fill="white"/>
<path d="M84.7762 114.119C88.1635 114.119 90.9094 111.359 90.9094 107.955C90.9094 104.551 88.1635 101.792 84.7762 101.792C81.389 101.792 78.6431 104.551 78.6431 107.955C78.6431 111.359 81.389 114.119 84.7762 114.119Z" fill="#C1D8ED"/>
<path d="M106.325 86.7881L108.868 87.0869L105.481 90.4903L102.938 90.1919L106.325 86.7881Z" fill="#0CBC8B"/>
<path d="M106.085 84.291L106.383 86.847L102.996 90.2504L102.699 87.6945L106.085 84.291Z" fill="#0CBC8B"/>
<path d="M86.259 107.348C86.1463 107.235 86.0829 107.081 86.0829 106.921C86.0829 106.761 86.1463 106.607 86.259 106.494L106.096 86.5587L106.946 87.4131L87.1092 107.348C86.9964 107.461 86.8435 107.525 86.6841 107.525C86.5246 107.525 86.3717 107.461 86.259 107.348Z" fill="#0CBC8B"/>
<path d="M116.091 112.214C115.983 112.3 115.863 112.369 115.734 112.418C115.047 112.56 113.315 112.144 113.037 111.661C112.585 110.875 112.865 108.036 113.264 107.005C113.638 106.042 115.503 106.446 115.748 106.491C115.755 106.494 115.763 106.496 115.771 106.498C116.279 106.638 116.614 106.856 116.628 107.193C116.628 107.193 116.885 111.54 116.091 112.214Z" fill="#E98862"/>
<path d="M65.3306 114.839C65.3306 114.839 66.2536 109.774 69.8188 110.656C72.0687 111.212 78.6061 110.219 78.7057 113.122C78.7919 115.641 72.6519 116.313 70.6212 116.103C68.7985 115.915 65.3306 114.839 65.3306 114.839Z" fill="#E98862"/>
<path d="M68.5137 110.6C68.5137 110.6 73.8173 109.814 75.0024 110.32C76.0515 110.768 73.4698 112.168 73.4698 112.168L68.5137 110.6Z" fill="#E98862"/>
<path d="M70.2093 117.652L46.5001 116.925C45.7599 116.902 45.0391 116.683 44.4114 116.288C43.7837 115.893 43.2717 115.338 42.9279 114.679L31.2222 92.248L38.622 88.3486L49.1948 108.608L70.4656 109.26L70.2093 117.652Z" fill="#A9F8FD"/>
</g>
<defs>
<clipPath id="clip0_1_892">
<rect width="333" height="244" fill="white"/>
</clipPath>
</defs>
</svg>
