<svg width="241" height="221" viewBox="0 0 241 221" fill="none" xmlns="http://www.w3.org/2000/svg">
<path d="M120.5 220.385C179.332 220.385 227.025 171.081 227.025 110.261C227.025 49.4411 179.332 0.136719 120.5 0.136719C61.6675 0.136719 13.9746 49.4411 13.9746 110.261C13.9746 171.081 61.6675 220.385 120.5 220.385Z" fill="white"/>
<path opacity="0.1" d="M120.5 220.385C179.332 220.385 227.025 171.081 227.025 110.261C227.025 49.4411 179.332 0.136719 120.5 0.136719C61.6675 0.136719 13.9746 49.4411 13.9746 110.261C13.9746 171.081 61.6675 220.385 120.5 220.385Z" fill="#367CFF"/>
<path d="M51.268 147.665L0.324219 147.505L0.533826 75.9607L35.7602 76.0711L51.4299 92.3687L51.268 147.665Z" fill="white"/>
<path opacity="0.3" d="M35.7613 76.071L35.7136 92.3194L51.431 92.3687L35.7613 76.071Z" fill="#367CFF"/>
<path d="M51.7507 92.3486C51.7488 92.3192 51.7432 92.2903 51.7342 92.2624C51.7306 92.2516 51.728 92.2412 51.7234 92.2305C51.7083 92.1941 51.6869 92.1608 51.6602 92.1322L35.9905 75.8346C35.963 75.8065 35.9308 75.7838 35.8955 75.7675C35.8856 75.7631 35.8755 75.7593 35.8653 75.7561C35.8381 75.7462 35.8097 75.7404 35.7809 75.7386C35.7741 75.7386 35.768 75.7343 35.7611 75.7343L0.535051 75.6252C0.448996 75.6252 0.366466 75.6606 0.305616 75.7235C0.244766 75.7864 0.210581 75.8717 0.210581 75.9607L0 147.504C0 147.593 0.0341851 147.678 0.0950351 147.741C0.155885 147.804 0.238415 147.84 0.32447 147.84L51.2663 148C51.3523 148 51.4349 147.965 51.4957 147.902C51.5566 147.839 51.5907 147.754 51.5907 147.665L51.753 92.3687C51.7546 92.3623 51.751 92.356 51.7507 92.3486ZM36.0811 76.8821L43.3167 84.4049L50.6478 92.0299L36.0382 91.984L36.0811 76.8821ZM0.64894 147.171L0.856601 76.2971L35.4338 76.4055L35.3874 92.3184C35.3874 92.4074 35.4215 92.4927 35.4824 92.5556C35.5432 92.6185 35.6258 92.6538 35.7118 92.6538L51.1047 92.7021L50.9447 147.327L0.64894 147.171Z" fill="#262626"/>
<path d="M155.125 144.802L85.6553 144.584L85.9411 47.0215L133.978 47.1721L155.346 69.3965L155.125 144.802Z" fill="white"/>
<path opacity="0.3" d="M133.977 47.1721L133.912 69.3295L155.345 69.3966L133.977 47.1721Z" fill="#367CFF"/>
<path d="M155.666 69.3765C155.664 69.3473 155.659 69.3185 155.65 69.2907C155.646 69.2796 155.643 69.2692 155.639 69.2571C155.624 69.2207 155.602 69.1875 155.576 69.1588L134.208 46.9344C134.18 46.9064 134.148 46.8836 134.113 46.8673C134.102 46.8626 134.093 46.8599 134.082 46.8562C134.055 46.8465 134.027 46.8405 133.998 46.8385C133.991 46.8385 133.985 46.8344 133.978 46.8344L85.9414 46.6838C85.8553 46.6838 85.7728 46.7192 85.7119 46.7821C85.6511 46.845 85.6169 46.9303 85.6169 47.0193L85.3311 144.582C85.3311 144.671 85.3652 144.756 85.4261 144.819C85.4869 144.882 85.5695 144.917 85.6555 144.917L155.125 145.135C155.211 145.135 155.293 145.1 155.354 145.037C155.415 144.974 155.449 144.889 155.449 144.8L155.67 69.3943C155.67 69.3903 155.666 69.3839 155.666 69.3765ZM134.299 47.983L154.563 69.0589L134.237 68.9952L134.299 47.983ZM85.98 144.25L86.2639 47.3581L133.652 47.5067L133.587 69.3286C133.587 69.4175 133.621 69.5029 133.682 69.5658C133.743 69.6287 133.825 69.664 133.911 69.664L155.02 69.7311L154.801 144.466L85.98 144.25Z" fill="#262626"/>
<path d="M240.512 147.665L189.568 147.505L189.778 75.9607L225.004 76.0711L240.674 92.3687L240.512 147.665Z" fill="white"/>
<path opacity="0.3" d="M225.004 76.071L224.957 92.3194L240.674 92.3687L225.004 76.071Z" fill="#367CFF"/>
<path d="M240.994 92.3485C240.992 92.3191 240.987 92.2901 240.978 92.2623C240.974 92.2515 240.971 92.2411 240.967 92.2304C240.951 92.194 240.93 92.1607 240.904 92.1321L225.234 75.8344C225.206 75.8064 225.174 75.7837 225.139 75.7673C225.129 75.7627 225.119 75.7596 225.108 75.7559C225.081 75.7462 225.053 75.7403 225.024 75.7385C225.018 75.7385 225.011 75.7341 225.005 75.7341L189.778 75.6238C189.692 75.6238 189.61 75.6591 189.549 75.722C189.488 75.7849 189.454 75.8702 189.454 75.9592L189.244 147.504C189.244 147.593 189.278 147.678 189.339 147.741C189.4 147.804 189.483 147.839 189.569 147.839L240.512 147.999C240.598 147.999 240.681 147.963 240.742 147.901C240.803 147.838 240.837 147.752 240.837 147.663L240.999 92.3673C240.998 92.3622 240.994 92.3559 240.994 92.3485ZM225.326 76.882L232.559 84.4047L239.891 92.0298L225.281 91.9839L225.326 76.882ZM189.893 147.171L190.101 76.297L224.679 76.4053L224.632 92.3183C224.632 92.4072 224.666 92.4926 224.727 92.5555C224.788 92.6184 224.87 92.6537 224.956 92.6537L240.349 92.702L240.189 147.327L189.893 147.171Z" fill="#262626"/>
<path d="M103.151 103.877C105.836 103.877 108.014 101.626 108.014 98.8492C108.014 96.0726 105.836 93.8218 103.151 93.8218C100.465 93.8218 98.2874 96.0726 98.2874 98.8492C98.2874 101.626 100.465 103.877 103.151 103.877Z" fill="#292A2E"/>
<path d="M136.497 103.877C139.183 103.877 141.36 101.626 141.36 98.8492C141.36 96.0726 139.183 93.8218 136.497 93.8218C133.811 93.8218 131.634 96.0726 131.634 98.8492C131.634 101.626 133.811 103.877 136.497 103.877Z" fill="#292A2E"/>
<path d="M126.343 112.753H113.303C113.217 112.753 113.135 112.718 113.074 112.655C113.013 112.592 112.979 112.506 112.979 112.417C112.979 112.329 113.013 112.243 113.074 112.18C113.135 112.117 113.217 112.082 113.303 112.082H126.343C126.429 112.082 126.512 112.117 126.572 112.18C126.633 112.243 126.668 112.329 126.668 112.417C126.668 112.506 126.633 112.592 126.572 112.655C126.512 112.718 126.429 112.753 126.343 112.753Z" fill="#262626"/>
<path d="M98.1314 113.23C100.527 113.23 102.47 112.174 102.47 110.87C102.47 109.566 100.527 108.51 98.1314 108.51C95.7355 108.51 93.7932 109.566 93.7932 110.87C93.7932 112.174 95.7355 113.23 98.1314 113.23Z" fill="white"/>
<path d="M141.511 113.23C143.907 113.23 145.849 112.174 145.849 110.87C145.849 109.566 143.907 108.51 141.511 108.51C139.115 108.51 137.173 109.566 137.173 110.87C137.173 112.174 139.115 113.23 141.511 113.23Z" fill="white"/>
<g opacity="0.4">
<path d="M98.1314 113.23C100.527 113.23 102.47 112.174 102.47 110.87C102.47 109.566 100.527 108.51 98.1314 108.51C95.7355 108.51 93.7932 109.566 93.7932 110.87C93.7932 112.174 95.7355 113.23 98.1314 113.23Z" fill="#367CFF"/>
<path d="M141.511 113.23C143.907 113.23 145.849 112.174 145.849 110.87C145.849 109.566 143.907 108.51 141.511 108.51C139.115 108.51 137.173 109.566 137.173 110.87C137.173 112.174 139.115 113.23 141.511 113.23Z" fill="#367CFF"/>
</g>
<path d="M155.45 70.1961C147.169 60.3678 135.451 54.3423 122.874 53.445C110.296 52.5478 97.8882 56.8524 88.3802 65.4119C72.4955 79.7137 67.6141 103.491 76.5121 123.24C78.2987 127.198 80.5896 130.89 83.3237 134.219L83.9077 134.935L40.3664 182.704C39.5702 183.59 39.1453 184.766 39.1844 185.975C39.2234 187.184 39.7233 188.328 40.5749 189.158C41.4266 189.987 42.5609 190.435 43.7306 190.403C44.9003 190.371 46.0104 189.863 46.8189 188.988L90.3494 141.226L91.0766 141.789C100.47 149.073 112.14 152.506 123.836 151.425C135.532 150.344 146.427 144.826 154.422 135.935C162.417 127.043 166.946 115.407 167.136 103.269C167.326 91.1315 163.164 79.3504 155.451 70.1961H155.45ZM158.18 105.225C157.506 115.317 153.156 124.77 146.008 131.679C138.859 138.587 129.444 142.438 119.658 142.454C118.754 142.454 117.848 142.421 116.938 142.353C110.586 141.908 104.439 139.848 99.0409 136.358C93.6432 132.868 89.1619 128.055 85.9946 122.345C82.8273 116.636 81.0718 110.206 80.8838 103.628C80.6957 97.0487 82.081 90.5235 84.9167 84.6307C87.7524 78.7379 91.9509 73.6595 97.1399 69.8459C102.329 66.0323 108.348 63.6013 114.663 62.7687C120.979 61.936 127.396 62.7272 133.344 65.0723C139.293 67.4173 144.59 71.2437 148.766 76.2121C152.111 80.1654 154.666 84.7647 156.282 89.7445C157.897 94.7243 158.543 99.9857 158.18 105.225Z" fill="#4AA892"/>
</svg>
