<svg width="508" height="488" viewBox="0 0 508 488" fill="none" xmlns="http://www.w3.org/2000/svg">
<g clip-path="url(#clip0_1_3066)">
<path d="M132.006 325.895H90.8643V338.041H132.006V325.895Z" fill="#F4F4F4"/>
<path opacity="0.05" d="M101.78 325.895H96.3896V338.041H101.78V325.895Z" fill="#292A2E"/>
<path d="M126.749 328.535H104.334V335.733H126.749V328.535Z" fill="white"/>
<path d="M164.822 327.48L126.594 310.539L121.802 321.669L160.03 338.61L164.822 327.48Z" fill="#F4F4F4"/>
<path opacity="0.05" d="M164.822 327.48L126.594 310.539L121.802 321.669L160.03 338.61L164.822 327.48Z" fill="#292A2E"/>
<path d="M159.689 325.205L154.68 322.985L149.888 334.115L154.897 336.335L159.689 325.205Z" fill="white"/>
<path d="M151.265 324.352L130.438 315.122L127.598 321.718L148.426 330.948L151.265 324.352Z" fill="white"/>
<path opacity="0.05" d="M164.894 479.762H154.555V486.768H164.894V479.762Z" fill="#292A2E"/>
<path opacity="0.05" d="M59.1886 479.762H48.8496V486.768H59.1886V479.762Z" fill="#292A2E"/>
<path d="M174.371 338.611H39.3721V479.525H174.371V338.611Z" fill="#F4F4F4"/>
<path opacity="0.03" d="M174.371 338.611H39.3721V479.525H174.371V338.611Z" fill="#292A2E"/>
<path d="M199.389 338.611H64.3896V479.525H199.389V338.611Z" fill="#F4F4F4"/>
<path opacity="0.05" d="M189.911 479.762H179.572V486.768H189.911V479.762Z" fill="#292A2E"/>
<path opacity="0.05" d="M84.2062 479.762H73.8672V486.768H84.2062V479.762Z" fill="#292A2E"/>
<path opacity="0.7" d="M194.321 345.21H69.457V372.283H194.321V345.21Z" fill="white"/>
<path opacity="0.7" d="M194.321 378.909H69.457V405.982H194.321V378.909Z" fill="white"/>
<path opacity="0.7" d="M194.321 412.607H69.457V439.68H194.321V412.607Z" fill="white"/>
<path opacity="0.05" d="M131.89 362.535C133.951 362.535 135.623 360.839 135.623 358.747C135.623 356.655 133.951 354.959 131.89 354.959C129.828 354.959 128.156 356.655 128.156 358.747C128.156 360.839 129.828 362.535 131.89 362.535Z" fill="#292A2E"/>
<path opacity="0.05" d="M131.89 396.234C133.951 396.234 135.623 394.538 135.623 392.446C135.623 390.354 133.951 388.658 131.89 388.658C129.828 388.658 128.156 390.354 128.156 392.446C128.156 394.538 129.828 396.234 131.89 396.234Z" fill="#292A2E"/>
<path opacity="0.05" d="M131.89 429.932C133.951 429.932 135.623 428.236 135.623 426.144C135.623 424.052 133.951 422.356 131.89 422.356C129.828 422.356 128.156 424.052 128.156 426.144C128.156 428.236 129.828 429.932 131.89 429.932Z" fill="#292A2E"/>
<path opacity="0.7" d="M194.321 447.066H69.457V474.138H194.321V447.066Z" fill="white"/>
<path opacity="0.05" d="M131.89 464.39C133.951 464.39 135.623 462.694 135.623 460.602C135.623 458.51 133.951 456.814 131.89 456.814C129.828 456.814 128.156 458.51 128.156 460.602C128.156 462.694 129.828 464.39 131.89 464.39Z" fill="#292A2E"/>
<path d="M0.358531 487.739H507.639C507.735 487.739 507.826 487.7 507.893 487.632C507.96 487.564 507.998 487.471 507.998 487.375C507.998 487.278 507.96 487.186 507.893 487.118C507.826 487.049 507.735 487.011 507.639 487.011H0.358531C0.263443 487.011 0.172249 487.049 0.105011 487.118C0.0377737 487.186 0 487.278 0 487.375C0 487.471 0.0377737 487.564 0.105011 487.632C0.172249 487.7 0.263443 487.739 0.358531 487.739Z" fill="#292A2E"/>
<g opacity="0.65">
<path d="M0.358531 487.739H507.639C507.735 487.739 507.826 487.7 507.893 487.632C507.96 487.564 507.998 487.471 507.998 487.375C507.998 487.278 507.96 487.186 507.893 487.118C507.826 487.049 507.735 487.011 507.639 487.011H0.358531C0.263443 487.011 0.172249 487.049 0.105011 487.118C0.0377737 487.186 0 487.278 0 487.375C0 487.471 0.0377737 487.564 0.105011 487.632C0.172249 487.7 0.263443 487.739 0.358531 487.739Z" fill="#292A2E"/>
</g>
<path d="M473.313 487.527L474.319 487.33L458.597 328.81L457.591 329.006L473.313 487.527Z" fill="#494949"/>
<path d="M414.77 487.527L415.776 487.33L400.055 328.81L399.049 329.006L414.77 487.527Z" fill="#494949"/>
<path d="M285.367 487.527L284.361 487.33L300.083 328.81L301.089 329.006L285.367 487.527Z" fill="#494949"/>
<path d="M343.909 487.527L342.903 487.33L358.625 328.81L359.631 329.006L343.909 487.527Z" fill="#494949"/>
<path d="M364.755 259.04L355.57 328.836L356.586 328.974L365.77 259.177L364.755 259.04Z" fill="#494949"/>
<path d="M470.175 259.04L460.99 328.836L462.006 328.973L471.19 259.177L470.175 259.04Z" fill="#494949"/>
<path d="M355.663 334.019H458.776C461.558 334.019 463.813 331.731 463.813 328.908V328.907C463.813 326.085 461.558 323.796 458.776 323.796H355.663C352.88 323.796 350.625 326.085 350.625 328.907V328.908C350.625 331.731 352.88 334.019 355.663 334.019Z" fill="#292A2E"/>
<path opacity="0.8" d="M355.663 334.019H458.776C461.558 334.019 463.813 331.731 463.813 328.908V328.907C463.813 326.085 461.558 323.796 458.776 323.796H355.663C352.88 323.796 350.625 326.085 350.625 328.907V328.908C350.625 331.731 352.88 334.019 355.663 334.019Z" fill="white"/>
<path d="M350.113 328.91C350.114 327.417 350.699 325.985 351.74 324.929C352.78 323.873 354.191 323.279 355.663 323.277H458.776C460.248 323.277 461.66 323.87 462.701 324.926C463.741 325.982 464.326 327.414 464.326 328.908C464.326 330.401 463.741 331.833 462.701 332.889C461.66 333.945 460.248 334.539 458.776 334.539H355.663C354.192 334.537 352.782 333.943 351.741 332.888C350.701 331.833 350.116 330.402 350.113 328.91ZM355.663 324.318C354.463 324.318 353.312 324.802 352.463 325.663C351.614 326.524 351.138 327.692 351.138 328.91C351.138 330.128 351.614 331.295 352.463 332.157C353.312 333.018 354.463 333.501 355.663 333.501H458.776C459.977 333.501 461.128 333.018 461.976 332.157C462.825 331.295 463.302 330.128 463.302 328.91C463.302 327.692 462.825 326.524 461.976 325.663C461.128 324.802 459.977 324.318 458.776 324.318H355.663Z" fill="#292A2E"/>
<path d="M299.069 334.019H402.182C404.964 334.019 407.22 331.731 407.22 328.908V328.907C407.22 326.084 404.964 323.796 402.182 323.796H299.069C296.287 323.796 294.031 326.084 294.031 328.907V328.908C294.031 331.731 296.287 334.019 299.069 334.019Z" fill="white"/>
<path d="M293.519 328.91C293.52 327.417 294.106 325.986 295.146 324.93C296.187 323.874 297.597 323.281 299.069 323.279H402.182C403.654 323.279 405.066 323.872 406.106 324.928C407.147 325.984 407.732 327.416 407.732 328.91C407.732 330.403 407.147 331.835 406.106 332.891C405.066 333.947 403.654 334.541 402.182 334.541H299.069C297.597 334.539 296.187 333.945 295.146 332.889C294.106 331.834 293.52 330.403 293.519 328.91ZM299.069 324.318C297.868 324.318 296.717 324.802 295.869 325.663C295.02 326.524 294.543 327.692 294.543 328.91C294.543 330.128 295.02 331.295 295.869 332.156C296.717 333.018 297.868 333.501 299.069 333.501H402.182C403.382 333.501 404.533 333.018 405.382 332.156C406.231 331.295 406.707 330.128 406.707 328.91C406.707 327.692 406.231 326.524 405.382 325.663C404.533 324.802 403.382 324.318 402.182 324.318H299.069Z" fill="#292A2E"/>
<path d="M370.408 259.111H470.411C472.046 259.111 473.625 258.508 474.853 257.413C476.082 256.318 476.876 254.807 477.087 253.162L483.701 201.62C483.825 200.656 483.745 199.677 483.466 198.748C483.187 197.818 482.716 196.96 482.084 196.23C481.452 195.5 480.674 194.915 479.802 194.515C478.93 194.114 477.983 193.907 477.026 193.907H377.02C375.385 193.907 373.806 194.511 372.578 195.605C371.349 196.7 370.555 198.211 370.344 199.856L363.729 251.398C363.606 252.362 363.686 253.341 363.965 254.271C364.244 255.2 364.715 256.059 365.348 256.789C365.98 257.519 366.758 258.103 367.631 258.504C368.503 258.905 369.45 259.112 370.408 259.111Z" fill="#292A2E"/>
<path opacity="0.8" d="M370.408 259.111H470.411C472.046 259.111 473.625 258.508 474.853 257.413C476.082 256.318 476.876 254.807 477.087 253.162L483.701 201.62C483.825 200.656 483.745 199.677 483.466 198.748C483.187 197.818 482.716 196.96 482.084 196.23C481.452 195.5 480.674 194.915 479.802 194.515C478.93 194.114 477.983 193.907 477.026 193.907H377.02C375.385 193.907 373.806 194.511 372.578 195.605C371.349 196.7 370.555 198.211 370.344 199.856L363.729 251.398C363.606 252.362 363.686 253.341 363.965 254.271C364.244 255.2 364.715 256.059 365.348 256.789C365.98 257.519 366.758 258.103 367.631 258.504C368.503 258.905 369.45 259.112 370.408 259.111Z" fill="white"/>
<path d="M364.964 257.131C364.284 256.345 363.777 255.422 363.477 254.422C363.176 253.422 363.09 252.368 363.223 251.332L369.838 199.789C370.068 198.02 370.923 196.397 372.244 195.22C373.565 194.042 375.262 193.391 377.02 193.387H477.026C478.056 193.387 479.075 193.61 480.013 194.041C480.952 194.472 481.789 195.102 482.469 195.887C483.149 196.673 483.656 197.596 483.956 198.596C484.256 199.597 484.343 200.65 484.21 201.687L477.595 253.229C477.364 254.998 476.509 256.622 475.187 257.799C473.866 258.976 472.169 259.627 470.411 259.631H370.408C369.377 259.631 368.359 259.408 367.42 258.977C366.481 258.546 365.644 257.916 364.964 257.131ZM377.02 194.426C375.511 194.43 374.054 194.989 372.92 196C371.786 197.011 371.052 198.405 370.854 199.924L364.239 251.466C364.125 252.356 364.199 253.261 364.457 254.12C364.715 254.978 365.15 255.771 365.734 256.446C366.318 257.12 367.036 257.66 367.842 258.031C368.648 258.401 369.523 258.592 370.408 258.592H470.411C471.92 258.589 473.378 258.03 474.512 257.019C475.646 256.008 476.381 254.614 476.579 253.096L483.193 201.553C483.308 200.663 483.234 199.759 482.976 198.9C482.718 198.041 482.283 197.248 481.699 196.574C481.115 195.899 480.397 195.359 479.591 194.989C478.785 194.618 477.91 194.427 477.026 194.427L377.02 194.426Z" fill="#292A2E"/>
<path d="M364.753 259.111H464.758C466.393 259.111 467.973 258.508 469.201 257.413C470.43 256.318 471.224 254.807 471.435 253.162L478.05 201.62C478.173 200.656 478.093 199.677 477.814 198.748C477.535 197.818 477.064 196.96 476.432 196.23C475.8 195.5 475.022 194.915 474.15 194.515C473.277 194.114 472.331 193.907 471.373 193.907H371.368C369.733 193.907 368.154 194.511 366.925 195.605C365.697 196.7 364.903 198.211 364.692 199.856L358.077 251.398C357.953 252.361 358.033 253.341 358.312 254.27C358.591 255.199 359.062 256.058 359.694 256.788C360.326 257.518 361.104 258.103 361.976 258.503C362.849 258.904 363.795 259.111 364.753 259.111Z" fill="white"/>
<path d="M359.31 257.131C358.63 256.345 358.123 255.422 357.822 254.422C357.522 253.422 357.435 252.368 357.568 251.332L364.183 199.789C364.414 198.02 365.269 196.397 366.59 195.219C367.912 194.042 369.609 193.391 371.367 193.387H471.371C472.402 193.387 473.42 193.61 474.359 194.041C475.298 194.472 476.135 195.102 476.815 195.887C477.495 196.673 478.002 197.596 478.302 198.596C478.602 199.597 478.688 200.65 478.555 201.687L471.941 253.229C471.71 254.998 470.855 256.621 469.534 257.798C468.213 258.975 466.517 259.626 464.759 259.631H364.753C363.723 259.631 362.704 259.408 361.766 258.977C360.827 258.546 359.99 257.916 359.31 257.131ZM371.368 194.426C369.858 194.43 368.401 194.989 367.267 196C366.132 197.011 365.398 198.405 365.2 199.924L358.585 251.466C358.471 252.356 358.545 253.261 358.803 254.12C359.06 254.978 359.496 255.771 360.079 256.446C360.663 257.12 361.382 257.66 362.188 258.031C362.994 258.401 363.869 258.592 364.753 258.592H464.759C466.269 258.589 467.726 258.03 468.86 257.019C469.995 256.008 470.729 254.614 470.927 253.096L477.542 201.554C477.656 200.664 477.582 199.759 477.324 198.9C477.067 198.042 476.631 197.248 476.048 196.574C475.464 195.899 474.745 195.359 473.939 194.989C473.133 194.619 472.258 194.427 471.374 194.427L371.368 194.426Z" fill="#292A2E"/>
<path d="M378.953 110.928C378.953 110.928 373.05 104.971 372.986 93.1383C372.934 83.9762 380.319 90.9332 380.319 90.9332C380.319 90.9332 380.347 84.3358 384.911 85.6257C389.475 86.9155 391.164 94.0841 391.164 94.0841" fill="#0C0C0C"/>
<path d="M408.858 89.7266C408.858 89.7266 431.606 95.4462 418.975 126.028L416.913 125.883L412.729 125.588" fill="#0C0C0C"/>
<path d="M379.662 157.811C379.765 157.797 380.902 176.935 402.816 175.268C417.987 174.115 423.396 157.783 423.744 157.783C422.108 157.431 420.087 156.896 419.283 156.712C417.533 156.299 415.948 155.355 414.739 154.006C413.53 152.657 412.754 150.967 412.515 149.16C412.071 146.447 412.823 132.567 412.593 129.822L389.305 135.096C389.63 140.893 391.908 154.333 383.927 156.712C382.595 157.105 381.164 157.465 379.662 157.811Z" fill="#E98862"/>
<path opacity="0.52" d="M388.976 151.219C389.341 150.026 389.576 148.796 389.676 147.552C389.932 144.711 389.88 141.851 389.523 139.022C394.256 138.374 398.715 136.392 402.393 133.301C402.826 134.921 405.204 142.001 404.545 143.539C403.303 146.452 397.454 151.219 388.976 151.219Z" fill="#0C0C0C"/>
<path d="M392.459 145.637C401.673 146.074 413.356 141.752 415.205 129.238L416.874 117.946C418.723 105.431 413.744 94.2998 402.132 92.5329C390.519 90.7659 380.339 99.5907 378.49 112.105L377.75 117.104C377.526 118.825 377.418 120.56 377.426 122.296C377.415 126.884 377.415 133.862 379.803 138.914C382.057 143.684 386.572 145.356 392.459 145.637Z" fill="#E98862"/>
<path d="M389.782 133.591C387.892 133.416 386.069 132.793 384.46 131.772C384.425 131.752 384.394 131.726 384.37 131.694C384.345 131.662 384.327 131.626 384.316 131.587C384.306 131.548 384.303 131.507 384.308 131.467C384.314 131.427 384.327 131.388 384.348 131.353C384.368 131.318 384.395 131.288 384.428 131.264C384.46 131.241 384.497 131.224 384.536 131.214C384.575 131.205 384.615 131.204 384.654 131.211C384.693 131.219 384.731 131.234 384.764 131.256C388.243 133.368 391.628 133.6 394.557 131.928C394.616 131.892 394.677 131.86 394.74 131.831C394.812 131.803 394.892 131.806 394.962 131.838C395.033 131.869 395.088 131.927 395.117 132C395.146 132.072 395.146 132.154 395.117 132.226C395.088 132.298 395.033 132.357 394.962 132.388C394.939 132.399 394.901 132.421 394.848 132.452C393.309 133.334 391.545 133.731 389.782 133.591Z" fill="#0C0C0C"/>
<path d="M389.489 136.427C389.147 136.401 388.807 136.345 388.474 136.261C388.437 136.251 388.401 136.235 388.37 136.211C388.338 136.188 388.312 136.158 388.292 136.124C388.272 136.091 388.258 136.053 388.252 136.014C388.247 135.975 388.248 135.935 388.258 135.897C388.267 135.859 388.284 135.823 388.307 135.791C388.33 135.759 388.359 135.732 388.392 135.712C388.425 135.691 388.462 135.678 388.501 135.672C388.539 135.666 388.578 135.668 388.616 135.677C390.62 136.179 391.718 135.369 391.764 135.334C391.827 135.285 391.905 135.264 391.983 135.275C392.061 135.286 392.132 135.328 392.179 135.391C392.227 135.455 392.247 135.535 392.237 135.614C392.226 135.693 392.185 135.764 392.123 135.812C391.341 136.32 390.41 136.537 389.489 136.427Z" fill="#0C0C0C"/>
<path d="M381.801 117.568C382.6 117.568 383.247 116.911 383.247 116.101C383.247 115.29 382.6 114.633 381.801 114.633C381.002 114.633 380.354 115.29 380.354 116.101C380.354 116.911 381.002 117.568 381.801 117.568Z" fill="#0C0C0C"/>
<path d="M395.25 118.478C396.049 118.478 396.697 117.821 396.697 117.011C396.697 116.2 396.049 115.543 395.25 115.543C394.451 115.543 393.804 116.2 393.804 117.011C393.804 117.821 394.451 118.478 395.25 118.478Z" fill="#0C0C0C"/>
<path d="M413.92 132.941C417.449 133.477 420.876 130.082 421.406 126.501C421.935 122.92 419.365 120.51 415.837 119.973L413.663 122.096L410.886 132.479L413.92 132.941Z" fill="#E98862"/>
<path d="M411.181 126.688C411.181 126.688 412.382 108.782 407.228 106.95C403.797 105.73 394.548 109.622 386.824 106.985C383.444 105.831 380.034 106.245 379.474 107.861C379.253 108.501 378.369 98.739 384.771 92.313C389.869 87.1967 404.244 87.5501 410.432 90.32C427.565 97.9896 416.461 120.856 416.461 120.856L414.839 126.861L411.181 126.688Z" fill="#0C0C0C"/>
<path d="M388.211 129.107H388.188C387.051 128.937 385.161 128.524 385.285 127.66C385.388 126.944 388.441 119.509 388.789 118.664C388.803 118.626 388.824 118.592 388.851 118.563C388.878 118.534 388.911 118.51 388.947 118.494C388.983 118.478 389.022 118.47 389.062 118.47C389.101 118.469 389.14 118.477 389.177 118.493C389.213 118.508 389.246 118.531 389.273 118.559C389.301 118.588 389.323 118.622 389.337 118.66C389.351 118.697 389.358 118.737 389.357 118.777C389.355 118.817 389.346 118.856 389.329 118.892C387.975 122.185 385.936 127.259 385.865 127.746C385.947 127.967 387.094 128.343 388.272 128.52C388.346 128.532 388.413 128.572 388.459 128.633C388.505 128.693 388.526 128.769 388.518 128.845C388.51 128.921 388.473 128.99 388.416 129.04C388.359 129.089 388.285 129.114 388.21 129.11L388.211 129.107Z" fill="#0C0C0C"/>
<path d="M386.657 111.285C385.505 110.785 384.241 110.61 382.998 110.779C382.389 110.857 381.794 111.028 381.234 111.286C380.681 111.539 380.162 111.86 379.689 112.245C379.602 112.313 379.544 112.412 379.527 112.522C379.511 112.632 379.537 112.745 379.6 112.836C379.663 112.927 379.758 112.99 379.866 113.012C379.973 113.034 380.085 113.013 380.178 112.953L380.207 112.934C380.638 112.627 381.105 112.377 381.598 112.188C382.082 112.001 382.592 111.888 383.11 111.855C384.129 111.782 385.15 111.984 386.069 112.439L386.107 112.459C386.259 112.538 386.434 112.553 386.596 112.5C386.758 112.448 386.893 112.332 386.971 112.179C387.049 112.026 387.063 111.847 387.011 111.683C386.959 111.519 386.845 111.382 386.694 111.303L386.657 111.285Z" fill="#0C0C0C"/>
<path d="M395.036 113.193C396.008 112.87 397.047 112.814 398.047 113.03C398.555 113.135 399.044 113.317 399.498 113.571C399.961 113.827 400.39 114.14 400.775 114.504L400.8 114.527C400.883 114.6 400.991 114.637 401.102 114.631C401.212 114.626 401.315 114.577 401.391 114.495C401.466 114.413 401.507 114.305 401.506 114.193C401.504 114.081 401.46 113.974 401.382 113.895C400.966 113.448 400.495 113.056 399.982 112.729C399.463 112.395 398.897 112.142 398.304 111.978C397.096 111.638 395.82 111.634 394.611 111.968C394.447 112.014 394.308 112.125 394.225 112.275C394.142 112.425 394.12 112.603 394.166 112.769C394.212 112.935 394.321 113.076 394.469 113.161C394.618 113.245 394.793 113.267 394.956 113.22L394.994 113.208L395.036 113.193Z" fill="#0C0C0C"/>
<path d="M397.024 94.0988C398.356 90.3026 397.376 86.4807 394.834 85.5622C392.292 84.6438 389.151 86.9766 387.819 90.7728C386.486 94.569 387.467 98.3909 390.009 99.3094C392.551 100.228 395.692 97.895 397.024 94.0988Z" fill="#0C0C0C"/>
<path d="M237.847 460.587C237.847 460.587 235.1 475.03 221.772 475.835C208.444 476.64 211.334 487.414 211.334 487.414H262.268V461.594L237.847 460.587Z" fill="#A9F8FD"/>
<path d="M334.747 451.467C334.747 451.467 338.566 465.658 326.956 472.35C315.346 479.042 322.627 487.414 322.627 487.414L368.331 464.6L357.097 441.433L334.747 451.467Z" fill="#A9F8FD"/>
<path d="M363.054 447.459L324.512 324.09H394.374C408.408 324.09 414.258 312.015 414.258 297.777C414.258 283.539 400.462 271.057 386.429 271.057H292.14C283.581 271.057 273.984 276.368 269.287 283.628C264.589 290.888 265.858 302.138 269.262 310.107L330.981 462.202" fill="#262626"/>
<path opacity="0.8" d="M363.054 447.459L324.512 324.09H394.374C408.408 324.09 414.258 312.015 414.258 297.777C414.258 283.539 400.462 271.057 386.429 271.057H292.14C283.581 271.057 273.984 276.368 269.287 283.628C264.589 290.888 265.858 302.138 269.262 310.107L330.981 462.202" fill="#0A0A0A"/>
<path d="M265.197 474L329.64 324.09L414.258 324.085C434.085 322.507 443.166 311.482 442.877 297.247C442.592 283.192 435.578 269.31 421.788 269.31H307.74C297.537 269.522 289.51 280.963 285.725 290.578L232.15 464.823" fill="#262626"/>
<path d="M448.649 269.482C448.649 269.482 452.407 294.347 446.451 308.171C439.014 325.43 411.137 324.085 411.137 324.085L412.708 269.31L448.649 269.482Z" fill="#262626"/>
<path d="M283.301 268.993L343.073 256.425C345.564 255.902 347.884 254.749 349.819 253.074C351.754 251.399 353.242 249.256 354.144 246.843L377.654 183.986C378.37 182.099 378.711 180.088 378.659 178.067C378.606 176.046 378.16 174.056 377.348 172.211C376.535 170.365 375.37 168.701 373.922 167.313C372.473 165.925 370.768 164.842 368.906 164.124C367.043 163.407 365.059 163.07 363.068 163.134C361.076 163.197 359.117 163.658 357.302 164.492C355.487 165.326 353.852 166.515 352.492 167.991C351.131 169.468 350.071 171.203 349.373 173.096L328.808 228.079L277.163 238.939C277.163 238.939 282.266 269.21 283.301 268.993Z" fill="#A9F8FD"/>
<path d="M352.436 199.948C353.126 208.176 358.019 259.509 358.684 269.644H448.61C449.127 260.503 450.805 221.695 452.764 203.82C454.634 186.763 455.313 177.029 453.159 171.729C449.359 162.38 439.851 159.016 431.662 157.891C426.661 157.204 419.14 156.712 419.14 156.712C419.14 156.712 418.503 169.782 403.317 170.509C382.646 171.497 384.026 156.71 383.924 156.71C380.575 156.71 362.346 159.181 357.788 162.195C351.35 166.453 349.448 172.255 349.372 177.585C349.286 183.725 351.651 190.616 352.436 199.948Z" fill="#A9F8FD"/>
<path d="M355.97 241.893H355.992C356.06 241.887 356.122 241.854 356.166 241.802C356.21 241.749 356.231 241.681 356.225 241.612L353.891 213.157C353.889 213.123 353.88 213.09 353.865 213.059C353.85 213.028 353.829 213.001 353.803 212.978C353.777 212.956 353.747 212.94 353.715 212.929C353.683 212.919 353.649 212.916 353.615 212.92C353.581 212.923 353.549 212.932 353.519 212.948C353.489 212.963 353.462 212.985 353.441 213.011C353.419 213.037 353.402 213.067 353.392 213.1C353.382 213.132 353.378 213.166 353.381 213.201L355.714 241.654C355.72 241.72 355.749 241.78 355.796 241.825C355.844 241.869 355.906 241.893 355.97 241.893Z" fill="#0C0C0C"/>
<path d="M313.139 258.971L293.408 197.429C293.061 196.348 292.387 195.405 291.48 194.737C290.574 194.068 289.482 193.708 288.361 193.708H207.97C207.132 193.708 206.306 193.909 205.56 194.295C204.813 194.681 204.167 195.241 203.674 195.929C203.182 196.617 202.857 197.413 202.726 198.253C202.595 199.093 202.662 199.952 202.922 200.761L222.654 262.304C223 263.385 223.675 264.328 224.582 264.996C225.489 265.664 226.581 266.024 227.702 266.024H308.091C308.929 266.024 309.755 265.823 310.501 265.437C311.248 265.051 311.894 264.491 312.386 263.803C312.879 263.115 313.204 262.318 313.335 261.479C313.466 260.639 313.399 259.779 313.139 258.971Z" fill="#292A2E"/>
<path d="M313.139 258.971L293.408 197.429C293.061 196.348 292.387 195.405 291.48 194.737C290.574 194.068 289.482 193.708 288.361 193.708H207.97C207.132 193.708 206.306 193.909 205.56 194.295C204.813 194.681 204.167 195.241 203.674 195.929C203.182 196.617 202.857 197.413 202.726 198.253C202.595 199.093 202.662 199.952 202.922 200.761L222.654 262.304C223 263.385 223.675 264.328 224.582 264.996C225.489 265.664 226.581 266.024 227.702 266.024H308.091C308.929 266.024 309.755 265.823 310.501 265.437C311.248 265.051 311.894 264.491 312.386 263.803C312.879 263.115 313.204 262.318 313.335 261.479C313.466 260.639 313.399 259.779 313.139 258.971Z" fill="#292A2E"/>
<path d="M350.855 261.034H297.043C295.702 261.034 294.615 262.136 294.615 263.497V263.56C294.615 264.921 295.702 266.024 297.043 266.024H350.855C352.196 266.024 353.283 264.921 353.283 263.56V263.497C353.283 262.136 352.196 261.034 350.855 261.034Z" fill="#292A2E"/>
<path d="M350.855 261.034H297.043C295.702 261.034 294.615 262.136 294.615 263.497V263.56C294.615 264.921 295.702 266.024 297.043 266.024H350.855C352.196 266.024 353.283 264.921 353.283 263.56V263.497C353.283 262.136 352.196 261.034 350.855 261.034Z" fill="#292A2E"/>
<path d="M258.031 241.423C262.687 241.423 266.462 237.593 266.462 232.868C266.462 228.143 262.687 224.313 258.031 224.313C253.374 224.313 249.6 228.143 249.6 232.868C249.6 237.593 253.374 241.423 258.031 241.423Z" fill="white"/>
<path d="M317.637 244.554L331.067 239.778L329.139 239.643C328.518 239.587 327.94 239.293 327.524 238.822C327.107 238.35 326.883 237.736 326.896 237.102C326.914 236.776 326.997 236.457 327.141 236.164C327.284 235.871 327.485 235.612 327.731 235.4C327.976 235.189 328.262 235.03 328.57 234.935C328.878 234.839 329.202 234.808 329.523 234.843L353.283 237.405L352.666 245.153C352.474 247.559 351.579 249.853 350.094 251.739C348.609 253.625 346.603 255.019 344.333 255.741L334.043 258.993C333.512 259.173 332.935 259.161 332.412 258.959C331.888 258.757 331.45 258.377 331.17 257.885C330.927 257.435 330.832 256.918 330.899 256.409C330.967 255.9 331.192 255.427 331.543 255.057C331.512 255.034 331.487 255.002 331.472 254.966C331.46 254.932 331.456 254.895 331.461 254.858C331.466 254.822 331.48 254.788 331.502 254.758L329.607 255.362C329.015 255.563 328.37 255.53 327.802 255.267C327.234 255.005 326.786 254.533 326.547 253.948C326.352 253.418 326.348 252.834 326.536 252.301C326.723 251.767 327.09 251.318 327.572 251.032C327.549 251.02 327.529 251.004 327.513 250.984L326.734 251.232C326.202 251.413 325.624 251.402 325.1 251.2C324.575 250.999 324.136 250.619 323.856 250.125C323.561 249.579 323.486 248.939 323.647 248.339C323.807 247.738 324.19 247.224 324.716 246.903C324.712 246.887 324.709 246.871 324.709 246.854L319.116 248.844C318.839 248.942 318.545 248.985 318.252 248.968C317.958 248.951 317.671 248.876 317.406 248.747C316.871 248.486 316.461 248.02 316.265 247.452C316.068 246.884 316.103 246.26 316.36 245.717C316.617 245.175 317.076 244.758 317.636 244.559L317.637 244.554Z" fill="#E98862"/>
<path opacity="0.2" d="M324.931 247.072C324.957 247.072 324.983 247.067 325.007 247.058L330.417 245.062C330.444 245.052 330.47 245.036 330.491 245.016C330.513 244.996 330.53 244.972 330.542 244.945C330.555 244.918 330.562 244.888 330.563 244.859C330.564 244.829 330.56 244.799 330.55 244.771C330.539 244.744 330.524 244.718 330.504 244.696C330.484 244.674 330.46 244.657 330.434 244.644C330.407 244.632 330.379 244.624 330.349 244.623C330.32 244.622 330.291 244.627 330.263 244.637L324.853 246.633C324.804 246.651 324.762 246.686 324.736 246.732C324.71 246.778 324.7 246.832 324.709 246.885C324.719 246.937 324.746 246.985 324.786 247.019C324.826 247.053 324.877 247.072 324.929 247.072H324.931Z" fill="#0A0A0A"/>
<path opacity="0.2" d="M327.665 251.061C327.69 251.061 327.716 251.056 327.74 251.048L332.004 249.512C332.032 249.503 332.058 249.488 332.08 249.468C332.103 249.448 332.121 249.424 332.134 249.397C332.147 249.37 332.155 249.341 332.157 249.311C332.158 249.28 332.154 249.25 332.144 249.222C332.134 249.194 332.119 249.167 332.099 249.145C332.079 249.123 332.055 249.105 332.028 249.092C332.001 249.08 331.972 249.072 331.942 249.071C331.913 249.07 331.883 249.075 331.855 249.086L327.591 250.622C327.541 250.639 327.5 250.674 327.473 250.72C327.446 250.766 327.437 250.82 327.446 250.873C327.454 250.925 327.481 250.973 327.522 251.007C327.562 251.042 327.612 251.061 327.665 251.061Z" fill="#0A0A0A"/>
<path opacity="0.2" d="M331.681 255.114C331.708 255.114 331.735 255.109 331.76 255.099L333.758 254.326C333.813 254.305 333.857 254.262 333.882 254.207C333.906 254.153 333.907 254.09 333.886 254.034C333.865 253.978 333.823 253.933 333.769 253.909C333.715 253.884 333.654 253.883 333.598 253.904L331.601 254.677C331.552 254.696 331.512 254.732 331.486 254.778C331.461 254.824 331.452 254.877 331.462 254.929C331.471 254.981 331.498 255.028 331.538 255.062C331.578 255.096 331.628 255.114 331.68 255.114H331.681Z" fill="#0A0A0A"/>
<path d="M342.766 232.82L399.107 232.781L420.422 180.027L452.217 193.591L425.623 256.203L425.364 256.826C424.063 259.869 421.871 262.433 419.086 264.171C416.301 265.908 413.057 266.736 409.793 266.54L341.914 262.471L342.766 232.82Z" fill="#A9F8FD"/>
<path d="M410.728 266.827C413.886 266.821 416.975 265.882 419.616 264.125C422.257 262.367 424.336 259.866 425.599 256.929L425.859 256.305L448.518 202.956L448.048 202.749L425.128 256.725C423.842 259.715 421.684 262.233 418.945 263.941C416.207 265.65 413.018 266.466 409.808 266.281L342.177 262.227L343.015 233.082L399.279 233.043L415.669 192.481L415.194 192.284L398.936 232.524L342.518 232.562L341.651 262.716L341.9 262.731L409.779 266.8C410.095 266.818 410.415 266.827 410.728 266.827Z" fill="#0C0C0C"/>
<path d="M123.348 271.006L101.756 487.897L102.775 488.002L124.367 271.111L123.348 271.006Z" fill="#494949"/>
<path d="M473.395 271.004L472.376 271.108L493.983 487.998L495.003 487.893L473.395 271.004Z" fill="#494949"/>
<path d="M384.122 271.004L383.103 271.108L404.71 487.998L405.729 487.893L384.122 271.004Z" fill="#494949"/>
<path d="M34.0749 271.005L12.4824 487.896L13.5016 488.001L35.0941 271.11L34.0749 271.005Z" fill="#494949"/>
<path d="M14.6033 275.315L491.452 275.315C493.769 275.315 495.648 273.409 495.648 271.057C495.648 268.705 493.769 266.799 491.452 266.799L14.6033 266.799C12.2855 266.799 10.4065 268.705 10.4065 271.057C10.4065 273.409 12.2855 275.315 14.6033 275.315Z" fill="#292A2E"/>
<path opacity="0.8" d="M14.6033 275.315L491.452 275.315C493.769 275.315 495.648 273.409 495.648 271.057C495.648 268.705 493.769 266.799 491.452 266.799L14.6033 266.799C12.2855 266.799 10.4065 268.705 10.4065 271.057C10.4065 273.409 12.2855 275.315 14.6033 275.315Z" fill="white"/>
<path d="M9.89355 271.057C9.89437 269.79 10.3908 268.575 11.2737 267.679C12.1566 266.783 13.3539 266.28 14.6026 266.279H491.449C492.698 266.279 493.896 266.782 494.779 267.678C495.662 268.574 496.158 269.79 496.158 271.057C496.158 272.324 495.662 273.539 494.779 274.435C493.896 275.331 492.698 275.835 491.449 275.835H14.6026C13.3539 275.834 12.1566 275.33 11.2737 274.434C10.3908 273.539 9.89437 272.324 9.89355 271.057ZM14.6026 267.318C13.6254 267.318 12.6882 267.712 11.9971 268.413C11.3061 269.114 10.9179 270.065 10.9179 271.057C10.9179 272.048 11.3061 272.999 11.9971 273.7C12.6882 274.401 13.6254 274.795 14.6026 274.795H491.449C492.427 274.795 493.364 274.401 494.055 273.7C494.746 272.999 495.134 272.048 495.134 271.057C495.134 270.065 494.746 269.114 494.055 268.413C493.364 267.712 492.427 267.318 491.449 267.318H14.6026Z" fill="#292A2E"/>
<path d="M14.6028 275.315L398.765 275.315C401.083 275.315 402.962 273.409 402.962 271.057C402.962 268.705 401.083 266.799 398.765 266.799L14.6028 266.799C12.2849 266.799 10.4059 268.705 10.4059 271.057C10.4059 273.409 12.2849 275.315 14.6028 275.315Z" fill="white"/>
<path d="M9.89355 271.057C9.89437 269.79 10.3908 268.575 11.2737 267.679C12.1566 266.783 13.3539 266.28 14.6026 266.279H398.765C400.014 266.279 401.212 266.782 402.095 267.678C402.978 268.574 403.474 269.79 403.474 271.057C403.474 272.324 402.978 273.539 402.095 274.435C401.212 275.331 400.014 275.835 398.765 275.835H14.6026C13.3539 275.834 12.1566 275.33 11.2737 274.434C10.3908 273.539 9.89437 272.324 9.89355 271.057ZM14.6026 267.318C13.6254 267.318 12.6882 267.712 11.9971 268.413C11.3061 269.114 10.9179 270.065 10.9179 271.057C10.9179 272.048 11.3061 272.999 11.9971 273.7C12.6882 274.401 13.6254 274.795 14.6026 274.795H398.765C399.743 274.795 400.68 274.401 401.371 273.7C402.062 272.999 402.45 272.048 402.45 271.057C402.45 270.065 402.062 269.114 401.371 268.413C400.68 267.712 399.743 267.318 398.765 267.318H14.6026Z" fill="#292A2E"/>
<path d="M69.6747 446.307C69.6747 446.307 59.9754 460.791 68.572 471.219C77.1685 481.647 67.4267 486.923 67.4267 486.923L32.3613 449.189L50.9404 431.413L69.6747 446.307Z" fill="#A9F8FD"/>
<path d="M120.576 213.423C120.576 213.423 153.317 327.682 145.6 344.384C138.014 360.806 68.7721 456.736 68.7721 456.736L43.8711 434.718L105.456 333.382C105.456 333.382 87.2257 274.862 77.3697 244.172C71.4283 225.671 61.4314 226.261 60.4819 206.827L120.576 213.423Z" fill="#262626"/>
<path d="M84.3238 342.227L92.423 332.869L90.3149 387.802L81.2881 396.508L84.3238 342.227Z" fill="#0A0A0A"/>
<path d="M82.9823 261.761C82.9823 261.761 79.1045 238.406 83.2517 243.408C96.7371 259.675 98.0795 309.73 98.0795 309.73L82.9823 261.761Z" fill="#0A0A0A"/>
<path d="M105.638 459.374C105.638 459.374 108.394 473.868 121.772 474.676C135.15 475.483 132.247 486.295 132.247 486.295H81.1309V460.384L105.638 459.374Z" fill="#A9F8FD"/>
<path d="M29.3221 210.56C29.3221 210.56 29.0957 209.492 28.9636 215.737C28.8688 220.146 27.1038 235.754 33.206 260.371C44.637 306.494 78.8768 468.624 78.8768 468.624L112.463 468.338L80.7898 209.143L29.3221 210.56Z" fill="#262626"/>
<path d="M28.802 210.747L28.6924 210.753C28.6924 210.753 28.7713 208.606 28.802 210.747Z" fill="#333333"/>
<path d="M212.656 108.581C212.454 108.175 212.132 107.843 211.736 107.63C211.34 107.417 210.888 107.334 210.444 107.393C210.448 107.353 210.439 107.312 210.419 107.277C210.398 107.25 210.371 107.229 210.34 107.217C210.309 107.204 210.275 107.199 210.241 107.204L211.742 106.113C212.191 105.801 212.513 105.335 212.649 104.801C212.786 104.267 212.727 103.7 212.485 103.207C212.229 102.727 211.807 102.36 211.3 102.178C210.793 101.996 210.237 102.012 209.741 102.222C209.745 102.201 209.73 102.18 209.727 102.158L210.342 101.71C210.763 101.414 211.072 100.98 211.214 100.481C211.356 99.981 211.324 99.4469 211.123 98.9686C210.99 98.6715 210.795 98.4078 210.55 98.1966C210.305 97.9855 210.017 97.8321 209.707 97.7476C209.396 97.6631 209.071 97.6495 208.755 97.7079C208.439 97.7663 208.139 97.8951 207.878 98.0852L206.456 99.1199C206.452 99.111 206.456 99.1011 206.45 99.0934C206.444 99.0856 206.429 99.0824 206.421 99.0736C206.748 98.7008 206.94 98.2264 206.966 97.7283C206.991 97.2302 206.85 96.7379 206.564 96.3323C205.892 95.2357 204.342 95.4597 203.422 96.1285L195.049 101.997L196.545 99.4405C196.847 98.9485 196.953 98.3589 196.842 97.7906C196.732 97.2224 196.413 96.7179 195.95 96.379C195.705 96.2126 195.429 96.0986 195.139 96.0439C194.849 95.9892 194.551 95.9951 194.264 96.0611C193.976 96.1271 193.705 96.2518 193.466 96.4277C193.228 96.6037 193.027 96.827 192.877 97.0842L184.709 111.041C183.75 112.679 183.458 114.631 183.896 116.483C184.333 118.336 185.465 119.942 187.051 120.961C188.89 122.143 191.036 122.74 193.212 122.677C195.388 122.613 197.496 121.892 199.266 120.605L211.911 111.409C212.331 111.092 212.633 110.64 212.768 110.127C212.903 109.613 212.864 109.069 212.656 108.581Z" fill="#E98862"/>
<g opacity="0.25">
<path d="M198.172 104.917C198.203 104.96 198.249 104.99 198.3 104.998C198.352 105.007 198.405 104.995 198.448 104.965L206.404 99.374C206.425 99.3587 206.444 99.3393 206.458 99.3169C206.472 99.2944 206.482 99.2693 206.487 99.2431C206.491 99.2168 206.491 99.1898 206.485 99.1637C206.48 99.1377 206.469 99.1129 206.454 99.091C206.439 99.069 206.42 99.0503 206.398 99.0359C206.376 99.0214 206.351 99.0115 206.325 99.0068C206.299 99.002 206.273 99.0025 206.247 99.0082C206.221 99.0138 206.197 99.0246 206.175 99.0398L198.219 104.631C198.198 104.646 198.179 104.666 198.165 104.688C198.151 104.71 198.141 104.735 198.136 104.762C198.131 104.788 198.132 104.815 198.137 104.841C198.143 104.867 198.153 104.892 198.168 104.914L198.172 104.917Z" fill="#0C0C0C"/>
</g>
<g opacity="0.25">
<path d="M200.505 108.546C200.536 108.589 200.582 108.618 200.633 108.626C200.685 108.635 200.738 108.623 200.781 108.593L209.66 102.353C209.681 102.338 209.7 102.319 209.714 102.296C209.728 102.274 209.738 102.249 209.743 102.223C209.748 102.197 209.747 102.17 209.742 102.143C209.736 102.117 209.726 102.093 209.711 102.071C209.679 102.028 209.633 101.999 209.582 101.989C209.53 101.979 209.477 101.99 209.432 102.019L200.553 108.259C200.532 108.274 200.513 108.293 200.499 108.315C200.485 108.338 200.475 108.363 200.47 108.389C200.465 108.415 200.466 108.442 200.471 108.468C200.477 108.495 200.487 108.519 200.502 108.541L200.505 108.546Z" fill="#0C0C0C"/>
</g>
<g opacity="0.25">
<path d="M203.011 112.49C203.042 112.533 203.088 112.562 203.139 112.571C203.191 112.58 203.244 112.568 203.287 112.538L210.369 107.561C210.413 107.53 210.443 107.483 210.452 107.43C210.462 107.377 210.45 107.322 210.42 107.278C210.389 107.233 210.343 107.203 210.291 107.193C210.238 107.184 210.185 107.196 210.141 107.226L203.058 112.203C203.037 112.219 203.018 112.238 203.004 112.26C202.99 112.283 202.98 112.308 202.975 112.334C202.97 112.36 202.971 112.387 202.976 112.413C202.982 112.439 202.992 112.464 203.007 112.486L203.011 112.49Z" fill="#0C0C0C"/>
</g>
<path d="M179.886 107.862L155.887 149.333L126.604 110.362L102.283 132.607L143.815 187.181L144.088 187.569C145.75 189.879 147.965 191.722 150.523 192.924C153.081 194.125 155.899 194.646 158.711 194.438C161.522 194.229 164.235 193.297 166.594 191.73C168.952 190.163 170.879 188.013 172.192 185.482L206.318 122.777L179.886 107.862Z" fill="#A9F8FD"/>
<path d="M153.534 154.32C153.482 154.32 153.431 154.306 153.385 154.281C153.34 154.255 153.302 154.217 153.274 154.172C153.247 154.127 153.232 154.075 153.23 154.023C153.228 153.97 153.239 153.917 153.263 153.87L155.615 149.193C155.658 149.13 155.721 149.085 155.793 149.066C155.866 149.047 155.943 149.056 156.009 149.091C156.076 149.125 156.128 149.183 156.155 149.254C156.183 149.325 156.184 149.403 156.158 149.474L153.806 154.152C153.78 154.202 153.741 154.245 153.693 154.274C153.645 154.304 153.59 154.32 153.534 154.32Z" fill="#0C0C0C"/>
<path d="M124.915 149.097L124.183 162.195L124.791 162.23L125.524 149.132L124.915 149.097Z" fill="#0C0C0C"/>
<path d="M47.5862 54.301C47.5862 54.301 46.4593 68.8808 43.166 74.1364C33.6777 89.2671 30.7823 106.38 40.0089 115.446C49.2354 124.513 108.724 125.336 113.466 104.787C117.458 87.4872 109.337 85.5269 107.519 71.1955C106.696 64.7109 104.385 51.1065 104.385 51.1065" fill="#0A0A0A"/>
<path d="M98.3219 101.503C98.2194 101.489 97.0793 120.676 75.1116 119.003C59.9032 117.847 54.4801 101.475 54.1318 101.475C55.7708 101.122 58.5326 100.608 59.2609 100.213C61.6559 98.9073 64.6189 97.5489 65.3907 92.8301C65.8358 90.1106 65.0809 76.197 65.3134 73.4458L88.66 78.7326C88.3337 84.5442 86.0509 98.0171 94.0528 100.404C95.3819 100.795 96.816 101.158 98.3219 101.503Z" fill="#E98862"/>
<path opacity="0.52" d="M88.9848 94.8948C88.6195 93.699 88.384 92.4663 88.2826 91.2186C88.0264 88.3713 88.078 85.5041 88.4362 82.6682C83.6914 82.0181 79.2213 80.0309 75.5337 76.9324C75.1004 78.5569 72.7167 85.6543 73.3764 87.1983C74.6256 90.1163 80.486 94.8948 88.9848 94.8948Z" fill="#0C0C0C"/>
<path d="M85.8908 88.8561C76.6775 89.6512 64.8122 85.7764 62.4874 73.3117L60.3874 62.0652C58.0626 49.6005 62.6303 38.2573 74.1965 36.0362C85.7632 33.815 96.2933 42.2594 98.6181 54.7241L99.5467 59.7032C100.44 64.4859 102.33 87.4368 85.8908 88.8561Z" fill="#E98862"/>
<path d="M96.2518 60.2462C97.0526 60.2462 97.7018 59.5875 97.7018 58.775C97.7018 57.9625 97.0526 57.3038 96.2518 57.3038C95.4509 57.3038 94.8018 57.9625 94.8018 58.775C94.8018 59.5875 95.4509 60.2462 96.2518 60.2462Z" fill="#0C0C0C"/>
<path d="M81.3973 62.259C82.1981 62.259 82.8473 61.6003 82.8473 60.7878C82.8473 59.9752 82.1981 59.3165 81.3973 59.3165C80.5965 59.3165 79.9473 59.9752 79.9473 60.7878C79.9473 61.6003 80.5965 62.259 81.3973 62.259Z" fill="#0C0C0C"/>
<path d="M89.5492 71.5734C89.5568 71.5728 89.5643 71.5718 89.5718 71.5703C90.0402 71.4767 90.5033 71.3569 90.9588 71.2117C91.639 70.9898 92.5297 70.6224 92.4139 69.9992C92.2818 69.2888 88.9346 61.9961 88.5535 61.1646C88.537 61.1287 88.5137 61.0965 88.4849 61.0698C88.4562 61.043 88.4225 61.0223 88.3858 61.0088C88.3491 60.9953 88.3102 60.9893 88.2712 60.991C88.2322 60.9928 88.194 61.0023 88.1586 61.0191C88.1233 61.0358 88.0915 61.0595 88.0652 61.0887C88.0389 61.1179 88.0185 61.152 88.0051 61.1893C87.9918 61.2265 87.9859 61.266 87.9876 61.3055C87.9893 61.3451 87.9987 61.3839 88.0152 61.4197C89.4427 64.5259 91.7409 69.6334 91.83 70.1115C91.7532 70.3329 90.6243 70.7543 89.4611 70.9778C89.3861 70.9928 89.3196 71.0365 89.2755 71.0999C89.2315 71.1634 89.2132 71.2416 89.2246 71.3183C89.2359 71.3951 89.276 71.4644 89.3365 71.5119C89.397 71.5594 89.4732 71.5814 89.5492 71.5734Z" fill="#0C0C0C"/>
<path d="M87.8366 76.9547C89.7231 76.7067 91.5258 76.0125 93.0994 74.9279C93.1646 74.8839 93.21 74.8156 93.2258 74.7378C93.2416 74.66 93.2265 74.579 93.1838 74.5125C93.1411 74.4459 93.0742 74.3992 92.9976 74.3824C92.9211 74.3656 92.8412 74.3801 92.7752 74.4228C89.3701 76.6736 85.9866 77.0379 82.9924 75.4757C82.9318 75.4425 82.8696 75.4125 82.8059 75.3858C82.732 75.3594 82.6508 75.3637 82.58 75.3977C82.5091 75.4318 82.4544 75.4929 82.4278 75.5677C82.4012 75.6425 82.4048 75.7249 82.4378 75.7971C82.4708 75.8692 82.5306 75.9252 82.6041 75.9528C82.6277 75.9626 82.6666 75.9839 82.7209 76.0125C84.2958 76.836 86.077 77.164 87.8366 76.9547Z" fill="#0C0C0C"/>
<path d="M51.1366 65.9846L61.5053 64.0561C69.3576 60.834 71.7327 47.0389 71.7327 47.0389C71.7327 47.0389 81.2706 56.4713 104.386 51.1065C104.386 51.1065 99.7509 18.399 65.6023 27.9093C54.5903 30.9754 46.6882 42.2344 47.6726 57.2815C48.3626 67.8264 51.1366 65.9846 51.1366 65.9846Z" fill="#0A0A0A"/>
<path d="M63.9138 76.9713C60.3986 77.6469 56.8379 74.3781 56.1726 70.8115C55.5072 67.2449 57.9898 64.7311 61.5049 64.0555L63.7616 66.0974L66.9372 76.3903L63.9138 76.9713Z" fill="#E98862"/>
<path d="M90.6723 55.2037C91.6984 54.5318 92.8837 54.1523 94.104 54.1051C94.7043 54.0781 95.3053 54.1426 95.8869 54.2963C96.4627 54.4466 97.0177 54.6697 97.5387 54.9605C97.6097 54.9986 97.6634 55.0631 97.6885 55.1406C97.7137 55.218 97.7082 55.3023 97.6733 55.3757C97.6384 55.4492 97.5768 55.506 97.5015 55.5343C97.4261 55.5626 97.3429 55.5602 97.2693 55.5275L97.2467 55.5171C96.7652 55.2771 96.2558 55.0994 95.7307 54.988C95.2116 54.8752 94.6787 54.8428 94.1501 54.8919C93.101 54.9809 92.0937 55.3499 91.2306 55.9614L91.2029 55.9822C91.1026 56.0496 90.9805 56.075 90.8621 56.0532C90.7437 56.0313 90.6383 55.9638 90.5678 55.8649C90.4973 55.7659 90.4673 55.6431 90.484 55.5222C90.5007 55.4013 90.5629 55.2917 90.6574 55.2162L90.6723 55.2037Z" fill="#0C0C0C"/>
<path d="M81.4246 57.4129C80.4025 57.1588 79.3323 57.1838 78.3228 57.4852C77.8124 57.6333 77.327 57.8588 76.883 58.154C76.4328 58.4504 76.0212 58.8031 75.6579 59.2038L75.6415 59.2204C75.5846 59.2782 75.5078 59.3114 75.4273 59.3129C75.3469 59.3143 75.2689 59.284 75.2101 59.2283C75.1512 59.1726 75.1159 59.0959 75.1117 59.0143C75.1076 58.9328 75.1348 58.8527 75.1877 58.7911C75.5697 58.329 76.0077 57.9176 76.4912 57.5668C76.9787 57.2103 77.5162 56.93 78.0856 56.7352C79.2399 56.3326 80.4796 56.2522 81.675 56.5024C81.7959 56.5288 81.9015 56.6029 81.9686 56.7083C82.0357 56.8137 82.0588 56.9418 82.0328 57.0645C82.0068 57.1871 81.9338 57.2943 81.8299 57.3624C81.7261 57.4305 81.5998 57.4539 81.4789 57.4275L81.4599 57.4228L81.4246 57.4129Z" fill="#0C0C0C"/>
<path d="M88.2375 79.7849C88.5794 79.7448 88.9173 79.6753 89.2475 79.5771C89.285 79.5661 89.3201 79.5478 89.3506 79.5231C89.3811 79.4984 89.4065 79.4679 89.4254 79.4332C89.4443 79.3986 89.4562 79.3605 89.4606 79.3212C89.465 79.2818 89.4617 79.242 89.4509 79.2039C89.4401 79.1659 89.422 79.1304 89.3977 79.0994C89.3734 79.0685 89.3433 79.0427 89.3091 79.0235C89.275 79.0043 89.2374 78.9922 89.1987 78.9878C89.1599 78.9833 89.1206 78.9867 89.0831 78.9976C87.0953 79.5781 85.9649 78.809 85.9173 78.7757C85.8528 78.7297 85.7729 78.7117 85.6952 78.7255C85.6176 78.7393 85.5485 78.7838 85.5032 78.8493C85.4579 78.9147 85.4401 78.9958 85.4537 79.0746C85.4673 79.1534 85.5112 79.2235 85.5757 79.2694C86.3776 79.7481 87.3182 79.9303 88.2375 79.7849Z" fill="#0C0C0C"/>
<path d="M61.5272 63.9215L61.4248 63.6304C74.5619 58.8452 71.3495 45.7646 71.3157 45.6332L71.6102 45.5547C71.6445 45.6898 74.9327 59.0406 61.5272 63.9215Z" fill="#0C0C0C"/>
<path opacity="0.1" d="M80.2277 72.4918C81.7445 72.3263 82.8771 71.2769 82.7574 70.1479C82.6376 69.019 81.311 68.2381 79.7942 68.4037C78.2774 68.5693 77.1449 69.6187 77.2646 70.7476C77.3843 71.8765 78.711 72.6574 80.2277 72.4918Z" fill="#0C0C0C"/>
<path opacity="0.1" d="M96.282 68.173C96.4049 69.3002 97.731 70.0803 99.2476 69.9166C99.5097 69.8879 99.7682 69.8317 100.019 69.7487C100.104 68.4074 100.121 67.1165 100.098 65.9207C99.6789 65.8094 99.2428 65.7784 98.8122 65.8292C97.2951 65.9924 96.1632 67.0396 96.282 68.173Z" fill="#0C0C0C"/>
<path d="M125.615 143.745C124.923 151.993 121.557 203.453 120.892 213.613H28.9921C28.4742 204.449 26.3599 164.382 24.3957 146.463C22.5211 129.365 18.8426 120.803 21.5387 115.749C25.9435 107.486 37.9845 102.714 46.1939 101.586C51.2072 100.897 58.7471 100.404 58.7471 100.404C58.7471 100.404 59.3858 113.507 74.608 114.237C95.3306 115.229 93.9467 100.404 94.0496 100.404C97.4065 100.404 116.586 102.56 121.276 105.382C134.061 113.061 127.084 126.264 125.615 143.745Z" fill="#A9F8FD"/>
<path d="M182.755 149.506L174.27 191.352C174.097 192.202 173.643 192.966 172.983 193.517C172.322 194.068 171.496 194.373 170.641 194.381L112.212 194.885C111.654 194.89 111.103 194.768 110.598 194.528C110.093 194.289 109.647 193.938 109.293 193.501C108.939 193.064 108.686 192.553 108.552 192.004C108.418 191.455 108.407 190.883 108.519 190.329L117.005 148.482C117.177 147.632 117.631 146.868 118.292 146.317C118.952 145.766 119.779 145.461 120.634 145.454L179.063 144.949C179.62 144.944 180.171 145.066 180.676 145.306C181.181 145.545 181.627 145.896 181.981 146.333C182.335 146.77 182.588 147.282 182.722 147.83C182.856 148.379 182.867 148.952 182.755 149.506Z" fill="#292A2E"/>
<path d="M128.272 179.23C128.303 179.781 128.137 180.325 127.804 180.762C127.471 181.198 126.994 181.498 126.46 181.606L124.662 182.008C124.694 182.019 124.723 182.037 124.747 182.062C124.77 182.087 124.787 182.117 124.796 182.15C124.8 182.189 124.792 182.228 124.772 182.261C125.204 182.385 125.588 182.642 125.87 182.996C126.152 183.351 126.318 183.786 126.345 184.241C126.347 184.771 126.173 185.287 125.851 185.704C125.53 186.122 125.078 186.417 124.571 186.543L109.382 189.964C108.605 190.141 107.812 190.23 107.016 190.23C105.243 190.23 103.497 189.792 101.928 188.954C100.359 188.117 99.0144 186.905 98.01 185.423C96.9449 183.855 96.5248 181.927 96.8391 180.049C97.1534 178.172 98.1773 176.493 99.693 175.369L112.613 165.786C112.898 165.575 113.228 165.437 113.577 165.384L112.388 171.243L112.705 171.169L112.772 171.156L122.681 169.108C123.784 168.861 125.296 169.269 125.491 170.544C125.596 171.032 125.535 171.541 125.318 171.989C125.101 172.437 124.741 172.798 124.296 173.012C124.302 173.018 124.314 173.025 124.314 173.037C124.314 173.049 124.308 173.056 124.308 173.068L126.022 172.684C126.335 172.614 126.66 172.615 126.973 172.687C127.286 172.759 127.58 172.901 127.832 173.102C128.085 173.304 128.29 173.559 128.434 173.851C128.577 174.142 128.655 174.462 128.662 174.788C128.662 175.308 128.484 175.812 128.16 176.214C127.836 176.617 127.384 176.893 126.882 176.996L126.143 177.163C126.138 177.188 126.143 177.215 126.132 177.231C126.669 177.235 127.186 177.442 127.582 177.812C127.977 178.181 128.223 178.687 128.272 179.23Z" fill="#E98862"/>
<g opacity="0.25">
<path d="M114.445 175.099C114.456 175.151 114.487 175.196 114.531 175.225C114.575 175.255 114.629 175.265 114.68 175.255L124.161 173.28C124.213 173.269 124.258 173.237 124.288 173.192C124.317 173.147 124.327 173.092 124.316 173.04C124.306 172.987 124.275 172.941 124.23 172.911C124.186 172.881 124.132 172.871 124.08 172.882L114.599 174.856C114.548 174.868 114.503 174.899 114.474 174.944C114.445 174.989 114.435 175.044 114.446 175.096L114.445 175.099Z" fill="#0C0C0C"/>
</g>
<g opacity="0.25">
<path d="M115.187 179.365C115.199 179.417 115.23 179.462 115.274 179.491C115.318 179.519 115.371 179.529 115.422 179.519L126.003 177.317C126.054 177.306 126.099 177.274 126.128 177.229C126.157 177.184 126.167 177.13 126.156 177.077C126.144 177.025 126.113 176.98 126.069 176.951C126.025 176.922 125.971 176.911 125.92 176.921L115.339 179.123C115.288 179.134 115.243 179.166 115.214 179.211C115.185 179.256 115.175 179.31 115.186 179.363L115.187 179.365Z" fill="#0C0C0C"/>
</g>
<g opacity="0.25">
<path d="M115.964 183.991C115.975 184.043 116.006 184.089 116.05 184.118C116.095 184.147 116.148 184.158 116.2 184.147L124.639 182.391C124.665 182.386 124.69 182.376 124.712 182.361C124.734 182.346 124.753 182.327 124.768 182.304C124.783 182.282 124.793 182.257 124.798 182.23C124.803 182.204 124.803 182.177 124.798 182.15C124.792 182.124 124.782 182.099 124.767 182.077C124.752 182.055 124.733 182.036 124.711 182.021C124.688 182.006 124.664 181.996 124.637 181.991C124.611 181.986 124.585 181.987 124.559 181.993L116.119 183.749C116.067 183.76 116.022 183.792 115.993 183.837C115.964 183.882 115.954 183.936 115.965 183.989L115.964 183.991Z" fill="#0C0C0C"/>
</g>
<path d="M108.441 196.062L26.0372 211.171C23.4658 211.455 20.8646 211.131 18.4376 210.223C16.0106 209.316 13.8238 207.85 12.0489 205.941C10.2739 204.032 8.95913 201.731 8.20759 199.22C7.45605 196.709 7.28822 194.055 7.71728 191.467L19.2538 121.893C19.9907 117.451 22.4366 113.487 26.0536 110.875C27.8445 109.581 29.869 108.658 32.0115 108.158C34.154 107.659 36.3726 107.592 38.5405 107.962C40.7084 108.332 42.7832 109.132 44.6465 110.316C46.5097 111.5 48.1249 113.044 49.3999 114.861C50.6748 116.679 51.5845 118.733 52.0771 120.907C52.5696 123.08 52.6353 125.331 52.2704 127.531L44.4063 175.423L104.82 167.725L108.441 196.062Z" fill="#A9F8FD"/>
<path d="M26.037 211.48C25.964 211.475 25.8953 211.443 25.8433 211.391C25.7912 211.339 25.7592 211.27 25.753 211.196C25.7469 211.122 25.7669 211.048 25.8096 210.988C25.8522 210.927 25.9147 210.884 25.9858 210.867L108.104 195.81L104.557 168.071L44.4424 175.731C44.3956 175.737 44.348 175.731 44.3035 175.715C44.259 175.699 44.2188 175.673 44.1863 175.638C44.1533 175.603 44.1288 175.561 44.1148 175.515C44.1007 175.469 44.0975 175.421 44.1054 175.373L49.1059 144.763C49.112 144.723 49.126 144.685 49.1471 144.65C49.1682 144.615 49.1959 144.585 49.2286 144.561C49.2613 144.538 49.2983 144.521 49.3375 144.512C49.3767 144.503 49.4172 144.502 49.4568 144.509C49.4963 144.516 49.5341 144.53 49.5681 144.552C49.6021 144.573 49.6316 144.601 49.6548 144.635C49.6781 144.668 49.6947 144.705 49.7037 144.745C49.7127 144.784 49.7139 144.825 49.7072 144.865L44.7733 175.066L104.782 167.419C104.862 167.41 104.942 167.432 105.006 167.482C105.07 167.532 105.111 167.605 105.122 167.686L108.745 196.023C108.754 196.101 108.734 196.181 108.688 196.244C108.642 196.308 108.574 196.352 108.497 196.367L26.0918 211.476C26.0737 211.479 26.0553 211.48 26.037 211.48Z" fill="#0C0C0C"/>
<path d="M44.3574 175.119L39.0566 175.98L39.1531 176.591L44.4538 175.73L44.3574 175.119Z" fill="#0C0C0C"/>
<path d="M323.662 47.2328C323.669 40.941 322.435 34.7113 320.034 28.9103C317.633 23.1094 314.113 17.8543 309.68 13.4544C305.248 9.05448 299.992 5.5986 294.224 3.29014C288.455 0.981668 282.29 -0.132756 276.091 0.0124437C250.923 0.586698 230.594 21.7749 230.666 47.3175C230.678 53.9108 232.056 60.4279 234.71 66.4459C237.365 72.464 241.237 77.8486 246.075 82.2503C256.485 91.7507 262.665 105.113 262.648 119.319V119.371L291.515 119.405V119.353C291.531 105.165 297.709 91.8094 308.137 82.3542C313.02 77.942 316.927 72.5317 319.602 66.4786C322.278 60.4256 323.661 53.8667 323.662 47.2328Z" fill="#F8E859"/>
<path d="M291.076 51.9167C290.598 51.2931 289.767 50.9054 288.608 50.7734C286.643 50.5505 284.4 51.6797 282.473 53.8801L282.286 54.088L282.14 53.852C281.882 53.4266 281.587 53.0248 281.26 52.651C279.872 51.0743 277.372 49.4643 273.321 50.7329C271.96 51.135 270.708 51.8489 269.661 52.8194L269.52 52.9545L269.379 52.8194C269.055 52.52 268.703 52.2532 268.328 52.0227C266.051 50.6149 263.513 50.9522 261.785 51.4833C261.306 51.6316 260.897 51.9526 260.634 52.3858C260.372 52.8189 260.275 53.3345 260.361 53.8354L271.676 119.452C271.695 119.562 271.756 119.66 271.846 119.725C271.936 119.789 272.048 119.815 272.156 119.796C272.265 119.777 272.362 119.715 272.425 119.623C272.489 119.532 272.514 119.418 272.495 119.308L261.178 53.694C261.126 53.3955 261.183 53.088 261.339 52.8295C261.496 52.571 261.739 52.3794 262.025 52.2909C263.591 51.8107 265.88 51.4984 267.895 52.7461C268.226 52.949 268.536 53.1847 268.821 53.4498L268.963 53.5807L268.846 53.7325C267.882 55.0232 267.344 56.5896 267.309 58.2086C267.201 60.9567 268.377 63.7048 269.93 64.3284C270.23 64.453 270.558 64.4918 270.878 64.4406C271.198 64.3894 271.498 64.2501 271.745 64.0379C272.273 63.5993 273.077 62.4404 272.56 59.6122C272.099 57.1214 271.306 55.1429 270.196 53.72L270.076 53.5683L270.217 53.4332C271.175 52.5493 272.32 51.9016 273.565 51.5405C276.436 50.643 278.882 51.2162 280.636 53.2139C281.029 53.664 281.372 54.1575 281.657 54.6851L281.723 54.8031L281.645 54.9127C281.491 55.1206 281.341 55.3342 281.196 55.5535C279.518 58.0823 278.18 61.6816 279.211 63.6123C279.414 63.9865 279.719 64.2934 280.089 64.4962C280.46 64.699 280.88 64.789 281.3 64.7556H281.337C282.193 64.7431 282.912 64.1657 283.356 63.1373C284.227 61.1266 283.971 57.7169 282.754 55.0239L282.7 54.906L282.783 54.8046C284.465 52.7394 286.376 51.5888 288.087 51.5888C288.233 51.5888 288.374 51.5971 288.516 51.6096C290.701 51.8627 290.667 53.0127 290.659 53.1437L281.42 119.336C281.413 119.39 281.416 119.446 281.429 119.5C281.443 119.554 281.467 119.604 281.5 119.648C281.532 119.692 281.573 119.73 281.621 119.758C281.668 119.786 281.72 119.804 281.774 119.812C281.882 119.824 281.991 119.793 282.078 119.727C282.165 119.66 282.224 119.563 282.243 119.454L291.477 53.2726C291.522 52.7849 291.378 52.2988 291.076 51.9167ZM271.741 59.764C272.198 62.2548 271.529 63.1274 271.218 63.3846C271.046 63.5354 270.827 63.619 270.599 63.6206C270.475 63.619 270.353 63.5947 270.238 63.5489C269.166 63.1144 268.035 60.8304 268.138 58.2423C268.18 56.8829 268.604 55.564 269.359 54.4403L269.521 54.2044L269.696 54.4362C270.761 56.0347 271.46 57.8553 271.741 59.764ZM282.596 62.7984C282.28 63.526 281.852 63.9028 281.325 63.9111H281.246C280.985 63.9401 280.721 63.889 280.488 63.7643C280.256 63.6396 280.065 63.4471 279.941 63.2116C279.224 61.863 280.058 58.7735 281.888 56.0254L282.112 55.6881L282.278 56.0337C283.165 58.3894 283.298 61.1718 282.596 62.7984Z" fill="white"/>
<path d="M262.666 119.329L291.533 119.359L291.531 121.07C291.527 124.955 290.003 128.678 287.294 131.422C284.584 134.165 280.911 135.705 277.083 135.701C273.255 135.697 269.586 134.15 266.882 131.401C264.177 128.652 262.661 124.925 262.664 121.041L262.666 119.329Z" fill="#262626"/>
</g>
<defs>
<clipPath id="clip0_1_3066">
<rect width="508" height="488" fill="white"/>
</clipPath>
</defs>
</svg>
