<svg width="541" height="374" viewBox="0 0 541 374" fill="none" xmlns="http://www.w3.org/2000/svg">
<g clip-path="url(#clip0_1_300)">
<path d="M44.4125 374C28.3207 374.017 13.9507 362.924 8.49527 346.274C-3.20738 310.432 -9.60774 247.738 36.1988 175.922C86.8483 96.5139 140.906 25.3195 266.602 16.087C377.487 10.2736 408.732 155.554 487.669 205.481C564.006 253.767 555.114 369.456 481.894 373.995L44.4125 374Z" fill="#F3F5FD"/>
<path d="M481.533 374H453.32C448.416 367.884 439.818 355.547 445.376 350.278C447.903 347.887 450.682 350.16 453.268 354.241C452.38 346.248 453.268 338.611 459.134 336.38C464.476 334.354 466.864 340.476 467.787 348.689C470.414 344.018 473.875 340.731 478.388 340.99C484.844 341.356 483.286 349.52 479.509 358.558C482.375 356.492 485.37 355.475 488.286 356.383C494.399 358.281 488.69 366.412 481.533 374Z" fill="#8DDBE0"/>
<path d="M393.035 372.068H443.738V320.653H393.035V372.068Z" fill="#D7E8F4"/>
<path d="M377.328 372.068H428.031V320.653H377.328V372.068Z" fill="white"/>
<path d="M392.1 332.909V342.943V374H447.596V342.943V332.909H392.1Z" fill="#C1D8ED"/>
<path d="M430.759 332.909H375.263V374H430.759V332.909Z" fill="#DEE8F5"/>
<path d="M430.759 332.909H375.263V335.99H430.759V332.909Z" fill="#C1D8ED"/>
<path d="M409.036 341.163H396.987C396.211 341.163 395.582 341.759 395.582 342.495V346C395.582 346.736 396.211 347.333 396.987 347.333H409.036C409.812 347.333 410.441 346.736 410.441 346V342.495C410.441 341.759 409.812 341.163 409.036 341.163Z" fill="white"/>
<path d="M391.988 324.05L447.116 330.103L448.334 320.136L393.205 314.083L391.988 324.05Z" fill="#C1D8ED"/>
<path d="M375.262 322.213L430.391 328.266L431.608 318.299L376.48 312.246L375.262 322.213Z" fill="#DEE8F5"/>
<path d="M395.534 328.441H377.327C376.352 329.212 375.635 330.236 375.263 331.387C375.263 331.387 381.545 329.57 395.534 328.441Z" fill="#DEE8F5"/>
<path d="M408.278 0H173.337V288.968H408.278V0Z" fill="#DEE8F5"/>
<path d="M382.691 162.886H237.692V167.024H382.691V162.886Z" fill="#C1D8ED"/>
<path d="M382.691 206.688H237.692V210.827H382.691V206.688Z" fill="#C1D8ED"/>
<path d="M382.691 250.491H237.692V254.63H382.691V250.491Z" fill="#C1D8ED"/>
<path d="M207.668 177.118C207.06 177.118 206.476 176.898 206.034 176.503L197.866 169.196C197.635 168.993 197.45 168.749 197.319 168.478C197.189 168.207 197.116 167.914 197.106 167.616C197.095 167.318 197.147 167.021 197.258 166.743C197.37 166.464 197.538 166.209 197.754 165.992C197.969 165.776 198.228 165.601 198.515 165.48C198.802 165.359 199.112 165.292 199.426 165.285C199.74 165.278 200.053 165.329 200.346 165.437C200.639 165.545 200.906 165.707 201.133 165.913L207.536 171.641L221.448 157.106C221.657 156.882 221.91 156.699 222.194 156.568C222.478 156.437 222.786 156.362 223.101 156.345C223.416 156.328 223.732 156.371 224.029 156.471C224.326 156.571 224.6 156.726 224.833 156.927C225.067 157.128 225.256 157.371 225.39 157.641C225.524 157.912 225.599 158.206 225.612 158.505C225.625 158.803 225.576 159.102 225.466 159.382C225.357 159.663 225.189 159.92 224.974 160.138L209.43 176.378C209.217 176.6 208.96 176.78 208.673 176.907C208.387 177.034 208.076 177.105 207.76 177.117L207.668 177.118Z" fill="white"/>
<path d="M207.668 220.343C207.06 220.343 206.476 220.123 206.034 219.728L197.866 212.42C197.635 212.218 197.45 211.974 197.319 211.703C197.189 211.432 197.116 211.139 197.106 210.841C197.095 210.543 197.147 210.246 197.258 209.968C197.37 209.689 197.538 209.434 197.754 209.217C197.969 209 198.228 208.826 198.515 208.705C198.802 208.584 199.112 208.517 199.426 208.51C199.74 208.503 200.053 208.554 200.346 208.662C200.639 208.77 200.906 208.931 201.133 209.138L207.536 214.866L221.448 200.331C221.657 200.106 221.91 199.924 222.194 199.793C222.478 199.662 222.786 199.586 223.101 199.57C223.416 199.553 223.732 199.596 224.029 199.696C224.326 199.796 224.6 199.951 224.833 200.151C225.067 200.352 225.256 200.595 225.39 200.866C225.524 201.137 225.599 201.431 225.612 201.729C225.625 202.028 225.576 202.327 225.466 202.607C225.357 202.888 225.189 203.145 224.974 203.363L209.43 219.603C209.218 219.825 208.96 220.005 208.674 220.132C208.387 220.259 208.076 220.33 207.76 220.341L207.668 220.343Z" fill="white"/>
<path d="M207.668 264.147C207.061 264.146 206.476 263.926 206.034 263.532L197.866 256.223C197.407 255.812 197.138 255.245 197.12 254.647C197.102 254.049 197.335 253.468 197.768 253.033C198.202 252.597 198.799 252.343 199.431 252.325C200.062 252.308 200.674 252.529 201.133 252.94L207.536 258.669L221.449 244.133C221.658 243.912 221.912 243.732 222.195 243.604C222.478 243.476 222.785 243.402 223.098 243.387C223.411 243.371 223.725 243.415 224.02 243.515C224.316 243.615 224.587 243.769 224.82 243.969C225.052 244.169 225.24 244.41 225.374 244.679C225.507 244.948 225.584 245.24 225.598 245.537C225.612 245.834 225.565 246.131 225.458 246.41C225.351 246.69 225.186 246.947 224.974 247.166L209.431 263.405C209.218 263.627 208.961 263.807 208.674 263.934C208.387 264.061 208.077 264.132 207.76 264.144L207.668 264.147Z" fill="white"/>
<path d="M390.488 15.9205H191.127V138.143H390.488V15.9205Z" fill="#F3F5FD"/>
<path d="M376.291 124.783H204.759C204.567 124.783 204.382 124.711 204.246 124.582C204.11 124.452 204.033 124.277 204.033 124.095V30.5214C204.033 30.3389 204.11 30.1639 204.246 30.0348C204.382 29.9058 204.567 29.8333 204.759 29.8333C204.952 29.8333 205.136 29.9058 205.272 30.0348C205.408 30.1639 205.485 30.3389 205.485 30.5214V123.41H376.291C376.388 123.408 376.484 123.423 376.575 123.457C376.665 123.49 376.748 123.54 376.818 123.604C376.887 123.669 376.943 123.745 376.98 123.83C377.018 123.915 377.038 124.006 377.038 124.098C377.038 124.19 377.018 124.281 376.98 124.366C376.943 124.451 376.887 124.528 376.818 124.592C376.748 124.656 376.665 124.706 376.575 124.74C376.484 124.773 376.388 124.789 376.291 124.786V124.783Z" fill="#C1D8ED"/>
<path d="M210.439 117.905C210.291 117.905 210.147 117.863 210.025 117.783C209.903 117.703 209.81 117.59 209.758 117.459C209.706 117.327 209.698 117.184 209.734 117.048C209.77 116.912 209.849 116.79 209.961 116.698L255.967 78.6303C256.098 78.5225 256.264 78.4624 256.437 78.4607C256.61 78.4591 256.778 78.5161 256.911 78.6214L270.676 89.5536L309.409 62.9522C309.532 62.8675 309.68 62.8216 309.832 62.821C309.984 62.8203 310.133 62.865 310.256 62.9487L332.939 78.2856L370.152 49.7891C370.226 49.7323 370.311 49.6898 370.403 49.6643C370.494 49.6387 370.59 49.6304 370.685 49.6399C370.78 49.6495 370.872 49.6766 370.955 49.7198C371.039 49.763 371.113 49.8215 371.173 49.8918C371.233 49.9621 371.278 50.0429 371.305 50.1295C371.332 50.2162 371.34 50.3071 371.33 50.397C371.32 50.4869 371.292 50.574 371.246 50.6534C371.2 50.7328 371.139 50.8029 371.065 50.8597L333.422 79.6843C333.299 79.7788 333.146 79.8323 332.988 79.8368C332.829 79.8413 332.674 79.7964 332.545 79.7091L309.838 64.3546L271.07 90.9813C270.939 91.0711 270.78 91.1169 270.618 91.1115C270.457 91.106 270.302 91.0496 270.178 90.9512L256.455 80.0526L210.916 117.733C210.784 117.843 210.615 117.904 210.439 117.905Z" fill="#C1D8ED"/>
<path d="M369.189 54.5271C371.059 54.5271 372.576 53.0894 372.576 51.3159C372.576 49.5423 371.059 48.1046 369.189 48.1046C367.318 48.1046 365.802 49.5423 365.802 51.3159C365.802 53.0894 367.318 54.5271 369.189 54.5271Z" fill="#C1D8ED"/>
<g opacity="0.77">
<path d="M376.288 38.2589H204.272V38.7175H376.288V38.2589Z" fill="#C1D8ED"/>
<path d="M376.288 52.4042H204.272V52.8628H376.288V52.4042Z" fill="#C1D8ED"/>
<path d="M376.288 66.5488H204.272V67.0074H376.288V66.5488Z" fill="#C1D8ED"/>
<path d="M376.288 80.6941H204.272V81.1527H376.288V80.6941Z" fill="#C1D8ED"/>
<path d="M376.288 94.8394H204.272V95.2979H376.288V94.8394Z" fill="#C1D8ED"/>
<path d="M376.288 108.984H204.272V109.443H376.288V108.984Z" fill="#C1D8ED"/>
</g>
<path d="M111.216 367.614L98.2344 366.151C98.8189 361.493 99.4793 355.897 99.5242 354.98C99.521 355.039 99.5242 355.086 99.5242 355.124H112.596C112.594 355.496 112.594 356.626 111.216 367.614Z" fill="#E98862"/>
<path d="M59.1288 369.096L46.0566 369.056C46.0566 369.056 46.1002 356.257 46.1002 355.124H59.1723C59.1723 356.261 59.1288 369.096 59.1288 369.096Z" fill="#E98862"/>
<path d="M93.0095 363.701L116.041 363.329C115.084 340.333 114.921 314.031 114.664 290.23C114.592 284.331 114.123 278.442 113.257 272.599C109.552 247.384 107.135 222.314 102.147 197.244L101.981 197.291L101.494 194.145L54.1374 191.371L51.6724 220.707C51.6724 220.707 45.5036 322.192 42.6875 362.997L65.6378 364.836C69.7729 324.829 76.172 266.535 80.108 224.506C84.6278 244.968 87.7023 266.156 91.6326 286.442C92.4194 311.836 93.083 338.383 93.0095 363.701Z" fill="#262626"/>
<path d="M75.0196 373.89C75.3712 373.889 75.7186 373.818 76.0403 373.684C76.3619 373.549 76.6509 373.353 76.889 373.108C77.1272 372.863 77.3095 372.574 77.4245 372.259C77.5395 371.944 77.5848 371.61 77.5575 371.277C77.5194 370.817 77.3434 370.376 77.0502 370.007C76.757 369.638 76.3587 369.356 75.9023 369.195L60.687 364.363C60.3922 364.27 60.0799 364.239 59.7713 364.272C59.4627 364.304 59.1652 364.4 58.8992 364.552C56.8074 365.927 54.3053 366.631 51.7606 366.558C49.7787 366.425 47.8763 365.766 46.2703 364.657C46.1292 364.547 45.958 364.477 45.7768 364.456C45.5955 364.435 45.4117 364.463 45.2468 364.538C45.0819 364.612 44.9426 364.729 44.8453 364.875C44.748 365.022 44.6967 365.192 44.6973 365.365V372.419C44.6973 372.627 44.7406 372.833 44.8248 373.025C44.9089 373.217 45.0323 373.392 45.1877 373.539C45.3432 373.685 45.5277 373.802 45.7307 373.881C45.9336 373.96 46.1511 374 46.3705 373.999L75.0196 373.89Z" fill="#C1D8ED"/>
<path d="M127.142 373.89C127.494 373.889 127.841 373.818 128.163 373.684C128.485 373.549 128.773 373.353 129.012 373.108C129.25 372.863 129.432 372.574 129.547 372.259C129.662 371.944 129.707 371.61 129.68 371.277C129.642 370.817 129.466 370.376 129.173 370.007C128.88 369.638 128.481 369.356 128.025 369.195L112.81 364.363C112.515 364.27 112.203 364.239 111.894 364.272C111.585 364.304 111.288 364.4 111.022 364.552C108.93 365.927 106.428 366.631 103.883 366.558C101.901 366.425 99.9986 365.766 98.3924 364.657C98.2512 364.547 98.0801 364.477 97.8989 364.456C97.7176 364.435 97.5338 364.463 97.3689 364.538C97.204 364.612 97.0647 364.729 96.9674 364.875C96.8701 365.022 96.8187 365.192 96.8193 365.365V372.419C96.8193 372.627 96.8627 372.833 96.9469 373.025C97.0311 373.217 97.1545 373.392 97.31 373.539C97.4655 373.686 97.6501 373.802 97.8532 373.881C98.0562 373.96 98.2737 374 98.4932 373.999L127.142 373.89Z" fill="#C1D8ED"/>
<path d="M69.1895 130.257C69.1895 130.257 74.0025 127.837 72.9281 115.41L82.8728 113.661C82.8728 113.661 81.7555 124.803 86.7864 128.341L69.1895 130.257Z" fill="#E98862"/>
<g opacity="0.15">
<path d="M84.7495 126.01L76.4873 120.017L82.9767 119.954C83.1644 122.06 83.7657 124.114 84.7495 126.01Z" fill="black"/>
</g>
<path d="M67.2853 110.589C67.9737 114.36 70.1437 117.93 73.6514 119.147C77.8158 120.593 80.9002 120.691 85.7014 120.691C92.253 120.691 92.0364 114.212 92.2206 107.684C92.4074 101.129 91.8552 94.0982 89.2657 91.8141C84.0991 87.2554 68.9274 90.1427 67.0823 97.768C66.1281 101.713 66.6298 107.003 67.2853 110.589Z" fill="#E98862"/>
<path d="M95.7324 95.605C95.7324 95.605 98.4153 95.0366 97.6808 92.4999C97.194 90.8173 94.9207 91.1909 94.9207 91.1909C94.9207 91.1909 97.0732 90.8173 97.0732 89.0355C97.0732 87.9141 96.1632 86.0113 93.4186 87.0984C90.1979 88.3738 86.5247 88.2098 83.7322 87.7648C82.1521 87.4367 80.5482 87.2221 78.9341 87.1226H78.926C77.0707 87.0919 75.2211 87.3264 73.4395 87.8185C68.4472 89.2349 60.8921 93.4785 62.4981 103.1C64.2909 113.839 69.6056 117.945 71.9437 119.262C72.082 119.341 72.2375 119.39 72.3984 119.403C72.5592 119.417 72.7213 119.396 72.8723 119.341C73.0232 119.287 73.1592 119.201 73.2699 119.089C73.3805 118.978 73.463 118.844 73.5111 118.698C74.174 116.685 75.3163 111.621 74.9969 101.179C90.3424 100.466 94.7576 100.249 94.7576 100.249C94.7576 100.249 98.368 100.378 98.368 97.8754C98.368 95.373 95.7324 95.605 95.7324 95.605Z" fill="#0F1011"/>
<path d="M82.859 107.685C83.3571 107.685 83.761 107.302 83.761 106.83C83.761 106.358 83.3571 105.975 82.859 105.975C82.3609 105.975 81.957 106.358 81.957 106.83C81.957 107.302 82.3609 107.685 82.859 107.685Z" fill="#0F1011"/>
<path d="M89.9752 107.132C90.4734 107.132 90.8772 106.749 90.8772 106.277C90.8772 105.805 90.4734 105.422 89.9752 105.422C89.4771 105.422 89.0732 105.805 89.0732 106.277C89.0732 106.749 89.4771 107.132 89.9752 107.132Z" fill="#0F1011"/>
<path d="M91.5376 104.454H91.5327L89.1429 104.425C89.0306 104.424 88.9235 104.38 88.845 104.304C88.7666 104.228 88.7233 104.125 88.7246 104.019C88.7277 103.913 88.7743 103.812 88.8545 103.738C88.9347 103.664 89.0422 103.622 89.1542 103.622L91.5432 103.651C91.6557 103.651 91.7632 103.694 91.8422 103.77C91.9211 103.846 91.9651 103.948 91.9643 104.055C91.9636 104.162 91.9182 104.264 91.8382 104.339C91.7582 104.413 91.6501 104.455 91.5376 104.454Z" fill="#0F1011"/>
<path d="M80.9127 105.281C80.8093 105.28 80.7097 105.244 80.6326 105.178C80.5555 105.113 80.5063 105.023 80.4942 104.925C80.482 104.828 80.5078 104.73 80.5666 104.649C80.6255 104.569 80.7133 104.511 80.8137 104.487L83.1698 103.95C83.2781 103.928 83.3912 103.947 83.485 104.003C83.5788 104.059 83.6458 104.147 83.6717 104.249C83.6976 104.351 83.6802 104.459 83.6234 104.549C83.5666 104.639 83.4749 104.705 83.3678 104.732L81.0123 105.269C80.9796 105.277 80.9462 105.28 80.9127 105.281Z" fill="#0F1011"/>
<path d="M78.167 108.923C78.243 109.878 77.9174 110.822 77.2613 111.551C76.6052 112.279 75.6719 112.731 74.6652 112.809C73.6584 112.887 72.6601 112.584 71.8881 111.967C71.1161 111.349 70.6331 110.467 70.5447 109.513C70.4949 109.037 70.5468 108.556 70.697 108.099C70.8473 107.643 71.093 107.219 71.4195 106.854C71.746 106.489 72.1466 106.191 72.5974 105.976C73.0482 105.761 73.5401 105.634 74.0437 105.603C76.7689 105.521 77.9964 106.927 78.167 108.923Z" fill="#E98862"/>
<g opacity="0.15">
<path d="M86.8622 111.573C86.7877 111.573 86.7156 111.548 86.659 111.502C86.6025 111.456 86.5653 111.392 86.5542 111.322C86.5432 111.252 86.5589 111.181 86.5986 111.121C86.6384 111.061 86.6994 111.017 86.7707 110.996L88.6058 110.462L87.3222 107.753C87.2896 107.682 87.2879 107.601 87.3174 107.529C87.347 107.456 87.4054 107.398 87.4801 107.366C87.5547 107.334 87.6396 107.332 87.7163 107.359C87.7931 107.386 87.8554 107.441 87.8899 107.511L89.3179 110.525C89.336 110.563 89.3453 110.605 89.3453 110.646C89.3453 110.688 89.3358 110.73 89.3176 110.768C89.2994 110.806 89.2729 110.84 89.2398 110.868C89.2067 110.895 89.1677 110.916 89.1256 110.928L86.9537 111.56C86.9241 111.569 86.8932 111.573 86.8622 111.573Z" fill="black"/>
</g>
<path d="M83.2764 113.565C83.2764 113.565 86.6054 113.898 88.941 113.125C88.941 113.125 88.9229 115.204 86.2879 115.408C83.653 115.613 83.2764 113.565 83.2764 113.565Z" fill="white"/>
<path d="M176.921 163.194C176.921 163.194 182.031 160.84 185.869 161.744C189.707 162.647 187.908 164.213 185.116 164.77C182.323 165.327 176.188 166.233 176.188 166.233" fill="#E98862"/>
<path d="M179.905 163.084C179.905 163.084 189.378 162.14 189.477 164.301C189.477 164.301 189.892 170.97 188.606 171.998C186.663 173.554 177.04 172.336 177.04 172.336L179.905 163.084Z" fill="#E98862"/>
<path d="M154.864 174.1H117.84C116.744 174.1 115.665 173.839 114.703 173.34C113.742 172.841 112.928 172.121 112.336 171.245L88.9424 136.62L99.9491 129.934L121.415 161.706H154.864V174.1Z" fill="#A9F8FD"/>
<path d="M104.87 195.221C102.263 200.905 51.0137 203.266 50.3283 193.268C49.8926 186.906 55.8061 181.352 55.8061 168.952C55.8061 156.552 43.7736 140.717 53.5777 131.421C56.4224 128.724 61.3344 126.983 67.3221 126.977C67.7702 130.288 88.9726 130.3 89.1338 127.054C89.943 127.065 90.5717 127.077 90.9639 127.095C111.618 127.939 102.542 150.225 102.343 166.597C102.1 185.755 107.559 189.367 104.87 195.221Z" fill="#A9F8FD"/>
<path d="M89.134 127.054C88.9728 130.3 87.111 135.074 81.3654 135.434C73.7089 135.913 67.7705 130.288 67.3223 126.977H67.3416C74.8792 126.977 84.7393 126.989 89.134 127.054Z" fill="#E98862"/>
<path d="M137.729 211.732C164.675 211.732 186.518 191.021 186.518 165.473C186.518 139.924 164.675 119.214 137.729 119.214C110.783 119.214 88.9395 139.924 88.9395 165.473C88.9395 191.021 110.783 211.732 137.729 211.732Z" fill="#C1D8ED"/>
<path d="M137.729 202.582C159.345 202.582 176.868 185.967 176.868 165.473C176.868 144.978 159.345 128.363 137.729 128.363C116.113 128.363 98.5898 144.978 98.5898 165.473C98.5898 185.967 116.113 202.582 137.729 202.582Z" fill="white"/>
<path d="M137.729 193.246C153.907 193.246 167.022 180.812 167.022 165.473C167.022 150.134 153.907 137.699 137.729 137.699C121.551 137.699 108.437 150.134 108.437 165.473C108.437 180.812 121.551 193.246 137.729 193.246Z" fill="#C1D8ED"/>
<path d="M137.729 183.939C148.486 183.939 157.205 175.671 157.205 165.473C157.205 155.274 148.486 147.006 137.729 147.006C126.973 147.006 118.253 155.274 118.253 165.473C118.253 175.671 126.973 183.939 137.729 183.939Z" fill="white"/>
<path d="M137.729 174.92C143.232 174.92 147.693 170.69 147.693 165.473C147.693 160.255 143.232 156.025 137.729 156.025C132.226 156.025 127.765 160.255 127.765 165.473C127.765 170.69 132.226 174.92 137.729 174.92Z" fill="#C1D8ED"/>
<path d="M172.737 133.028L176.869 133.486L171.366 138.702L167.234 138.245L172.737 133.028Z" fill="#0CBC8B"/>
<path d="M172.349 129.2L172.832 133.118L167.33 138.335L166.847 134.417L172.349 129.2Z" fill="#0CBC8B"/>
<path d="M140.138 164.542C139.954 164.368 139.851 164.133 139.851 163.887C139.851 163.641 139.954 163.406 140.138 163.232L172.365 132.676L173.746 133.986L141.519 164.542C141.336 164.716 141.087 164.813 140.828 164.813C140.569 164.813 140.321 164.716 140.138 164.542Z" fill="#0CBC8B"/>
<path d="M188.603 172.001C188.428 172.132 188.233 172.237 188.024 172.312C186.908 172.531 184.093 171.892 183.642 171.152C182.907 169.947 183.363 165.595 184.012 164.016C184.619 162.54 187.648 163.158 188.046 163.228C188.058 163.233 188.071 163.236 188.084 163.238C188.91 163.453 189.454 163.788 189.476 164.303C189.476 164.303 189.893 170.967 188.603 172.001Z" fill="#E98862"/>
<path d="M106.137 176.024C106.137 176.024 107.636 168.261 113.428 169.612C117.084 170.464 127.704 168.942 127.866 173.392C128.006 177.253 118.031 178.283 114.732 177.961C111.771 177.673 106.137 176.024 106.137 176.024Z" fill="#E98862"/>
<path d="M111.308 169.526C111.308 169.526 119.924 168.321 121.849 169.096C123.554 169.783 119.359 171.929 119.359 171.929L111.308 169.526Z" fill="#E98862"/>
<path d="M114.064 180.335L75.5454 179.221C74.343 179.187 73.1719 178.849 72.1521 178.244C71.1324 177.639 70.3006 176.788 69.742 175.778L50.7246 141.397L62.7466 135.42L79.9234 166.473L114.48 167.473L114.064 180.335Z" fill="#A9F8FD"/>
</g>
<defs>
<clipPath id="clip0_1_300">
<rect width="541" height="374" fill="white"/>
</clipPath>
</defs>
</svg>
