<svg width="446" height="381" viewBox="0 0 446 381" fill="none" xmlns="http://www.w3.org/2000/svg">
<g clip-path="url(#clip0_1_2807)">
<path opacity="0.1" d="M443.955 262.689C431.774 201.137 360.407 151.943 346.487 87.8026C321.188 6.19791 237.802 -6.70394 183.616 28.7369C97.7581 84.8934 189.351 98.829 21.0112 231.692C-20.5557 264.498 -7.31059 409.314 123.456 376.079C193.829 358.194 215.222 355.684 246.877 352.739C326.662 345.317 464.403 366.011 443.955 262.689Z" fill="#43C195"/>
<path d="M348.642 278.115L225.325 343.376L102.195 278.115V179.566H348.642V278.115Z" fill="white"/>
<path d="M225.325 344.377C225.162 344.378 225.001 344.337 224.858 344.26L101.731 278.999C101.571 278.915 101.437 278.788 101.344 278.633C101.25 278.478 101.2 278.3 101.199 278.118V179.566C101.199 179.3 101.304 179.046 101.492 178.858C101.679 178.67 101.933 178.565 102.198 178.565H348.642C348.906 178.565 349.161 178.67 349.348 178.858C349.535 179.046 349.64 179.3 349.64 179.566V278.115C349.64 278.297 349.59 278.474 349.496 278.63C349.402 278.785 349.268 278.911 349.108 278.996L225.792 344.258C225.648 344.335 225.488 344.376 225.325 344.377ZM103.194 277.514L225.325 342.245L347.643 277.512V180.567H103.194V277.514Z" fill="#262626"/>
<path d="M348.642 158.418L225.325 93.1571L280.739 66.3933L404.055 131.655L348.642 158.418Z" fill="white"/>
<path d="M348.642 159.419C348.479 159.419 348.319 159.38 348.175 159.304L224.858 94.0421C224.695 93.9554 224.559 93.8251 224.465 93.6655C224.371 93.506 224.323 93.3235 224.327 93.1383C224.33 92.9531 224.385 92.7725 224.484 92.6166C224.584 92.4606 224.725 92.3353 224.891 92.2548L280.305 65.491C280.446 65.4225 280.601 65.3884 280.757 65.3913C280.914 65.3942 281.067 65.4341 281.206 65.5078L404.522 130.77C404.685 130.856 404.822 130.986 404.915 131.146C405.009 131.305 405.057 131.488 405.054 131.673C405.051 131.858 404.996 132.039 404.896 132.195C404.797 132.351 404.656 132.476 404.489 132.556L349.075 159.32C348.94 159.385 348.792 159.419 348.642 159.419ZM227.541 93.1965L348.662 157.296L401.839 131.613L280.718 67.5153L227.541 93.1965Z" fill="#262626"/>
<path d="M102.195 158.418L225.511 93.1571L170.098 66.3933L46.7813 131.655L102.195 158.418Z" fill="white"/>
<path d="M102.195 159.419C102.045 159.419 101.896 159.385 101.761 159.32L46.3506 132.556C46.1841 132.476 46.0432 132.351 45.9435 132.195C45.8438 132.039 45.7892 131.858 45.7858 131.673C45.7824 131.488 45.8303 131.305 45.9242 131.146C46.0182 130.986 46.1544 130.856 46.3178 130.77L169.634 65.5078C169.772 65.4341 169.926 65.3942 170.083 65.3913C170.239 65.3884 170.394 65.4225 170.535 65.491L225.949 92.2548C226.115 92.3353 226.256 92.4606 226.355 92.6166C226.455 92.7725 226.51 92.9531 226.513 93.1383C226.516 93.3235 226.469 93.506 226.375 93.6655C226.281 93.8251 226.145 93.9554 225.981 94.0421L102.665 159.304C102.52 159.38 102.359 159.42 102.195 159.419ZM48.9973 131.615L102.174 157.297L223.295 93.1981L170.118 67.5153L48.9973 131.615Z" fill="#262626"/>
<path d="M102.195 158.418L225.511 223.68L162.106 258.451L38.7898 193.19L102.195 158.418Z" fill="white"/>
<path d="M162.106 259.452C161.944 259.452 161.783 259.412 161.64 259.336L38.3231 194.074C38.1639 193.989 38.0305 193.863 37.937 193.709C37.8436 193.554 37.7935 193.377 37.7922 193.197C37.7909 193.016 37.8384 192.839 37.9296 192.683C38.0208 192.527 38.1524 192.399 38.3103 192.312L101.715 157.541C101.86 157.461 102.023 157.419 102.188 157.418C102.353 157.417 102.516 157.457 102.662 157.534L225.978 222.796C226.137 222.881 226.271 223.007 226.364 223.161C226.458 223.316 226.508 223.493 226.509 223.673C226.51 223.854 226.463 224.031 226.372 224.187C226.28 224.343 226.149 224.471 225.991 224.558L162.586 259.329C162.439 259.41 162.274 259.452 162.106 259.452ZM40.8996 193.174L162.097 257.315L223.402 223.696L102.204 159.555L40.8996 193.174Z" fill="#262626"/>
<path d="M348.642 158.418L225.325 223.68L288.73 258.451L412.047 193.19L348.642 158.418Z" fill="white"/>
<path d="M288.732 259.452C288.564 259.452 288.4 259.41 288.252 259.329L224.847 224.558C224.689 224.471 224.558 224.343 224.467 224.187C224.375 224.031 224.328 223.854 224.329 223.673C224.33 223.493 224.381 223.316 224.474 223.161C224.567 223.007 224.701 222.881 224.86 222.796L348.176 157.534C348.322 157.457 348.485 157.417 348.65 157.418C348.816 157.419 348.978 157.461 349.123 157.541L412.528 192.312C412.686 192.399 412.817 192.527 412.908 192.683C413 192.839 413.047 193.016 413.046 193.197C413.045 193.377 412.995 193.554 412.901 193.709C412.808 193.863 412.674 193.989 412.515 194.074L289.199 259.336C289.055 259.412 288.895 259.452 288.732 259.452ZM227.437 223.696L288.741 257.315L409.94 193.174L348.635 159.555L227.437 223.696Z" fill="#262626"/>
<path d="M225.511 93.1572L102.195 158.418L225.325 223.68L348.642 158.418L225.511 93.1572Z" fill="#262626"/>
<path d="M226.324 223.679H224.326V343.376H226.324V223.679Z" fill="#262626"/>
<path d="M156.233 152.493C156.068 152.494 155.907 152.442 155.772 152.345C155.599 152.223 155.482 152.036 155.446 151.827C155.411 151.617 155.459 151.402 155.582 151.229C155.73 151.02 170.173 130.098 154.049 111.024C151.195 107.63 147.636 104.903 143.619 103.033C139.603 101.164 135.227 100.197 130.798 100.201H130.581C132.112 105.531 131.839 110.269 129.67 113.905C128.747 115.548 127.383 116.899 125.734 117.808C124.085 118.716 122.216 119.145 120.336 119.046C118.781 118.918 117.296 118.339 116.064 117.378C114.832 116.418 113.907 115.118 113.401 113.639C111.627 109.004 113.481 104.51 118.365 101.614C121.459 99.9042 124.897 98.9133 128.425 98.7144C127.278 95.6654 125.785 92.7581 123.977 90.0494C118.156 81.1402 107.545 74.9727 94.866 73.1286C84.1206 71.5663 73.8228 73.4064 68.6276 77.8154C68.4658 77.9526 68.2562 78.0198 68.0449 78.0021C67.8337 77.9845 67.6381 77.8835 67.5012 77.7213C67.3643 77.5592 67.2972 77.3492 67.3148 77.1375C67.3324 76.9258 67.4333 76.7298 67.5951 76.5926C73.1236 71.901 83.9177 69.9175 95.0953 71.5479C108.228 73.4585 119.242 79.883 125.315 89.1758C127.284 92.1229 128.886 95.3005 130.084 98.6376C134.862 98.5226 139.604 99.483 143.962 101.448C148.32 103.413 152.182 106.333 155.265 109.992C172.201 130.027 157.036 151.94 156.881 152.16C156.808 152.263 156.71 152.347 156.598 152.405C156.485 152.463 156.36 152.493 156.233 152.493ZM128.944 100.259C125.524 100.405 122.183 101.341 119.182 102.993C114.966 105.493 113.405 109.165 114.897 113.066C115.301 114.262 116.044 115.313 117.035 116.092C118.027 116.871 119.223 117.343 120.478 117.451C122.058 117.522 123.627 117.151 125.008 116.38C126.39 115.609 127.531 114.468 128.302 113.084C130.292 109.745 130.474 105.306 128.942 100.259H128.944Z" fill="#292A2E"/>
<path d="M54.8351 90.726C53.4771 91.1348 52.0134 90.9962 50.7558 90.3398C49.4982 89.6835 48.5459 88.5611 48.1019 87.2117C47.6578 85.8624 47.7569 84.3926 48.3781 83.1153C48.9994 81.8381 50.0937 80.8543 51.428 80.3735C52.7623 79.8926 54.2312 79.9527 55.522 80.5409C56.8128 81.1291 57.8235 82.1989 58.3388 83.5226C58.8542 84.8463 58.8335 86.3193 58.2811 87.6279C57.7288 88.9365 56.6885 89.9774 55.3817 90.529C55.2032 90.6046 55.0207 90.6703 54.8351 90.726ZM52.1779 81.8279C52.0485 81.8669 51.9212 81.9129 51.7967 81.9656C50.8772 82.3541 50.1454 83.087 49.7572 84.0081C49.3689 84.9292 49.3549 85.9658 49.7182 86.8971C50.0814 87.8284 50.7931 88.5809 51.7018 88.9941C52.6105 89.4074 53.6442 89.4489 54.583 89.1097C55.5217 88.7705 56.2912 88.0775 56.7275 87.1783C57.1639 86.279 57.2326 85.2446 56.9191 84.2953C56.6055 83.3461 55.9345 82.557 55.049 82.0961C54.1634 81.6352 53.1332 81.539 52.1779 81.8279Z" fill="#292A2E"/>
<path d="M54.8255 78.178C53.5409 78.5624 52.1598 78.4573 50.9478 77.8831C49.7358 77.3088 48.7784 76.3059 48.2597 75.0671C47.8439 74.074 47.7312 72.9796 47.9361 71.9223C48.141 70.8651 48.6542 69.8924 49.4108 69.1274C50.1674 68.3625 51.1334 67.8395 52.1866 67.6246C53.2398 67.4097 54.333 67.5127 55.3278 67.9204C56.3227 68.3281 57.1745 69.0222 57.7756 69.9151C58.3767 70.8079 58.7001 71.8593 58.7048 72.9363C58.7096 74.0133 58.3955 75.0675 57.8023 75.9656C57.209 76.8637 56.3633 77.5654 55.3721 77.9819C55.1935 78.0567 55.011 78.1222 54.8255 78.178ZM52.1715 69.2792C52.0405 69.3186 51.9117 69.3648 51.7856 69.4177C50.8481 69.8123 50.1053 70.5637 49.7204 71.5069C49.3356 72.45 49.3403 73.5076 49.7333 74.4473C50.02 75.1323 50.4986 75.7194 51.1113 76.1375C51.724 76.5557 52.4444 76.787 53.1855 76.8035C53.9266 76.8201 54.6567 76.621 55.2873 76.2306C55.9179 75.8401 56.422 75.2749 56.7388 74.6033C57.0556 73.9318 57.1714 73.1827 57.0722 72.4465C56.973 71.7104 56.6631 71.0189 56.1799 70.4556C55.6967 69.8922 55.061 69.4813 54.3497 69.2723C53.6383 69.0634 52.8817 69.0663 52.1715 69.2792Z" fill="#292A2E"/>
<path d="M53.2744 83.841C57.1989 83.841 60.3804 81.7118 60.3804 79.0853C60.3804 76.4588 57.1989 74.3296 53.2744 74.3296C49.3498 74.3296 46.1684 76.4588 46.1684 79.0853C46.1684 81.7118 49.3498 83.841 53.2744 83.841Z" fill="white"/>
<path d="M56.4198 84.1911C55.401 84.4928 54.3439 84.6449 53.2815 84.6427C48.8479 84.6427 45.37 82.2084 45.37 79.0926C45.37 75.9769 48.8375 73.5337 53.2696 73.5289C55.2019 73.4918 57.103 74.0206 58.7397 75.0504C59.4748 75.4341 60.0909 76.0123 60.5212 76.7223C60.9514 77.4322 61.1792 78.2467 61.18 79.0772C61.1807 79.9078 60.9543 80.7226 60.5254 81.4333C60.0964 82.144 59.4813 82.7234 58.7469 83.1084C58.029 83.5827 57.2447 83.9476 56.4198 84.1911ZM50.6164 75.5116C48.4811 76.1522 46.9675 77.5351 46.9683 79.0886C46.9683 81.2322 49.8588 83.0412 53.2815 83.038C54.8984 83.072 56.4901 82.6335 57.8623 81.776C58.3769 81.5385 58.8127 81.158 59.1181 80.6798C59.4234 80.2015 59.5854 79.6456 59.5849 79.0779C59.5844 78.5101 59.4214 77.9545 59.1152 77.4768C58.809 76.9991 58.3725 76.6194 57.8575 76.3828C56.4843 75.5271 54.8918 75.0913 53.2752 75.1288C52.3751 75.1265 51.4794 75.2554 50.6164 75.5116Z" fill="#292A2E"/>
<path d="M55.0173 83.6962L54.8495 74.4474L52.5543 74.3545L52.3937 83.8043L55.0173 83.6962Z" fill="#292A2E"/>
<path d="M43.8468 81.0976C44.252 81.0976 44.5804 80.7685 44.5804 80.3625C44.5804 79.9566 44.252 79.6274 43.8468 79.6274C43.4417 79.6274 43.1132 79.9566 43.1132 80.3625C43.1132 80.7685 43.4417 81.0976 43.8468 81.0976Z" fill="#292A2E"/>
<path d="M44.4198 77.1643C44.825 77.1643 45.1534 76.8352 45.1534 76.4292C45.1534 76.0232 44.825 75.6941 44.4198 75.6941C44.0146 75.6941 43.6862 76.0232 43.6862 76.4292C43.6862 76.8352 44.0146 77.1643 44.4198 77.1643Z" fill="#292A2E"/>
<path d="M281.799 106.314C281.628 106.314 281.462 106.259 281.324 106.157C281.187 106.055 281.085 105.911 281.035 105.747C278.385 95.829 277.677 85.4899 278.953 75.3018C281.018 60.4076 289.216 40.8603 316.537 32.301C320.381 31.0625 324.324 30.1567 328.322 29.5936C329.61 21.5372 334.507 12.7977 345.459 6.76794C371.481 -7.55926 389.058 5.29534 389.233 5.42666C389.402 5.55409 389.514 5.74379 389.544 5.95403C389.574 6.16427 389.52 6.37783 389.392 6.54773C389.265 6.71763 389.076 6.82995 388.866 6.85998C388.656 6.89002 388.443 6.8353 388.274 6.70788C388.107 6.58296 371.309 -5.63744 346.23 8.17247C335.996 13.8074 331.311 21.8951 329.979 29.403C342.029 28.2139 347.8 32.2417 350.39 35.2838C351.992 37.1132 353.022 39.3746 353.351 41.7862C353.68 44.1979 353.293 46.6532 352.239 48.8463C351.406 50.6188 350.056 52.0966 348.368 53.0843C346.679 54.0721 344.731 54.5234 342.781 54.3787C336.052 53.9831 330.483 48.3106 328.595 39.9266C327.972 37.0885 327.807 34.1689 328.104 31.2784C324.343 31.8198 320.634 32.6745 317.014 33.8336C295.721 40.5048 283.45 54.5333 280.535 75.5268C279.286 85.4837 279.975 95.5888 282.563 105.283C282.6 105.403 282.608 105.529 282.587 105.653C282.566 105.776 282.516 105.893 282.442 105.994C282.367 106.094 282.271 106.176 282.159 106.233C282.047 106.289 281.924 106.318 281.799 106.318V106.314ZM329.734 31.0782C329.401 33.9137 329.543 36.7849 330.154 39.5735C331.881 47.2431 336.874 52.4265 342.875 52.7796C344.51 52.897 346.143 52.5164 347.559 51.6875C348.975 50.8587 350.108 49.6205 350.809 48.1352C351.722 46.2228 352.054 44.0834 351.763 41.9833C351.472 39.8832 350.571 37.9154 349.172 36.3248C345.435 31.931 338.616 30.1565 329.734 31.0782Z" fill="#292A2E"/>
<path d="M407.848 13.5198C406.772 13.5176 405.718 13.2104 404.808 12.6337C403.899 12.057 403.17 11.2344 402.707 10.2607C402.244 9.28708 402.066 8.20208 402.192 7.13097C402.318 6.05986 402.744 5.0463 403.42 4.20728C404.096 3.36825 404.995 2.73796 406.014 2.38915C407.033 2.04033 408.129 1.98721 409.176 2.23592C410.223 2.48463 411.179 3.02503 411.933 3.79475C412.687 4.56447 413.209 5.53213 413.437 6.58605C413.616 7.4215 413.607 8.28652 413.409 9.11776C413.211 9.949 412.831 10.7254 412.295 11.3902C411.759 12.0549 411.082 12.5912 410.312 12.9597C409.543 13.3282 408.701 13.5195 407.848 13.5198ZM407.86 3.68329C407.01 3.68328 406.181 3.94742 405.487 4.43933C404.793 4.93124 404.269 5.62668 403.986 6.42983C403.703 7.23297 403.675 8.10427 403.907 8.92363C404.139 9.74299 404.619 10.4701 405.281 11.0047C405.943 11.5393 406.754 11.8551 407.602 11.9086C408.45 11.9621 409.294 11.7506 410.018 11.3033C410.741 10.856 411.308 10.1949 411.641 9.41114C411.973 8.62737 412.055 7.75951 411.875 6.92717C411.68 6.00628 411.174 5.18083 410.443 4.58995C409.712 3.99906 408.799 3.67885 407.86 3.68329Z" fill="#292A2E"/>
<path d="M405.442 26.589C403.977 26.5889 402.568 26.0261 401.505 25.0165C400.442 24.0069 399.806 22.6274 399.727 21.1618C399.648 19.6963 400.133 18.2563 401.082 17.1384C402.031 16.0204 403.372 15.3095 404.828 15.152C406.284 14.9946 407.745 15.4025 408.911 16.2919C410.076 17.1813 410.856 18.4844 411.091 19.933C411.327 21.3816 410.999 22.8654 410.175 24.079C409.351 25.2926 408.095 26.1437 406.664 26.4569C406.262 26.5447 405.853 26.589 405.442 26.589ZM405.462 16.7517C405.166 16.7518 404.871 16.7837 404.583 16.847C403.562 17.0716 402.666 17.6797 402.079 18.5463C401.492 19.4128 401.259 20.4718 401.427 21.5053C401.596 22.5389 402.153 23.4684 402.985 24.1026C403.817 24.7368 404.859 25.0275 405.898 24.9149C406.937 24.8022 407.894 24.2948 408.571 23.4971C409.248 22.6993 409.594 21.6718 409.538 20.6261C409.482 19.5803 409.029 18.5958 408.27 17.8751C407.512 17.1544 406.507 16.7524 405.462 16.7517Z" fill="#292A2E"/>
<path d="M414.024 15.8593C414.528 13.1242 411.623 10.2943 407.536 9.53865C403.45 8.783 399.728 10.3877 399.225 13.1228C398.721 15.8579 401.626 18.6878 405.712 19.4434C409.799 20.1991 413.521 18.5944 414.024 15.8593Z" fill="white"/>
<path d="M407.725 20.4319C407.001 20.4308 406.279 20.3638 405.567 20.2317C403.557 19.8976 401.688 18.9832 400.19 17.6004C399.534 17.0396 399.029 16.3221 398.723 15.5142C398.417 14.7064 398.319 13.8342 398.439 12.9785C398.632 12.1364 399.034 11.3568 399.608 10.7116C400.182 10.0664 400.908 9.57642 401.721 9.28696C403.622 8.56754 405.683 8.38258 407.681 8.75207C409.679 9.12157 411.539 10.0315 413.058 11.3833C413.714 11.9442 414.219 12.6617 414.525 13.4696C414.831 14.2774 414.929 15.1496 414.809 16.0053C414.616 16.8474 414.214 17.627 413.64 18.2722C413.066 18.9174 412.34 19.4074 411.527 19.6968C410.322 20.1965 409.029 20.4466 407.725 20.4319ZM405.518 10.1518C404.432 10.138 403.356 10.3441 402.352 10.758C401.784 10.9484 401.273 11.2778 400.864 11.7163C400.455 12.1548 400.162 12.6885 400.011 13.2691C399.945 13.8656 400.029 14.469 400.255 15.0248C400.48 15.5806 400.841 16.0712 401.304 16.4522C402.596 17.5827 404.169 18.3439 405.856 18.6559C407.543 18.968 409.283 18.8194 410.893 18.2258C411.461 18.0354 411.973 17.706 412.382 17.2675C412.791 16.829 413.084 16.2953 413.235 15.7147C413.301 15.1182 413.217 14.5146 412.992 13.9587C412.766 13.4029 412.405 12.9123 411.942 12.5316C410.67 11.3688 409.087 10.6027 407.387 10.3271C406.771 10.2123 406.147 10.1536 405.521 10.1518H405.518Z" fill="#292A2E"/>
<path d="M405.701 9.35425L404.094 19.0162L406.465 19.5575L408.454 9.74902L405.701 9.35425Z" fill="#292A2E"/>
<path d="M415.335 19.7491C415.764 19.7491 416.112 19.4006 416.112 18.9707C416.112 18.5409 415.764 18.1924 415.335 18.1924C414.906 18.1924 414.558 18.5409 414.558 18.9707C414.558 19.4006 414.906 19.7491 415.335 19.7491Z" fill="#292A2E"/>
<path d="M416.689 15.7644C417.118 15.7644 417.466 15.416 417.466 14.9861C417.466 14.5562 417.118 14.2078 416.689 14.2078C416.26 14.2078 415.912 14.5562 415.912 14.9861C415.912 15.416 416.26 15.7644 416.689 15.7644Z" fill="#292A2E"/>
</g>
<defs>
<clipPath id="clip0_1_2807">
<rect width="446" height="381" fill="white"/>
</clipPath>
</defs>
</svg>
