<svg width="28" height="28" viewBox="0 0 28 28" fill="none" xmlns="http://www.w3.org/2000/svg">
<path d="M14.0001 27.3334C6.63628 27.3334 0.666748 21.3638 0.666748 14.0001C0.666748 6.63628 6.63628 0.666748 14.0001 0.666748C21.3638 0.666748 27.3334 6.63628 27.3334 14.0001C27.3334 21.3638 21.3638 27.3334 14.0001 27.3334ZM14.0001 24.6667C19.8911 24.6667 24.6667 19.8911 24.6667 14.0001C24.6667 8.10904 19.8911 3.33341 14.0001 3.33341C8.10904 3.33341 3.33341 8.10904 3.33341 14.0001C3.33341 19.8911 8.10904 24.6667 14.0001 24.6667ZM12.6667 18.0001H15.3334V20.6667H12.6667V18.0001ZM12.6667 7.33341H15.3334V15.3334H12.6667V7.33341Z" fill="#FF9800"/>
</svg>
