<svg width="119" height="132" viewBox="0 0 119 132" fill="none" xmlns="http://www.w3.org/2000/svg">
<g clip-path="url(#clip0_1_569)">
<path d="M7.13108 37.2036L40.6825 37.2036C41.3202 37.2036 41.9318 36.9567 42.3827 36.5171C42.8337 36.0776 43.087 35.4815 43.087 34.8599V11.0522C43.087 10.4309 42.8338 9.83506 42.3831 9.39573C41.9323 8.95639 41.321 8.70958 40.6836 8.70958L7.12996 8.70958C6.49254 8.70958 5.88122 8.95639 5.4305 9.39573C4.97978 9.83506 4.72656 10.4309 4.72656 11.0522L4.72656 34.8599C4.72656 35.4815 4.9799 36.0776 5.43083 36.5171C5.88177 36.9567 6.49337 37.2036 7.13108 37.2036Z" fill="white"/>
<path d="M43.1875 34.8598V11.0522C43.1875 10.4049 42.9237 9.7841 42.4541 9.3264C41.9846 8.8687 41.3477 8.61157 40.6836 8.61157H7.13C6.46593 8.61157 5.82906 8.8687 5.3595 9.3264C4.88993 9.7841 4.62614 10.4049 4.62614 11.0522V34.8598C4.62614 35.1804 4.69093 35.4979 4.81682 35.7942C4.94271 36.0904 5.12722 36.3596 5.35983 36.5863C5.59244 36.813 5.86858 36.9929 6.1725 37.1156C6.47642 37.2383 6.80216 37.3015 7.13111 37.3015H40.6825C41.0115 37.3015 41.3372 37.2383 41.6411 37.1156C41.9451 36.9929 42.2212 36.813 42.4538 36.5863C42.6864 36.3596 42.8709 36.0904 42.9968 35.7942C43.1227 35.4979 43.1875 35.1804 43.1875 34.8598ZM40.6836 8.80742C41.2943 8.80759 41.8799 9.04416 42.3116 9.46511C42.7434 9.88606 42.9859 10.4569 42.9859 11.0522V34.8598C42.9859 35.4554 42.7432 36.0266 42.3111 36.4478C41.879 36.869 41.2929 37.1056 40.6819 37.1056H7.13111C6.52004 37.1056 5.93401 36.869 5.50191 36.4478C5.06982 36.0266 4.82706 35.4554 4.82706 34.8598V11.0522C4.82706 10.4568 5.06969 9.88586 5.50158 9.46489C5.93346 9.04392 6.51922 8.80742 7.13 8.80742H40.6836Z" fill="#292A2E"/>
<path d="M43.0869 11.0519V13.0356H4.72696V11.0519C4.72696 10.4306 4.98018 9.83471 5.4309 9.39538C5.88162 8.95604 6.49293 8.70923 7.13035 8.70923H40.6837C40.9993 8.70923 41.3118 8.76982 41.6034 8.88756C41.895 9.00529 42.1599 9.17785 42.3831 9.39539C42.6062 9.61292 42.7833 9.87118 42.904 10.1554C43.0248 10.4396 43.0869 10.7443 43.0869 11.0519Z" fill="#292A2E"/>
<path d="M29.9865 16.2421H31.7966C31.8179 16.2421 31.8383 16.2339 31.8534 16.2192C31.8685 16.2045 31.877 16.1846 31.877 16.1638C31.877 16.143 31.8685 16.1231 31.8534 16.1084C31.8383 16.0937 31.8179 16.0854 31.7966 16.0854H29.9865C29.9652 16.0854 29.9447 16.0937 29.9297 16.1084C29.9146 16.1231 29.9061 16.143 29.9061 16.1638C29.9061 16.1846 29.9146 16.2045 29.9297 16.2192C29.9447 16.2339 29.9652 16.2421 29.9865 16.2421Z" fill="#292A2E"/>
<path d="M33.1019 16.2421H33.7868C33.8081 16.2421 33.8286 16.2339 33.8437 16.2192C33.8587 16.2045 33.8672 16.1846 33.8672 16.1638C33.8672 16.143 33.8587 16.1231 33.8437 16.1084C33.8286 16.0937 33.8081 16.0854 33.7868 16.0854H33.1019C33.0806 16.0854 33.0601 16.0937 33.0451 16.1084C33.03 16.1231 33.0215 16.143 33.0215 16.1638C33.0215 16.1846 33.03 16.2045 33.0451 16.2192C33.0601 16.2339 33.0806 16.2421 33.1019 16.2421Z" fill="#367CFF"/>
<path d="M33.1019 17.6555H33.7868C33.8081 17.6555 33.8286 17.6472 33.8437 17.6325C33.8587 17.6178 33.8672 17.5979 33.8672 17.5771C33.8672 17.5563 33.8587 17.5364 33.8437 17.5217C33.8286 17.507 33.8081 17.4988 33.7868 17.4988H33.1019C33.0806 17.4988 33.0601 17.507 33.0451 17.5217C33.03 17.5364 33.0215 17.5563 33.0215 17.5771C33.0215 17.5979 33.03 17.6178 33.0451 17.6325C33.0601 17.6472 33.0806 17.6555 33.1019 17.6555Z" fill="#367CFF"/>
<path d="M33.1019 19.0685H33.7868C33.8081 19.0685 33.8286 19.0603 33.8437 19.0456C33.8587 19.0309 33.8672 19.011 33.8672 18.9902C33.8672 18.9694 33.8587 18.9495 33.8437 18.9348C33.8286 18.9201 33.8081 18.9119 33.7868 18.9119H33.1019C33.0806 18.9119 33.0601 18.9201 33.0451 18.9348C33.03 18.9495 33.0215 18.9694 33.0215 18.9902C33.0215 19.011 33.03 19.0309 33.0451 19.0456C33.0601 19.0603 33.0806 19.0685 33.1019 19.0685Z" fill="#367CFF"/>
<path d="M33.1019 20.4819H33.7868C33.8081 20.4819 33.8286 20.4736 33.8437 20.4589C33.8587 20.4442 33.8672 20.4243 33.8672 20.4035C33.8672 20.3828 33.8587 20.3628 33.8437 20.3481C33.8286 20.3335 33.8081 20.3252 33.7868 20.3252H33.1019C33.0806 20.3252 33.0601 20.3335 33.0451 20.3481C33.03 20.3628 33.0215 20.3828 33.0215 20.4035C33.0215 20.4243 33.03 20.4442 33.0451 20.4589C33.0601 20.4736 33.0806 20.4819 33.1019 20.4819Z" fill="#367CFF"/>
<path d="M33.1019 21.8952H33.7868C33.8081 21.8952 33.8286 21.8869 33.8437 21.8723C33.8587 21.8576 33.8672 21.8376 33.8672 21.8169C33.8672 21.7961 33.8587 21.7762 33.8437 21.7615C33.8286 21.7468 33.8081 21.7385 33.7868 21.7385H33.1019C33.0806 21.7385 33.0601 21.7468 33.0451 21.7615C33.03 21.7762 33.0215 21.7961 33.0215 21.8169C33.0215 21.8376 33.03 21.8576 33.0451 21.8723C33.0601 21.8869 33.0806 21.8952 33.1019 21.8952Z" fill="#367CFF"/>
<path d="M33.1019 23.3083H33.7868C33.8081 23.3083 33.8286 23.3 33.8437 23.2853C33.8587 23.2707 33.8672 23.2507 33.8672 23.23C33.8672 23.2092 33.8587 23.1892 33.8437 23.1746C33.8286 23.1599 33.8081 23.1516 33.7868 23.1516H33.1019C33.0806 23.1516 33.0601 23.1599 33.0451 23.1746C33.03 23.1892 33.0215 23.2092 33.0215 23.23C33.0215 23.2507 33.03 23.2707 33.0451 23.2853C33.0601 23.3 33.0806 23.3083 33.1019 23.3083Z" fill="#367CFF"/>
<path d="M33.1019 24.7216H33.7868C33.8081 24.7216 33.8286 24.7134 33.8437 24.6987C33.8587 24.684 33.8672 24.6641 33.8672 24.6433C33.8672 24.6225 33.8587 24.6026 33.8437 24.5879C33.8286 24.5732 33.8081 24.5649 33.7868 24.5649H33.1019C33.0806 24.5649 33.0601 24.5732 33.0451 24.5879C33.03 24.6026 33.0215 24.6225 33.0215 24.6433C33.0215 24.6641 33.03 24.684 33.0451 24.6987C33.0601 24.7134 33.0806 24.7216 33.1019 24.7216Z" fill="#367CFF"/>
<path d="M33.1019 26.1347H33.7868C33.8081 26.1347 33.8286 26.1265 33.8437 26.1118C33.8587 26.0971 33.8672 26.0771 33.8672 26.0564C33.8672 26.0356 33.8587 26.0157 33.8437 26.001C33.8286 25.9863 33.8081 25.978 33.7868 25.978H33.1019C33.0806 25.978 33.0601 25.9863 33.0451 26.001C33.03 26.0157 33.0215 26.0356 33.0215 26.0564C33.0215 26.0771 33.03 26.0971 33.0451 26.1118C33.0601 26.1265 33.0806 26.1347 33.1019 26.1347Z" fill="#367CFF"/>
<path d="M33.1019 27.548H33.7868C33.8081 27.548 33.8286 27.5398 33.8437 27.5251C33.8587 27.5104 33.8672 27.4905 33.8672 27.4697C33.8672 27.4489 33.8587 27.429 33.8437 27.4143C33.8286 27.3996 33.8081 27.3914 33.7868 27.3914H33.1019C33.0806 27.3914 33.0601 27.3996 33.0451 27.4143C33.03 27.429 33.0215 27.4489 33.0215 27.4697C33.0215 27.4905 33.03 27.5104 33.0451 27.5251C33.0601 27.5398 33.0806 27.548 33.1019 27.548Z" fill="#367CFF"/>
<path d="M33.1019 28.9614H33.7868C33.8081 28.9614 33.8286 28.9531 33.8437 28.9384C33.8587 28.9237 33.8672 28.9038 33.8672 28.883C33.8672 28.8622 33.8587 28.8423 33.8437 28.8276C33.8286 28.8129 33.8081 28.8047 33.7868 28.8047H33.1019C33.0806 28.8047 33.0601 28.8129 33.0451 28.8276C33.03 28.8423 33.0215 28.8622 33.0215 28.883C33.0215 28.9038 33.03 28.9237 33.0451 28.9384C33.0601 28.9531 33.0806 28.9614 33.1019 28.9614Z" fill="#367CFF"/>
<path d="M33.1019 30.3745H33.7868C33.8081 30.3745 33.8286 30.3662 33.8437 30.3515C33.8587 30.3368 33.8672 30.3169 33.8672 30.2961C33.8672 30.2753 33.8587 30.2554 33.8437 30.2407C33.8286 30.226 33.8081 30.2178 33.7868 30.2178H33.1019C33.0806 30.2178 33.0601 30.226 33.0451 30.2407C33.03 30.2554 33.0215 30.2753 33.0215 30.2961C33.0215 30.3169 33.03 30.3368 33.0451 30.3515C33.0601 30.3662 33.0806 30.3745 33.1019 30.3745Z" fill="#367CFF"/>
<path d="M33.1019 31.7878H33.7868C33.8081 31.7878 33.8286 31.7795 33.8437 31.7648C33.8587 31.7501 33.8672 31.7302 33.8672 31.7094C33.8672 31.6887 33.8587 31.6687 33.8437 31.654C33.8286 31.6394 33.8081 31.6311 33.7868 31.6311H33.1019C33.0806 31.6311 33.0601 31.6394 33.0451 31.654C33.03 31.6687 33.0215 31.6887 33.0215 31.7094C33.0215 31.7302 33.03 31.7501 33.0451 31.7648C33.0601 31.7795 33.0806 31.7878 33.1019 31.7878Z" fill="#367CFF"/>
<path d="M33.1019 33.2011H33.7868C33.8081 33.2011 33.8286 33.1929 33.8437 33.1782C33.8587 33.1635 33.8672 33.1435 33.8672 33.1228C33.8672 33.102 33.8587 33.0821 33.8437 33.0674C33.8286 33.0527 33.8081 33.0444 33.7868 33.0444H33.1019C33.0806 33.0444 33.0601 33.0527 33.0451 33.0674C33.03 33.0821 33.0215 33.102 33.0215 33.1228C33.0215 33.1435 33.03 33.1635 33.0451 33.1782C33.0601 33.1929 33.0806 33.2011 33.1019 33.2011Z" fill="#367CFF"/>
<path d="M33.1019 34.6144H33.7868C33.8081 34.6144 33.8286 34.6062 33.8437 34.5915C33.8587 34.5768 33.8672 34.5569 33.8672 34.5361C33.8672 34.5153 33.8587 34.4954 33.8437 34.4807C33.8286 34.466 33.8081 34.4578 33.7868 34.4578H33.1019C33.0806 34.4578 33.0601 34.466 33.0451 34.4807C33.03 34.4954 33.0215 34.5153 33.0215 34.5361C33.0215 34.5569 33.03 34.5768 33.0451 34.5915C33.0601 34.6062 33.0806 34.6144 33.1019 34.6144Z" fill="#367CFF"/>
<path d="M28.5398 17.6555H30.1892C30.2105 17.6555 30.2309 17.6472 30.246 17.6325C30.2611 17.6178 30.2695 17.5979 30.2695 17.5771C30.2695 17.5563 30.2611 17.5364 30.246 17.5217C30.2309 17.507 30.2105 17.4988 30.1892 17.4988H28.5398C28.5185 17.4988 28.4981 17.507 28.483 17.5217C28.4679 17.5364 28.4594 17.5563 28.4594 17.5771C28.4594 17.5979 28.4679 17.6178 28.483 17.6325C28.4981 17.6472 28.5185 17.6555 28.5398 17.6555Z" fill="#292A2E"/>
<path d="M29.9865 26.1347H31.7966C31.8179 26.1347 31.8383 26.1265 31.8534 26.1118C31.8685 26.0971 31.877 26.0771 31.877 26.0564C31.877 26.0356 31.8685 26.0157 31.8534 26.001C31.8383 25.9863 31.8179 25.978 31.7966 25.978H29.9865C29.9652 25.978 29.9447 25.9863 29.9297 26.001C29.9146 26.0157 29.9061 26.0356 29.9061 26.0564C29.9061 26.0771 29.9146 26.0971 29.9297 26.1118C29.9447 26.1265 29.9652 26.1347 29.9865 26.1347Z" fill="#292A2E"/>
<path d="M28.5398 27.548H30.1892C30.2105 27.548 30.2309 27.5398 30.246 27.5251C30.2611 27.5104 30.2695 27.4905 30.2695 27.4697C30.2695 27.4489 30.2611 27.429 30.246 27.4143C30.2309 27.3996 30.2105 27.3914 30.1892 27.3914H28.5398C28.5185 27.3914 28.4981 27.3996 28.483 27.4143C28.4679 27.429 28.4594 27.4489 28.4594 27.4697C28.4594 27.4905 28.4679 27.5104 28.483 27.5251C28.4981 27.5398 28.5185 27.548 28.5398 27.548Z" fill="#292A2E"/>
<path d="M19.2165 19.0685H29.0637C29.085 19.0685 29.1054 19.0603 29.1205 19.0456C29.1356 19.0309 29.144 19.011 29.144 18.9902C29.144 18.9694 29.1356 18.9495 29.1205 18.9348C29.1054 18.9201 29.085 18.9119 29.0637 18.9119H19.2165C19.1952 18.9119 19.1748 18.9201 19.1597 18.9348C19.1446 18.9495 19.1362 18.9694 19.1362 18.9902C19.1362 19.011 19.1446 19.0309 19.1597 19.0456C19.1748 19.0603 19.1952 19.0685 19.2165 19.0685Z" fill="#292A2E"/>
<path d="M10.5226 19.0685H17.4763C17.4976 19.0685 17.518 19.0603 17.5331 19.0456C17.5482 19.0309 17.5566 19.011 17.5566 18.9902C17.5566 18.9694 17.5482 18.9495 17.5331 18.9348C17.518 18.9201 17.4976 18.9119 17.4763 18.9119H10.5226C10.5013 18.9119 10.4809 18.9201 10.4658 18.9348C10.4507 18.9495 10.4423 18.9694 10.4423 18.9902C10.4423 19.011 10.4507 19.0309 10.4658 19.0456C10.4809 19.0603 10.5013 19.0685 10.5226 19.0685Z" fill="#0CBC8B"/>
<path d="M6.79065 19.0685H8.92207C8.94339 19.0685 8.96382 19.0603 8.9789 19.0456C8.99397 19.0309 9.00244 19.011 9.00244 18.9902C9.00244 18.9694 8.99397 18.9495 8.9789 18.9348C8.96382 18.9201 8.94339 18.9119 8.92207 18.9119H6.79065C6.76933 18.9119 6.74889 18.9201 6.73381 18.9348C6.71874 18.9495 6.71028 18.9694 6.71028 18.9902C6.71028 19.011 6.71874 19.0309 6.73381 19.0456C6.74889 19.0603 6.76933 19.0685 6.79065 19.0685Z" fill="#292A2E"/>
<path d="M14.3943 21.8952H29.0637C29.085 21.8952 29.1054 21.8869 29.1205 21.8723C29.1356 21.8576 29.144 21.8376 29.144 21.8169C29.144 21.7961 29.1356 21.7762 29.1205 21.7615C29.1054 21.7468 29.085 21.7385 29.0637 21.7385H14.3943C14.373 21.7385 14.3526 21.7468 14.3375 21.7615C14.3224 21.7762 14.314 21.7961 14.314 21.8169C14.314 21.8376 14.3224 21.8576 14.3375 21.8723C14.3526 21.8869 14.373 21.8952 14.3943 21.8952Z" fill="#292A2E"/>
<path d="M10.5226 21.8952H12.654C12.6753 21.8952 12.6958 21.8869 12.7108 21.8723C12.7259 21.8576 12.7344 21.8376 12.7344 21.8169C12.7344 21.7961 12.7259 21.7762 12.7108 21.7615C12.6958 21.7468 12.6753 21.7385 12.654 21.7385H10.5226C10.5013 21.7385 10.4808 21.7468 10.4657 21.7615C10.4507 21.7762 10.4422 21.7961 10.4422 21.8169C10.4422 21.8376 10.4507 21.8576 10.4657 21.8723C10.4808 21.8869 10.5013 21.8952 10.5226 21.8952Z" fill="#367CFF"/>
<path d="M27.2536 20.4819H29.0637C29.085 20.4819 29.1054 20.4736 29.1205 20.4589C29.1356 20.4442 29.144 20.4243 29.144 20.4035C29.144 20.3828 29.1356 20.3628 29.1205 20.3481C29.1054 20.3335 29.085 20.3252 29.0637 20.3252H27.2536C27.2323 20.3252 27.2118 20.3335 27.1968 20.3481C27.1817 20.3628 27.1732 20.3828 27.1732 20.4035C27.1732 20.4243 27.1817 20.4442 27.1968 20.4589C27.2118 20.4736 27.2323 20.4819 27.2536 20.4819Z" fill="#0CBC8B"/>
<path d="M15.3449 20.4819H25.5134C25.5347 20.4819 25.5551 20.4736 25.5702 20.4589C25.5853 20.4442 25.5938 20.4243 25.5938 20.4035C25.5938 20.3828 25.5853 20.3628 25.5702 20.3481C25.5551 20.3335 25.5347 20.3252 25.5134 20.3252H15.3449C15.3236 20.3252 15.3032 20.3335 15.2881 20.3481C15.273 20.3628 15.2646 20.3828 15.2646 20.4035C15.2646 20.4243 15.273 20.4442 15.2881 20.4589C15.3032 20.4736 15.3236 20.4819 15.3449 20.4819Z" fill="#367CFF"/>
<path d="M6.77673 20.4819H13.4094C13.4307 20.4819 13.4511 20.4736 13.4662 20.4589C13.4813 20.4442 13.4897 20.4243 13.4897 20.4035C13.4897 20.3828 13.4813 20.3628 13.4662 20.3481C13.4511 20.3335 13.4307 20.3252 13.4094 20.3252H6.77706C6.75574 20.3252 6.73531 20.3335 6.72023 20.3481C6.70516 20.3628 6.69669 20.3828 6.69669 20.4035C6.69669 20.4243 6.70516 20.4442 6.72023 20.4589C6.73531 20.4736 6.75574 20.4819 6.77706 20.4819H6.77673Z" fill="#292A2E"/>
<path d="M19.2165 23.3083H29.0637C29.085 23.3083 29.1054 23.3 29.1205 23.2853C29.1356 23.2707 29.144 23.2507 29.144 23.23C29.144 23.2092 29.1356 23.1892 29.1205 23.1746C29.1054 23.1599 29.085 23.1516 29.0637 23.1516H19.2165C19.1952 23.1516 19.1748 23.1599 19.1597 23.1746C19.1446 23.1892 19.1362 23.2092 19.1362 23.23C19.1362 23.2507 19.1446 23.2707 19.1597 23.2853C19.1748 23.3 19.1952 23.3083 19.2165 23.3083Z" fill="#292A2E"/>
<path d="M13.7374 23.3083H17.4763C17.4976 23.3083 17.518 23.3 17.5331 23.2853C17.5482 23.2707 17.5566 23.2507 17.5566 23.23C17.5566 23.2092 17.5482 23.1892 17.5331 23.1746C17.518 23.1599 17.4976 23.1516 17.4763 23.1516H13.7374C13.7161 23.1516 13.6957 23.1599 13.6806 23.1746C13.6655 23.1892 13.6571 23.2092 13.6571 23.23C13.6571 23.2507 13.6655 23.2707 13.6806 23.2853C13.6957 23.3 13.7161 23.3083 13.7374 23.3083Z" fill="#0CBC8B"/>
<path d="M6.79068 23.3083H12.1369C12.1582 23.3083 12.1787 23.3 12.1937 23.2853C12.2088 23.2707 12.2173 23.2507 12.2173 23.23C12.2173 23.2092 12.2088 23.1892 12.1937 23.1746C12.1787 23.1599 12.1582 23.1516 12.1369 23.1516H6.79068C6.76936 23.1516 6.74892 23.1599 6.73385 23.1746C6.71877 23.1892 6.71031 23.2092 6.71031 23.23C6.71031 23.2507 6.71877 23.2707 6.73385 23.2853C6.74892 23.3 6.76936 23.3083 6.79068 23.3083Z" fill="#292A2E"/>
<path d="M27.2536 24.7216H29.0637C29.085 24.7216 29.1054 24.7134 29.1205 24.6987C29.1356 24.684 29.144 24.6641 29.144 24.6433C29.144 24.6225 29.1356 24.6026 29.1205 24.5879C29.1054 24.5732 29.085 24.5649 29.0637 24.5649H27.2536C27.2323 24.5649 27.2118 24.5732 27.1968 24.5879C27.1817 24.6026 27.1732 24.6225 27.1732 24.6433C27.1732 24.6641 27.1817 24.684 27.1968 24.6987C27.2118 24.7134 27.2323 24.7216 27.2536 24.7216Z" fill="#367CFF"/>
<path d="M15.3449 24.7216H25.5134C25.5347 24.7216 25.5551 24.7134 25.5702 24.6987C25.5853 24.684 25.5938 24.6641 25.5938 24.6433C25.5938 24.6225 25.5853 24.6026 25.5702 24.5879C25.5551 24.5732 25.5347 24.5649 25.5134 24.5649H15.3449C15.3236 24.5649 15.3032 24.5732 15.2881 24.5879C15.273 24.6026 15.2646 24.6225 15.2646 24.6433C15.2646 24.6641 15.273 24.684 15.2881 24.6987C15.3032 24.7134 15.3236 24.7216 15.3449 24.7216Z" fill="#0CBC8B"/>
<path d="M19.5383 30.3745H29.3854C29.4068 30.3745 29.4272 30.3662 29.4423 30.3515C29.4574 30.3368 29.4658 30.3169 29.4658 30.2961C29.4658 30.2753 29.4574 30.2554 29.4423 30.2407C29.4272 30.226 29.4068 30.2178 29.3854 30.2178H19.5383C19.517 30.2178 19.4966 30.226 19.4815 30.2407C19.4664 30.2554 19.4579 30.2753 19.4579 30.2961C19.4579 30.3169 19.4664 30.3368 19.4815 30.3515C19.4966 30.3662 19.517 30.3745 19.5383 30.3745Z" fill="#292A2E"/>
<path d="M10.8444 30.3745H17.798C17.8194 30.3745 17.8398 30.3662 17.8549 30.3515C17.8699 30.3368 17.8784 30.3169 17.8784 30.2961C17.8784 30.2753 17.8699 30.2554 17.8549 30.2407C17.8398 30.226 17.8194 30.2178 17.798 30.2178H10.8444C10.8231 30.2178 10.8026 30.226 10.7876 30.2407C10.7725 30.2554 10.764 30.2753 10.764 30.2961C10.764 30.3169 10.7725 30.3368 10.7876 30.3515C10.8026 30.3662 10.8231 30.3745 10.8444 30.3745Z" fill="#367CFF"/>
<path d="M24.3605 28.9614H29.3854C29.4068 28.9614 29.4272 28.9531 29.4423 28.9384C29.4574 28.9237 29.4658 28.9038 29.4658 28.883C29.4658 28.8622 29.4574 28.8423 29.4423 28.8276C29.4272 28.8129 29.4068 28.8047 29.3854 28.8047H24.3605C24.3392 28.8047 24.3188 28.8129 24.3037 28.8276C24.2886 28.8423 24.2802 28.8622 24.2802 28.883C24.2802 28.9038 24.2886 28.9237 24.3037 28.9384C24.3188 28.9531 24.3392 28.9614 24.3605 28.9614Z" fill="#0CBC8B"/>
<path d="M15.6667 28.9614H22.6203C22.6416 28.9614 22.6621 28.9531 22.6771 28.9384C22.6922 28.9237 22.7007 28.9038 22.7007 28.883C22.7007 28.8622 22.6922 28.8423 22.6771 28.8276C22.6621 28.8129 22.6416 28.8047 22.6203 28.8047H15.6667C15.6454 28.8047 15.6249 28.8129 15.6098 28.8276C15.5948 28.8423 15.5863 28.8622 15.5863 28.883C15.5863 28.9038 15.5948 28.9237 15.6098 28.9384C15.6249 28.9531 15.6454 28.9614 15.6667 28.9614Z" fill="#367CFF"/>
<path d="M7.09851 28.9614H13.7312C13.7525 28.9614 13.7729 28.9531 13.788 28.9384C13.8031 28.9237 13.8115 28.9038 13.8115 28.883C13.8115 28.8622 13.8031 28.8423 13.788 28.8276C13.7729 28.8129 13.7525 28.8047 13.7312 28.8047H7.09883C7.07752 28.8047 7.05708 28.8129 7.04201 28.8276C7.02694 28.8423 7.01846 28.8622 7.01846 28.883C7.01846 28.9038 7.02694 28.9237 7.04201 28.9384C7.05708 28.9531 7.07752 28.9614 7.09883 28.9614H7.09851Z" fill="#292A2E"/>
<path d="M14.7161 33.2011H29.3854C29.4068 33.2011 29.4272 33.1929 29.4423 33.1782C29.4574 33.1635 29.4658 33.1435 29.4658 33.1228C29.4658 33.102 29.4574 33.0821 29.4423 33.0674C29.4272 33.0527 29.4068 33.0444 29.3854 33.0444H14.7161C14.6948 33.0444 14.6743 33.0527 14.6593 33.0674C14.6442 33.0821 14.6357 33.102 14.6357 33.1228C14.6357 33.1435 14.6442 33.1635 14.6593 33.1782C14.6743 33.1929 14.6948 33.2011 14.7161 33.2011Z" fill="#367CFF"/>
<path d="M10.8444 33.2011H12.9758C12.9971 33.2011 13.0175 33.1929 13.0326 33.1782C13.0477 33.1635 13.0562 33.1435 13.0562 33.1228C13.0562 33.102 13.0477 33.0821 13.0326 33.0674C13.0175 33.0527 12.9971 33.0444 12.9758 33.0444H10.8444C10.823 33.0444 10.8026 33.0527 10.7875 33.0674C10.7725 33.0821 10.764 33.102 10.764 33.1228C10.764 33.1435 10.7725 33.1635 10.7875 33.1782C10.8026 33.1929 10.823 33.2011 10.8444 33.2011Z" fill="#292A2E"/>
<path d="M27.5754 31.788H29.3854C29.4068 31.788 29.4272 31.7798 29.4423 31.7651C29.4574 31.7504 29.4658 31.7305 29.4658 31.7097C29.4658 31.6889 29.4574 31.669 29.4423 31.6543C29.4272 31.6396 29.4068 31.6313 29.3854 31.6313H27.5754C27.554 31.6313 27.5336 31.6396 27.5185 31.6543C27.5035 31.669 27.495 31.6889 27.495 31.7097C27.495 31.7305 27.5035 31.7504 27.5185 31.7651C27.5336 31.7798 27.554 31.788 27.5754 31.788Z" fill="#367CFF"/>
<path d="M15.6667 31.788H25.8352C25.8565 31.788 25.8769 31.7798 25.892 31.7651C25.9071 31.7504 25.9155 31.7305 25.9155 31.7097C25.9155 31.6889 25.9071 31.669 25.892 31.6543C25.8769 31.6396 25.8565 31.6313 25.8352 31.6313H15.6667C15.6454 31.6313 15.6249 31.6396 15.6099 31.6543C15.5948 31.669 15.5863 31.6889 15.5863 31.7097C15.5863 31.7305 15.5948 31.7504 15.6099 31.7651C15.6249 31.7798 15.6454 31.788 15.6667 31.788Z" fill="#292A2E"/>
<path d="M7.09851 31.788H13.7312C13.7525 31.788 13.7729 31.7798 13.788 31.7651C13.8031 31.7504 13.8115 31.7305 13.8115 31.7097C13.8115 31.6889 13.8031 31.669 13.788 31.6543C13.7729 31.6396 13.7525 31.6313 13.7312 31.6313H7.09883C7.07752 31.6313 7.05708 31.6396 7.04201 31.6543C7.02694 31.669 7.01846 31.6889 7.01846 31.7097C7.01846 31.7305 7.02694 31.7504 7.04201 31.7651C7.05708 31.7798 7.07752 31.788 7.09883 31.788H7.09851Z" fill="#0CBC8B"/>
<path d="M19.5383 34.6144H29.3854C29.4068 34.6144 29.4272 34.6062 29.4423 34.5915C29.4574 34.5768 29.4658 34.5569 29.4658 34.5361C29.4658 34.5153 29.4574 34.4954 29.4423 34.4807C29.4272 34.466 29.4068 34.4578 29.3854 34.4578H19.5383C19.517 34.4578 19.4966 34.466 19.4815 34.4807C19.4664 34.4954 19.4579 34.5153 19.4579 34.5361C19.4579 34.5569 19.4664 34.5768 19.4815 34.5915C19.4966 34.6062 19.517 34.6144 19.5383 34.6144Z" fill="#0CBC8B"/>
<path d="M14.0592 34.6144H17.798C17.8194 34.6144 17.8398 34.6062 17.8549 34.5915C17.8699 34.5768 17.8784 34.5569 17.8784 34.5361C17.8784 34.5153 17.8699 34.4954 17.8549 34.4807C17.8398 34.466 17.8194 34.4578 17.798 34.4578H14.0592C14.0379 34.4578 14.0175 34.466 14.0024 34.4807C13.9873 34.4954 13.9788 34.5153 13.9788 34.5361C13.9788 34.5569 13.9873 34.5768 14.0024 34.5915C14.0175 34.6062 14.0379 34.6144 14.0592 34.6144Z" fill="#292A2E"/>
<path d="M7.11246 34.6144H12.4587C12.48 34.6144 12.5004 34.6062 12.5155 34.5915C12.5306 34.5768 12.5391 34.5569 12.5391 34.5361C12.5391 34.5153 12.5306 34.4954 12.5155 34.4807C12.5004 34.466 12.48 34.4578 12.4587 34.4578H7.11246C7.09114 34.4578 7.07069 34.466 7.05562 34.4807C7.04055 34.4954 7.03209 34.5153 7.03209 34.5361C7.03209 34.5569 7.04055 34.5768 7.05562 34.5915C7.07069 34.6062 7.09114 34.6144 7.11246 34.6144Z" fill="#367CFF"/>
<path d="M34.55 36.1267C34.5713 36.1267 34.5918 36.1185 34.6068 36.1038C34.6219 36.0891 34.6304 36.0692 34.6304 36.0484V13.7751C34.6304 13.7543 34.6219 13.7344 34.6068 13.7197C34.5918 13.705 34.5713 13.6968 34.55 13.6968C34.5287 13.6968 34.5082 13.705 34.4932 13.7197C34.4781 13.7344 34.4696 13.7543 34.4696 13.7751V36.0484C34.4696 36.0692 34.4781 36.0891 34.4932 36.1038C34.5082 36.1185 34.5287 36.1267 34.55 36.1267Z" fill="#292A2E"/>
<path d="M7.6329 12.2862C6.92075 12.2862 6.34344 11.7235 6.34344 11.0293C6.34344 10.3352 6.92075 9.77246 7.6329 9.77246C8.34505 9.77246 8.92236 10.3352 8.92236 11.0293C8.92236 11.7235 8.34505 12.2862 7.6329 12.2862Z" fill="white"/>
<path d="M38.2259 14.7536H41.7063C41.7276 14.7536 41.748 14.7453 41.7631 14.7307C41.7782 14.716 41.7866 14.696 41.7866 14.6753C41.7866 14.6545 41.7782 14.6346 41.7631 14.6199C41.748 14.6052 41.7276 14.5969 41.7063 14.5969H38.2259C38.2046 14.5969 38.1841 14.6052 38.1691 14.6199C38.154 14.6346 38.1455 14.6545 38.1455 14.6753C38.1455 14.696 38.154 14.716 38.1691 14.7307C38.1841 14.7453 38.2046 14.7536 38.2259 14.7536Z" fill="#292A2E"/>
<path d="M39.2744 16.2988H41.7063C41.7276 16.2988 41.748 16.2905 41.7631 16.2758C41.7782 16.2611 41.7866 16.2412 41.7866 16.2204C41.7866 16.1997 41.7782 16.1797 41.7631 16.165C41.748 16.1503 41.7276 16.1421 41.7063 16.1421H39.2744C39.2531 16.1421 39.2326 16.1503 39.2176 16.165C39.2025 16.1797 39.194 16.1997 39.194 16.2204C39.194 16.2412 39.2025 16.2611 39.2176 16.2758C39.2326 16.2905 39.2531 16.2988 39.2744 16.2988Z" fill="#292A2E"/>
<path d="M37.1357 17.8439H41.7063C41.7276 17.8439 41.748 17.8357 41.7631 17.821C41.7782 17.8063 41.7866 17.7864 41.7866 17.7656C41.7866 17.7448 41.7782 17.7249 41.7631 17.7102C41.748 17.6955 41.7276 17.6873 41.7063 17.6873H37.1357C37.1144 17.6873 37.094 17.6955 37.0789 17.7102C37.0638 17.7249 37.0554 17.7448 37.0554 17.7656C37.0554 17.7864 37.0638 17.8063 37.0789 17.821C37.094 17.8357 37.1144 17.8439 37.1357 17.8439Z" fill="#292A2E"/>
<path d="M36.2828 19.3891H40.0988C40.1201 19.3891 40.1406 19.3808 40.1557 19.3662C40.1707 19.3515 40.1792 19.3315 40.1792 19.3108C40.1792 19.29 40.1707 19.2701 40.1557 19.2554C40.1406 19.2407 40.1201 19.2324 40.0988 19.2324H36.2828C36.2615 19.2324 36.2411 19.2407 36.226 19.2554C36.2109 19.2701 36.2025 19.29 36.2025 19.3108C36.2025 19.3315 36.2109 19.3515 36.226 19.3662C36.2411 19.3808 36.2615 19.3891 36.2828 19.3891Z" fill="#292A2E"/>
<path d="M38.1281 20.9345H40.0988C40.1201 20.9345 40.1406 20.9263 40.1557 20.9116C40.1707 20.8969 40.1792 20.8769 40.1792 20.8562C40.1792 20.8354 40.1707 20.8155 40.1557 20.8008C40.1406 20.7861 40.1201 20.7778 40.0988 20.7778H38.1281C38.1068 20.7778 38.0864 20.7861 38.0713 20.8008C38.0562 20.8155 38.0478 20.8354 38.0478 20.8562C38.0478 20.8769 38.0562 20.8969 38.0713 20.9116C38.0864 20.9263 38.1068 20.9345 38.1281 20.9345Z" fill="#292A2E"/>
<path d="M36.6185 22.4797H40.0988C40.1201 22.4797 40.1406 22.4714 40.1557 22.4567C40.1707 22.442 40.1792 22.4221 40.1792 22.4013C40.1792 22.3806 40.1707 22.3606 40.1557 22.3459C40.1406 22.3313 40.1201 22.323 40.0988 22.323H36.6185C36.5972 22.323 36.5767 22.3313 36.5616 22.3459C36.5466 22.3606 36.5381 22.3806 36.5381 22.4013C36.5381 22.4221 36.5466 22.442 36.5616 22.4567C36.5767 22.4714 36.5972 22.4797 36.6185 22.4797Z" fill="#292A2E"/>
<path d="M39.0227 24.0248H41.7063C41.7276 24.0248 41.748 24.0166 41.7631 24.0019C41.7782 23.9872 41.7866 23.9673 41.7866 23.9465C41.7866 23.9257 41.7782 23.9058 41.7631 23.8911C41.748 23.8764 41.7276 23.8682 41.7063 23.8682H39.0227C39.0014 23.8682 38.9809 23.8764 38.9659 23.8911C38.9508 23.9058 38.9423 23.9257 38.9423 23.9465C38.9423 23.9673 38.9508 23.9872 38.9659 24.0019C38.9809 24.0166 39.0014 24.0248 39.0227 24.0248Z" fill="#292A2E"/>
<path d="M39.9452 25.5698H41.7063C41.7276 25.5698 41.748 25.5615 41.7631 25.5468C41.7782 25.5321 41.7866 25.5122 41.7866 25.4914C41.7866 25.4706 41.7782 25.4507 41.7631 25.436C41.748 25.4213 41.7276 25.4131 41.7063 25.4131H39.9452C39.9239 25.4131 39.9034 25.4213 39.8883 25.436C39.8733 25.4507 39.8648 25.4706 39.8648 25.4914C39.8648 25.5122 39.8733 25.5321 39.8883 25.5468C39.9034 25.5615 39.9239 25.5698 39.9452 25.5698Z" fill="#292A2E"/>
<path d="M33.2113 14.4221V14.4503L32.2066 14.8138C32.1923 14.8195 32.18 14.8293 32.1714 14.8418C32.1628 14.8544 32.1583 14.8692 32.1584 14.8843V14.9109C32.1581 14.9227 32.161 14.9344 32.1666 14.9448C32.1722 14.9552 32.1805 14.964 32.1906 14.9705C32.2007 14.9775 32.2126 14.9819 32.225 14.9832C32.2374 14.9846 32.2499 14.9829 32.2614 14.9783L33.3961 14.5459C33.4103 14.5404 33.4224 14.5309 33.431 14.5186C33.4396 14.5063 33.4442 14.4918 33.4443 14.4769V14.397C33.4445 14.3821 33.4399 14.3675 33.4313 14.3552C33.4227 14.3429 33.4104 14.3334 33.3961 14.3281L32.2614 13.8941C32.2521 13.891 32.2424 13.8894 32.2325 13.8894C32.2176 13.8897 32.2031 13.894 32.1906 13.9019C32.1804 13.9087 32.1722 13.9179 32.1666 13.9285C32.1609 13.9392 32.1581 13.9511 32.1584 13.963V13.9897C32.1581 14.0046 32.1625 14.0193 32.1712 14.0317C32.1798 14.044 32.1922 14.0535 32.2066 14.0586L33.2113 14.4221Z" fill="#367CFF"/>
<path d="M31.2197 13.5746L31.8208 15.3685C31.8257 15.3835 31.8354 15.3966 31.8484 15.4059C31.8614 15.4152 31.8771 15.4202 31.8932 15.4203C31.9048 15.4204 31.9163 15.4178 31.9267 15.4126C31.9371 15.4074 31.946 15.3998 31.9526 15.3905C31.9598 15.3812 31.9647 15.3705 31.9669 15.359C31.9691 15.3476 31.9686 15.3359 31.9653 15.3247L31.3643 13.5323C31.3592 13.517 31.3493 13.5037 31.3361 13.4941C31.3228 13.4846 31.3069 13.4793 31.2904 13.479C31.2788 13.479 31.2673 13.4816 31.2569 13.4868C31.2466 13.492 31.2377 13.4995 31.2309 13.5088C31.2237 13.518 31.2189 13.5289 31.217 13.5403C31.215 13.5518 31.2159 13.5635 31.2197 13.5746Z" fill="#367CFF"/>
<path d="M29.7438 14.397V14.477C29.7436 14.4917 29.7479 14.5061 29.7563 14.5184C29.7646 14.5307 29.7765 14.5403 29.7905 14.5459L30.9269 14.9783C30.9381 14.9829 30.9504 14.9845 30.9625 14.9832C30.9746 14.9818 30.9861 14.9774 30.996 14.9705C31.0063 14.9641 31.0148 14.9553 31.0207 14.9449C31.0266 14.9345 31.0297 14.9228 31.0298 14.911V14.8843C31.0299 14.869 31.0252 14.854 31.0163 14.8414C31.0074 14.8288 30.9947 14.8192 30.9799 14.8138L29.9753 14.4503V14.4221L30.9799 14.0586C30.9947 14.0538 31.0075 14.0446 31.0165 14.0321C31.0255 14.0197 31.0301 14.0049 31.0298 13.9897V13.963C31.0297 13.9509 31.0266 13.939 31.0207 13.9284C31.0148 13.9177 31.0063 13.9086 30.996 13.9019C30.9835 13.8941 30.9691 13.8897 30.9542 13.8894C30.9449 13.8893 30.9356 13.8909 30.9269 13.8941L29.7905 14.3281C29.7764 14.3335 29.7643 14.3431 29.756 14.3554C29.7476 14.3677 29.7434 14.3823 29.7438 14.397Z" fill="#367CFF"/>
<path d="M52.4691 0H109.086V55.1861H52.4691V0Z" fill="#F4F4F4"/>
<path d="M109.086 0H109.735V55.1861H109.086V0Z" fill="#F4F4F4"/>
<path opacity="0.05" d="M109.086 0H109.735V55.1861H109.086V0Z" fill="#292A2E"/>
<path opacity="0.05" d="M95.3707 38.0277V23.5891H83.2367V31.9777H64.4413V46.8303H56.453V55.186H64.4413H65.9802H106.363V38.0277H95.3707Z" fill="#292A2E"/>
<path opacity="0.34" d="M84.7938 25.157H93.6299V26.7247H84.7938V25.157Z" fill="#FFFFFA"/>
<path opacity="0.34" d="M84.7938 28.4055H93.6299V29.9732H84.7938V28.4055Z" fill="#FFFFFA"/>
<path opacity="0.34" d="M84.7938 31.6541H93.6299V33.2218H84.7938V31.6541Z" fill="#FFFFFA"/>
<path opacity="0.34" d="M103.167 39.5493H104.796V41.117H103.167V39.5493Z" fill="#FFFFFA"/>
<path opacity="0.34" d="M103.167 42.7979H104.796V44.3656H103.167V42.7979Z" fill="#FFFFFA"/>
<path opacity="0.34" d="M103.167 46.0466H104.796V47.6144H103.167V46.0466Z" fill="#FFFFFA"/>
<path opacity="0.34" d="M100.155 39.5493H101.783V41.117H100.155V39.5493Z" fill="#FFFFFA"/>
<path opacity="0.34" d="M100.155 42.7979H101.783V44.3656H100.155V42.7979Z" fill="#FFFFFA"/>
<path opacity="0.34" d="M100.155 46.0466H101.783V47.6144H100.155V46.0466Z" fill="#FFFFFA"/>
<path opacity="0.34" d="M97.2229 39.5493H98.8516V41.117H97.2229V39.5493Z" fill="#FFFFFA"/>
<path opacity="0.34" d="M97.2229 42.7979H98.8516V44.3656H97.2229V42.7979Z" fill="#FFFFFA"/>
<path opacity="0.34" d="M97.2229 46.0466H98.8516V47.6144H97.2229V46.0466Z" fill="#FFFFFA"/>
<path d="M109.086 27.2835H97.6936V0H96.7515V27.2835H65.9798V0H65.0377V27.2835H52.4691V28.2018H65.0377V55.1861H65.9798V28.2018H96.7515V55.1861H97.6936V28.2018H109.086V27.2835Z" fill="white"/>
<path d="M50.2136 55.1196H111.341V56.955H50.2136V55.1196Z" fill="#F4F4F4"/>
<path opacity="0.1" d="M50.2136 55.1196H111.341V56.955H50.2136V55.1196Z" fill="#292A2E"/>
<path opacity="0.1" d="M111.341 55.1196H112.224V56.955H111.341V55.1196Z" fill="#292A2E"/>
<path opacity="0.1" d="M111.341 55.1196H112.224V56.955H111.341V55.1196Z" fill="#292A2E"/>
<path d="M109.735 2.34961L52.4692 2.34961V0.985096L109.735 0.985096V2.34961Z" fill="white"/>
<path d="M109.735 4.89844L52.4692 4.89844V3.53392L109.735 3.53392V4.89844Z" fill="white"/>
<path d="M109.735 7.44727L52.4692 7.44727V6.08275L109.735 6.08275V7.44727Z" fill="white"/>
<path d="M109.735 9.99585L52.4692 9.99585V8.63134L109.735 8.63134V9.99585Z" fill="white"/>
<path d="M109.735 12.5444L52.4692 12.5444V11.1799L109.735 11.1799V12.5444Z" fill="white"/>
<path d="M103.653 14.0833H102.794V-0.000116348H103.653V14.0833Z" fill="white"/>
<path d="M103.297 16.1058C102.645 16.1058 102.118 15.5913 102.118 14.9566C102.118 14.3219 102.645 13.8074 103.297 13.8074C103.948 13.8074 104.476 14.3219 104.476 14.9566C104.476 15.5913 103.948 16.1058 103.297 16.1058Z" fill="white"/>
<path d="M109.235 131.895L109.551 131.835L104.617 84.0435L104.301 84.1027L109.235 131.895Z" fill="#494949"/>
<path d="M90.863 131.895L91.1787 131.835L86.2448 84.0435L85.9291 84.1027L90.863 131.895Z" fill="#494949"/>
<path d="M50.2524 131.895L49.9367 131.835L54.8708 84.0435L55.1865 84.1027L50.2524 131.895Z" fill="#494949"/>
<path d="M68.6247 131.895L68.309 131.835L73.2429 84.0435L73.5586 84.1027L68.6247 131.895Z" fill="#494949"/>
<path d="M75.1677 63.01L75.4863 63.0515L72.6039 84.0941L72.2853 84.0526L75.1677 63.01Z" fill="#494949"/>
<path d="M108.252 63.0098L108.571 63.0513L105.688 84.0939L105.37 84.0524L108.252 63.0098Z" fill="#494949"/>
<path d="M72.3132 82.5322H104.674C105.547 82.5322 106.254 83.2221 106.254 84.0732V84.0733C106.254 84.9244 105.547 85.6143 104.674 85.6143H72.3132C71.4401 85.6143 70.7323 84.9244 70.7323 84.0733V84.0732C70.7323 83.2221 71.4401 82.5322 72.3132 82.5322Z" fill="#292A2E"/>
<path opacity="0.8" d="M72.3132 82.5322H104.674C105.547 82.5322 106.254 83.2221 106.254 84.0732V84.0733C106.254 84.9244 105.547 85.6143 104.674 85.6143H72.3132C71.4401 85.6143 70.7323 84.9244 70.7323 84.0733V84.0732C70.7323 83.2221 71.4401 82.5322 72.3132 82.5322Z" fill="white"/>
<path d="M72.3133 85.7707H104.673C104.902 85.7707 105.129 85.7268 105.34 85.6415C105.551 85.5562 105.743 85.4311 105.905 85.2735C106.067 85.1159 106.195 84.9287 106.282 84.7228C106.37 84.5168 106.415 84.296 106.415 84.0731C106.415 83.8502 106.37 83.6294 106.282 83.4235C106.195 83.2175 106.067 83.0303 105.905 82.8727C105.743 82.7151 105.551 82.59 105.34 82.5047C105.129 82.4194 104.902 82.3755 104.673 82.3755H72.3133C72.0846 82.3755 71.8581 82.4194 71.6468 82.5047C71.4355 82.59 71.2435 82.7151 71.0818 82.8727C70.92 83.0303 70.7917 83.2175 70.7042 83.4235C70.6167 83.6294 70.5716 83.8502 70.5716 84.0731C70.5716 84.296 70.6167 84.5168 70.7042 84.7228C70.7917 84.9287 70.92 85.1159 71.0818 85.2735C71.2435 85.4311 71.4355 85.5562 71.6468 85.6415C71.8581 85.7268 72.0846 85.7707 72.3133 85.7707ZM104.673 82.6888C104.86 82.6888 105.045 82.7247 105.217 82.7942C105.389 82.8638 105.546 82.9657 105.678 83.0943C105.809 83.2228 105.914 83.3754 105.985 83.5434C106.057 83.7113 106.094 83.8913 106.094 84.0731C106.094 84.2549 106.057 84.4349 105.985 84.6028C105.914 84.7708 105.809 84.9234 105.678 85.0519C105.546 85.1805 105.389 85.2824 105.217 85.352C105.045 85.4216 104.86 85.4574 104.673 85.4574H72.3133C72.1268 85.4574 71.9421 85.4216 71.7698 85.352C71.5975 85.2824 71.4409 85.1805 71.3091 85.0519C71.1772 84.9234 71.0726 84.7708 71.0012 84.6028C70.9299 84.4349 70.8931 84.2549 70.8931 84.0731C70.8931 83.8913 70.9299 83.7113 71.0012 83.5434C71.0726 83.3754 71.1772 83.2228 71.3091 83.0943C71.4409 82.9657 71.5975 82.8638 71.7698 82.7942C71.9421 82.7247 72.1268 82.6888 72.3133 82.6888H104.673Z" fill="#292A2E"/>
<path d="M54.552 82.5322H86.9123C87.7854 82.5322 88.4932 83.2221 88.4932 84.0732V84.0733C88.4932 84.9244 87.7854 85.6143 86.9123 85.6143H54.552C53.6789 85.6143 52.9711 84.9244 52.9711 84.0733V84.0732C52.9711 83.2221 53.6789 82.5322 54.552 82.5322Z" fill="white"/>
<path d="M54.5519 85.7707H86.9122C87.1409 85.7707 87.3674 85.7268 87.5787 85.6415C87.79 85.5562 87.982 85.4311 88.1437 85.2735C88.3054 85.1159 88.4337 84.9287 88.5212 84.7228C88.6088 84.5168 88.6538 84.296 88.6538 84.0731C88.6538 83.8502 88.6088 83.6294 88.5212 83.4235C88.4337 83.2175 88.3054 83.0303 88.1437 82.8727C87.982 82.7151 87.79 82.59 87.5787 82.5047C87.3674 82.4194 87.1409 82.3755 86.9122 82.3755H54.5519C54.3232 82.3755 54.0967 82.4194 53.8854 82.5047C53.6741 82.59 53.4821 82.7151 53.3204 82.8727C53.1586 83.0303 53.0304 83.2175 52.9428 83.4235C52.8553 83.6294 52.8103 83.8502 52.8103 84.0731C52.8103 84.296 52.8553 84.5168 52.9428 84.7228C53.0304 84.9287 53.1586 85.1159 53.3204 85.2735C53.4821 85.4311 53.6741 85.5562 53.8854 85.6415C54.0967 85.7268 54.3232 85.7707 54.5519 85.7707ZM86.9122 82.6888C87.0987 82.6888 87.2833 82.7247 87.4556 82.7942C87.6279 82.8638 87.7845 82.9657 87.9164 83.0943C88.0483 83.2228 88.1529 83.3754 88.2242 83.5434C88.2956 83.7113 88.3323 83.8913 88.3323 84.0731C88.3323 84.2549 88.2956 84.4349 88.2242 84.6028C88.1529 84.7708 88.0483 84.9234 87.9164 85.0519C87.7845 85.1805 87.6279 85.2824 87.4556 85.352C87.2833 85.4216 87.0987 85.4574 86.9122 85.4574H54.5519C54.3654 85.4574 54.1807 85.4216 54.0084 85.352C53.8361 85.2824 53.6796 85.1805 53.5477 85.0519C53.4158 84.9234 53.3112 84.7708 53.2398 84.6028C53.1685 84.4349 53.1317 84.2549 53.1317 84.0731C53.1317 83.8913 53.1685 83.7113 53.2398 83.5434C53.3112 83.3754 53.4158 83.2228 53.5477 83.0943C53.6796 82.9657 53.8361 82.8638 54.0084 82.7942C54.1807 82.7247 54.3654 82.6888 54.5519 82.6888H86.9122Z" fill="#292A2E"/>
<path d="M76.9406 63.0304H108.325C108.838 63.0303 109.333 62.8483 109.719 62.5183C110.105 62.1882 110.354 61.7327 110.42 61.2367L112.496 45.6975C112.535 45.407 112.51 45.1118 112.422 44.8316C112.334 44.5513 112.187 44.2925 111.988 44.0724C111.79 43.8523 111.546 43.676 111.272 43.5552C110.998 43.4345 110.701 43.372 110.4 43.3721H79.0166C78.5035 43.3721 78.0079 43.5541 77.6224 43.8841C77.2368 44.2141 76.9876 44.6696 76.9213 45.1656L74.8455 60.705C74.8067 60.9954 74.8319 61.2906 74.9194 61.5708C75.007 61.851 75.1548 62.1098 75.3531 62.3299C75.5514 62.55 75.7956 62.7263 76.0693 62.8471C76.3431 62.9679 76.6401 63.0304 76.9406 63.0304Z" fill="#292A2E"/>
<path opacity="0.8" d="M76.9406 63.0304H108.325C108.838 63.0303 109.333 62.8483 109.719 62.5183C110.105 62.1882 110.354 61.7327 110.42 61.2367L112.496 45.6975C112.535 45.407 112.51 45.1118 112.422 44.8316C112.334 44.5513 112.187 44.2925 111.988 44.0724C111.79 43.8523 111.546 43.676 111.272 43.5552C110.998 43.4345 110.701 43.372 110.4 43.3721H79.0166C78.5035 43.3721 78.0079 43.5541 77.6224 43.8841C77.2368 44.2141 76.9876 44.6696 76.9213 45.1656L74.8455 60.705C74.8067 60.9954 74.8319 61.2906 74.9194 61.5708C75.007 61.851 75.1548 62.1098 75.3531 62.3299C75.5514 62.55 75.7956 62.7263 76.0693 62.8471C76.3431 62.9679 76.6401 63.0304 76.9406 63.0304Z" fill="white"/>
<path d="M76.9406 63.1872H108.325C108.877 63.1859 109.409 62.9897 109.824 62.6347C110.238 62.2798 110.507 61.7903 110.579 61.257L112.655 45.7178C112.697 45.4052 112.67 45.0875 112.576 44.7859C112.482 44.4844 112.322 44.2059 112.109 43.969C111.896 43.7322 111.633 43.5424 111.338 43.4124C111.043 43.2825 110.724 43.2153 110.4 43.2153H79.0166C78.4647 43.2165 77.9321 43.4128 77.5175 43.7678C77.1029 44.1227 76.8344 44.6122 76.762 45.1455L74.6861 60.6848C74.6443 60.9974 74.6714 61.315 74.7656 61.6166C74.8598 61.9181 75.0189 62.1966 75.2323 62.4334C75.4456 62.6702 75.7084 62.86 76.003 62.99C76.2976 63.1199 76.6172 63.1872 76.9406 63.1872ZM110.4 43.5287C110.678 43.5287 110.952 43.5864 111.205 43.698C111.458 43.8096 111.684 43.9726 111.867 44.1759C112.05 44.3793 112.187 44.6183 112.268 44.8772C112.349 45.1361 112.372 45.4089 112.336 45.6772L110.26 61.2166C110.198 61.6744 109.968 62.0947 109.612 62.3995C109.256 62.7043 108.798 62.8728 108.324 62.8738H76.9406C76.663 62.8737 76.3886 62.8159 76.1357 62.7043C75.8829 62.5927 75.6573 62.4297 75.4741 62.2264C75.291 62.0231 75.1544 61.784 75.0736 61.5251C74.9927 61.2663 74.9694 60.9936 75.0053 60.7253L77.0808 45.186C77.143 44.7282 77.3735 44.3079 77.7295 44.0032C78.0855 43.6984 78.5428 43.5299 79.0166 43.5288L110.4 43.5287Z" fill="#292A2E"/>
<path d="M75.1662 63.0304H106.55C107.063 63.0303 107.559 62.8483 107.945 62.5183C108.33 62.1882 108.579 61.7327 108.645 61.2367L110.722 45.6975C110.761 45.407 110.736 45.1118 110.648 44.8316C110.561 44.5514 110.413 44.2926 110.214 44.0725C110.016 43.8525 109.772 43.6761 109.498 43.5553C109.224 43.4346 108.927 43.3721 108.627 43.3721H77.242C76.7289 43.3721 76.2334 43.5541 75.8478 43.8841C75.4623 44.2141 75.2132 44.6696 75.1469 45.1656L73.071 60.705C73.0322 60.9954 73.0574 61.2906 73.1449 61.5708C73.2325 61.851 73.3803 62.1098 73.5786 62.3299C73.7769 62.55 74.0211 62.7263 74.2949 62.8471C74.5687 62.9679 74.8657 63.0304 75.1662 63.0304Z" fill="white"/>
<path d="M75.1662 63.1872H106.55C107.102 63.1859 107.635 62.9896 108.049 62.6347C108.464 62.2797 108.732 61.7902 108.805 61.257L110.881 45.7178C110.923 45.4052 110.895 45.0876 110.801 44.786C110.707 44.4845 110.548 44.206 110.335 43.9692C110.121 43.7323 109.858 43.5426 109.564 43.4126C109.269 43.2826 108.95 43.2153 108.626 43.2153H77.2422C76.6904 43.2165 76.1577 43.4128 75.7431 43.7678C75.3284 44.1227 75.06 44.6122 74.9875 45.1455L72.9115 60.6848C72.8698 60.9974 72.897 61.315 72.9912 61.6166C73.0854 61.9181 73.2445 62.1965 73.4579 62.4334C73.6713 62.6702 73.934 62.8599 74.2286 62.9899C74.5232 63.1199 74.8429 63.1871 75.1662 63.1872ZM108.626 43.5287C108.904 43.5288 109.178 43.5866 109.431 43.6983C109.684 43.81 109.909 43.9729 110.093 44.1762C110.276 44.3796 110.412 44.6187 110.493 44.8775C110.574 45.1364 110.597 45.4091 110.561 45.6774L108.486 61.2166C108.424 61.6744 108.193 62.0947 107.837 62.3994C107.481 62.7042 107.024 62.8727 106.55 62.8738H75.1662C74.8886 62.8738 74.6141 62.8161 74.3612 62.7044C74.1083 62.5928 73.8827 62.4299 73.6995 62.2266C73.5162 62.0232 73.3796 61.7841 73.2988 61.5253C73.2179 61.2664 73.1946 60.9936 73.2304 60.7253L75.3064 45.186C75.3686 44.7282 75.5991 44.3079 75.9551 44.0031C76.3111 43.6984 76.7684 43.5299 77.2422 43.5288L108.626 43.5287Z" fill="#292A2E"/>
<path d="M50.7705 66.5786L51.0903 66.6101L44.3139 132L43.9941 131.968L50.7705 66.5786Z" fill="#494949"/>
<path d="M78.5484 19.5164C78.5484 19.5164 76.463 17.9821 75.9462 14.4502C75.5461 11.7157 78.134 13.4873 78.134 13.4873C78.134 13.4873 77.8656 11.5155 79.3396 11.7112C80.8136 11.9069 81.6382 13.9782 81.6382 13.9782" fill="#0C0C0C"/>
<path d="M86.9569 11.9419C86.9569 11.9419 94.2698 12.7066 91.6261 22.3649L90.9789 22.4072L89.6653 22.4931" fill="#0C0C0C"/>
<path d="M79.7731 32.4522C79.8053 32.4482 80.1621 38.218 87.0396 37.7155C91.8007 37.3679 93.4983 32.4441 93.6074 32.4441C93.094 32.3379 92.4597 32.1763 92.2075 32.121C91.6581 31.9967 91.1605 31.7123 90.781 31.3055C90.4014 30.8988 90.1579 30.3891 90.0829 29.8442C89.9435 29.0263 90.1793 24.8417 90.1071 24.0142L82.7987 25.6041C82.9008 27.352 83.6156 31.4039 81.111 32.121C80.6935 32.2396 80.2446 32.3487 79.7731 32.4522Z" fill="#E98862"/>
<path opacity="0.52" d="M82.6961 30.4651C82.8106 30.1055 82.8843 29.7347 82.916 29.3594C82.9962 28.5031 82.9801 27.6408 82.8678 26.7879C84.3532 26.5925 85.7527 25.9949 86.9071 25.063C87.0427 25.5515 87.789 27.6861 87.5822 28.1503C87.1924 29.0281 85.3572 30.4651 82.6961 30.4651Z" fill="#0C0C0C"/>
<path d="M84.2044 29.3231C87.0878 29.071 90.5387 27.2954 90.5884 23.4804L90.6334 20.0382C90.683 16.2234 88.6678 13.1053 84.9827 13.0596C81.2977 13.014 78.5029 16.0724 78.4533 19.8873L78.4333 21.4112C78.4359 21.9345 78.475 22.4571 78.5505 22.9753C78.7395 24.3462 79.0327 26.4305 79.987 27.8405C80.8885 29.1716 82.3625 29.484 84.2044 29.3231Z" fill="#E98862"/>
<path d="M82.8665 25.8364C82.2716 25.8627 81.6785 25.7523 81.1354 25.5141C81.1241 25.5094 81.114 25.5026 81.1054 25.4941C81.0969 25.4856 81.0901 25.4756 81.0856 25.4645C81.081 25.4535 81.0788 25.4417 81.0789 25.4298C81.079 25.4179 81.0816 25.4061 81.0863 25.3952C81.0911 25.3842 81.0981 25.3743 81.1068 25.366C81.1155 25.3577 81.1259 25.3511 81.1372 25.3466C81.1485 25.3422 81.1606 25.34 81.1728 25.3401C81.1851 25.3402 81.1971 25.3427 81.2083 25.3474C82.3785 25.8339 83.4412 25.7626 84.2812 25.1413C84.2981 25.1282 84.3158 25.116 84.3341 25.1048C84.3552 25.0953 84.3792 25.0938 84.4014 25.1007C84.4236 25.1076 84.4423 25.1223 84.4539 25.1419C84.4655 25.1616 84.4691 25.1848 84.4641 25.2069C84.459 25.2291 84.4456 25.2485 84.4265 25.2615C84.4198 25.2656 84.409 25.2739 84.3944 25.2853C83.9527 25.6131 83.4207 25.805 82.8665 25.8364Z" fill="#0C0C0C"/>
<path d="M82.8944 26.6954C82.7869 26.7019 82.6791 26.6994 82.572 26.6879C82.5475 26.6854 82.525 26.6734 82.5095 26.6548C82.494 26.6361 82.4868 26.6121 82.4894 26.5883C82.492 26.5644 82.5042 26.5425 82.5234 26.5273C82.5425 26.5122 82.5671 26.5052 82.5916 26.5077C83.2357 26.5745 83.543 26.2868 83.556 26.2744C83.5735 26.2574 83.5971 26.2478 83.6218 26.2478C83.6464 26.2478 83.6701 26.2573 83.6875 26.2743C83.705 26.2912 83.7148 26.3143 83.7148 26.3383C83.7149 26.3624 83.7051 26.3854 83.6877 26.4024C83.4659 26.5865 83.1856 26.69 82.8944 26.6954Z" fill="#0C0C0C"/>
<path d="M79.6701 22.1447C79.4194 22.1447 79.2162 21.9466 79.2162 21.7022C79.2162 21.4579 79.4194 21.2598 79.6701 21.2598C79.9208 21.2598 80.124 21.4579 80.124 21.7022C80.124 21.9466 79.9208 22.1447 79.6701 22.1447Z" fill="#0C0C0C"/>
<path d="M84.1047 21.8734C83.854 21.8734 83.6507 21.6754 83.6507 21.431C83.6507 21.1866 83.854 20.9885 84.1047 20.9885C84.3554 20.9885 84.5586 21.1866 84.5586 21.431C84.5586 21.6754 84.3554 21.8734 84.1047 21.8734Z" fill="#0C0C0C"/>
<path d="M90.3442 24.6399C91.4641 24.6538 92.3871 23.4972 92.4017 22.4056C92.4163 21.314 91.516 20.7008 90.3961 20.687L89.8096 21.4112L89.3817 24.6279L90.3442 24.6399Z" fill="#E98862"/>
<path d="M89.2309 22.8857C89.2309 22.8857 88.8527 17.4876 87.1734 17.1542C86.055 16.9322 83.3428 18.4786 80.8308 18.0116C79.7316 17.8079 78.6883 18.0723 78.5822 18.5784C78.5402 18.7788 77.8555 15.8992 79.5765 13.7145C80.9468 11.9746 85.4312 11.4834 87.4713 12.0537C93.1202 13.6333 90.6274 20.9244 90.6274 20.9244L90.3755 22.7854L89.2309 22.8857Z" fill="#0C0C0C"/>
<path d="M82.1904 24.5619H82.1832C81.8223 24.5583 81.2174 24.5132 81.2198 24.25C81.2222 24.0319 81.8588 21.6844 81.9316 21.4174C81.9386 21.3952 81.9541 21.3766 81.9748 21.3653C81.9956 21.354 82.0201 21.3511 82.0431 21.357C82.0661 21.3629 82.0858 21.3773 82.0981 21.3972C82.1105 21.417 82.1144 21.4407 82.1092 21.4633C81.8265 22.503 81.4053 24.1037 81.4036 24.2522C81.4384 24.3149 81.8112 24.3794 82.1849 24.3832C82.2085 24.3837 82.231 24.393 82.2477 24.4091C82.2644 24.4253 82.2742 24.4471 82.2749 24.4701C82.2756 24.4931 82.2672 24.5154 82.2515 24.5325C82.2357 24.5497 82.2139 24.5602 82.1904 24.5621V24.5619Z" fill="#0C0C0C"/>
<path d="M80.9584 19.3026C80.5791 19.2009 80.1787 19.2009 79.7994 19.3026C79.6131 19.3514 79.4354 19.4273 79.2722 19.5276C79.1109 19.6259 78.963 19.7436 78.8319 19.878C78.8068 19.9017 78.7922 19.934 78.7913 19.9681C78.7904 20.0022 78.8032 20.0352 78.8269 20.0602C78.8507 20.0852 78.8836 20.1001 78.9185 20.1018C78.9534 20.1035 78.9876 20.0917 79.0137 20.0691L79.0219 20.0622C79.1433 19.9527 79.2783 19.8586 79.4238 19.7819C79.5665 19.7057 79.7203 19.651 79.8798 19.6196C80.1939 19.5554 80.5197 19.5732 80.8245 19.6711L80.8373 19.6755C80.8876 19.6929 80.9429 19.69 80.991 19.6676C81.0392 19.6452 81.0762 19.6051 81.094 19.5561C81.1117 19.5071 81.1088 19.4532 81.0858 19.4063C81.0628 19.3593 81.0217 19.3233 80.9714 19.3059L80.9584 19.3026Z" fill="#0C0C0C"/>
<path d="M83.6442 19.525C83.9328 19.3883 84.2533 19.3283 84.5733 19.3512C84.7357 19.3615 84.8956 19.3957 85.0475 19.4528C85.2019 19.5099 85.3483 19.5857 85.4834 19.6784L85.4921 19.684C85.5211 19.7021 85.5561 19.7087 85.5899 19.7022C85.6237 19.6958 85.6537 19.677 85.6736 19.6496C85.6935 19.6222 85.7018 19.5884 85.6968 19.5552C85.6918 19.5219 85.6739 19.4919 85.6467 19.4712C85.4985 19.355 85.3357 19.2575 85.1624 19.1811C84.9869 19.103 84.8004 19.0509 84.6091 19.0266C84.2193 18.9748 83.8224 19.0266 83.4603 19.1767C83.4113 19.1975 83.3727 19.2364 83.3532 19.2849C83.3336 19.3333 83.3345 19.3874 83.3558 19.4352C83.3772 19.483 83.4171 19.5206 83.4668 19.5397C83.5166 19.5588 83.572 19.5578 83.6211 19.537L83.6322 19.5319L83.6442 19.525Z" fill="#0C0C0C"/>
<path d="M81.4984 15.5871C80.6695 15.4183 80.2041 14.3174 80.459 13.1281C80.7139 11.9389 81.5925 11.1117 82.4215 11.2805C83.2504 11.4493 83.7157 12.5502 83.4608 13.7395C83.2059 14.9287 82.3273 15.7559 81.4984 15.5871Z" fill="#0C0C0C"/>
<path d="M35.2675 123.735C35.2675 123.735 34.4056 128.09 30.2228 128.333C26.0401 128.575 26.9469 131.823 26.9469 131.823H42.9316V124.039L35.2675 123.735Z" fill="#A9F8FD"/>
<path d="M65.6775 120.986C65.6775 120.986 66.8762 125.264 63.2327 127.282C59.5891 129.299 61.8741 131.823 61.8741 131.823L76.2173 124.945L72.6921 117.96L65.6775 120.986Z" fill="#A9F8FD"/>
<path d="M74.5611 119.778L62.4656 82.5836H84.3906C88.7949 82.5836 90.6309 78.9432 90.6309 74.6505C90.6309 70.3578 86.3011 66.5947 81.8972 66.5947H52.3064C49.6203 66.5947 46.6083 68.196 45.134 70.3848C43.6597 72.5736 44.0583 75.9652 45.1265 78.3677L64.4957 124.222" fill="#262626"/>
<path opacity="0.8" d="M74.5611 119.778L62.4656 82.5836H84.3906C88.7949 82.5836 90.6309 78.9432 90.6309 74.6505C90.6309 70.3578 86.3011 66.5947 81.8972 66.5947H52.3064C49.6203 66.5947 46.6083 68.196 45.134 70.3848C43.6597 72.5736 44.0583 75.9652 45.1265 78.3677L64.4957 124.222" fill="#0A0A0A"/>
<path d="M43.8506 127.779L64.0753 82.5835L90.6311 82.5818C96.8535 82.1063 99.7033 78.7823 99.6127 74.4906C99.5233 70.2532 97.3221 66.0679 92.9945 66.0679H57.202C54.0001 66.132 51.481 69.5811 50.2931 72.4799L33.4796 125.012" fill="#262626"/>
<path d="M101.424 66.1197C101.424 66.1197 102.603 73.6162 100.734 77.784C98.4001 82.9873 89.6513 82.5818 89.6513 82.5818L90.1443 66.0679L101.424 66.1197Z" fill="#262626"/>
<path d="M49.532 65.9723L68.2904 62.1835C69.0721 62.0256 69.8002 61.6781 70.4076 61.1731C71.0149 60.6682 71.4818 60.0221 71.765 59.2946L79.143 40.3439C79.3676 39.7751 79.4748 39.1687 79.4583 38.5595C79.4418 37.9502 79.302 37.3502 79.0469 36.7938C78.7918 36.2374 78.4264 35.7356 77.9718 35.3172C77.5171 34.8989 76.9821 34.5722 76.3975 34.3559C75.813 34.1397 75.1903 34.0382 74.5654 34.0572C73.9405 34.0762 73.3255 34.2154 72.7559 34.4667C72.1863 34.718 71.6733 35.0766 71.2463 35.5218C70.8193 35.967 70.4867 36.49 70.2677 37.0608L63.8136 53.6374L47.6053 56.9111C47.6053 56.9111 49.2066 66.0379 49.532 65.9723Z" fill="#A9F8FD"/>
<path d="M71.2282 45.1563C71.4447 47.637 72.9803 63.1132 73.1892 66.1688H101.411C101.574 63.4129 102.1 51.7127 102.715 46.3237C103.302 41.1812 103.515 38.2466 102.839 36.6486C101.646 33.83 98.6626 32.8158 96.0924 32.4766C94.523 32.2696 92.1626 32.1211 92.1626 32.1211C92.1626 32.1211 91.9626 36.062 87.197 36.2814C80.7096 36.5791 81.1428 32.1211 81.1107 32.1211C80.0598 32.1211 74.339 32.8661 72.9086 33.7748C70.8881 35.0585 70.2911 36.8077 70.2674 38.4147C70.2403 40.2652 70.9826 42.343 71.2282 45.1563Z" fill="#A9F8FD"/>
<path d="M72.3375 57.8021H72.3442C72.3548 57.8012 72.365 57.7984 72.3744 57.7937C72.3838 57.7889 72.3921 57.7825 72.3989 57.7746C72.4058 57.7668 72.4109 57.7577 72.4142 57.7479C72.4174 57.7381 72.4186 57.7277 72.4177 57.7175L71.685 49.1387C71.6844 49.1284 71.6817 49.1182 71.677 49.109C71.6722 49.0997 71.6656 49.0915 71.6575 49.0848C71.6494 49.0781 71.64 49.073 71.6298 49.07C71.6196 49.067 71.609 49.066 71.5984 49.0671C71.5879 49.0679 71.5776 49.0708 71.5682 49.0755C71.5588 49.0802 71.5505 49.0867 71.5437 49.0946C71.5369 49.1024 71.5317 49.1115 71.5285 49.1213C71.5253 49.1311 71.5241 49.1414 71.5249 49.1517L72.2576 57.7305C72.2593 57.75 72.2685 57.7682 72.2833 57.7814C72.298 57.7947 72.3174 57.802 72.3375 57.8021Z" fill="#0C0C0C"/>
<path d="M58.8961 62.9508L52.7037 44.3963C52.5949 44.0703 52.383 43.7861 52.0984 43.5846C51.8138 43.3832 51.471 43.2746 51.1193 43.2747H24.2833C24.0203 43.2746 23.761 43.3353 23.5267 43.4517C23.2924 43.5681 23.0897 43.7369 22.9351 43.9443C22.7806 44.1517 22.6786 44.3919 22.6376 44.6451C22.5965 44.8983 22.6175 45.1573 22.6989 45.4011L30.4986 63.9562C30.6075 64.2823 30.8194 64.5664 31.104 64.7679C31.3886 64.9694 31.7313 65.0779 32.0831 65.0779H57.3116C57.5747 65.0779 57.834 65.0173 58.0684 64.9008C58.3028 64.7844 58.5056 64.6155 58.6601 64.4081C58.8147 64.2006 58.9167 63.9603 58.9577 63.7071C58.9987 63.4538 58.9776 63.1946 58.8961 62.9508Z" fill="#292A2E"/>
<path d="M58.8961 62.9508L52.7037 44.3963C52.5949 44.0703 52.383 43.7861 52.0984 43.5846C51.8138 43.3832 51.471 43.2746 51.1193 43.2747H24.2833C24.0203 43.2746 23.761 43.3353 23.5267 43.4517C23.2924 43.5681 23.0897 43.7369 22.9351 43.9443C22.7806 44.1517 22.6786 44.3919 22.6376 44.6451C22.5965 44.8983 22.6175 45.1573 22.6989 45.4011L30.4986 63.9562C30.6075 64.2823 30.8194 64.5664 31.104 64.7679C31.3886 64.9694 31.7313 65.0779 32.0831 65.0779H57.3116C57.5747 65.0779 57.834 65.0173 58.0684 64.9008C58.3028 64.7844 58.5056 64.6155 58.6601 64.4081C58.8147 64.2006 58.9167 63.9603 58.9577 63.7071C58.9987 63.4538 58.9776 63.1946 58.8961 62.9508Z" fill="#292A2E"/>
<path d="M53.8447 63.5728H70.7327C71.1535 63.5728 71.4946 63.9053 71.4946 64.3154V64.3345C71.4946 64.7447 71.1535 65.0772 70.7327 65.0772H53.8447C53.4239 65.0772 53.0828 64.7447 53.0828 64.3345V64.3154C53.0828 63.9053 53.4239 63.5728 53.8447 63.5728Z" fill="#292A2E"/>
<path d="M53.8447 63.5728H70.7327C71.1535 63.5728 71.4946 63.9053 71.4946 64.3154V64.3345C71.4946 64.7447 71.1535 65.0772 70.7327 65.0772H53.8447C53.4239 65.0772 53.0828 64.7447 53.0828 64.3345V64.3154C53.0828 63.9053 53.4239 63.5728 53.8447 63.5728Z" fill="#292A2E"/>
<path d="M41.6011 57.6604C40.1398 57.6604 38.9552 56.5057 38.9552 55.0813C38.9552 53.6569 40.1398 52.5022 41.6011 52.5022C43.0624 52.5022 44.2471 53.6569 44.2471 55.0813C44.2471 56.5057 43.0624 57.6604 41.6011 57.6604Z" fill="white"/>
<path d="M60.3077 58.6044L64.5225 57.1643L63.9175 57.1236C63.7224 57.1067 63.5412 57.0182 63.4105 56.876C63.2798 56.7339 63.2094 56.5486 63.2134 56.3578C63.219 56.2593 63.2451 56.1631 63.2902 56.0748C63.3352 55.9866 63.3982 55.9082 63.4753 55.8445C63.5525 55.7807 63.6421 55.733 63.7388 55.7041C63.8355 55.6753 63.9372 55.6659 64.0377 55.6767L71.4946 56.4491L71.3017 58.7849C71.2416 59.5103 70.9605 60.2017 70.4945 60.7705C70.0286 61.3392 69.399 61.7593 68.6865 61.977L65.4572 62.9575C65.2904 63.0117 65.1096 63.008 64.9453 62.9471C64.781 62.8862 64.6433 62.7718 64.5556 62.6233C64.4794 62.4876 64.4496 62.3317 64.4706 62.1784C64.4917 62.025 64.5625 61.8822 64.6726 61.7709C64.6655 61.7659 64.6595 61.7596 64.6549 61.7523C64.6504 61.745 64.6474 61.7369 64.6462 61.7285C64.6449 61.72 64.6455 61.7114 64.6478 61.7032C64.6501 61.6949 64.6541 61.6873 64.6596 61.6806L64.0649 61.8625C63.8792 61.9233 63.6769 61.9131 63.4987 61.834C63.3205 61.7549 63.1797 61.6127 63.1049 61.4363C63.0438 61.2764 63.0425 61.1005 63.1013 60.9397C63.1601 60.7788 63.2752 60.6434 63.4264 60.5572C63.4194 60.5536 63.4132 60.5487 63.4081 60.5428L63.1634 60.6175C62.9967 60.6717 62.8158 60.668 62.6515 60.6071C62.4872 60.5461 62.3495 60.4317 62.2618 60.2832C62.1694 60.1186 62.1459 59.9256 62.1962 59.7445C62.2466 59.5634 62.3669 59.4083 62.5319 59.3118C62.5305 59.307 62.5298 59.302 62.5296 59.2971L60.7743 59.8967C60.6871 59.9274 60.5944 59.941 60.5017 59.9367C60.409 59.9324 60.3181 59.9102 60.2343 59.8714C60.1505 59.8326 60.0754 59.7779 60.0133 59.7107C59.9513 59.6434 59.9035 59.5648 59.8728 59.4795C59.8421 59.3941 59.8291 59.3036 59.8345 59.2133C59.8399 59.123 59.8636 59.0347 59.9043 58.9534C59.9449 58.872 60.0017 58.7994 60.0713 58.7396C60.141 58.6798 60.2221 58.634 60.31 58.605L60.3077 58.6044Z" fill="#E98862"/>
<path opacity="0.2" d="M62.5962 59.3632C62.6043 59.3631 62.6124 59.3618 62.6201 59.3591L64.3179 58.7573C64.3353 58.7511 64.3495 58.7384 64.3573 58.722C64.3651 58.7055 64.3659 58.6867 64.3595 58.6698C64.3531 58.6528 64.34 58.6389 64.3232 58.6313C64.3063 58.6237 64.2871 58.6229 64.2696 58.6292L62.5717 59.231C62.5563 59.2364 62.5433 59.2471 62.535 59.2609C62.5268 59.2748 62.5238 59.2911 62.5267 59.3069C62.5295 59.3227 62.538 59.337 62.5507 59.3473C62.5633 59.3576 62.5792 59.3632 62.5957 59.3632H62.5962Z" fill="#0A0A0A"/>
<path opacity="0.2" d="M63.4545 60.5665C63.4625 60.5665 63.4704 60.5651 63.478 60.5625L64.8161 60.0997C64.825 60.0969 64.8332 60.0924 64.8402 60.0864C64.8472 60.0804 64.853 60.0732 64.8571 60.065C64.8612 60.0569 64.8636 60.048 64.8641 60.0389C64.8647 60.0299 64.8634 60.0208 64.8603 60.0122C64.8571 60.0037 64.8523 59.9958 64.846 59.9891C64.8398 59.9824 64.8322 59.9769 64.8237 59.9731C64.8153 59.9693 64.8061 59.9672 64.7968 59.9668C64.7875 59.9665 64.7782 59.968 64.7695 59.9712L63.4312 60.4341C63.4156 60.4394 63.4026 60.45 63.3942 60.4638C63.3859 60.4777 63.3828 60.494 63.3856 60.5098C63.3884 60.5257 63.3969 60.54 63.4095 60.5504C63.4221 60.5608 63.438 60.5664 63.4545 60.5665Z" fill="#0A0A0A"/>
<path opacity="0.2" d="M64.7149 61.7874C64.7234 61.7873 64.7318 61.7858 64.7398 61.7828L65.3667 61.5499C65.384 61.5434 65.398 61.5305 65.4055 61.514C65.4131 61.4975 65.4136 61.4787 65.407 61.4618C65.4004 61.4449 65.3871 61.4313 65.3702 61.4239C65.3532 61.4165 65.334 61.416 65.3167 61.4225L64.6898 61.6554C64.6744 61.6611 64.6616 61.6718 64.6536 61.6857C64.6455 61.6996 64.6427 61.7158 64.6457 61.7316C64.6487 61.7473 64.6572 61.7615 64.6698 61.7717C64.6824 61.7819 64.6983 61.7874 64.7147 61.7874H64.7149Z" fill="#0A0A0A"/>
<path d="M68.1945 55.0667L85.8759 55.0552L92.565 39.1504L102.543 43.2397L94.1981 62.1162L94.1166 62.3042C93.7083 63.2217 93.0206 63.9947 92.1465 64.5186C91.2725 65.0424 90.2544 65.2917 89.2301 65.2327L67.9275 64.006L68.1945 55.0667Z" fill="#A9F8FD"/>
<path d="M89.5229 65.3194C90.5141 65.3178 91.4834 65.0346 92.3122 64.5047C93.1411 63.9747 93.7936 63.2209 94.19 62.3353L94.2717 62.1473L101.383 46.0636L101.236 46.001L94.0426 62.2738C93.639 63.1751 92.9619 63.9343 92.1023 64.4493C91.2428 64.9643 90.2421 65.2105 89.2348 65.1546L68.0102 63.9325L68.2731 55.1455L85.9302 55.1339L91.0739 42.9047L90.925 42.8455L85.8226 54.9772L68.1171 54.989L67.8449 64.08L67.9229 64.0845L89.2249 65.3108C89.3244 65.3166 89.4242 65.3194 89.5229 65.3194Z" fill="#0C0C0C"/>
<path d="M109.189 66.5798L115.97 131.969L115.65 132.001L108.869 66.6113L109.189 66.5798Z" fill="#494949"/>
<path d="M81.1725 66.5795L87.9536 131.969L87.6338 132L80.8527 66.611L81.1725 66.5795Z" fill="#494949"/>
<path d="M22.7534 66.5786L23.0732 66.6101L16.2968 132L15.977 131.968L22.7534 66.5786Z" fill="#494949"/>
<path d="M16.6432 65.3108H114.856C115.584 65.3108 116.173 65.8855 116.173 66.5945C116.173 67.3035 115.584 67.8783 114.856 67.8783H16.6432C15.9158 67.8783 15.3261 67.3035 15.3261 66.5945C15.3261 65.8855 15.9158 65.3108 16.6432 65.3108Z" fill="#292A2E"/>
<path opacity="0.8" d="M16.6432 65.3108H114.856C115.584 65.3108 116.173 65.8855 116.173 66.5945C116.173 67.3035 115.584 67.8783 114.856 67.8783H16.6432C15.9158 67.8783 15.3261 67.3035 15.3261 66.5945C15.3261 65.8855 15.9158 65.3108 16.6432 65.3108Z" fill="white"/>
<path d="M16.6428 68.035H114.855C115.051 68.037 115.245 68.0012 115.426 67.9297C115.607 67.8582 115.771 67.7524 115.91 67.6184C116.049 67.4845 116.159 67.325 116.235 67.1493C116.31 66.9735 116.349 66.785 116.349 66.5946C116.349 66.4041 116.31 66.2156 116.235 66.0398C116.159 65.8641 116.049 65.7046 115.91 65.5707C115.771 65.4367 115.607 65.3309 115.426 65.2594C115.245 65.1879 115.051 65.1521 114.855 65.1541H16.6428C16.4475 65.1521 16.2536 65.1879 16.0726 65.2594C15.8915 65.3309 15.7268 65.4367 15.5879 65.5707C15.449 65.7046 15.3388 65.8641 15.2635 66.0398C15.1883 66.2156 15.1496 66.4041 15.1496 66.5946C15.1496 66.785 15.1883 66.9735 15.2635 67.1493C15.3388 67.325 15.449 67.4845 15.5879 67.6184C15.7268 67.7524 15.8915 67.8582 16.0726 67.9297C16.2536 68.0012 16.4475 68.037 16.6428 68.035ZM114.855 65.4675C115.008 65.4657 115.16 65.4936 115.302 65.5494C115.444 65.6053 115.573 65.688 115.682 65.7929C115.791 65.8977 115.877 66.0225 115.936 66.1601C115.995 66.2978 116.025 66.4454 116.025 66.5946C116.025 66.7437 115.995 66.8913 115.936 67.029C115.877 67.1666 115.791 67.2914 115.682 67.3963C115.573 67.5011 115.444 67.5838 115.302 67.6397C115.16 67.6955 115.008 67.7234 114.855 67.7216H16.6428C16.4898 67.7234 16.338 67.6955 16.1961 67.6397C16.0543 67.5838 15.9252 67.5011 15.8163 67.3963C15.7075 67.2914 15.6211 67.1666 15.5622 67.029C15.5032 66.8913 15.4728 66.7437 15.4728 66.5946C15.4728 66.4454 15.5032 66.2978 15.5622 66.1601C15.6211 66.0225 15.7075 65.8977 15.8163 65.7929C15.9252 65.688 16.0543 65.6053 16.1961 65.5494C16.338 65.4936 16.4898 65.4657 16.6428 65.4675H114.855Z" fill="#292A2E"/>
<path d="M16.6426 65.3108H85.7679C86.4953 65.3108 87.085 65.8855 87.085 66.5945C87.085 67.3035 86.4953 67.8783 85.7679 67.8783H16.6426C15.9152 67.8783 15.3255 67.3035 15.3255 66.5945C15.3255 65.8855 15.9152 65.3108 16.6426 65.3108Z" fill="white"/>
<path d="M16.6426 68.035H85.768C86.1573 68.031 86.5292 67.8775 86.8031 67.6078C87.0769 67.3381 87.2305 66.974 87.2305 66.5946C87.2305 66.2151 87.0769 65.851 86.8031 65.5813C86.5292 65.3116 86.1573 65.1581 85.768 65.1541H16.6426C16.4473 65.1521 16.2535 65.1879 16.0724 65.2594C15.8913 65.3309 15.7266 65.4367 15.5877 65.5707C15.4488 65.7046 15.3386 65.8641 15.2633 66.0398C15.1881 66.2156 15.1494 66.4041 15.1494 66.5946C15.1494 66.785 15.1881 66.9735 15.2633 67.1493C15.3386 67.325 15.4488 67.4845 15.5877 67.6184C15.7266 67.7524 15.8913 67.8582 16.0724 67.9297C16.2535 68.0012 16.4473 68.037 16.6426 68.035ZM85.768 65.4675C86.0723 65.471 86.363 65.5913 86.5769 65.8023C86.7908 66.0132 86.9108 66.2979 86.9108 66.5946C86.9108 66.8912 86.7908 67.1759 86.5769 67.3869C86.363 67.5978 86.0723 67.7181 85.768 67.7216H16.6426C16.4896 67.7234 16.3378 67.6955 16.1959 67.6397C16.0541 67.5838 15.925 67.5011 15.8162 67.3963C15.7073 67.2914 15.6209 67.1666 15.562 67.029C15.503 66.8913 15.4726 66.7437 15.4726 66.5946C15.4726 66.4454 15.503 66.2978 15.562 66.1601C15.6209 66.0225 15.7073 65.8977 15.8162 65.7929C15.925 65.688 16.0541 65.6053 16.1959 65.5494C16.3378 65.4936 16.4896 65.4657 16.6426 65.4675H85.768Z" fill="#292A2E"/>
<path d="M13.9939 111.154C14.0151 111.154 14.036 111.15 14.0555 111.142C14.075 111.134 14.0927 111.123 14.1076 111.108C14.3341 110.887 14.7033 106.837 15.6976 94.7785C16.1045 89.8443 16.4888 85.1838 16.7693 82.3515C16.7892 82.1492 16.8697 82.1257 16.8961 82.1181C17.2801 82.0051 18.4476 82.9024 19.0994 83.6883C19.1262 83.7206 19.1651 83.7412 19.2075 83.7456C19.2499 83.75 19.2924 83.7378 19.3255 83.7116C19.3587 83.6855 19.3799 83.6476 19.3844 83.6062C19.3889 83.5649 19.3763 83.5235 19.3495 83.4912C18.9184 82.9716 17.5135 81.6096 16.8037 81.8179C16.6606 81.8598 16.4822 81.9811 16.4493 82.3214C16.1684 85.1562 15.7841 89.818 15.3771 94.7534C14.7729 102.081 14.0884 110.383 13.8634 110.906C13.8462 110.929 13.8359 110.957 13.8337 110.986C13.8315 111.014 13.8375 111.043 13.851 111.069C13.8645 111.094 13.885 111.116 13.9102 111.131C13.9354 111.146 13.9644 111.154 13.9939 111.154Z" fill="#494949"/>
<path d="M17.1821 87.5488C14.5148 85.4648 13.6308 82.221 15.2076 80.3037C16.7843 78.3863 20.2248 78.5214 22.8921 80.6054C25.5594 82.6895 26.4435 85.9332 24.8667 87.8506C23.2899 89.768 19.8494 89.6328 17.1821 87.5488Z" fill="#0CBC8B"/>
<path opacity="0.2" d="M17.1821 87.5488C14.5148 85.4648 13.6308 82.221 15.2076 80.3037C16.7843 78.3863 20.2248 78.5214 22.8921 80.6054C25.5594 82.6895 26.4435 85.9332 24.8667 87.8506C23.2899 89.768 19.8494 89.6328 17.1821 87.5488Z" fill="white"/>
<path d="M24.1188 88.3382C24.1341 88.3382 24.149 88.334 24.1619 88.326C24.1748 88.318 24.1851 88.3067 24.1916 88.2932C24.1981 88.2797 24.2005 88.2648 24.1986 88.25C24.1967 88.2353 24.1905 88.2213 24.1807 88.2099L16.5791 79.2747C16.5655 79.2587 16.5459 79.2486 16.5247 79.2467C16.5035 79.2448 16.4823 79.2511 16.4659 79.2644C16.4495 79.2777 16.4392 79.2968 16.4372 79.3175C16.4352 79.3382 16.4418 79.3588 16.4554 79.3748L24.057 88.31C24.0645 88.3188 24.074 88.326 24.0847 88.3308C24.0954 88.3357 24.107 88.3382 24.1188 88.3382Z" fill="white"/>
<path d="M12.3359 109.239C12.3615 109.239 12.3868 109.233 12.4096 109.221C12.4324 109.21 12.452 109.193 12.4669 109.173C12.4817 109.152 12.4914 109.129 12.495 109.104C12.4986 109.079 12.4961 109.054 12.4876 109.03L9.63207 101.026C9.548 100.791 9.40474 100.58 9.21541 100.413C9.02608 100.246 8.79673 100.128 8.54838 100.069C8.30002 100.011 8.0406 100.014 7.79387 100.079C7.54713 100.143 7.32097 100.267 7.1361 100.439L5.62642 101.845C5.59558 101.873 5.5777 101.913 5.57672 101.954C5.57574 101.996 5.59174 102.036 5.6212 102.066C5.65066 102.096 5.69116 102.114 5.7338 102.115C5.77644 102.116 5.81772 102.1 5.84857 102.071L7.35808 100.666C7.50403 100.53 7.68258 100.432 7.87738 100.381C8.07217 100.33 8.27698 100.327 8.47305 100.374C8.66912 100.42 8.85019 100.513 8.99966 100.645C9.14913 100.777 9.26222 100.944 9.3286 101.129L12.1838 109.133C12.1948 109.164 12.2154 109.191 12.2426 109.21C12.2699 109.228 12.3025 109.239 12.3359 109.239Z" fill="#494949"/>
<path d="M1.40913 106.276C-0.567593 104.751 -0.45012 101.397 1.67151 98.7841C3.79314 96.1715 7.1155 95.2898 9.09222 96.815C11.0689 98.3401 10.9515 101.694 8.82984 104.307C6.70821 106.92 3.38584 107.801 1.40913 106.276Z" fill="#0CBC8B"/>
<path d="M15.29 110.644C15.3261 110.644 15.3611 110.632 15.3895 110.61C15.4178 110.588 15.4378 110.558 15.4462 110.523L20.2388 90.9942C20.2716 90.8612 20.3414 90.7395 20.4405 90.6425C20.5397 90.5456 20.6643 90.4772 20.8007 90.4448C20.9371 90.4124 21.0801 90.4173 21.2138 90.459C21.3476 90.5006 21.467 90.5774 21.5588 90.6809L23.0361 92.3448C23.0498 92.3606 23.0666 92.3736 23.0855 92.383C23.1045 92.3924 23.1251 92.398 23.1463 92.3996C23.1675 92.4012 23.1887 92.3987 23.2089 92.3922C23.2291 92.3857 23.2477 92.3754 23.2638 92.3619C23.2799 92.3483 23.293 92.3318 23.3025 92.3133C23.3119 92.2947 23.3176 92.2746 23.319 92.2539C23.3204 92.2332 23.3176 92.2125 23.3108 92.1929C23.3039 92.1733 23.2932 92.1552 23.2791 92.1397L21.802 90.4759C21.6714 90.3288 21.5017 90.2196 21.3115 90.1605C21.1214 90.1013 20.9181 90.0944 20.7242 90.1405C20.5303 90.1866 20.3532 90.284 20.2123 90.4219C20.0715 90.5598 19.9725 90.7329 19.926 90.9222L15.1344 110.451C15.1247 110.492 15.1318 110.534 15.1541 110.569C15.1764 110.604 15.212 110.63 15.2533 110.639C15.2653 110.642 15.2776 110.644 15.29 110.644Z" fill="#494949"/>
<path d="M17.0583 96.6832C16.4758 93.3998 18.0174 90.3987 20.5015 89.98C22.9857 89.5613 25.4717 91.8835 26.0542 95.1668C26.6367 98.4502 25.0951 101.451 22.6109 101.87C20.1268 102.289 17.6408 99.9665 17.0583 96.6832Z" fill="#0CBC8B"/>
<path d="M13.9938 111.154C14.0004 111.154 14.007 111.154 14.0136 111.153C14.0345 111.15 14.0548 111.144 14.0732 111.134C14.0916 111.124 14.1077 111.11 14.1207 111.094C14.1337 111.078 14.1433 111.059 14.1489 111.039C14.1546 111.019 14.1562 110.999 14.1536 110.978L11.0937 86.7624C11.0604 86.4986 10.9496 86.2498 10.7746 86.0459C10.5997 85.842 10.3681 85.6917 10.1076 85.6131C9.84715 85.5344 9.56893 85.5308 9.30638 85.6025C9.04383 85.6743 8.80813 85.8185 8.62763 86.0177L5.13023 89.8787C5.10201 89.9099 5.08765 89.9507 5.0903 89.9922C5.09296 90.0337 5.11241 90.0725 5.14438 90.1C5.17635 90.1275 5.21823 90.1415 5.2608 90.1389C5.30336 90.1363 5.34312 90.1173 5.37134 90.0862L8.86874 86.2251C9.00822 86.0711 9.19038 85.9597 9.39329 85.9042C9.59621 85.8487 9.81124 85.8515 10.0126 85.9123C10.2139 85.9731 10.3929 86.0893 10.5281 86.2469C10.6633 86.4044 10.7489 86.5967 10.7746 86.8006L13.8343 111.016C13.8391 111.054 13.858 111.089 13.8874 111.115C13.9167 111.14 13.9546 111.154 13.9938 111.154Z" fill="#494949"/>
<path d="M1.54299 92.0245C0.32274 89.8742 1.75847 86.8236 4.74978 85.2108C7.74109 83.598 11.1552 84.0337 12.3755 86.184C13.5958 88.3342 12.16 91.3848 9.16871 92.9977C6.1774 94.6105 2.76324 94.1748 1.54299 92.0245Z" fill="#0CBC8B"/>
<path opacity="0.2" d="M1.40913 106.276C-0.567593 104.751 -0.45012 101.397 1.67151 98.7841C3.79314 96.1715 7.1155 95.2898 9.09222 96.815C11.0689 98.3401 10.9515 101.694 8.82984 104.307C6.70821 106.92 3.38584 107.801 1.40913 106.276Z" fill="white"/>
<path opacity="0.5" d="M17.0583 96.6832C16.4758 93.3998 18.0174 90.3987 20.5015 89.98C22.9857 89.5613 25.4717 91.8835 26.0542 95.1668C26.6367 98.4502 25.0951 101.451 22.6109 101.87C20.1268 102.289 17.6408 99.9665 17.0583 96.6832Z" fill="white"/>
<path opacity="0.5" d="M1.54299 92.0245C0.32274 89.8742 1.75847 86.8236 4.74978 85.2108C7.74109 83.598 11.1552 84.0337 12.3755 86.184C13.5958 88.3342 12.16 91.3848 9.16871 92.9977C6.1774 94.6105 2.76324 94.1748 1.54299 92.0245Z" fill="white"/>
<path d="M10.08 131.701H17.9074L19.2046 107.29H8.78297L10.08 131.701Z" fill="#292A2E"/>
<path opacity="0.3" d="M10.08 131.701H17.9074L19.2046 107.29H8.78297L10.08 131.701Z" fill="white"/>
<path d="M1.40906 106.353C1.42119 106.353 1.43316 106.351 1.44407 106.345C1.45498 106.34 1.46455 106.333 1.47207 106.324L9.15547 96.8624C9.16871 96.8461 9.17477 96.8253 9.17232 96.8047C9.16986 96.784 9.15908 96.7652 9.14237 96.7523C9.12566 96.7394 9.10438 96.7335 9.0832 96.7359C9.06203 96.7383 9.04269 96.7488 9.02945 96.7651L1.34605 106.226C1.33664 106.238 1.33077 106.252 1.32911 106.266C1.32744 106.281 1.33004 106.296 1.33662 106.309C1.3432 106.322 1.35349 106.334 1.36631 106.341C1.37912 106.349 1.39394 106.353 1.40906 106.353Z" fill="white"/>
<path d="M2.05403 92.7824C2.07115 92.7822 2.08776 92.7767 2.10145 92.7667L11.9333 85.7691C11.9505 85.7569 11.9621 85.7384 11.9653 85.7179C11.9686 85.6974 11.9634 85.6764 11.9508 85.6596C11.9383 85.6428 11.9194 85.6316 11.8983 85.6284C11.8772 85.6252 11.8557 85.6303 11.8385 85.6425L2.00661 92.6403C1.99311 92.6501 1.98315 92.6639 1.97812 92.6796C1.97309 92.6953 1.97326 92.7121 1.97859 92.7277C1.98392 92.7433 1.99416 92.7569 2.00784 92.7665C2.02153 92.7761 2.03797 92.7813 2.05484 92.7813L2.05403 92.7824Z" fill="white"/>
<path d="M23.0105 101.768C23.0175 101.768 23.0245 101.767 23.0312 101.765C23.0518 101.76 23.0693 101.747 23.08 101.729C23.0907 101.711 23.0936 101.689 23.0881 101.669L19.9584 90.2392C19.9524 90.2196 19.9389 90.2031 19.9206 90.1931C19.9024 90.1831 19.8809 90.1805 19.8606 90.1857C19.8404 90.191 19.8231 90.2037 19.8124 90.2212C19.8016 90.2387 19.7983 90.2596 19.8031 90.2794L22.9329 101.71C22.9374 101.726 22.9475 101.741 22.9615 101.752C22.9756 101.762 22.9928 101.768 23.0105 101.768Z" fill="white"/>
<path d="M6.30119 131.921H118.887C118.917 131.921 118.946 131.91 118.967 131.889C118.988 131.869 119 131.841 119 131.812C119 131.782 118.988 131.755 118.967 131.734C118.946 131.713 118.917 131.702 118.887 131.702H6.30151C6.27167 131.702 6.24304 131.713 6.22195 131.734C6.20084 131.755 6.18899 131.782 6.18899 131.812C6.18899 131.841 6.20084 131.869 6.22195 131.889C6.24304 131.91 6.27167 131.921 6.30151 131.921H6.30119Z" fill="#292A2E"/>
<g opacity="0.65">
<path d="M6.30119 131.921H118.887C118.917 131.921 118.946 131.91 118.967 131.889C118.988 131.869 119 131.841 119 131.812C119 131.782 118.988 131.755 118.967 131.734C118.946 131.713 118.917 131.702 118.887 131.702H6.30151C6.27167 131.702 6.24304 131.713 6.22195 131.734C6.20084 131.755 6.18899 131.782 6.18899 131.812C6.18899 131.841 6.20084 131.869 6.22195 131.889C6.24304 131.91 6.27167 131.921 6.30151 131.921H6.30119Z" fill="#292A2E"/>
</g>
</g>
<defs>
<clipPath id="clip0_1_569">
<rect width="119" height="132" fill="white" transform="matrix(-1 0 0 1 119 0)"/>
</clipPath>
</defs>
</svg>
