<svg width="22" height="22" viewBox="0 0 22 22" fill="none" xmlns="http://www.w3.org/2000/svg">
<path d="M9.30176 19.895L10.3857 20.979C10.8447 21.438 11.5869 21.438 12.041 20.979L21.5332 11.4917C21.9922 11.0327 21.9922 10.2905 21.5332 9.83643L12.041 0.344238C11.582 -0.114746 10.8398 -0.114746 10.3857 0.344238L9.30176 1.42822C8.83789 1.89209 8.84766 2.64893 9.32129 3.10303L15.2051 8.7085H1.17188C0.522461 8.7085 0 9.23096 0 9.88037V11.4429C0 12.0923 0.522461 12.6147 1.17188 12.6147H15.2051L9.32129 18.2202C8.84277 18.6743 8.83301 19.4312 9.30176 19.895Z" fill="white"/>
</svg>
