<svg width="331" height="338" viewBox="0 0 331 338" fill="none" xmlns="http://www.w3.org/2000/svg">
<g clip-path="url(#clip0_1_1331)">
<g opacity="0.7">
<path d="M281.498 2.94385H223.28V78.1578H281.498V2.94385Z" fill="#F4F4F4"/>
<path d="M281.498 78.1577H283.387V2.94376H281.498V78.1577Z" fill="#F4F4F4"/>
<path opacity="0.05" d="M281.498 78.1577H283.387V2.94376H281.498V78.1577Z" fill="#292A2E"/>
<path opacity="0.05" d="M270.893 17.9885H233.886V63.1133H270.893V17.9885Z" fill="#292A2E"/>
<path opacity="0.03" d="M270.893 17.9885H268.965V63.1133H270.893V17.9885Z" fill="#292A2E"/>
<path d="M329.111 98.468H281.498V150.837H329.111V98.468Z" fill="#F4F4F4"/>
<path opacity="0.05" d="M320.438 108.008H290.172V141.297H320.438V108.008Z" fill="#292A2E"/>
<path d="M329.111 150.837H331V98.4679H329.111V150.837Z" fill="#F4F4F4"/>
<path opacity="0.05" d="M329.111 150.837H331V98.4679H329.111V150.837Z" fill="#292A2E"/>
<path opacity="0.03" d="M320.437 108.008H318.509V141.297H320.437V108.008Z" fill="#292A2E"/>
</g>
<g opacity="0.7">
<path d="M162.296 0H25.2344V149.382H162.296V0Z" fill="#F4F4F4"/>
<path d="M25.2341 0H23.6631V149.382H25.2341V0Z" fill="#F4F4F4"/>
<path opacity="0.05" d="M25.2341 0H23.6631V149.382H25.2341V0Z" fill="#292A2E"/>
<path opacity="0.05" d="M58.4379 102.937V63.8535H87.8123V86.5599H133.313V126.765H152.652V149.382H133.313H129.588H31.8271V102.937H58.4379Z" fill="#292A2E"/>
<path opacity="0.34" d="M84.0423 68.0969H62.6514V72.3404H84.0423V68.0969Z" fill="#FFFFFA"/>
<path opacity="0.34" d="M84.0423 76.8906H62.6514V81.1341H84.0423V76.8906Z" fill="#FFFFFA"/>
<path opacity="0.34" d="M84.0423 85.6841H62.6514V89.9275H84.0423V85.6841Z" fill="#FFFFFA"/>
<path opacity="0.34" d="M39.5636 107.056H35.6211V111.299H39.5636V107.056Z" fill="#FFFFFA"/>
<path opacity="0.34" d="M39.5636 115.85H35.6211V120.093H39.5636V115.85Z" fill="#FFFFFA"/>
<path opacity="0.34" d="M39.5636 124.643H35.6211V128.887H39.5636V124.643Z" fill="#FFFFFA"/>
<path opacity="0.34" d="M46.8576 107.056H42.915V111.299H46.8576V107.056Z" fill="#FFFFFA"/>
<path opacity="0.34" d="M46.8576 115.85H42.915V120.093H46.8576V115.85Z" fill="#FFFFFA"/>
<path opacity="0.34" d="M46.8576 124.643H42.915V128.887H46.8576V124.643Z" fill="#FFFFFA"/>
<path opacity="0.34" d="M53.9542 107.056H50.0117V111.299H53.9542V107.056Z" fill="#FFFFFA"/>
<path opacity="0.34" d="M53.9542 115.85H50.0117V120.093H53.9542V115.85Z" fill="#FFFFFA"/>
<path opacity="0.34" d="M53.9542 124.643H50.0117V128.887H53.9542V124.643Z" fill="#FFFFFA"/>
<path d="M25.2344 73.8532H52.8135V0H55.0943V73.8532H129.589V0H131.869V73.8532H162.296V76.3391H131.869V149.382H129.589V76.3391H55.0943V149.382H52.8135V76.3391H25.2344V73.8532Z" fill="white"/>
<path d="M167.756 149.202H19.7744V154.17H167.756V149.202Z" fill="#F4F4F4"/>
<path opacity="0.1" d="M167.756 149.202H19.7744V154.17H167.756V149.202Z" fill="#292A2E"/>
<path opacity="0.1" d="M19.7741 149.202H17.6377V154.17H19.7741V149.202Z" fill="#292A2E"/>
<path opacity="0.1" d="M19.7741 149.202H17.6377V154.17H19.7741V149.202Z" fill="#292A2E"/>
</g>
<path d="M104.34 18.5491H264.767C267.078 18.5491 269.295 19.5496 270.929 21.3306C272.563 23.1115 273.481 25.527 273.481 28.0457V237.464C273.481 240.037 272.543 242.505 270.873 244.325C269.203 246.145 266.939 247.167 264.578 247.167H104.53C102.169 247.167 99.9041 246.145 98.2345 244.325C96.5649 242.505 95.627 240.037 95.627 237.464V28.0446C95.6272 25.5262 96.5453 23.111 98.1793 21.3303C99.8132 19.5496 102.029 18.5492 104.34 18.5491Z" fill="white"/>
<path d="M264.578 247.535H104.53C102.079 247.535 99.7288 246.474 97.9957 244.585C96.2627 242.697 95.2891 240.135 95.2891 237.464V27.6759C95.2892 25.1575 96.2073 22.7423 97.8413 20.9615C99.4753 19.1808 101.691 18.1804 104.002 18.1804H265.106C267.417 18.1804 269.633 19.1809 271.267 20.9618C272.901 22.7427 273.819 25.1581 273.82 27.6767V237.464C273.82 240.135 272.846 242.697 271.113 244.585C269.38 246.474 267.029 247.535 264.578 247.535ZM95.9658 28.0288V237.464C95.9657 238.689 96.1872 239.903 96.6176 241.036C97.048 242.168 97.6789 243.197 98.4742 244.064C99.2694 244.931 100.214 245.618 101.253 246.087C102.292 246.557 103.406 246.798 104.53 246.798H264.578C266.85 246.798 269.028 245.814 270.634 244.064C272.24 242.313 273.143 239.939 273.143 237.464V27.9366C273.143 26.7521 272.928 25.5793 272.512 24.485C272.096 23.3907 271.487 22.3965 270.718 21.559C269.95 20.7216 269.037 20.0573 268.033 19.6041C267.029 19.151 265.953 18.9178 264.866 18.918H104.326C102.109 18.918 99.9824 19.8778 98.4146 21.5864C96.8468 23.295 95.966 25.6124 95.9658 28.0288Z" fill="#292A2E"/>
<path d="M130.128 64.0103H110.687C109.603 64.0089 108.564 63.5393 107.798 62.7044C107.032 61.8695 106.601 60.7374 106.6 59.5566V38.367C106.601 37.186 107.032 36.0538 107.798 35.2188C108.564 34.3837 109.603 33.914 110.687 33.9126H130.128C131.212 33.9139 132.251 34.3836 133.017 35.2186C133.783 36.0537 134.214 37.186 134.216 38.367V59.5566C134.214 60.7375 133.783 61.8696 133.017 62.7045C132.251 63.5394 131.212 64.009 130.128 64.0103ZM110.687 34.6494C109.782 34.6506 108.916 35.0425 108.276 35.7393C107.637 36.4361 107.277 37.3808 107.276 38.3663V59.5566C107.277 60.542 107.637 61.4867 108.276 62.1835C108.916 62.8803 109.782 63.2723 110.687 63.2735H130.128C131.032 63.2724 131.899 62.8805 132.539 62.1837C133.178 61.4869 133.538 60.5421 133.539 59.5566V38.367C133.538 37.3815 133.178 36.4367 132.539 35.7399C131.899 35.0431 131.032 34.6512 130.128 34.6501L110.687 34.6494Z" fill="#292A2E"/>
<path d="M130.128 105.991H110.687C109.603 105.989 108.564 105.519 107.798 104.684C107.032 103.849 106.601 102.717 106.6 101.536V80.3469C106.601 79.1658 107.032 78.0335 107.798 77.1984C108.564 76.3633 109.603 75.8935 110.687 75.8921H130.128C131.212 75.8935 132.251 76.3632 133.017 77.1984C133.783 78.0335 134.214 79.1658 134.216 80.3469V101.536C134.214 102.717 133.783 103.849 133.017 104.684C132.251 105.52 131.212 105.989 130.128 105.991ZM110.687 76.6307C109.782 76.6319 108.916 77.0239 108.276 77.7208C107.637 78.4177 107.277 79.3625 107.276 80.348V101.537C107.277 102.523 107.637 103.467 108.276 104.164C108.916 104.861 109.782 105.253 110.687 105.254H130.128C131.032 105.253 131.899 104.861 132.539 104.164C133.178 103.467 133.538 102.523 133.539 101.537V80.3469C133.538 79.3613 133.178 78.4165 132.539 77.7197C131.899 77.0228 131.032 76.6308 130.128 76.6296L110.687 76.6307Z" fill="#292A2E"/>
<path d="M130.128 147.971H110.687C109.603 147.969 108.564 147.5 107.798 146.665C107.032 145.83 106.601 144.697 106.6 143.516V122.327C106.601 121.146 107.032 120.014 107.798 119.179C108.564 118.344 109.603 117.874 110.687 117.873H130.128C131.212 117.874 132.251 118.344 133.017 119.179C133.783 120.014 134.214 121.146 134.216 122.327V143.516C134.214 144.697 133.783 145.83 133.017 146.665C132.251 147.5 131.212 147.97 130.128 147.971ZM110.687 118.61C109.782 118.611 108.916 119.003 108.276 119.7C107.637 120.397 107.277 121.342 107.276 122.327V143.516C107.277 144.502 107.637 145.447 108.276 146.143C108.916 146.84 109.782 147.232 110.687 147.233H130.128C131.032 147.232 131.899 146.84 132.539 146.144C133.178 145.447 133.538 144.502 133.539 143.516V122.327C133.538 121.342 133.178 120.397 132.539 119.7C131.899 119.003 131.032 118.611 130.128 118.61H110.687Z" fill="#292A2E"/>
<path d="M130.128 189.374H110.687C109.603 189.373 108.564 188.903 107.798 188.068C107.032 187.233 106.601 186.101 106.6 184.92V163.731C106.601 162.55 107.032 161.417 107.798 160.582C108.564 159.747 109.603 159.277 110.687 159.276H130.128C131.212 159.277 132.251 159.747 133.017 160.582C133.783 161.417 134.214 162.55 134.216 163.731V184.92C134.214 186.101 133.783 187.233 133.017 188.068C132.251 188.903 131.212 189.373 130.128 189.374ZM110.687 160.013C109.782 160.014 108.916 160.406 108.276 161.103C107.637 161.8 107.277 162.745 107.276 163.731V184.92C107.277 185.905 107.637 186.85 108.276 187.547C108.916 188.244 109.782 188.636 110.687 188.637H130.128C131.032 188.636 131.899 188.244 132.539 187.547C133.178 186.85 133.538 185.905 133.539 184.92V163.731C133.538 162.745 133.178 161.8 132.539 161.103C131.899 160.406 131.033 160.014 130.128 160.013H110.687Z" fill="#292A2E"/>
<path d="M130.128 230.777H110.687C109.603 230.776 108.564 230.306 107.798 229.471C107.032 228.636 106.601 227.504 106.6 226.323V205.134C106.601 203.953 107.032 202.82 107.798 201.985C108.564 201.15 109.603 200.68 110.687 200.679H130.128C131.212 200.68 132.251 201.15 133.017 201.985C133.783 202.82 134.214 203.953 134.216 205.134V226.323C134.214 227.504 133.783 228.636 133.017 229.471C132.251 230.306 131.212 230.776 130.128 230.777ZM110.687 201.416C109.782 201.417 108.916 201.809 108.276 202.506C107.637 203.203 107.277 204.148 107.276 205.133V226.323C107.277 227.308 107.637 228.253 108.276 228.95C108.916 229.647 109.782 230.039 110.687 230.04H130.128C131.032 230.039 131.899 229.647 132.539 228.95C133.178 228.253 133.538 227.308 133.539 226.323V205.134C133.538 204.148 133.178 203.203 132.539 202.507C131.899 201.81 131.032 201.418 130.128 201.416L110.687 201.416Z" fill="#292A2E"/>
<path d="M116.949 99.4187C116.599 99.419 116.263 99.2713 116.011 99.0068L110.344 93.0696C110.216 92.9354 110.113 92.7749 110.042 92.5974C109.971 92.42 109.932 92.2289 109.929 92.0353C109.925 91.8416 109.957 91.649 110.022 91.4686C110.086 91.2882 110.183 91.1235 110.306 90.9838C110.43 90.8442 110.577 90.7323 110.74 90.6546C110.902 90.577 111.078 90.535 111.255 90.5312C111.433 90.5274 111.61 90.5617 111.775 90.6323C111.941 90.7029 112.092 90.8083 112.22 90.9425L116.926 95.8734L128.721 82.9C128.975 82.6267 129.317 82.4735 129.674 82.4736C130.03 82.4738 130.372 82.6273 130.626 82.9008C130.879 83.1743 131.023 83.5457 131.027 83.9343C131.03 84.3229 130.893 84.6973 130.644 84.9762L117.91 98.9803C117.785 99.1192 117.635 99.2295 117.47 99.3048C117.305 99.3801 117.128 99.4188 116.949 99.4187Z" fill="#0CBC8B"/>
<path d="M116.949 141.399C116.599 141.399 116.263 141.252 116.011 140.987L110.344 135.05C110.085 134.779 109.936 134.407 109.929 134.016C109.922 133.625 110.058 133.247 110.306 132.964C110.555 132.682 110.897 132.52 111.255 132.512C111.614 132.504 111.961 132.652 112.22 132.923L116.926 137.853L128.721 124.88C128.974 124.602 129.318 124.445 129.677 124.443C130.036 124.442 130.381 124.595 130.636 124.871C130.891 125.146 131.035 125.52 131.036 125.912C131.038 126.303 130.897 126.679 130.644 126.957L117.91 140.961C117.785 141.1 117.635 141.21 117.47 141.285C117.305 141.36 117.128 141.399 116.949 141.399Z" fill="#0CBC8B"/>
<path opacity="0.5" d="M258.864 42.4001H144.842C144.32 42.4001 143.897 42.861 143.897 43.4294C143.897 43.9978 144.32 44.4586 144.842 44.4586H258.864C259.385 44.4586 259.808 43.9978 259.808 43.4294C259.808 42.861 259.385 42.4001 258.864 42.4001Z" fill="#262626"/>
<path opacity="0.5" d="M218.261 53.4634H144.842C144.32 53.4634 143.897 53.9242 143.897 54.4926C143.897 55.0611 144.32 55.5219 144.842 55.5219H218.261C218.783 55.5219 219.205 55.0611 219.205 54.4926C219.205 53.9242 218.783 53.4634 218.261 53.4634Z" fill="#262626"/>
<path opacity="0.5" d="M258.864 84.3804H144.842C144.32 84.3804 143.897 84.8412 143.897 85.4096C143.897 85.978 144.32 86.4389 144.842 86.4389H258.864C259.385 86.4389 259.808 85.978 259.808 85.4096C259.808 84.8412 259.385 84.3804 258.864 84.3804Z" fill="#262626"/>
<path opacity="0.5" d="M218.261 95.4436H144.842C144.32 95.4436 143.897 95.9044 143.897 96.4728C143.897 97.0413 144.32 97.5021 144.842 97.5021H218.261C218.783 97.5021 219.205 97.0413 219.205 96.4728C219.205 95.9044 218.783 95.4436 218.261 95.4436Z" fill="#262626"/>
<path opacity="0.5" d="M258.864 126.361H144.842C144.32 126.361 143.897 126.822 143.897 127.39C143.897 127.959 144.32 128.419 144.842 128.419H258.864C259.385 128.419 259.808 127.959 259.808 127.39C259.808 126.822 259.385 126.361 258.864 126.361Z" fill="#262626"/>
<path opacity="0.5" d="M218.261 137.424H144.842C144.32 137.424 143.897 137.885 143.897 138.453C143.897 139.021 144.32 139.482 144.842 139.482H218.261C218.783 139.482 219.205 139.021 219.205 138.453C219.205 137.885 218.783 137.424 218.261 137.424Z" fill="#262626"/>
<path opacity="0.5" d="M258.864 167.764H144.842C144.32 167.764 143.897 168.225 143.897 168.793C143.897 169.362 144.32 169.823 144.842 169.823H258.864C259.385 169.823 259.808 169.362 259.808 168.793C259.808 168.225 259.385 167.764 258.864 167.764Z" fill="#262626"/>
<path opacity="0.5" d="M218.261 178.827H144.842C144.32 178.827 143.897 179.288 143.897 179.857C143.897 180.425 144.32 180.886 144.842 180.886H218.261C218.783 180.886 219.205 180.425 219.205 179.857C219.205 179.288 218.783 178.827 218.261 178.827Z" fill="#262626"/>
<path opacity="0.5" d="M258.864 209.167H144.842C144.32 209.167 143.897 209.628 143.897 210.196C143.897 210.765 144.32 211.226 144.842 211.226H258.864C259.385 211.226 259.808 210.765 259.808 210.196C259.808 209.628 259.385 209.167 258.864 209.167Z" fill="#262626"/>
<path opacity="0.5" d="M218.261 220.23H144.842C144.32 220.23 143.897 220.691 143.897 221.26C143.897 221.828 144.32 222.289 144.842 222.289H218.261C218.783 222.289 219.205 221.828 219.205 221.26C219.205 220.691 218.783 220.23 218.261 220.23Z" fill="#262626"/>
<path d="M115.973 56.5055C116.072 56.2413 116.247 56.0195 116.472 55.8737C116.697 55.728 116.959 55.6664 117.219 55.6983C117.219 55.6754 117.201 55.6201 117.238 55.6205L116.392 55.0378C116.139 54.872 115.95 54.612 115.859 54.3058C115.768 53.9997 115.782 53.6681 115.898 53.3724C116.022 53.0843 116.239 52.8564 116.508 52.733C116.777 52.6096 117.078 52.5995 117.353 52.7046C117.351 52.692 117.358 52.6795 117.359 52.6677L117.011 52.4284C116.773 52.2711 116.593 52.0291 116.5 51.7433C116.407 51.4576 116.408 51.1457 116.501 50.8603C116.564 50.6829 116.662 50.5227 116.788 50.3913C116.914 50.26 117.065 50.1607 117.23 50.1008C117.396 50.0408 117.571 50.0216 117.745 50.0445C117.918 50.0675 118.084 50.132 118.231 50.2334L119.035 50.7866C119.037 50.7814 119.035 50.7759 119.037 50.7711C119.039 50.7663 119.048 50.7641 119.052 50.7586C118.863 50.5528 118.745 50.2834 118.715 49.9945C118.685 49.7055 118.746 49.4141 118.889 49.1681C119.218 48.5068 120.065 48.5836 120.584 48.9409L122.14 50.2054C122.381 50.4005 122.573 50.6573 122.699 50.9529C122.826 51.2485 122.884 51.5737 122.868 51.8995C122.73 54.7199 122.206 62.0776 120.549 60.9345L116.468 58.1266C116.232 57.955 116.055 57.7023 115.965 57.4087C115.876 57.1151 115.879 56.7972 115.973 56.5055Z" fill="#E98862"/>
<path d="M116.949 57.018C116.6 57.0183 116.263 56.8706 116.011 56.6061L110.345 50.6689C110.215 50.5351 110.11 50.3746 110.037 50.1967C109.964 50.0187 109.925 49.8267 109.92 49.6319C109.916 49.437 109.947 49.2432 110.012 49.0615C110.077 48.8799 110.174 48.714 110.298 48.5735C110.422 48.433 110.57 48.3207 110.734 48.243C110.898 48.1653 111.074 48.1238 111.253 48.1209C111.432 48.118 111.609 48.1537 111.776 48.226C111.942 48.2983 112.093 48.4058 112.221 48.5422L116.926 53.4719L128.722 40.4996C128.847 40.362 128.996 40.2526 129.16 40.1776C129.323 40.1027 129.499 40.0637 129.677 40.0628C129.855 40.0619 130.031 40.0991 130.195 40.1725C130.36 40.2458 130.51 40.3537 130.636 40.49C130.762 40.6264 130.863 40.7885 130.931 40.9671C131 41.1457 131.036 41.3374 131.037 41.5311C131.038 41.7248 131.003 41.9168 130.936 42.0961C130.869 42.2754 130.77 42.4386 130.645 42.5762L117.911 56.5803C117.785 56.7191 117.635 56.8292 117.47 56.9044C117.305 56.9795 117.128 57.0182 116.949 57.018Z" fill="#0CBC8B"/>
<path d="M113.049 53.4173C113.078 53.2024 113.146 52.9962 113.25 52.8111C113.354 52.6259 113.491 52.4659 113.654 52.3405C113.817 52.2152 114.001 52.1274 114.196 52.0823C114.39 52.0372 114.592 52.0358 114.787 52.0782C115.162 52.1749 115.49 52.423 115.704 52.7726C115.918 53.1222 116.002 53.5473 115.939 53.9619L115.899 56.2266C115.89 56.7056 116.043 57.1715 116.328 57.5363C116.613 57.9011 117.01 58.1397 117.445 58.2069C117.872 58.2728 118.306 58.1698 118.669 57.9165C119.032 57.6632 119.299 57.2765 119.422 56.8266L120.482 52.9607L119.33 51.0848C119.733 50.3767 120.071 48.5458 120.77 49.0912C121.361 49.4917 122.703 50.4601 123.071 51.3776C123.078 51.3813 123.765 59.2534 123.391 59.9099L120.083 69.5554C118.496 72.3404 110.836 70.1853 110.836 70.1853L113.049 53.4173Z" fill="#E98862"/>
<path d="M116.927 53.4719L128.722 40.4996C128.847 40.362 128.996 40.2526 129.16 40.1776C129.324 40.1027 129.5 40.0637 129.677 40.0628C129.855 40.0619 130.031 40.0991 130.196 40.1725C130.36 40.2458 130.51 40.3537 130.636 40.49C130.763 40.6264 130.863 40.7885 130.932 40.9671C131 41.1457 131.036 41.3374 131.037 41.5311C131.038 41.7248 131.004 41.9168 130.936 42.0961C130.869 42.2754 130.77 42.4386 130.645 42.5762L117.911 56.5803" fill="#0CBC8B"/>
<path d="M56.7248 120.518L104.463 116.139C107.977 116.24 111.038 113.055 112.327 109.481L124.834 66.7557L108.473 59.7461L97.4328 96.3441L55.4492 99.5465L56.7248 120.518Z" fill="#A9F8FD"/>
<path d="M29.0069 321.68C29.0069 321.68 30.5346 330.309 37.949 330.791C45.3634 331.274 43.7555 337.71 43.7555 337.71H15.4219V322.281L29.0069 321.68Z" fill="#A9F8FD"/>
<path d="M20.268 164.239C20.268 164.239 20.357 161.645 20.3381 167.53C20.268 189.483 19.9185 214.558 19.0645 229.231C17.6918 252.819 14.1719 327.187 14.1719 327.187L32.7903 327.017L50.8355 163.348L20.268 164.239Z" fill="#262626"/>
<path d="M41.293 190.127C41.293 190.127 42.0644 206.058 42.2065 209.797C42.5374 218.447 42.6525 227.402 42.6525 237.556L45.5881 210.938C45.5881 210.938 43.4405 202.596 41.293 190.127Z" fill="#0A0A0A"/>
<path d="M62.1524 321.68C62.1524 321.68 63.6801 330.309 71.0945 330.791C78.5089 331.274 76.901 337.71 76.901 337.71H48.5674V322.281L62.1524 321.68Z" fill="#A9F8FD"/>
<path d="M71.168 165.944C71.168 165.944 72.8172 240.973 72.5756 244.64L65.6518 326.618L47.341 326.987L49.1255 241.674C49.1255 241.674 47.8668 218.14 42.6496 196.288C39.9804 185.072 38.3739 173.588 37.8555 162.015L71.168 165.944Z" fill="#262626"/>
<path d="M20.0648 164.237L20.0039 164.241C20.0039 164.241 20.0482 162.96 20.0648 164.237Z" fill="#333333"/>
<path d="M73.7885 126.511C73.4048 131.427 71.5367 159.888 71.1675 165.944H20.2882C20.0009 160.482 18.7101 136.599 17.6202 125.918C16.5798 115.726 14.5385 110.623 16.0347 107.61C18.4797 102.685 25.1609 99.8399 29.7165 99.1676C32.4985 98.7572 56.2152 98.4622 56.2721 98.4622C58.1351 98.4622 68.9828 99.4165 71.3807 101.429C75.7195 105.071 74.4591 117.937 73.7885 126.511Z" fill="#A9F8FD"/>
<path d="M74.491 119.033C74.5343 119.033 74.5759 119.015 74.6073 118.983C74.6388 118.951 74.6577 118.907 74.6602 118.86L75.0707 111.79C75.0732 111.741 75.0579 111.693 75.0281 111.657C74.9983 111.62 74.9564 111.598 74.9116 111.595C74.867 111.593 74.8233 111.61 74.7899 111.642C74.7565 111.675 74.7361 111.72 74.733 111.768L74.3225 118.838C74.32 118.887 74.3353 118.935 74.3651 118.971C74.3949 119.008 74.4368 119.03 74.4816 119.033L74.491 119.033Z" fill="#0C0C0C"/>
<path d="M9.28801 165.622C7.7917 165.622 6.31765 165.227 4.9913 164.472C3.66495 163.717 2.52554 162.625 1.67003 161.287C0.814515 159.949 0.268219 158.405 0.0776225 156.788C-0.112974 155.17 0.0577694 153.526 0.575325 151.996C1.09944 150.443 13.4224 114.877 15.7675 108.287L33.1384 115.958C31.8188 119.663 27.0402 133.707 23.2006 145.021L29.5792 144.265L31.5871 164.395L10.2926 165.563C9.95896 165.602 9.62361 165.622 9.28801 165.622Z" fill="#A9F8FD"/>
<path d="M62.3332 97.7894C62.2764 97.7813 60.7156 104.182 48.5357 103.186C40.1039 102.498 38.0467 96.2424 37.8545 96.2424C38.7637 96.0319 40.2402 95.8132 40.6439 95.5787C41.9716 94.8009 42.939 93.8547 43.4255 91.8231C43.8062 90.2348 44.0007 84.1195 44.0007 81.0513L56.9757 84.229C56.7947 87.6899 55.5289 95.7136 59.9654 97.1338C60.7034 97.3683 61.4985 97.584 62.3332 97.7894Z" fill="#E98862"/>
<path d="M56.5269 91.0327C51.412 91.4726 44.8411 89.1188 43.5929 81.681L42.4668 74.9694C41.2186 67.5316 43.7911 60.7875 50.2169 59.5068C56.6423 58.226 62.4569 63.2985 63.7048 70.7362L64.2035 73.7074C64.6823 76.5617 65.653 90.248 56.5269 91.0327Z" fill="#E98862"/>
<path d="M61.2691 84.2038C60.3512 79.1759 59.9299 75.8212 59.979 72.2825C61.2722 69.8117 60.9321 66.9722 60.6381 65.7464C61.5288 66.3628 62.5759 66.6554 63.6288 66.582C63.6288 66.582 61.4901 57.227 54.2208 54.7098C52.884 54.143 49.471 53.4268 44.9394 54.1043C41.0851 54.6803 31.5841 57.8211 30.2266 69.4791V69.4857C30.1819 69.8726 29.2697 80.6138 27.4521 85.7674C25.0074 92.6951 21.5748 94.8476 21.6618 102.842C21.7738 113.123 39.1169 114.492 49.5762 113.723C60.0355 112.954 65.8762 109.205 65.9526 101.795C66.0359 93.4924 63.1064 94.2635 61.2691 84.2038Z" fill="#0A0A0A"/>
<path d="M19.2044 126.123L18.8662 126.136L20.1164 165.95L20.4545 165.938L19.2044 126.123Z" fill="#0C0C0C"/>
<path d="M323.297 337.968H5.10013C5.03731 337.968 4.97707 337.941 4.93265 337.893C4.88824 337.844 4.86328 337.779 4.86328 337.71C4.86328 337.642 4.88824 337.576 4.93265 337.528C4.97707 337.479 5.03731 337.452 5.10013 337.452H323.297C323.36 337.452 323.42 337.479 323.465 337.528C323.509 337.576 323.534 337.642 323.534 337.71C323.534 337.779 323.509 337.844 323.465 337.893C323.42 337.941 323.36 337.968 323.297 337.968Z" fill="#292A2E"/>
<path d="M290.453 289.639C290.363 289.639 290.277 289.6 290.214 289.531C289.737 289.011 288.96 279.479 286.867 251.096C286.011 239.483 285.201 228.514 284.611 221.847C284.569 221.371 284.4 221.315 284.344 221.297C283.536 221.032 281.078 223.144 279.706 224.993C279.678 225.031 279.644 225.062 279.604 225.085C279.565 225.108 279.523 225.123 279.478 225.128C279.434 225.133 279.39 225.129 279.347 225.115C279.304 225.101 279.265 225.078 279.23 225.048C279.195 225.018 279.167 224.98 279.146 224.937C279.124 224.895 279.111 224.848 279.106 224.8C279.102 224.752 279.106 224.703 279.118 224.657C279.131 224.61 279.152 224.567 279.18 224.529C280.087 223.306 283.044 220.101 284.538 220.591C284.84 220.69 285.215 220.975 285.285 221.776C285.876 228.448 286.685 239.421 287.541 251.037C288.813 268.284 290.254 287.824 290.728 289.055C290.764 289.11 290.786 289.175 290.79 289.243C290.795 289.31 290.782 289.378 290.754 289.438C290.726 289.499 290.682 289.549 290.629 289.585C290.576 289.62 290.515 289.639 290.453 289.639Z" fill="#494949"/>
<path d="M283.741 234.08C289.356 229.174 291.217 221.54 287.898 217.027C284.579 212.514 277.336 212.832 271.722 217.737C266.107 222.642 264.246 230.277 267.565 234.79C270.884 239.303 278.127 238.985 283.741 234.08Z" fill="#0CBC8B"/>
<path opacity="0.2" d="M283.741 234.08C289.356 229.174 291.217 221.54 287.898 217.027C284.579 212.514 277.336 212.832 271.722 217.737C266.107 222.642 264.246 230.277 267.565 234.79C270.884 239.303 278.127 238.985 283.741 234.08Z" fill="white"/>
<path d="M269.14 235.938C269.107 235.938 269.076 235.928 269.049 235.909C269.022 235.89 269 235.863 268.987 235.832C268.973 235.8 268.968 235.765 268.972 235.73C268.976 235.695 268.989 235.663 269.01 235.636L285.011 214.605C285.025 214.586 285.042 214.57 285.062 214.558C285.082 214.547 285.103 214.539 285.126 214.537C285.148 214.534 285.171 214.537 285.192 214.544C285.214 214.551 285.234 214.563 285.251 214.578C285.268 214.594 285.283 214.613 285.293 214.635C285.303 214.657 285.31 214.681 285.311 214.705C285.313 214.729 285.311 214.754 285.304 214.777C285.297 214.801 285.286 214.822 285.271 214.841L269.27 235.871C269.254 235.892 269.234 235.909 269.211 235.92C269.189 235.932 269.164 235.938 269.14 235.938Z" fill="white"/>
<path d="M293.943 285.13C293.889 285.13 293.836 285.116 293.788 285.089C293.74 285.062 293.698 285.023 293.667 284.975C293.636 284.927 293.615 284.872 293.608 284.814C293.6 284.755 293.606 284.696 293.623 284.64L299.634 265.801C299.811 265.247 300.112 264.751 300.511 264.357C300.909 263.964 301.392 263.686 301.915 263.548C302.438 263.41 302.984 263.418 303.503 263.57C304.023 263.722 304.499 264.014 304.888 264.419L308.065 267.729C308.13 267.796 308.168 267.889 308.17 267.987C308.172 268.085 308.138 268.179 308.076 268.25C308.014 268.321 307.929 268.362 307.839 268.364C307.75 268.366 307.663 268.329 307.598 268.262L304.42 264.953C304.113 264.634 303.737 264.404 303.327 264.284C302.917 264.164 302.486 264.158 302.074 264.266C301.661 264.375 301.28 264.595 300.965 264.905C300.651 265.216 300.412 265.607 300.273 266.044L294.262 284.883C294.239 284.955 294.196 285.018 294.139 285.062C294.081 285.107 294.013 285.13 293.943 285.13Z" fill="#494949"/>
<path d="M316.943 278.158C321.104 274.569 320.857 266.674 316.391 260.524C311.925 254.375 304.931 252.3 300.77 255.89C296.609 259.479 296.857 267.374 301.323 273.524C305.789 279.673 312.782 281.748 316.943 278.158Z" fill="#0CBC8B"/>
<path d="M287.722 288.438C287.646 288.438 287.572 288.41 287.512 288.358C287.453 288.307 287.411 288.235 287.393 288.154L277.307 242.189C277.238 241.876 277.091 241.589 276.882 241.361C276.674 241.133 276.411 240.972 276.124 240.895C275.837 240.819 275.536 240.831 275.254 240.929C274.972 241.027 274.721 241.208 274.528 241.452L271.419 245.368C271.36 245.442 271.277 245.487 271.187 245.494C271.098 245.501 271.009 245.469 270.941 245.405C270.873 245.341 270.832 245.251 270.825 245.153C270.819 245.055 270.848 244.959 270.907 244.885L274.016 240.969C274.291 240.623 274.648 240.366 275.049 240.226C275.449 240.087 275.877 240.071 276.285 240.179C276.693 240.288 277.066 240.517 277.362 240.842C277.659 241.166 277.867 241.574 277.965 242.019L288.052 287.984C288.064 288.039 288.064 288.095 288.053 288.15C288.042 288.204 288.02 288.255 287.988 288.299C287.956 288.343 287.916 288.378 287.87 288.402C287.824 288.427 287.773 288.439 287.722 288.439V288.438Z" fill="#494949"/>
<path d="M283.801 255.586C285.024 247.861 281.779 240.802 276.552 239.818C271.325 238.835 266.095 244.3 264.872 252.025C263.649 259.75 266.895 266.81 272.122 267.793C277.349 268.776 282.578 263.311 283.801 255.586Z" fill="#0CBC8B"/>
<path d="M290.453 289.639C290.439 289.639 290.425 289.638 290.411 289.636C290.367 289.63 290.324 289.615 290.286 289.591C290.247 289.567 290.213 289.535 290.186 289.497C290.159 289.459 290.138 289.415 290.126 289.368C290.115 289.322 290.111 289.273 290.117 289.225L296.558 232.229C296.628 231.608 296.861 231.022 297.229 230.542C297.597 230.062 298.085 229.709 298.633 229.523C299.181 229.338 299.767 229.33 300.32 229.499C300.872 229.668 301.369 230.007 301.748 230.476L309.11 239.564C309.17 239.637 309.2 239.733 309.195 239.831C309.189 239.928 309.148 240.02 309.081 240.084C309.014 240.149 308.925 240.182 308.836 240.176C308.746 240.17 308.662 240.126 308.603 240.052L301.241 230.965C300.947 230.602 300.564 230.34 300.137 230.209C299.71 230.078 299.257 230.085 298.833 230.228C298.41 230.371 298.033 230.645 297.748 231.015C297.464 231.386 297.283 231.839 297.229 232.319L290.788 289.315C290.778 289.405 290.739 289.487 290.677 289.546C290.615 289.606 290.536 289.639 290.453 289.639Z" fill="#494949"/>
<path d="M316.661 244.614C319.23 239.553 316.208 232.373 309.911 228.577C303.614 224.781 296.428 225.806 293.859 230.867C291.29 235.928 294.312 243.109 300.609 246.905C306.906 250.701 314.093 249.675 316.661 244.614Z" fill="#0CBC8B"/>
<path opacity="0.2" d="M316.943 278.158C321.104 274.569 320.857 266.674 316.391 260.524C311.925 254.375 304.931 252.3 300.77 255.89C296.609 259.479 296.857 267.374 301.323 273.524C305.789 279.673 312.782 281.748 316.943 278.158Z" fill="white"/>
<path opacity="0.5" d="M283.801 255.586C285.024 247.861 281.779 240.802 276.552 239.818C271.325 238.835 266.095 244.3 264.872 252.025C263.649 259.75 266.895 266.81 272.122 267.793C277.349 268.776 282.578 263.311 283.801 255.586Z" fill="white"/>
<path opacity="0.5" d="M316.661 244.614C319.23 239.553 316.208 232.373 309.911 228.577C303.614 224.781 296.428 225.806 293.859 230.867C291.29 235.928 294.312 243.109 300.609 246.905C306.906 250.701 314.093 249.675 316.661 244.614Z" fill="white"/>
<path d="M298.692 338H282.215L279.484 280.544H301.422L298.692 338Z" fill="#292A2E"/>
<path opacity="0.3" d="M298.692 338H282.215L279.484 280.544H301.422L298.692 338Z" fill="white"/>
<path d="M316.944 278.34C316.918 278.34 316.893 278.334 316.87 278.322C316.847 278.31 316.826 278.292 316.811 278.27L300.637 256.001C300.609 255.963 300.597 255.914 300.602 255.866C300.607 255.817 300.63 255.773 300.665 255.742C300.7 255.712 300.745 255.698 300.79 255.704C300.834 255.709 300.875 255.734 300.903 255.772L317.076 278.041C317.096 278.068 317.108 278.101 317.112 278.135C317.115 278.17 317.11 278.205 317.096 278.236C317.082 278.267 317.061 278.293 317.034 278.312C317.007 278.33 316.975 278.34 316.944 278.34Z" fill="white"/>
<path d="M315.586 246.398C315.55 246.398 315.515 246.385 315.486 246.362L294.79 229.893C294.772 229.878 294.757 229.86 294.745 229.84C294.734 229.819 294.726 229.796 294.723 229.772C294.719 229.748 294.72 229.724 294.725 229.7C294.731 229.677 294.74 229.654 294.753 229.635C294.766 229.615 294.783 229.599 294.802 229.586C294.821 229.573 294.842 229.565 294.864 229.561C294.886 229.558 294.908 229.559 294.93 229.564C294.951 229.57 294.972 229.58 294.99 229.595L315.687 246.065C315.715 246.088 315.736 246.121 315.747 246.158C315.758 246.194 315.757 246.234 315.746 246.271C315.735 246.308 315.713 246.339 315.684 246.362C315.656 246.385 315.621 246.397 315.586 246.397V246.398Z" fill="white"/>
<path d="M271.472 267.547C271.457 267.547 271.443 267.545 271.428 267.54C271.385 267.528 271.348 267.497 271.325 267.455C271.303 267.412 271.297 267.362 271.308 267.315L277.897 240.412C277.902 240.388 277.912 240.366 277.926 240.346C277.939 240.326 277.956 240.31 277.975 240.298C277.995 240.285 278.016 240.277 278.038 240.274C278.06 240.27 278.083 240.272 278.105 240.278C278.126 240.285 278.147 240.295 278.165 240.31C278.182 240.325 278.197 240.344 278.208 240.365C278.219 240.387 278.226 240.41 278.229 240.434C278.232 240.459 278.23 240.483 278.224 240.507L271.635 267.41C271.626 267.449 271.605 267.484 271.575 267.508C271.546 267.533 271.509 267.547 271.472 267.547Z" fill="white"/>
</g>
<defs>
<clipPath id="clip0_1_1331">
<rect width="331" height="338" fill="white"/>
</clipPath>
</defs>
</svg>
